G04 EAGLE Gerber RS-274X export*
G75*
%MOMM*%
%FSLAX34Y34*%
%LPD*%
%INBottom Paste*%
%IPPOS*%
%AMOC8*
5,1,8,0,0,1.08239X$1,22.5*%
G01*
G04 Define Apertures*
%ADD10R,2.540000X7.000000*%
%ADD11R,1.420200X1.031200*%
%ADD12R,1.031200X1.420200*%
%ADD13R,1.640000X1.640000*%
%ADD14C,0.065000*%
%ADD15R,2.000000X1.050000*%
%ADD16C,0.254000*%
D10*
X114300Y0D03*
X-114300Y0D03*
D11*
X-146050Y10465D03*
X-146050Y-7925D03*
D12*
G36*
X124687Y79775D02*
X131979Y72483D01*
X121937Y62441D01*
X114645Y69733D01*
X124687Y79775D01*
G37*
G36*
X111683Y92779D02*
X118975Y85487D01*
X108933Y75445D01*
X101641Y82737D01*
X111683Y92779D01*
G37*
D11*
X144780Y7925D03*
X144780Y-10465D03*
D12*
G36*
X-115915Y69733D02*
X-123207Y62441D01*
X-133249Y72483D01*
X-125957Y79775D01*
X-115915Y69733D01*
G37*
G36*
X-102911Y82737D02*
X-110203Y75445D01*
X-120245Y85487D01*
X-112953Y92779D01*
X-102911Y82737D01*
G37*
D13*
G36*
X-56999Y124201D02*
X-48799Y109999D01*
X-63001Y101799D01*
X-71201Y116001D01*
X-56999Y124201D01*
G37*
D14*
X-66925Y93443D02*
X-73376Y89719D01*
X-74351Y91407D01*
X-67900Y95131D01*
X-66925Y93443D01*
X-72307Y90336D02*
X-73732Y90336D01*
X-74089Y90953D02*
X-71238Y90953D01*
X-70170Y91570D02*
X-74069Y91570D01*
X-73000Y92187D02*
X-69101Y92187D01*
X-68032Y92804D02*
X-71931Y92804D01*
X-70862Y93421D02*
X-66963Y93421D01*
X-67269Y94038D02*
X-69793Y94038D01*
X-68725Y94655D02*
X-67625Y94655D01*
X-69425Y97773D02*
X-75876Y94049D01*
X-76851Y95737D01*
X-70400Y99461D01*
X-69425Y97773D01*
X-74807Y94666D02*
X-76232Y94666D01*
X-76589Y95283D02*
X-73738Y95283D01*
X-72670Y95900D02*
X-76569Y95900D01*
X-75500Y96517D02*
X-71601Y96517D01*
X-70532Y97134D02*
X-74431Y97134D01*
X-73362Y97751D02*
X-69463Y97751D01*
X-69769Y98368D02*
X-72293Y98368D01*
X-71225Y98985D02*
X-70125Y98985D01*
X-71925Y102103D02*
X-78376Y98379D01*
X-79351Y100067D01*
X-72900Y103791D01*
X-71925Y102103D01*
X-77307Y98996D02*
X-78732Y98996D01*
X-79089Y99613D02*
X-76238Y99613D01*
X-75170Y100230D02*
X-79069Y100230D01*
X-78000Y100847D02*
X-74101Y100847D01*
X-73032Y101464D02*
X-76931Y101464D01*
X-75862Y102081D02*
X-71963Y102081D01*
X-72269Y102698D02*
X-74793Y102698D01*
X-73725Y103315D02*
X-72625Y103315D01*
X-74425Y106433D02*
X-80876Y102709D01*
X-81851Y104397D01*
X-75400Y108121D01*
X-74425Y106433D01*
X-79807Y103326D02*
X-81232Y103326D01*
X-81589Y103943D02*
X-78738Y103943D01*
X-77670Y104560D02*
X-81569Y104560D01*
X-80500Y105177D02*
X-76601Y105177D01*
X-75532Y105794D02*
X-79431Y105794D01*
X-78362Y106411D02*
X-74463Y106411D01*
X-74769Y107028D02*
X-77293Y107028D01*
X-76225Y107645D02*
X-75125Y107645D01*
X-76925Y110763D02*
X-83376Y107039D01*
X-84351Y108727D01*
X-77900Y112451D01*
X-76925Y110763D01*
X-82307Y107656D02*
X-83732Y107656D01*
X-84089Y108273D02*
X-81238Y108273D01*
X-80170Y108890D02*
X-84069Y108890D01*
X-83000Y109507D02*
X-79101Y109507D01*
X-78032Y110124D02*
X-81931Y110124D01*
X-80862Y110741D02*
X-76963Y110741D01*
X-77269Y111358D02*
X-79793Y111358D01*
X-78725Y111975D02*
X-77625Y111975D01*
X-79425Y115093D02*
X-85876Y111369D01*
X-86851Y113057D01*
X-80400Y116781D01*
X-79425Y115093D01*
X-84807Y111986D02*
X-86232Y111986D01*
X-86589Y112603D02*
X-83738Y112603D01*
X-82670Y113220D02*
X-86569Y113220D01*
X-85500Y113837D02*
X-81601Y113837D01*
X-80532Y114454D02*
X-84431Y114454D01*
X-83362Y115071D02*
X-79463Y115071D01*
X-79769Y115688D02*
X-82293Y115688D01*
X-81225Y116305D02*
X-80125Y116305D01*
X-52101Y130869D02*
X-45650Y134593D01*
X-52101Y130869D02*
X-53076Y132557D01*
X-46625Y136281D01*
X-45650Y134593D01*
X-51032Y131486D02*
X-52457Y131486D01*
X-52814Y132103D02*
X-49963Y132103D01*
X-48895Y132720D02*
X-52794Y132720D01*
X-51725Y133337D02*
X-47826Y133337D01*
X-46757Y133954D02*
X-50656Y133954D01*
X-49587Y134571D02*
X-45688Y134571D01*
X-45994Y135188D02*
X-48518Y135188D01*
X-47450Y135805D02*
X-46350Y135805D01*
X-43150Y130263D02*
X-49601Y126539D01*
X-50576Y128227D01*
X-44125Y131951D01*
X-43150Y130263D01*
X-48532Y127156D02*
X-49957Y127156D01*
X-50314Y127773D02*
X-47463Y127773D01*
X-46395Y128390D02*
X-50294Y128390D01*
X-49225Y129007D02*
X-45326Y129007D01*
X-44257Y129624D02*
X-48156Y129624D01*
X-47087Y130241D02*
X-43188Y130241D01*
X-43494Y130858D02*
X-46018Y130858D01*
X-44950Y131475D02*
X-43850Y131475D01*
X-40650Y125933D02*
X-47101Y122209D01*
X-48076Y123897D01*
X-41625Y127621D01*
X-40650Y125933D01*
X-46032Y122826D02*
X-47457Y122826D01*
X-47814Y123443D02*
X-44963Y123443D01*
X-43895Y124060D02*
X-47794Y124060D01*
X-46725Y124677D02*
X-42826Y124677D01*
X-41757Y125294D02*
X-45656Y125294D01*
X-44587Y125911D02*
X-40688Y125911D01*
X-40994Y126528D02*
X-43518Y126528D01*
X-42450Y127145D02*
X-41350Y127145D01*
X-38150Y121603D02*
X-44601Y117879D01*
X-45576Y119567D01*
X-39125Y123291D01*
X-38150Y121603D01*
X-43532Y118496D02*
X-44957Y118496D01*
X-45314Y119113D02*
X-42463Y119113D01*
X-41395Y119730D02*
X-45294Y119730D01*
X-44225Y120347D02*
X-40326Y120347D01*
X-39257Y120964D02*
X-43156Y120964D01*
X-42087Y121581D02*
X-38188Y121581D01*
X-38494Y122198D02*
X-41018Y122198D01*
X-39950Y122815D02*
X-38850Y122815D01*
X-35650Y117273D02*
X-42101Y113549D01*
X-43076Y115237D01*
X-36625Y118961D01*
X-35650Y117273D01*
X-41032Y114166D02*
X-42457Y114166D01*
X-42814Y114783D02*
X-39963Y114783D01*
X-38895Y115400D02*
X-42794Y115400D01*
X-41725Y116017D02*
X-37826Y116017D01*
X-36757Y116634D02*
X-40656Y116634D01*
X-39587Y117251D02*
X-35688Y117251D01*
X-35994Y117868D02*
X-38518Y117868D01*
X-37450Y118485D02*
X-36350Y118485D01*
X-33150Y112943D02*
X-39601Y109219D01*
X-40576Y110907D01*
X-34125Y114631D01*
X-33150Y112943D01*
X-38532Y109836D02*
X-39957Y109836D01*
X-40314Y110453D02*
X-37463Y110453D01*
X-36395Y111070D02*
X-40294Y111070D01*
X-39225Y111687D02*
X-35326Y111687D01*
X-34257Y112304D02*
X-38156Y112304D01*
X-37087Y112921D02*
X-33188Y112921D01*
X-33494Y113538D02*
X-36018Y113538D01*
X-34950Y114155D02*
X-33850Y114155D01*
X-40443Y106076D02*
X-36719Y99625D01*
X-38407Y98650D01*
X-42131Y105101D01*
X-40443Y106076D01*
X-38763Y99267D02*
X-37339Y99267D01*
X-36869Y99884D02*
X-39119Y99884D01*
X-39476Y100501D02*
X-37225Y100501D01*
X-37581Y101118D02*
X-39832Y101118D01*
X-40188Y101735D02*
X-37937Y101735D01*
X-38293Y102352D02*
X-40544Y102352D01*
X-40900Y102969D02*
X-38649Y102969D01*
X-39006Y103586D02*
X-41256Y103586D01*
X-41613Y104203D02*
X-39362Y104203D01*
X-39718Y104820D02*
X-41969Y104820D01*
X-41549Y105437D02*
X-40074Y105437D01*
X-40430Y106054D02*
X-40481Y106054D01*
X-44773Y103576D02*
X-41049Y97125D01*
X-42737Y96150D01*
X-46461Y102601D01*
X-44773Y103576D01*
X-43093Y96767D02*
X-41669Y96767D01*
X-41199Y97384D02*
X-43449Y97384D01*
X-43806Y98001D02*
X-41555Y98001D01*
X-41911Y98618D02*
X-44162Y98618D01*
X-44518Y99235D02*
X-42267Y99235D01*
X-42623Y99852D02*
X-44874Y99852D01*
X-45230Y100469D02*
X-42979Y100469D01*
X-43336Y101086D02*
X-45586Y101086D01*
X-45943Y101703D02*
X-43692Y101703D01*
X-44048Y102320D02*
X-46299Y102320D01*
X-45879Y102937D02*
X-44404Y102937D01*
X-44760Y103554D02*
X-44811Y103554D01*
X-49103Y101076D02*
X-45379Y94625D01*
X-47067Y93650D01*
X-50791Y100101D01*
X-49103Y101076D01*
X-47423Y94267D02*
X-45999Y94267D01*
X-45529Y94884D02*
X-47779Y94884D01*
X-48136Y95501D02*
X-45885Y95501D01*
X-46241Y96118D02*
X-48492Y96118D01*
X-48848Y96735D02*
X-46597Y96735D01*
X-46953Y97352D02*
X-49204Y97352D01*
X-49560Y97969D02*
X-47309Y97969D01*
X-47666Y98586D02*
X-49916Y98586D01*
X-50273Y99203D02*
X-48022Y99203D01*
X-48378Y99820D02*
X-50629Y99820D01*
X-50209Y100437D02*
X-48734Y100437D01*
X-49090Y101054D02*
X-49141Y101054D01*
X-53433Y98576D02*
X-49709Y92125D01*
X-51397Y91150D01*
X-55121Y97601D01*
X-53433Y98576D01*
X-51753Y91767D02*
X-50329Y91767D01*
X-49859Y92384D02*
X-52109Y92384D01*
X-52466Y93001D02*
X-50215Y93001D01*
X-50571Y93618D02*
X-52822Y93618D01*
X-53178Y94235D02*
X-50927Y94235D01*
X-51283Y94852D02*
X-53534Y94852D01*
X-53890Y95469D02*
X-51639Y95469D01*
X-51996Y96086D02*
X-54246Y96086D01*
X-54603Y96703D02*
X-52352Y96703D01*
X-52708Y97320D02*
X-54959Y97320D01*
X-54539Y97937D02*
X-53064Y97937D01*
X-53420Y98554D02*
X-53471Y98554D01*
X-57763Y96076D02*
X-54039Y89625D01*
X-55727Y88650D01*
X-59451Y95101D01*
X-57763Y96076D01*
X-56083Y89267D02*
X-54659Y89267D01*
X-54189Y89884D02*
X-56439Y89884D01*
X-56796Y90501D02*
X-54545Y90501D01*
X-54901Y91118D02*
X-57152Y91118D01*
X-57508Y91735D02*
X-55257Y91735D01*
X-55613Y92352D02*
X-57864Y92352D01*
X-58220Y92969D02*
X-55969Y92969D01*
X-56326Y93586D02*
X-58576Y93586D01*
X-58933Y94203D02*
X-56682Y94203D01*
X-57038Y94820D02*
X-59289Y94820D01*
X-58869Y95437D02*
X-57394Y95437D01*
X-57750Y96054D02*
X-57801Y96054D01*
X-62093Y93576D02*
X-58369Y87125D01*
X-60057Y86150D01*
X-63781Y92601D01*
X-62093Y93576D01*
X-60413Y86767D02*
X-58989Y86767D01*
X-58519Y87384D02*
X-60769Y87384D01*
X-61126Y88001D02*
X-58875Y88001D01*
X-59231Y88618D02*
X-61482Y88618D01*
X-61838Y89235D02*
X-59587Y89235D01*
X-59943Y89852D02*
X-62194Y89852D01*
X-62550Y90469D02*
X-60299Y90469D01*
X-60656Y91086D02*
X-62906Y91086D01*
X-63263Y91703D02*
X-61012Y91703D01*
X-61368Y92320D02*
X-63619Y92320D01*
X-63199Y92937D02*
X-61724Y92937D01*
X-62080Y93554D02*
X-62131Y93554D01*
X-77869Y120899D02*
X-81593Y127350D01*
X-77869Y120899D02*
X-79557Y119924D01*
X-83281Y126375D01*
X-81593Y127350D01*
X-79913Y120541D02*
X-78489Y120541D01*
X-78019Y121158D02*
X-80269Y121158D01*
X-80626Y121775D02*
X-78375Y121775D01*
X-78731Y122392D02*
X-80982Y122392D01*
X-81338Y123009D02*
X-79087Y123009D01*
X-79443Y123626D02*
X-81694Y123626D01*
X-82050Y124243D02*
X-79799Y124243D01*
X-80156Y124860D02*
X-82406Y124860D01*
X-82763Y125477D02*
X-80512Y125477D01*
X-80868Y126094D02*
X-83119Y126094D01*
X-82699Y126711D02*
X-81224Y126711D01*
X-81580Y127328D02*
X-81631Y127328D01*
X-77263Y129850D02*
X-73539Y123399D01*
X-75227Y122424D01*
X-78951Y128875D01*
X-77263Y129850D01*
X-75583Y123041D02*
X-74159Y123041D01*
X-73689Y123658D02*
X-75939Y123658D01*
X-76296Y124275D02*
X-74045Y124275D01*
X-74401Y124892D02*
X-76652Y124892D01*
X-77008Y125509D02*
X-74757Y125509D01*
X-75113Y126126D02*
X-77364Y126126D01*
X-77720Y126743D02*
X-75469Y126743D01*
X-75826Y127360D02*
X-78076Y127360D01*
X-78433Y127977D02*
X-76182Y127977D01*
X-76538Y128594D02*
X-78789Y128594D01*
X-78369Y129211D02*
X-76894Y129211D01*
X-77250Y129828D02*
X-77301Y129828D01*
X-72933Y132350D02*
X-69209Y125899D01*
X-70897Y124924D01*
X-74621Y131375D01*
X-72933Y132350D01*
X-71253Y125541D02*
X-69829Y125541D01*
X-69359Y126158D02*
X-71609Y126158D01*
X-71966Y126775D02*
X-69715Y126775D01*
X-70071Y127392D02*
X-72322Y127392D01*
X-72678Y128009D02*
X-70427Y128009D01*
X-70783Y128626D02*
X-73034Y128626D01*
X-73390Y129243D02*
X-71139Y129243D01*
X-71496Y129860D02*
X-73746Y129860D01*
X-74103Y130477D02*
X-71852Y130477D01*
X-72208Y131094D02*
X-74459Y131094D01*
X-74039Y131711D02*
X-72564Y131711D01*
X-72920Y132328D02*
X-72971Y132328D01*
X-68603Y134850D02*
X-64879Y128399D01*
X-66567Y127424D01*
X-70291Y133875D01*
X-68603Y134850D01*
X-66923Y128041D02*
X-65499Y128041D01*
X-65029Y128658D02*
X-67279Y128658D01*
X-67636Y129275D02*
X-65385Y129275D01*
X-65741Y129892D02*
X-67992Y129892D01*
X-68348Y130509D02*
X-66097Y130509D01*
X-66453Y131126D02*
X-68704Y131126D01*
X-69060Y131743D02*
X-66809Y131743D01*
X-67166Y132360D02*
X-69416Y132360D01*
X-69773Y132977D02*
X-67522Y132977D01*
X-67878Y133594D02*
X-70129Y133594D01*
X-69709Y134211D02*
X-68234Y134211D01*
X-68590Y134828D02*
X-68641Y134828D01*
X-64273Y137350D02*
X-60549Y130899D01*
X-62237Y129924D01*
X-65961Y136375D01*
X-64273Y137350D01*
X-62593Y130541D02*
X-61169Y130541D01*
X-60699Y131158D02*
X-62949Y131158D01*
X-63306Y131775D02*
X-61055Y131775D01*
X-61411Y132392D02*
X-63662Y132392D01*
X-64018Y133009D02*
X-61767Y133009D01*
X-62123Y133626D02*
X-64374Y133626D01*
X-64730Y134243D02*
X-62479Y134243D01*
X-62836Y134860D02*
X-65086Y134860D01*
X-65443Y135477D02*
X-63192Y135477D01*
X-63548Y136094D02*
X-65799Y136094D01*
X-65379Y136711D02*
X-63904Y136711D01*
X-64260Y137328D02*
X-64311Y137328D01*
X-59943Y139850D02*
X-56219Y133399D01*
X-57907Y132424D01*
X-61631Y138875D01*
X-59943Y139850D01*
X-58263Y133041D02*
X-56839Y133041D01*
X-56369Y133658D02*
X-58619Y133658D01*
X-58976Y134275D02*
X-56725Y134275D01*
X-57081Y134892D02*
X-59332Y134892D01*
X-59688Y135509D02*
X-57437Y135509D01*
X-57793Y136126D02*
X-60044Y136126D01*
X-60400Y136743D02*
X-58149Y136743D01*
X-58506Y137360D02*
X-60756Y137360D01*
X-61113Y137977D02*
X-58862Y137977D01*
X-59218Y138594D02*
X-61469Y138594D01*
X-61049Y139211D02*
X-59574Y139211D01*
X-59930Y139828D02*
X-59981Y139828D01*
D15*
G36*
X41380Y124978D02*
X51379Y142298D01*
X60472Y137048D01*
X50473Y119728D01*
X41380Y124978D01*
G37*
G36*
X79528Y102953D02*
X89527Y120273D01*
X98620Y115023D01*
X88621Y97703D01*
X79528Y102953D01*
G37*
D16*
X-34684Y137741D02*
X-38494Y144340D01*
X-28596Y150055D01*
X-24786Y143456D01*
X-34684Y137741D01*
X-36077Y140154D02*
X-30505Y140154D01*
X-26326Y142567D02*
X-37470Y142567D01*
X-37386Y144980D02*
X-25666Y144980D01*
X-27059Y147393D02*
X-33206Y147393D01*
X-29027Y149806D02*
X-28452Y149806D01*
X-29604Y128942D02*
X-25794Y122343D01*
X-29604Y128942D02*
X-19706Y134657D01*
X-15896Y128058D01*
X-25794Y122343D01*
X-27187Y124756D02*
X-21615Y124756D01*
X-17436Y127169D02*
X-28580Y127169D01*
X-28496Y129582D02*
X-16776Y129582D01*
X-18169Y131995D02*
X-24316Y131995D01*
X-20137Y134408D02*
X-19562Y134408D01*
M02*
