M48
;GenerationSoftware,Autodesk,EAGLE,9.7.0*%
;CreationDate,2021-06-12T01:02:46Z*%
FMAT,2
ICI,OFF
METRIC,TZ,000.000
T4C0.350
T3C0.600
T2C2.000
%
G90
M71
T2
X0Y14000
T3
X-11644Y1838
X-12064Y-2085
X11307Y-2080
X11553Y1900
T4
X-5600Y12733
X-4627Y14250
X1995Y5305
X2022Y8160
X9083Y2368
X-10812Y-4936
X-4762Y7522
X-9146Y11022
X-6898Y6353
X-5630Y6819
X-13389Y6553
X-8399Y8587
X-976Y10109
X-3237Y12067
X-5917Y-6373
X-3461Y4556
X6663Y-4406
X4584Y3816
X10150Y9434
X8150Y-3398
X6882Y4363
X-4750Y-4277
X-3172Y-6363
X3365Y4497
M30