G04 EAGLE Gerber RS-274X export*
G75*
%MOMM*%
%FSLAX34Y34*%
%LPD*%
%INBottom Copper*%
%IPPOS*%
%AMOC8*
5,1,8,0,0,1.08239X$1,22.5*%
G01*
G04 Define Apertures*
%ADD10R,2.540000X7.000000*%
%ADD11C,10.160000*%
%ADD12R,1.420200X1.031200*%
%ADD13R,1.031200X1.420200*%
%ADD14C,0.065000*%
%ADD15R,2.600000X2.600000*%
%ADD16R,2.000000X1.050000*%
%ADD17C,0.254000*%
%ADD18C,1.500000*%
%ADD19C,0.654800*%
%ADD20C,0.152400*%
%ADD21C,0.904800*%
G36*
X10683Y-161826D02*
X34557Y-158227D01*
X34666Y-158202D01*
X57737Y-151086D01*
X57841Y-151045D01*
X79593Y-140570D01*
X79690Y-140514D01*
X99638Y-126913D01*
X99726Y-126844D01*
X117424Y-110422D01*
X117500Y-110340D01*
X132553Y-91464D01*
X132617Y-91371D01*
X144688Y-70463D01*
X144737Y-70362D01*
X153557Y-47888D01*
X153590Y-47780D01*
X158963Y-24243D01*
X158979Y-24132D01*
X160784Y-56D01*
X160784Y56D01*
X158979Y24132D01*
X158963Y24243D01*
X153590Y47780D01*
X153557Y47888D01*
X144737Y70362D01*
X144688Y70463D01*
X132617Y91371D01*
X132553Y91464D01*
X117500Y110340D01*
X117424Y110422D01*
X99726Y126844D01*
X99638Y126913D01*
X79690Y140514D01*
X79593Y140570D01*
X57841Y151045D01*
X57737Y151086D01*
X34666Y158202D01*
X34557Y158227D01*
X10683Y161826D01*
X10572Y161834D01*
X-13572Y161834D01*
X-13683Y161826D01*
X-31838Y159089D01*
X-32118Y158987D01*
X-32337Y158783D01*
X-32458Y158511D01*
X-32464Y158212D01*
X-32353Y157935D01*
X-32142Y157724D01*
X-31866Y157611D01*
X-31676Y157599D01*
X-20030Y158376D01*
X-19880Y158417D01*
X-18804Y158458D01*
X-18782Y158459D01*
X-17725Y158529D01*
X-17554Y158505D01*
X2476Y159267D01*
X2780Y159345D01*
X3047Y159477D01*
X3414Y159352D01*
X3683Y159313D01*
X4071Y159328D01*
X4289Y159126D01*
X4559Y158965D01*
X36175Y148273D01*
X36418Y148233D01*
X36861Y148234D01*
X37032Y148064D01*
X37321Y147885D01*
X37549Y147808D01*
X37746Y147410D01*
X37889Y147211D01*
X46450Y138692D01*
X46699Y138528D01*
X46992Y138474D01*
X47284Y138539D01*
X47527Y138712D01*
X47628Y138849D01*
X50375Y143606D01*
X51594Y143933D01*
X61781Y138052D01*
X62108Y136832D01*
X51477Y118419D01*
X50257Y118092D01*
X40071Y123973D01*
X39744Y125193D01*
X44487Y133408D01*
X44582Y133691D01*
X44559Y133989D01*
X44367Y134315D01*
X34808Y143828D01*
X34519Y144006D01*
X3009Y154663D01*
X2740Y154702D01*
X-18544Y153892D01*
X-18565Y153891D01*
X-24918Y153468D01*
X-25206Y153389D01*
X-25441Y153204D01*
X-25585Y152943D01*
X-25615Y152646D01*
X-25518Y152344D01*
X-23772Y149320D01*
X-31361Y144939D01*
X-34980Y151208D01*
X-35077Y151152D01*
X-35072Y151269D01*
X-35175Y151549D01*
X-35380Y151766D01*
X-35653Y151886D01*
X-36035Y151870D01*
X-49620Y147647D01*
X-49740Y147598D01*
X-58976Y142858D01*
X-59210Y142672D01*
X-59351Y142409D01*
X-59380Y142112D01*
X-59290Y141827D01*
X-59096Y141600D01*
X-58828Y141466D01*
X-58725Y141439D01*
X-54766Y134582D01*
X-54568Y134359D01*
X-54299Y134230D01*
X-54001Y134216D01*
X-53742Y134308D01*
X-46885Y138266D01*
X-45406Y137870D01*
X-43665Y134855D01*
X-43749Y134542D01*
X-43767Y134244D01*
X-43668Y133963D01*
X-43466Y133742D01*
X-43218Y133624D01*
X-42906Y133540D01*
X-41165Y130525D01*
X-41249Y130212D01*
X-41267Y129914D01*
X-41168Y129633D01*
X-40966Y129412D01*
X-40718Y129293D01*
X-40406Y129210D01*
X-38665Y126194D01*
X-38749Y125882D01*
X-38767Y125584D01*
X-38668Y125302D01*
X-38466Y125082D01*
X-38218Y124963D01*
X-37906Y124880D01*
X-37313Y123854D01*
X-37116Y123630D01*
X-36846Y123501D01*
X-36548Y123488D01*
X-36268Y123591D01*
X-36134Y123698D01*
X-34359Y125473D01*
X-32127Y125473D01*
X-31834Y125532D01*
X-31588Y125701D01*
X-31427Y125953D01*
X-31377Y126247D01*
X-31477Y126598D01*
X-32602Y128547D01*
X-32003Y130783D01*
X-20100Y137655D01*
X-17865Y137056D01*
X-12897Y128453D01*
X-13496Y126217D01*
X-14344Y125727D01*
X-14567Y125530D01*
X-14696Y125260D01*
X-14710Y124962D01*
X-14606Y124682D01*
X-14401Y124465D01*
X-14128Y124345D01*
X-13830Y124341D01*
X-13682Y124385D01*
X-11730Y125193D01*
X-8140Y125193D01*
X-4824Y123820D01*
X-2285Y121281D01*
X-911Y117964D01*
X-911Y114374D01*
X-2031Y111672D01*
X-2088Y111379D01*
X-2026Y111087D01*
X-1855Y110842D01*
X-1602Y110683D01*
X-1308Y110636D01*
X-1018Y110707D01*
X-881Y110790D01*
X1333Y112489D01*
X1529Y112714D01*
X1621Y112998D01*
X1569Y113371D01*
X1082Y114546D01*
X1082Y118136D01*
X2456Y121452D01*
X4995Y123991D01*
X8311Y125365D01*
X11901Y125365D01*
X15218Y123991D01*
X17757Y121452D01*
X18164Y120469D01*
X18331Y120222D01*
X18581Y120059D01*
X18875Y120007D01*
X19166Y120073D01*
X19408Y120248D01*
X19550Y120469D01*
X20266Y122199D01*
X23091Y125024D01*
X26781Y126552D01*
X28016Y126552D01*
X28016Y106472D01*
X26781Y106472D01*
X23091Y108001D01*
X20266Y110825D01*
X19621Y112384D01*
X19454Y112631D01*
X19204Y112794D01*
X18910Y112846D01*
X18619Y112780D01*
X18377Y112605D01*
X18235Y112383D01*
X17757Y111229D01*
X15218Y108691D01*
X11901Y107317D01*
X8311Y107317D01*
X4995Y108691D01*
X4981Y108704D01*
X4733Y108869D01*
X4439Y108923D01*
X4148Y108859D01*
X3994Y108769D01*
X-4672Y102117D01*
X-4868Y101892D01*
X-4966Y101522D01*
X-4966Y99104D01*
X-7776Y96293D01*
X-11751Y96293D01*
X-14562Y99104D01*
X-14562Y103079D01*
X-11651Y105990D01*
X-11486Y106239D01*
X-11431Y106532D01*
X-11495Y106824D01*
X-11668Y107067D01*
X-11894Y107213D01*
X-15047Y108519D01*
X-17585Y111058D01*
X-18959Y114374D01*
X-18959Y117964D01*
X-18055Y120148D01*
X-17997Y120441D01*
X-18059Y120733D01*
X-18227Y120976D01*
X-19451Y122153D01*
X-19703Y122313D01*
X-19997Y122362D01*
X-20346Y122262D01*
X-20987Y121892D01*
X-21211Y121694D01*
X-21356Y121337D01*
X-25258Y90639D01*
X-25328Y90086D01*
X-25551Y88333D01*
X-25551Y88333D01*
X-25632Y87698D01*
X-28342Y85041D01*
X-30229Y84839D01*
X-45782Y83175D01*
X-46067Y83085D01*
X-46233Y82960D01*
X-47895Y81297D01*
X-48060Y81048D01*
X-48115Y80755D01*
X-48051Y80463D01*
X-47878Y80220D01*
X-47624Y80063D01*
X-47365Y80017D01*
X-45633Y80017D01*
X-43223Y77607D01*
X-42974Y77442D01*
X-42711Y77387D01*
X106597Y73797D01*
X106891Y73849D01*
X107141Y74012D01*
X107308Y74259D01*
X107365Y74552D01*
X107304Y74844D01*
X107146Y75077D01*
X100117Y82105D01*
X100117Y83368D01*
X103823Y87074D01*
X103988Y87323D01*
X104043Y87616D01*
X103979Y87908D01*
X103861Y88094D01*
X102840Y89280D01*
X102604Y89463D01*
X102272Y89540D01*
X99513Y89540D01*
X96702Y92351D01*
X96702Y96326D01*
X99513Y99136D01*
X103487Y99136D01*
X106298Y96326D01*
X106298Y92549D01*
X106357Y92257D01*
X106480Y92060D01*
X107030Y91420D01*
X107266Y91238D01*
X107555Y91161D01*
X107850Y91203D01*
X108129Y91380D01*
X111052Y94303D01*
X112315Y94303D01*
X120499Y86118D01*
X120499Y84856D01*
X110611Y74968D01*
X110446Y74719D01*
X110392Y74426D01*
X110456Y74134D01*
X110628Y73891D01*
X110882Y73734D01*
X111124Y73688D01*
X115999Y73571D01*
X116292Y73623D01*
X116547Y73790D01*
X124056Y81299D01*
X125318Y81299D01*
X133503Y73115D01*
X133503Y71852D01*
X122568Y60917D01*
X121305Y60917D01*
X113369Y68853D01*
X113120Y69018D01*
X112857Y69073D01*
X-42906Y72819D01*
X-43200Y72766D01*
X-43454Y72599D01*
X-45560Y70494D01*
X-45725Y70245D01*
X-45780Y69951D01*
X-45715Y69660D01*
X-45543Y69416D01*
X-45289Y69260D01*
X-45115Y69218D01*
X60340Y57192D01*
X60425Y57188D01*
X61240Y57188D01*
X61368Y57103D01*
X61436Y57085D01*
X61934Y56460D01*
X61991Y56396D01*
X62800Y55586D01*
X63049Y55421D01*
X63331Y55367D01*
X72493Y55367D01*
X73610Y54250D01*
X73970Y54050D01*
X140113Y38623D01*
X141337Y38337D01*
X143103Y37926D01*
X145440Y35155D01*
X145473Y34601D01*
X145473Y34600D01*
X145570Y32982D01*
X145570Y32982D01*
X145623Y32091D01*
X145623Y32090D01*
X146628Y15310D01*
X146705Y15022D01*
X146888Y14786D01*
X147149Y14641D01*
X147377Y14605D01*
X152512Y14605D01*
X153405Y13712D01*
X153405Y2138D01*
X152512Y1245D01*
X137048Y1245D01*
X136155Y2138D01*
X136155Y13712D01*
X137048Y14605D01*
X141294Y14605D01*
X141586Y14664D01*
X141832Y14833D01*
X141993Y15085D01*
X142042Y15400D01*
X140994Y32913D01*
X140984Y33072D01*
X140932Y33306D01*
X140900Y33387D01*
X140736Y33637D01*
X140595Y33748D01*
X140520Y33794D01*
X140299Y33885D01*
X139074Y34170D01*
X139074Y34170D01*
X129444Y36416D01*
X129146Y36425D01*
X128868Y36316D01*
X128654Y36108D01*
X128524Y35686D01*
X128524Y-35631D01*
X127631Y-36524D01*
X100969Y-36524D01*
X100076Y-35631D01*
X100076Y10842D01*
X100017Y11135D01*
X99856Y11373D01*
X92567Y18663D01*
X92318Y18827D01*
X92036Y18882D01*
X88843Y18882D01*
X86032Y21693D01*
X86032Y25668D01*
X88843Y28478D01*
X92818Y28478D01*
X95628Y25668D01*
X95628Y22377D01*
X95688Y22085D01*
X95848Y21847D01*
X98796Y18899D01*
X99045Y18734D01*
X99338Y18680D01*
X99630Y18744D01*
X99873Y18916D01*
X100030Y19170D01*
X100076Y19430D01*
X100076Y35631D01*
X100969Y36524D01*
X122465Y36524D01*
X122758Y36583D01*
X123004Y36752D01*
X123165Y37004D01*
X123215Y37298D01*
X123146Y37588D01*
X122970Y37829D01*
X122636Y38004D01*
X72428Y49715D01*
X72257Y49734D01*
X71660Y49734D01*
X71603Y49791D01*
X71243Y49991D01*
X71165Y50009D01*
X70897Y50441D01*
X70692Y50658D01*
X70419Y50778D01*
X70260Y50795D01*
X61126Y50795D01*
X59385Y52536D01*
X59137Y52700D01*
X58940Y52750D01*
X-51911Y65392D01*
X-52209Y65366D01*
X-52527Y65177D01*
X-54309Y63395D01*
X-58284Y63395D01*
X-59856Y64967D01*
X-60105Y65132D01*
X-60399Y65187D01*
X-60690Y65123D01*
X-60934Y64950D01*
X-61091Y64696D01*
X-61137Y64437D01*
X-61137Y60284D01*
X-99856Y21565D01*
X-100021Y21316D01*
X-100076Y21034D01*
X-100076Y-35631D01*
X-100969Y-36524D01*
X-106571Y-36524D01*
X-106863Y-36583D01*
X-107110Y-36752D01*
X-107271Y-37004D01*
X-107315Y-37367D01*
X-106486Y-43984D01*
X-106391Y-44267D01*
X-106272Y-44421D01*
X-103318Y-47375D01*
X-103318Y-51350D01*
X-104510Y-52542D01*
X-104675Y-52791D01*
X-104730Y-53084D01*
X-104666Y-53376D01*
X-104493Y-53619D01*
X-104239Y-53776D01*
X-103807Y-53802D01*
X-52877Y-41698D01*
X-52606Y-41572D01*
X-52406Y-41351D01*
X-52301Y-40968D01*
X-52301Y-40782D01*
X-49490Y-37972D01*
X-47072Y-37972D01*
X-46779Y-37912D01*
X-46533Y-37744D01*
X-46372Y-37492D01*
X-46322Y-37198D01*
X-46391Y-36907D01*
X-46541Y-36691D01*
X-47742Y-35491D01*
X-47937Y-35350D01*
X-48344Y-35147D01*
X-48416Y-34929D01*
X-48598Y-34635D01*
X-48760Y-34473D01*
X-48760Y-34018D01*
X-48799Y-33781D01*
X-61056Y2990D01*
X-61124Y3139D01*
X-61440Y3665D01*
X-61425Y3726D01*
X-61441Y4145D01*
X-61461Y4205D01*
X-61186Y4754D01*
X-61130Y4907D01*
X-52442Y39657D01*
X-52464Y40094D01*
X-52472Y40114D01*
X-52195Y40704D01*
X-52146Y40841D01*
X-51988Y41473D01*
X-51969Y41484D01*
X-51676Y41809D01*
X-51667Y41829D01*
X-51054Y42050D01*
X-50923Y42112D01*
X-50364Y42447D01*
X-50343Y42442D01*
X-49906Y42464D01*
X-39905Y46075D01*
X-39650Y46231D01*
X-39476Y46473D01*
X-39410Y46781D01*
X-39410Y47543D01*
X-36599Y50354D01*
X-32624Y50354D01*
X-29814Y47543D01*
X-29814Y45678D01*
X-29754Y45385D01*
X-29585Y45139D01*
X-29334Y44978D01*
X-29040Y44928D01*
X-28689Y45028D01*
X-20588Y49705D01*
X-7022Y53340D01*
X-762Y53340D01*
X-762Y762D01*
X-53340Y762D01*
X-53340Y7022D01*
X-49705Y20588D01*
X-42683Y32752D01*
X-35956Y39478D01*
X-35792Y39727D01*
X-35737Y40020D01*
X-35801Y40312D01*
X-35974Y40555D01*
X-36228Y40712D01*
X-36487Y40758D01*
X-36599Y40758D01*
X-37474Y41633D01*
X-37723Y41798D01*
X-38017Y41853D01*
X-38259Y41809D01*
X-47702Y38399D01*
X-47957Y38244D01*
X-48175Y37876D01*
X-56560Y4333D01*
X-56544Y3914D01*
X-54802Y-1315D01*
X-54653Y-1574D01*
X-54415Y-1754D01*
X-54125Y-1827D01*
X-53830Y-1781D01*
X-53576Y-1624D01*
X-53404Y-1381D01*
X-53340Y-1078D01*
X-53340Y-762D01*
X-762Y-762D01*
X-762Y-53340D01*
X-7022Y-53340D01*
X-20588Y-49705D01*
X-32752Y-42683D01*
X-36434Y-39000D01*
X-36683Y-38836D01*
X-36976Y-38781D01*
X-37268Y-38845D01*
X-37511Y-39018D01*
X-37668Y-39272D01*
X-37714Y-39531D01*
X-37714Y-49025D01*
X-37655Y-49317D01*
X-37589Y-49434D01*
X-37704Y-50127D01*
X-37714Y-50249D01*
X-37714Y-50957D01*
X-37859Y-51176D01*
X-37895Y-51304D01*
X-38466Y-51713D01*
X-38560Y-51793D01*
X-39060Y-52293D01*
X-39317Y-52345D01*
X-39462Y-52426D01*
X-54059Y-62883D01*
X-54263Y-63102D01*
X-54373Y-63493D01*
X-54373Y-65720D01*
X-57183Y-68530D01*
X-61158Y-68530D01*
X-62507Y-67181D01*
X-62756Y-67016D01*
X-63049Y-66962D01*
X-63202Y-66980D01*
X-120875Y-79923D01*
X-122102Y-80199D01*
X-123894Y-80601D01*
X-127235Y-79076D01*
X-127509Y-78567D01*
X-159638Y-18918D01*
X-159754Y-18757D01*
X-160127Y-18364D01*
X-160124Y-18225D01*
X-160213Y-17850D01*
X-160279Y-17727D01*
X-160124Y-17208D01*
X-160092Y-17012D01*
X-159216Y17200D01*
X-159215Y17219D01*
X-159215Y25257D01*
X-158384Y27264D01*
X-124815Y60833D01*
X-124650Y61082D01*
X-124595Y61376D01*
X-124659Y61667D01*
X-124815Y61894D01*
X-127811Y64891D01*
X-128060Y65056D01*
X-128354Y65110D01*
X-128645Y65046D01*
X-128889Y64873D01*
X-129045Y64620D01*
X-129092Y64360D01*
X-129092Y63547D01*
X-131902Y60736D01*
X-135877Y60736D01*
X-138688Y63547D01*
X-138688Y67522D01*
X-135877Y70332D01*
X-135064Y70332D01*
X-134771Y70392D01*
X-134525Y70560D01*
X-134364Y70812D01*
X-134314Y71106D01*
X-134383Y71397D01*
X-134533Y71613D01*
X-134773Y71852D01*
X-134773Y73115D01*
X-126588Y81299D01*
X-125326Y81299D01*
X-116639Y72612D01*
X-116390Y72448D01*
X-116097Y72393D01*
X-115805Y72457D01*
X-115562Y72630D01*
X-115405Y72884D01*
X-115366Y73043D01*
X-114776Y77446D01*
X-114797Y77744D01*
X-114989Y78076D01*
X-121769Y84856D01*
X-121769Y86118D01*
X-113585Y94303D01*
X-112322Y94303D01*
X-101387Y83368D01*
X-101387Y82105D01*
X-109572Y73921D01*
X-109979Y73921D01*
X-110272Y73861D01*
X-110518Y73693D01*
X-110679Y73441D01*
X-110722Y73270D01*
X-111336Y68683D01*
X-111343Y68584D01*
X-111343Y67810D01*
X-111451Y67647D01*
X-111476Y67554D01*
X-112080Y67092D01*
X-112155Y67027D01*
X-154383Y24799D01*
X-154546Y24556D01*
X-154586Y24457D01*
X-154643Y24170D01*
X-154643Y18392D01*
X-154615Y18253D01*
X-154624Y17914D01*
X-154572Y17620D01*
X-154409Y17370D01*
X-154162Y17203D01*
X-153874Y17145D01*
X-142914Y17145D01*
X-142621Y17204D01*
X-142383Y17365D01*
X-131792Y27956D01*
X-131627Y28205D01*
X-131572Y28487D01*
X-131572Y36894D01*
X-97333Y71133D01*
X-97170Y71376D01*
X-97130Y71475D01*
X-97072Y71762D01*
X-97072Y94406D01*
X-94975Y97282D01*
X-93280Y97826D01*
X-92489Y98079D01*
X-86229Y100087D01*
X-85969Y100233D01*
X-85786Y100469D01*
X-85710Y100758D01*
X-85752Y101053D01*
X-85928Y101332D01*
X-86062Y101465D01*
X-86073Y101522D01*
X-86233Y101760D01*
X-89680Y105206D01*
X-89929Y105371D01*
X-90210Y105426D01*
X-93452Y105426D01*
X-96263Y108237D01*
X-96263Y112211D01*
X-93452Y115022D01*
X-89477Y115022D01*
X-89031Y114576D01*
X-88782Y114411D01*
X-88488Y114356D01*
X-88125Y114456D01*
X-81583Y118234D01*
X-81359Y118432D01*
X-81230Y118701D01*
X-81216Y118999D01*
X-81308Y119258D01*
X-85266Y126115D01*
X-84870Y127594D01*
X-81855Y129335D01*
X-81701Y129294D01*
X-81403Y129276D01*
X-81121Y129375D01*
X-80901Y129576D01*
X-80776Y129847D01*
X-80768Y130146D01*
X-80832Y130346D01*
X-81528Y131779D01*
X-81584Y131875D01*
X-82003Y132487D01*
X-82007Y132715D01*
X-82044Y132823D01*
X-81805Y133515D01*
X-81776Y133623D01*
X-81640Y134351D01*
X-81481Y134515D01*
X-81431Y134618D01*
X-80773Y134939D01*
X-80677Y134994D01*
X-70777Y141774D01*
X-70569Y141988D01*
X-70532Y142067D01*
X-69843Y142421D01*
X-69762Y142469D01*
X-69112Y142914D01*
X-68930Y142917D01*
X-68748Y142982D01*
X-52447Y151348D01*
X-52214Y151534D01*
X-52134Y151653D01*
X-51479Y151857D01*
X-51359Y151906D01*
X-50747Y152220D01*
X-50467Y152189D01*
X-50311Y152220D01*
X-34444Y157152D01*
X-34102Y157374D01*
X-34065Y157416D01*
X-33918Y157675D01*
X-33882Y157972D01*
X-33966Y158258D01*
X-34154Y158490D01*
X-34418Y158629D01*
X-34742Y158652D01*
X-37557Y158227D01*
X-37666Y158202D01*
X-60737Y151086D01*
X-60841Y151045D01*
X-82593Y140570D01*
X-82690Y140514D01*
X-102638Y126913D01*
X-102726Y126844D01*
X-120424Y110422D01*
X-120500Y110340D01*
X-135553Y91464D01*
X-135617Y91371D01*
X-147688Y70463D01*
X-147737Y70362D01*
X-156557Y47888D01*
X-156590Y47780D01*
X-161963Y24243D01*
X-161979Y24132D01*
X-163784Y56D01*
X-163784Y-56D01*
X-161979Y-24132D01*
X-161963Y-24243D01*
X-156590Y-47780D01*
X-156557Y-47888D01*
X-147737Y-70362D01*
X-147688Y-70463D01*
X-135617Y-91371D01*
X-135553Y-91464D01*
X-120500Y-110340D01*
X-120424Y-110422D01*
X-102726Y-126844D01*
X-102638Y-126913D01*
X-82690Y-140514D01*
X-82593Y-140570D01*
X-60841Y-151045D01*
X-60737Y-151086D01*
X-37666Y-158202D01*
X-37557Y-158227D01*
X-13683Y-161826D01*
X-13572Y-161834D01*
X10572Y-161834D01*
X10683Y-161826D01*
G37*
%LPC*%
G36*
X-1331Y127441D02*
X-1497Y127460D01*
X-2494Y127460D01*
X-3763Y127986D01*
X-3883Y128024D01*
X-5581Y128411D01*
X-6352Y129026D01*
X-6532Y129133D01*
X-7103Y129369D01*
X-8339Y130605D01*
X-8402Y130661D01*
X-10056Y131980D01*
X-10318Y132525D01*
X-10464Y132730D01*
X-10631Y132897D01*
X-11443Y134857D01*
X-11460Y134895D01*
X-12540Y137138D01*
X-12540Y142862D01*
X-11460Y145105D01*
X-11443Y145143D01*
X-10631Y147103D01*
X-10464Y147270D01*
X-10318Y147475D01*
X-10056Y148020D01*
X-8402Y149339D01*
X-8339Y149395D01*
X-7103Y150631D01*
X-6532Y150867D01*
X-6352Y150974D01*
X-5581Y151589D01*
X-3883Y151976D01*
X-3763Y152014D01*
X-2494Y152540D01*
X-1497Y152540D01*
X-1331Y152559D01*
X0Y152863D01*
X1331Y152559D01*
X1497Y152540D01*
X2494Y152540D01*
X3763Y152014D01*
X3883Y151976D01*
X5581Y151589D01*
X6352Y150974D01*
X6532Y150867D01*
X7103Y150631D01*
X8339Y149395D01*
X8402Y149339D01*
X10056Y148020D01*
X10318Y147475D01*
X10464Y147270D01*
X10631Y147103D01*
X11443Y145143D01*
X11460Y145105D01*
X12540Y142862D01*
X12540Y137138D01*
X11460Y134895D01*
X11443Y134857D01*
X10631Y132897D01*
X10464Y132730D01*
X10318Y132525D01*
X10056Y131980D01*
X8402Y130661D01*
X8339Y130605D01*
X7103Y129369D01*
X6532Y129133D01*
X6352Y129026D01*
X5581Y128411D01*
X3883Y128024D01*
X3763Y127986D01*
X2494Y127460D01*
X1497Y127460D01*
X1331Y127441D01*
X0Y127138D01*
X-1331Y127441D01*
G37*
G36*
X-42583Y143802D02*
X-41766Y146850D01*
X-36110Y150116D01*
X-32681Y144177D01*
X-40270Y139795D01*
X-42583Y143802D01*
G37*
G36*
X-30599Y143619D02*
X-23010Y148000D01*
X-20697Y143994D01*
X-21514Y140945D01*
X-27170Y137680D01*
X-30599Y143619D01*
G37*
G36*
X-37195Y134469D02*
X-39508Y138475D01*
X-31919Y142857D01*
X-28490Y136918D01*
X-34146Y133652D01*
X-37195Y134469D01*
G37*
G36*
X29540Y117274D02*
X29540Y126552D01*
X30775Y126552D01*
X34465Y125024D01*
X37289Y122199D01*
X38818Y118509D01*
X38818Y117274D01*
X29540Y117274D01*
G37*
G36*
X82709Y113542D02*
X87854Y122454D01*
X89886Y122999D01*
X94684Y120228D01*
X88795Y110028D01*
X82709Y113542D01*
G37*
G36*
X90115Y109266D02*
X96004Y119466D01*
X100802Y116696D01*
X101347Y114664D01*
X96202Y105752D01*
X90115Y109266D01*
G37*
G36*
X29540Y106472D02*
X29540Y115750D01*
X38818Y115750D01*
X38818Y114515D01*
X37289Y110825D01*
X34465Y108001D01*
X30775Y106472D01*
X29540Y106472D01*
G37*
G36*
X77346Y101279D02*
X76802Y103311D01*
X81947Y112223D01*
X88033Y108709D01*
X82144Y98509D01*
X77346Y101279D01*
G37*
G36*
X83464Y97747D02*
X89353Y107947D01*
X95440Y104433D01*
X90295Y95521D01*
X88262Y94977D01*
X83464Y97747D01*
G37*
G36*
X-33704Y-68431D02*
X-36514Y-65621D01*
X-36514Y-61646D01*
X-33704Y-58835D01*
X-29729Y-58835D01*
X-27489Y-61075D01*
X-27240Y-61240D01*
X-26958Y-61295D01*
X43086Y-61295D01*
X43280Y-61269D01*
X46762Y-60336D01*
X47098Y-60142D01*
X49647Y-57593D01*
X49841Y-57257D01*
X50774Y-53775D01*
X50800Y-53581D01*
X50800Y-21491D01*
X50741Y-21198D01*
X50572Y-20952D01*
X50320Y-20791D01*
X50026Y-20741D01*
X49736Y-20810D01*
X49495Y-20986D01*
X49400Y-21116D01*
X42683Y-32752D01*
X32752Y-42683D01*
X20588Y-49705D01*
X7022Y-53340D01*
X762Y-53340D01*
X762Y53340D01*
X7022Y53340D01*
X20588Y49705D01*
X27730Y45582D01*
X28013Y45487D01*
X28310Y45510D01*
X28575Y45648D01*
X28766Y45877D01*
X28855Y46231D01*
X28855Y46962D01*
X31665Y49773D01*
X35640Y49773D01*
X38451Y46962D01*
X38451Y42987D01*
X37416Y41953D01*
X37251Y41704D01*
X37196Y41410D01*
X37261Y41119D01*
X37416Y40892D01*
X39762Y38546D01*
X40011Y38381D01*
X40304Y38327D01*
X40596Y38391D01*
X40839Y38563D01*
X40996Y38817D01*
X41042Y39077D01*
X41042Y40146D01*
X43853Y42956D01*
X47827Y42956D01*
X50638Y40146D01*
X50638Y36116D01*
X50697Y35823D01*
X50804Y35645D01*
X62465Y21188D01*
X62598Y21023D01*
X62822Y19572D01*
X63014Y18329D01*
X65011Y5404D01*
X65022Y5349D01*
X74968Y-37566D01*
X75092Y-37838D01*
X75312Y-38040D01*
X75588Y-38139D01*
X77204Y-38379D01*
X77502Y-38363D01*
X77771Y-38232D01*
X77967Y-38007D01*
X78059Y-37723D01*
X78034Y-37426D01*
X77845Y-37107D01*
X76706Y-35968D01*
X76706Y-31993D01*
X78999Y-29701D01*
X79163Y-29452D01*
X79218Y-29171D01*
X79218Y29691D01*
X79159Y29984D01*
X78999Y30222D01*
X70605Y38615D01*
X70356Y38780D01*
X70075Y38835D01*
X66833Y38835D01*
X64022Y41646D01*
X64022Y45620D01*
X66833Y48431D01*
X70808Y48431D01*
X73618Y45620D01*
X73618Y42378D01*
X73678Y42086D01*
X73838Y41848D01*
X83790Y31896D01*
X83790Y-29171D01*
X83850Y-29463D01*
X84010Y-29701D01*
X86302Y-31993D01*
X86302Y-35968D01*
X84081Y-38189D01*
X83916Y-38438D01*
X83861Y-38732D01*
X83925Y-39023D01*
X84098Y-39267D01*
X84352Y-39424D01*
X84501Y-39462D01*
X127898Y-45902D01*
X127898Y-45902D01*
X129142Y-46086D01*
X129400Y-46080D01*
X129492Y-46061D01*
X129767Y-45945D01*
X129927Y-45798D01*
X129986Y-45725D01*
X130112Y-45500D01*
X130319Y-44907D01*
X139675Y-18143D01*
X139715Y-17847D01*
X139637Y-17559D01*
X139453Y-17324D01*
X139192Y-17179D01*
X138967Y-17145D01*
X137048Y-17145D01*
X136155Y-16252D01*
X136155Y-4678D01*
X137048Y-3785D01*
X152512Y-3785D01*
X153405Y-4678D01*
X153405Y-16252D01*
X152512Y-17145D01*
X145399Y-17145D01*
X145106Y-17204D01*
X144860Y-17373D01*
X144691Y-17648D01*
X134485Y-46845D01*
X134428Y-47009D01*
X133779Y-48864D01*
X130415Y-50897D01*
X128471Y-50609D01*
X128148Y-50561D01*
X80748Y-43527D01*
X80748Y-43527D01*
X79726Y-43375D01*
X79616Y-43367D01*
X73810Y-43367D01*
X73664Y-43381D01*
X72029Y-43707D01*
X71753Y-43822D01*
X71545Y-44035D01*
X71425Y-44442D01*
X71425Y-46044D01*
X68614Y-48854D01*
X64640Y-48854D01*
X61829Y-46044D01*
X61829Y-42069D01*
X64640Y-39258D01*
X68614Y-39258D01*
X68729Y-39373D01*
X68978Y-39538D01*
X69272Y-39593D01*
X69547Y-39536D01*
X70040Y-39331D01*
X70288Y-39164D01*
X70450Y-38914D01*
X70503Y-38620D01*
X70484Y-38469D01*
X60797Y3329D01*
X60673Y3600D01*
X60662Y3611D01*
X60528Y4482D01*
X60517Y4537D01*
X60314Y5412D01*
X60338Y5476D01*
X60338Y5708D01*
X58496Y17631D01*
X58496Y17631D01*
X58303Y18874D01*
X58248Y19063D01*
X58219Y19129D01*
X58117Y19296D01*
X56706Y21046D01*
X56476Y21236D01*
X56190Y21322D01*
X55893Y21289D01*
X55633Y21143D01*
X55450Y20907D01*
X55372Y20575D01*
X55372Y-56025D01*
X53502Y-60540D01*
X50045Y-63997D01*
X45530Y-65867D01*
X-26854Y-65867D01*
X-27147Y-65926D01*
X-27384Y-66087D01*
X-29729Y-68431D01*
X-33704Y-68431D01*
G37*
%LPD*%
G36*
X-30716Y89385D02*
X-30475Y89453D01*
X-30393Y89491D01*
X-30154Y89670D01*
X-30041Y89836D01*
X-30001Y89918D01*
X-29928Y90157D01*
X-26393Y117969D01*
X-26415Y118267D01*
X-26551Y118532D01*
X-26780Y118723D01*
X-27066Y118810D01*
X-27363Y118779D01*
X-27667Y118594D01*
X-30384Y115877D01*
X-31409Y115877D01*
X-31702Y115818D01*
X-31948Y115649D01*
X-32109Y115397D01*
X-32159Y115103D01*
X-32059Y114752D01*
X-31165Y113204D01*
X-31561Y111724D01*
X-38418Y107766D01*
X-38641Y107568D01*
X-38770Y107299D01*
X-38784Y107001D01*
X-38692Y106742D01*
X-34734Y99885D01*
X-35130Y98406D01*
X-38145Y96665D01*
X-38458Y96749D01*
X-38756Y96767D01*
X-39037Y96668D01*
X-39258Y96466D01*
X-39376Y96218D01*
X-39460Y95906D01*
X-42277Y94279D01*
X-42501Y94082D01*
X-42626Y93824D01*
X-42918Y92736D01*
X-44130Y92036D01*
X-47806Y98403D01*
X-49126Y97641D01*
X-45450Y91274D01*
X-46580Y90622D01*
X-46804Y90424D01*
X-46933Y90155D01*
X-46946Y89857D01*
X-46860Y89607D01*
X-46074Y88200D01*
X-45880Y87974D01*
X-45612Y87841D01*
X-45340Y87820D01*
X-30716Y89385D01*
G37*
D10*
X114300Y0D03*
X-114300Y0D03*
D11*
X0Y0D03*
D12*
X-146050Y10465D03*
X-146050Y-7925D03*
D13*
G36*
X124687Y79775D02*
X131979Y72483D01*
X121937Y62441D01*
X114645Y69733D01*
X124687Y79775D01*
G37*
G36*
X111683Y92779D02*
X118975Y85487D01*
X108933Y75445D01*
X101641Y82737D01*
X111683Y92779D01*
G37*
D12*
X144780Y7925D03*
X144780Y-10465D03*
D13*
G36*
X-115915Y69733D02*
X-123207Y62441D01*
X-133249Y72483D01*
X-125957Y79775D01*
X-115915Y69733D01*
G37*
G36*
X-102911Y82737D02*
X-110203Y75445D01*
X-120245Y85487D01*
X-112953Y92779D01*
X-102911Y82737D01*
G37*
D14*
X-73376Y89719D02*
X-66925Y93443D01*
X-73376Y89719D02*
X-74351Y91407D01*
X-67900Y95131D01*
X-66925Y93443D01*
X-72307Y90336D02*
X-73732Y90336D01*
X-74089Y90953D02*
X-71238Y90953D01*
X-70170Y91570D02*
X-74069Y91570D01*
X-73000Y92187D02*
X-69101Y92187D01*
X-68032Y92804D02*
X-71931Y92804D01*
X-70862Y93421D02*
X-66963Y93421D01*
X-67269Y94038D02*
X-69793Y94038D01*
X-68725Y94655D02*
X-67625Y94655D01*
X-69425Y97773D02*
X-75876Y94049D01*
X-76851Y95737D01*
X-70400Y99461D01*
X-69425Y97773D01*
X-74807Y94666D02*
X-76232Y94666D01*
X-76589Y95283D02*
X-73738Y95283D01*
X-72670Y95900D02*
X-76569Y95900D01*
X-75500Y96517D02*
X-71601Y96517D01*
X-70532Y97134D02*
X-74431Y97134D01*
X-73362Y97751D02*
X-69463Y97751D01*
X-69769Y98368D02*
X-72293Y98368D01*
X-71225Y98985D02*
X-70125Y98985D01*
X-71925Y102103D02*
X-78376Y98379D01*
X-79351Y100067D01*
X-72900Y103791D01*
X-71925Y102103D01*
X-77307Y98996D02*
X-78732Y98996D01*
X-79089Y99613D02*
X-76238Y99613D01*
X-75170Y100230D02*
X-79069Y100230D01*
X-78000Y100847D02*
X-74101Y100847D01*
X-73032Y101464D02*
X-76931Y101464D01*
X-75862Y102081D02*
X-71963Y102081D01*
X-72269Y102698D02*
X-74793Y102698D01*
X-73725Y103315D02*
X-72625Y103315D01*
X-74425Y106433D02*
X-80876Y102709D01*
X-81851Y104397D01*
X-75400Y108121D01*
X-74425Y106433D01*
X-79807Y103326D02*
X-81232Y103326D01*
X-81589Y103943D02*
X-78738Y103943D01*
X-77670Y104560D02*
X-81569Y104560D01*
X-80500Y105177D02*
X-76601Y105177D01*
X-75532Y105794D02*
X-79431Y105794D01*
X-78362Y106411D02*
X-74463Y106411D01*
X-74769Y107028D02*
X-77293Y107028D01*
X-76225Y107645D02*
X-75125Y107645D01*
X-76925Y110763D02*
X-83376Y107039D01*
X-84351Y108727D01*
X-77900Y112451D01*
X-76925Y110763D01*
X-82307Y107656D02*
X-83732Y107656D01*
X-84089Y108273D02*
X-81238Y108273D01*
X-80170Y108890D02*
X-84069Y108890D01*
X-83000Y109507D02*
X-79101Y109507D01*
X-78032Y110124D02*
X-81931Y110124D01*
X-80862Y110741D02*
X-76963Y110741D01*
X-77269Y111358D02*
X-79793Y111358D01*
X-78725Y111975D02*
X-77625Y111975D01*
X-79425Y115093D02*
X-85876Y111369D01*
X-86851Y113057D01*
X-80400Y116781D01*
X-79425Y115093D01*
X-84807Y111986D02*
X-86232Y111986D01*
X-86589Y112603D02*
X-83738Y112603D01*
X-82670Y113220D02*
X-86569Y113220D01*
X-85500Y113837D02*
X-81601Y113837D01*
X-80532Y114454D02*
X-84431Y114454D01*
X-83362Y115071D02*
X-79463Y115071D01*
X-79769Y115688D02*
X-82293Y115688D01*
X-81225Y116305D02*
X-80125Y116305D01*
X-52101Y130869D02*
X-45650Y134593D01*
X-52101Y130869D02*
X-53076Y132557D01*
X-46625Y136281D01*
X-45650Y134593D01*
X-51032Y131486D02*
X-52457Y131486D01*
X-52814Y132103D02*
X-49963Y132103D01*
X-48895Y132720D02*
X-52794Y132720D01*
X-51725Y133337D02*
X-47826Y133337D01*
X-46757Y133954D02*
X-50656Y133954D01*
X-49587Y134571D02*
X-45688Y134571D01*
X-45994Y135188D02*
X-48518Y135188D01*
X-47450Y135805D02*
X-46350Y135805D01*
X-43150Y130263D02*
X-49601Y126539D01*
X-50576Y128227D01*
X-44125Y131951D01*
X-43150Y130263D01*
X-48532Y127156D02*
X-49957Y127156D01*
X-50314Y127773D02*
X-47463Y127773D01*
X-46395Y128390D02*
X-50294Y128390D01*
X-49225Y129007D02*
X-45326Y129007D01*
X-44257Y129624D02*
X-48156Y129624D01*
X-47087Y130241D02*
X-43188Y130241D01*
X-43494Y130858D02*
X-46018Y130858D01*
X-44950Y131475D02*
X-43850Y131475D01*
X-40650Y125933D02*
X-47101Y122209D01*
X-48076Y123897D01*
X-41625Y127621D01*
X-40650Y125933D01*
X-46032Y122826D02*
X-47457Y122826D01*
X-47814Y123443D02*
X-44963Y123443D01*
X-43895Y124060D02*
X-47794Y124060D01*
X-46725Y124677D02*
X-42826Y124677D01*
X-41757Y125294D02*
X-45656Y125294D01*
X-44587Y125911D02*
X-40688Y125911D01*
X-40994Y126528D02*
X-43518Y126528D01*
X-42450Y127145D02*
X-41350Y127145D01*
X-38150Y121603D02*
X-44601Y117879D01*
X-45576Y119567D01*
X-39125Y123291D01*
X-38150Y121603D01*
X-43532Y118496D02*
X-44957Y118496D01*
X-45314Y119113D02*
X-42463Y119113D01*
X-41395Y119730D02*
X-45294Y119730D01*
X-44225Y120347D02*
X-40326Y120347D01*
X-39257Y120964D02*
X-43156Y120964D01*
X-42087Y121581D02*
X-38188Y121581D01*
X-38494Y122198D02*
X-41018Y122198D01*
X-39950Y122815D02*
X-38850Y122815D01*
X-35650Y117273D02*
X-42101Y113549D01*
X-43076Y115237D01*
X-36625Y118961D01*
X-35650Y117273D01*
X-41032Y114166D02*
X-42457Y114166D01*
X-42814Y114783D02*
X-39963Y114783D01*
X-38895Y115400D02*
X-42794Y115400D01*
X-41725Y116017D02*
X-37826Y116017D01*
X-36757Y116634D02*
X-40656Y116634D01*
X-39587Y117251D02*
X-35688Y117251D01*
X-35994Y117868D02*
X-38518Y117868D01*
X-37450Y118485D02*
X-36350Y118485D01*
X-33150Y112943D02*
X-39601Y109219D01*
X-40576Y110907D01*
X-34125Y114631D01*
X-33150Y112943D01*
X-38532Y109836D02*
X-39957Y109836D01*
X-40314Y110453D02*
X-37463Y110453D01*
X-36395Y111070D02*
X-40294Y111070D01*
X-39225Y111687D02*
X-35326Y111687D01*
X-34257Y112304D02*
X-38156Y112304D01*
X-37087Y112921D02*
X-33188Y112921D01*
X-33494Y113538D02*
X-36018Y113538D01*
X-34950Y114155D02*
X-33850Y114155D01*
X-40443Y106076D02*
X-36719Y99625D01*
X-38407Y98650D01*
X-42131Y105101D01*
X-40443Y106076D01*
X-38763Y99267D02*
X-37339Y99267D01*
X-36869Y99884D02*
X-39119Y99884D01*
X-39476Y100501D02*
X-37225Y100501D01*
X-37581Y101118D02*
X-39832Y101118D01*
X-40188Y101735D02*
X-37937Y101735D01*
X-38293Y102352D02*
X-40544Y102352D01*
X-40900Y102969D02*
X-38649Y102969D01*
X-39006Y103586D02*
X-41256Y103586D01*
X-41613Y104203D02*
X-39362Y104203D01*
X-39718Y104820D02*
X-41969Y104820D01*
X-41549Y105437D02*
X-40074Y105437D01*
X-40430Y106054D02*
X-40481Y106054D01*
X-44773Y103576D02*
X-41049Y97125D01*
X-42737Y96150D01*
X-46461Y102601D01*
X-44773Y103576D01*
X-43093Y96767D02*
X-41669Y96767D01*
X-41199Y97384D02*
X-43449Y97384D01*
X-43806Y98001D02*
X-41555Y98001D01*
X-41911Y98618D02*
X-44162Y98618D01*
X-44518Y99235D02*
X-42267Y99235D01*
X-42623Y99852D02*
X-44874Y99852D01*
X-45230Y100469D02*
X-42979Y100469D01*
X-43336Y101086D02*
X-45586Y101086D01*
X-45943Y101703D02*
X-43692Y101703D01*
X-44048Y102320D02*
X-46299Y102320D01*
X-45879Y102937D02*
X-44404Y102937D01*
X-44760Y103554D02*
X-44811Y103554D01*
X-49103Y101076D02*
X-45379Y94625D01*
X-47067Y93650D01*
X-50791Y100101D01*
X-49103Y101076D01*
X-47423Y94267D02*
X-45999Y94267D01*
X-45529Y94884D02*
X-47779Y94884D01*
X-48136Y95501D02*
X-45885Y95501D01*
X-46241Y96118D02*
X-48492Y96118D01*
X-48848Y96735D02*
X-46597Y96735D01*
X-46953Y97352D02*
X-49204Y97352D01*
X-49560Y97969D02*
X-47309Y97969D01*
X-47666Y98586D02*
X-49916Y98586D01*
X-50273Y99203D02*
X-48022Y99203D01*
X-48378Y99820D02*
X-50629Y99820D01*
X-50209Y100437D02*
X-48734Y100437D01*
X-49090Y101054D02*
X-49141Y101054D01*
X-53433Y98576D02*
X-49709Y92125D01*
X-51397Y91150D01*
X-55121Y97601D01*
X-53433Y98576D01*
X-51753Y91767D02*
X-50329Y91767D01*
X-49859Y92384D02*
X-52109Y92384D01*
X-52466Y93001D02*
X-50215Y93001D01*
X-50571Y93618D02*
X-52822Y93618D01*
X-53178Y94235D02*
X-50927Y94235D01*
X-51283Y94852D02*
X-53534Y94852D01*
X-53890Y95469D02*
X-51639Y95469D01*
X-51996Y96086D02*
X-54246Y96086D01*
X-54603Y96703D02*
X-52352Y96703D01*
X-52708Y97320D02*
X-54959Y97320D01*
X-54539Y97937D02*
X-53064Y97937D01*
X-53420Y98554D02*
X-53471Y98554D01*
X-57763Y96076D02*
X-54039Y89625D01*
X-55727Y88650D01*
X-59451Y95101D01*
X-57763Y96076D01*
X-56083Y89267D02*
X-54659Y89267D01*
X-54189Y89884D02*
X-56439Y89884D01*
X-56796Y90501D02*
X-54545Y90501D01*
X-54901Y91118D02*
X-57152Y91118D01*
X-57508Y91735D02*
X-55257Y91735D01*
X-55613Y92352D02*
X-57864Y92352D01*
X-58220Y92969D02*
X-55969Y92969D01*
X-56326Y93586D02*
X-58576Y93586D01*
X-58933Y94203D02*
X-56682Y94203D01*
X-57038Y94820D02*
X-59289Y94820D01*
X-58869Y95437D02*
X-57394Y95437D01*
X-57750Y96054D02*
X-57801Y96054D01*
X-62093Y93576D02*
X-58369Y87125D01*
X-60057Y86150D01*
X-63781Y92601D01*
X-62093Y93576D01*
X-60413Y86767D02*
X-58989Y86767D01*
X-58519Y87384D02*
X-60769Y87384D01*
X-61126Y88001D02*
X-58875Y88001D01*
X-59231Y88618D02*
X-61482Y88618D01*
X-61838Y89235D02*
X-59587Y89235D01*
X-59943Y89852D02*
X-62194Y89852D01*
X-62550Y90469D02*
X-60299Y90469D01*
X-60656Y91086D02*
X-62906Y91086D01*
X-63263Y91703D02*
X-61012Y91703D01*
X-61368Y92320D02*
X-63619Y92320D01*
X-63199Y92937D02*
X-61724Y92937D01*
X-62080Y93554D02*
X-62131Y93554D01*
X-77869Y120899D02*
X-81593Y127350D01*
X-77869Y120899D02*
X-79557Y119924D01*
X-83281Y126375D01*
X-81593Y127350D01*
X-79913Y120541D02*
X-78489Y120541D01*
X-78019Y121158D02*
X-80269Y121158D01*
X-80626Y121775D02*
X-78375Y121775D01*
X-78731Y122392D02*
X-80982Y122392D01*
X-81338Y123009D02*
X-79087Y123009D01*
X-79443Y123626D02*
X-81694Y123626D01*
X-82050Y124243D02*
X-79799Y124243D01*
X-80156Y124860D02*
X-82406Y124860D01*
X-82763Y125477D02*
X-80512Y125477D01*
X-80868Y126094D02*
X-83119Y126094D01*
X-82699Y126711D02*
X-81224Y126711D01*
X-81580Y127328D02*
X-81631Y127328D01*
X-77263Y129850D02*
X-73539Y123399D01*
X-75227Y122424D01*
X-78951Y128875D01*
X-77263Y129850D01*
X-75583Y123041D02*
X-74159Y123041D01*
X-73689Y123658D02*
X-75939Y123658D01*
X-76296Y124275D02*
X-74045Y124275D01*
X-74401Y124892D02*
X-76652Y124892D01*
X-77008Y125509D02*
X-74757Y125509D01*
X-75113Y126126D02*
X-77364Y126126D01*
X-77720Y126743D02*
X-75469Y126743D01*
X-75826Y127360D02*
X-78076Y127360D01*
X-78433Y127977D02*
X-76182Y127977D01*
X-76538Y128594D02*
X-78789Y128594D01*
X-78369Y129211D02*
X-76894Y129211D01*
X-77250Y129828D02*
X-77301Y129828D01*
X-72933Y132350D02*
X-69209Y125899D01*
X-70897Y124924D01*
X-74621Y131375D01*
X-72933Y132350D01*
X-71253Y125541D02*
X-69829Y125541D01*
X-69359Y126158D02*
X-71609Y126158D01*
X-71966Y126775D02*
X-69715Y126775D01*
X-70071Y127392D02*
X-72322Y127392D01*
X-72678Y128009D02*
X-70427Y128009D01*
X-70783Y128626D02*
X-73034Y128626D01*
X-73390Y129243D02*
X-71139Y129243D01*
X-71496Y129860D02*
X-73746Y129860D01*
X-74103Y130477D02*
X-71852Y130477D01*
X-72208Y131094D02*
X-74459Y131094D01*
X-74039Y131711D02*
X-72564Y131711D01*
X-72920Y132328D02*
X-72971Y132328D01*
X-68603Y134850D02*
X-64879Y128399D01*
X-66567Y127424D01*
X-70291Y133875D01*
X-68603Y134850D01*
X-66923Y128041D02*
X-65499Y128041D01*
X-65029Y128658D02*
X-67279Y128658D01*
X-67636Y129275D02*
X-65385Y129275D01*
X-65741Y129892D02*
X-67992Y129892D01*
X-68348Y130509D02*
X-66097Y130509D01*
X-66453Y131126D02*
X-68704Y131126D01*
X-69060Y131743D02*
X-66809Y131743D01*
X-67166Y132360D02*
X-69416Y132360D01*
X-69773Y132977D02*
X-67522Y132977D01*
X-67878Y133594D02*
X-70129Y133594D01*
X-69709Y134211D02*
X-68234Y134211D01*
X-68590Y134828D02*
X-68641Y134828D01*
X-64273Y137350D02*
X-60549Y130899D01*
X-62237Y129924D01*
X-65961Y136375D01*
X-64273Y137350D01*
X-62593Y130541D02*
X-61169Y130541D01*
X-60699Y131158D02*
X-62949Y131158D01*
X-63306Y131775D02*
X-61055Y131775D01*
X-61411Y132392D02*
X-63662Y132392D01*
X-64018Y133009D02*
X-61767Y133009D01*
X-62123Y133626D02*
X-64374Y133626D01*
X-64730Y134243D02*
X-62479Y134243D01*
X-62836Y134860D02*
X-65086Y134860D01*
X-65443Y135477D02*
X-63192Y135477D01*
X-63548Y136094D02*
X-65799Y136094D01*
X-65379Y136711D02*
X-63904Y136711D01*
X-64260Y137328D02*
X-64311Y137328D01*
X-59943Y139850D02*
X-56219Y133399D01*
X-57907Y132424D01*
X-61631Y138875D01*
X-59943Y139850D01*
X-58263Y133041D02*
X-56839Y133041D01*
X-56369Y133658D02*
X-58619Y133658D01*
X-58976Y134275D02*
X-56725Y134275D01*
X-57081Y134892D02*
X-59332Y134892D01*
X-59688Y135509D02*
X-57437Y135509D01*
X-57793Y136126D02*
X-60044Y136126D01*
X-60400Y136743D02*
X-58149Y136743D01*
X-58506Y137360D02*
X-60756Y137360D01*
X-61113Y137977D02*
X-58862Y137977D01*
X-59218Y138594D02*
X-61469Y138594D01*
X-61049Y139211D02*
X-59574Y139211D01*
X-59930Y139828D02*
X-59981Y139828D01*
D15*
G36*
X-55242Y130758D02*
X-42242Y108242D01*
X-64758Y95242D01*
X-77758Y117758D01*
X-55242Y130758D01*
G37*
D16*
G36*
X41380Y124978D02*
X51379Y142298D01*
X60472Y137048D01*
X50473Y119728D01*
X41380Y124978D01*
G37*
G36*
X79528Y102953D02*
X89527Y120273D01*
X98620Y115023D01*
X88621Y97703D01*
X79528Y102953D01*
G37*
D17*
X-34684Y137741D02*
X-38494Y144340D01*
X-28596Y150055D01*
X-24786Y143456D01*
X-34684Y137741D01*
X-36077Y140154D02*
X-30505Y140154D01*
X-26326Y142567D02*
X-37470Y142567D01*
X-37386Y144980D02*
X-25666Y144980D01*
X-27059Y147393D02*
X-33206Y147393D01*
X-29027Y149806D02*
X-28452Y149806D01*
X-29604Y128942D02*
X-25794Y122343D01*
X-29604Y128942D02*
X-19706Y134657D01*
X-15896Y128058D01*
X-25794Y122343D01*
X-27187Y124756D02*
X-21615Y124756D01*
X-17436Y127169D02*
X-28580Y127169D01*
X-28496Y129582D02*
X-16776Y129582D01*
X-18169Y131995D02*
X-24316Y131995D01*
X-20137Y134408D02*
X-19562Y134408D01*
D18*
X-9935Y116169D03*
X10106Y116341D03*
X28778Y116512D03*
D19*
X-56001Y127332D03*
X-46268Y142496D03*
D20*
X-60000Y113000D02*
X-48085Y97363D01*
X-60000Y113000D02*
X-56001Y127332D01*
X71123Y49193D02*
X74380Y45936D01*
X70807Y49193D02*
X70000Y50000D01*
X70807Y49193D02*
X71123Y49193D01*
X74380Y45936D02*
X74380Y45251D01*
X76714Y42918D01*
X19947Y53051D02*
X0Y0D01*
D19*
X19947Y53051D03*
X20220Y81596D03*
D20*
X28778Y116512D01*
X-22750Y128500D02*
X-27660Y89869D01*
X-27676Y89758D01*
X-27696Y89648D01*
X-27720Y89539D01*
X-27748Y89430D01*
X-27779Y89323D01*
X-27814Y89217D01*
X-27853Y89112D01*
X-27896Y89009D01*
X-27942Y88907D01*
X-27992Y88807D01*
X-28045Y88709D01*
X-28101Y88612D01*
X-28161Y88518D01*
X-28225Y88426D01*
X-28291Y88336D01*
X-28361Y88249D01*
X-28433Y88164D01*
X-28509Y88081D01*
X-28587Y88002D01*
X-28669Y87925D01*
X-28752Y87851D01*
X-28839Y87780D01*
X-28928Y87712D01*
X-29019Y87648D01*
X-29112Y87586D01*
X-29208Y87528D01*
X-29305Y87473D01*
X-29404Y87422D01*
X-29505Y87374D01*
X-29608Y87330D01*
X-29712Y87290D01*
X-29818Y87253D01*
X-29925Y87220D01*
X-30033Y87191D01*
X-30141Y87165D01*
X-30251Y87144D01*
X-30361Y87126D01*
X-30472Y87112D01*
X-47091Y85334D01*
X-114300Y10354D02*
X-114300Y0D01*
X-63423Y61231D02*
X-63423Y69003D01*
X-47091Y85334D01*
X-63423Y61231D02*
X-114300Y10354D01*
X-9935Y116169D02*
X-22750Y128500D01*
D19*
X90830Y23680D03*
D20*
X91422Y23040D02*
X107231Y7231D01*
X91422Y23040D02*
X90830Y23680D01*
D19*
X-108116Y-49362D03*
D20*
X-114300Y0D01*
D21*
X-116444Y18375D03*
X-120642Y-20853D03*
X113069Y-20801D03*
X115530Y18997D03*
D20*
X-114300Y0D02*
X-116444Y18375D01*
X-114300Y0D02*
X-120642Y-20853D01*
X113069Y-20801D02*
X114285Y-254D01*
X114300Y0D01*
X107231Y7231D01*
X114300Y0D02*
X115530Y18997D01*
X-47091Y85334D02*
X-52415Y94863D01*
X-129286Y27229D02*
X-146050Y10465D01*
X-129286Y27229D02*
X-129286Y35947D01*
X-95716Y69517D01*
X-95641Y69595D01*
X-95568Y69675D01*
X-95498Y69758D01*
X-95431Y69844D01*
X-95367Y69931D01*
X-95306Y70021D01*
X-95248Y70112D01*
X-95193Y70206D01*
X-95142Y70301D01*
X-95094Y70398D01*
X-95049Y70497D01*
X-95007Y70597D01*
X-94969Y70699D01*
X-94935Y70802D01*
X-94904Y70905D01*
X-94876Y71010D01*
X-94852Y71116D01*
X-94832Y71223D01*
X-94816Y71330D01*
X-94803Y71437D01*
X-94793Y71545D01*
X-94788Y71654D01*
X-94786Y71762D01*
X-92581Y95649D02*
X-75638Y101085D01*
X-92581Y95649D02*
X-92686Y95613D01*
X-92790Y95574D01*
X-92893Y95531D01*
X-92993Y95484D01*
X-93093Y95434D01*
X-93190Y95381D01*
X-93285Y95324D01*
X-93379Y95263D01*
X-93470Y95200D01*
X-93559Y95133D01*
X-93646Y95063D01*
X-93730Y94991D01*
X-93811Y94915D01*
X-93890Y94837D01*
X-93966Y94756D01*
X-94039Y94672D01*
X-94109Y94586D01*
X-94176Y94497D01*
X-94240Y94406D01*
X-94301Y94313D01*
X-94358Y94218D01*
X-94412Y94121D01*
X-94463Y94022D01*
X-94510Y93921D01*
X-94553Y93819D01*
X-94593Y93715D01*
X-94630Y93610D01*
X-94662Y93504D01*
X-94691Y93396D01*
X-94716Y93288D01*
X-94737Y93179D01*
X-94755Y93069D01*
X-94769Y92959D01*
X-94778Y92848D01*
X-94784Y92737D01*
X-94786Y92626D01*
X-94786Y71762D01*
D19*
X-47620Y75219D03*
X-91465Y110224D03*
D20*
X-83728Y102487D01*
X-83728Y102364D01*
X-78138Y105415D01*
X-47620Y75219D02*
X123312Y71108D01*
X-90393Y80122D02*
X-90478Y80191D01*
X-90561Y80262D01*
X-90641Y80336D01*
X-90719Y80413D01*
X-90794Y80492D01*
X-90866Y80574D01*
X-90935Y80659D01*
X-91002Y80746D01*
X-91065Y80835D01*
X-91126Y80926D01*
X-91183Y81019D01*
X-91237Y81114D01*
X-91287Y81211D01*
X-91335Y81310D01*
X-91378Y81410D01*
X-91419Y81511D01*
X-91456Y81614D01*
X-91489Y81719D01*
X-91518Y81824D01*
X-91544Y81930D01*
X-91567Y82037D01*
X-91585Y82145D01*
X-91600Y82253D01*
X-91611Y82362D01*
X-91619Y82471D01*
X-91623Y82580D01*
X-91622Y82689D01*
X-91619Y82799D01*
X-91611Y82908D01*
X-91600Y83016D01*
X-91585Y83125D01*
X-91566Y83232D01*
X-91543Y83339D01*
X-91517Y83445D01*
X-90392Y80122D02*
X-68983Y63534D01*
D19*
X-68983Y63534D03*
X-56296Y68193D03*
D20*
X60252Y54902D01*
X140818Y36111D02*
X140925Y36084D01*
X141030Y36054D01*
X141135Y36020D01*
X141238Y35982D01*
X141340Y35940D01*
X141441Y35896D01*
X141540Y35847D01*
X141637Y35796D01*
X141732Y35741D01*
X141825Y35682D01*
X141916Y35621D01*
X142005Y35556D01*
X142092Y35489D01*
X142177Y35418D01*
X142258Y35345D01*
X142338Y35268D01*
X142414Y35190D01*
X142488Y35108D01*
X142559Y35024D01*
X142627Y34937D01*
X142692Y34849D01*
X142754Y34758D01*
X142812Y34665D01*
X142868Y34570D01*
X142920Y34473D01*
X142968Y34374D01*
X143014Y34274D01*
X143055Y34172D01*
X143093Y34069D01*
X143128Y33964D01*
X143159Y33859D01*
X143186Y33752D01*
X143210Y33645D01*
X143230Y33537D01*
X143246Y33428D01*
X143258Y33319D01*
X143266Y33209D01*
X144780Y7925D01*
X62073Y53081D02*
X60252Y54902D01*
X72607Y52020D02*
X140818Y36111D01*
X71546Y53081D02*
X62073Y53081D01*
X71546Y53081D02*
X72607Y52020D01*
X-73138Y96755D02*
X-89212Y92176D01*
X-89212Y92177D02*
X-89318Y92144D01*
X-89423Y92108D01*
X-89527Y92069D01*
X-89629Y92026D01*
X-89730Y91979D01*
X-89828Y91929D01*
X-89926Y91875D01*
X-90021Y91818D01*
X-90114Y91758D01*
X-90205Y91694D01*
X-90294Y91627D01*
X-90380Y91558D01*
X-90464Y91485D01*
X-90545Y91409D01*
X-90624Y91331D01*
X-90699Y91250D01*
X-90772Y91166D01*
X-90842Y91080D01*
X-90909Y90991D01*
X-90973Y90901D01*
X-91033Y90808D01*
X-91091Y90712D01*
X-91144Y90615D01*
X-91195Y90517D01*
X-91242Y90416D01*
X-91285Y90314D01*
X-91325Y90210D01*
X-91361Y90105D01*
X-91394Y89999D01*
X-91422Y89892D01*
X-91447Y89784D01*
X-91469Y89675D01*
X-91486Y89565D01*
X-91500Y89455D01*
X-91509Y89345D01*
X-91515Y89234D01*
X-91517Y89123D01*
X-91517Y83445D01*
D19*
X-133890Y65534D03*
X-83992Y85867D03*
D20*
X-124582Y71108D02*
X-133890Y65534D01*
X-83992Y85867D02*
X-70638Y92425D01*
X-79571Y132981D02*
X-68628Y140474D01*
X-50549Y149752D01*
X-32946Y155224D01*
X-18674Y156175D01*
X3211Y157008D01*
X35920Y145946D01*
X50926Y131013D01*
X-76245Y126137D02*
X-79571Y132981D01*
X-9764Y101091D02*
X10106Y116341D01*
D19*
X-9764Y101091D03*
X-32372Y120675D03*
D20*
X-39363Y116255D01*
X-113629Y68786D02*
X-155999Y26415D01*
X-156074Y26337D01*
X-156147Y26257D01*
X-156217Y26174D01*
X-156284Y26088D01*
X-156348Y26001D01*
X-156409Y25911D01*
X-156467Y25820D01*
X-156522Y25726D01*
X-156573Y25631D01*
X-156621Y25534D01*
X-156666Y25435D01*
X-156708Y25335D01*
X-156746Y25233D01*
X-156780Y25130D01*
X-156811Y25027D01*
X-156839Y24922D01*
X-156863Y24816D01*
X-156883Y24709D01*
X-156899Y24602D01*
X-156912Y24495D01*
X-156922Y24387D01*
X-156927Y24278D01*
X-156929Y24170D01*
X-156929Y17180D01*
X-157818Y-17476D01*
X-126093Y-76376D01*
X-126039Y-76473D01*
X-125981Y-76568D01*
X-125920Y-76661D01*
X-125855Y-76752D01*
X-125788Y-76840D01*
X-125717Y-76926D01*
X-125644Y-77010D01*
X-125567Y-77091D01*
X-125488Y-77169D01*
X-125406Y-77244D01*
X-125321Y-77317D01*
X-125234Y-77386D01*
X-125145Y-77452D01*
X-125053Y-77516D01*
X-124959Y-77576D01*
X-124864Y-77632D01*
X-124766Y-77685D01*
X-124666Y-77735D01*
X-124565Y-77781D01*
X-124462Y-77824D01*
X-124358Y-77863D01*
X-124252Y-77898D01*
X-124145Y-77930D01*
X-124038Y-77958D01*
X-123929Y-77982D01*
X-123819Y-78002D01*
X-123709Y-78018D01*
X-123599Y-78031D01*
X-123488Y-78039D01*
X-123376Y-78044D01*
X-123265Y-78045D01*
X-123154Y-78042D01*
X-123043Y-78035D01*
X-122932Y-78024D01*
X-122822Y-78009D01*
X-122712Y-77990D01*
X-122603Y-77968D01*
X-122602Y-77968D02*
X-59171Y-63732D01*
D19*
X-59171Y-63732D03*
D20*
X-40000Y-50000D01*
X-40000Y-40000D01*
X-46474Y-33526D01*
X-58993Y4029D01*
X-50000Y40000D01*
X-34612Y45556D01*
D19*
X-34612Y45556D03*
D20*
X-113629Y68786D02*
X-111578Y84112D01*
X144780Y-10465D02*
X132270Y-46255D01*
X132232Y-46358D01*
X132191Y-46459D01*
X132146Y-46559D01*
X132097Y-46658D01*
X132046Y-46754D01*
X131990Y-46849D01*
X131932Y-46942D01*
X131871Y-47033D01*
X131806Y-47121D01*
X131738Y-47208D01*
X131668Y-47292D01*
X131594Y-47373D01*
X131518Y-47452D01*
X131439Y-47528D01*
X131358Y-47602D01*
X131274Y-47672D01*
X131187Y-47740D01*
X131099Y-47804D01*
X131008Y-47866D01*
X130915Y-47924D01*
X130820Y-47979D01*
X130724Y-48031D01*
X130625Y-48080D01*
X130525Y-48125D01*
X130424Y-48166D01*
X130321Y-48204D01*
X130217Y-48239D01*
X130111Y-48269D01*
X130005Y-48296D01*
X129898Y-48320D01*
X129790Y-48340D01*
X129682Y-48356D01*
X129573Y-48368D01*
X129463Y-48376D01*
X129354Y-48381D01*
X129244Y-48382D01*
X129134Y-48379D01*
X129025Y-48372D01*
X128916Y-48362D01*
X128807Y-48348D01*
X128806Y-48348D02*
X79840Y-41081D01*
X73208Y-40097D01*
D19*
X66627Y-44056D03*
D20*
X73810Y-41081D02*
X79840Y-41081D01*
X73810Y-41081D02*
X73561Y-41084D01*
X73312Y-41093D01*
X73063Y-41109D01*
X72814Y-41130D01*
X72567Y-41157D01*
X72320Y-41191D01*
X72073Y-41231D01*
X71828Y-41276D01*
X71584Y-41328D01*
X71342Y-41385D01*
X71101Y-41449D01*
X70861Y-41518D01*
X70624Y-41594D01*
X70388Y-41675D01*
X70154Y-41762D01*
X69923Y-41854D01*
X69694Y-41952D01*
X69467Y-42056D01*
X69243Y-42166D01*
X69022Y-42280D01*
X68803Y-42401D01*
X68588Y-42526D01*
X68375Y-42657D01*
X68167Y-42793D01*
X67961Y-42934D01*
X67759Y-43080D01*
X67560Y-43231D01*
X67366Y-43387D01*
X67175Y-43547D01*
X66988Y-43712D01*
X66806Y-43882D01*
X66627Y-44056D01*
X73208Y-40097D02*
X62770Y4943D01*
X59896Y20731D02*
X45840Y38158D01*
X59896Y20731D02*
X59965Y20644D01*
X60030Y20553D01*
X60092Y20461D01*
X60150Y20367D01*
X60206Y20270D01*
X60258Y20172D01*
X60306Y20072D01*
X60351Y19970D01*
X60393Y19867D01*
X60430Y19762D01*
X60464Y19656D01*
X60495Y19549D01*
X60521Y19441D01*
X60544Y19332D01*
X60563Y19223D01*
X62770Y4943D01*
D19*
X45840Y38158D03*
X101500Y94338D03*
X81504Y-33981D03*
D20*
X81504Y30949D01*
X68820Y43633D01*
D19*
X68820Y43633D03*
D20*
X110308Y84112D02*
X101500Y94338D01*
X-146050Y-7925D02*
X-121126Y-57750D01*
X-121126Y-57749D02*
X-121074Y-57849D01*
X-121018Y-57946D01*
X-120960Y-58041D01*
X-120898Y-58135D01*
X-120832Y-58226D01*
X-120764Y-58314D01*
X-120692Y-58400D01*
X-120618Y-58484D01*
X-120540Y-58565D01*
X-120460Y-58643D01*
X-120377Y-58718D01*
X-120292Y-58790D01*
X-120203Y-58860D01*
X-120113Y-58926D01*
X-120020Y-58988D01*
X-119925Y-59048D01*
X-119829Y-59104D01*
X-119730Y-59157D01*
X-119629Y-59206D01*
X-119527Y-59251D01*
X-119423Y-59293D01*
X-119318Y-59332D01*
X-119211Y-59366D01*
X-119104Y-59397D01*
X-118995Y-59424D01*
X-118885Y-59447D01*
X-118775Y-59466D01*
X-118664Y-59481D01*
X-118553Y-59493D01*
X-118441Y-59500D01*
X-118329Y-59504D01*
X-118217Y-59503D01*
X-118105Y-59499D01*
X-117993Y-59490D01*
X-117882Y-59478D01*
X-117771Y-59462D01*
X-117661Y-59442D01*
X-117552Y-59418D01*
X-47503Y-42770D01*
D19*
X-47503Y-42770D03*
X-31716Y-63633D03*
D20*
X-31492Y-63581D01*
D19*
X33653Y44975D03*
D20*
X53086Y20674D02*
X53086Y-53581D01*
X53086Y20674D02*
X53084Y20782D01*
X53079Y20891D01*
X53069Y20999D01*
X53056Y21106D01*
X53040Y21213D01*
X53020Y21320D01*
X52996Y21426D01*
X52968Y21531D01*
X52937Y21634D01*
X52903Y21737D01*
X52865Y21839D01*
X52823Y21939D01*
X52778Y22038D01*
X52730Y22135D01*
X52679Y22230D01*
X52624Y22324D01*
X52566Y22415D01*
X52505Y22505D01*
X52441Y22592D01*
X52374Y22678D01*
X52304Y22761D01*
X52231Y22841D01*
X52156Y22919D01*
X34583Y40492D01*
X34508Y40570D01*
X34435Y40650D01*
X34365Y40733D01*
X34298Y40819D01*
X34234Y40906D01*
X34173Y40996D01*
X34115Y41087D01*
X34060Y41181D01*
X34009Y41276D01*
X33961Y41373D01*
X33916Y41472D01*
X33874Y41572D01*
X33836Y41674D01*
X33802Y41777D01*
X33771Y41880D01*
X33743Y41985D01*
X33719Y42091D01*
X33699Y42198D01*
X33683Y42305D01*
X33670Y42412D01*
X33660Y42520D01*
X33655Y42629D01*
X33653Y42737D01*
X33653Y44975D01*
X53086Y-53581D02*
X53083Y-53823D01*
X53074Y-54064D01*
X53060Y-54305D01*
X53039Y-54546D01*
X53013Y-54786D01*
X52981Y-55026D01*
X52943Y-55265D01*
X52900Y-55502D01*
X52850Y-55739D01*
X52795Y-55974D01*
X52735Y-56208D01*
X52668Y-56440D01*
X52597Y-56671D01*
X52519Y-56900D01*
X52436Y-57127D01*
X52348Y-57352D01*
X52254Y-57575D01*
X52155Y-57795D01*
X52050Y-58013D01*
X51941Y-58228D01*
X51826Y-58441D01*
X51706Y-58651D01*
X51581Y-58857D01*
X51451Y-59061D01*
X51316Y-59262D01*
X51176Y-59459D01*
X51032Y-59653D01*
X50883Y-59843D01*
X50729Y-60029D01*
X50571Y-60212D01*
X50409Y-60391D01*
X50242Y-60566D01*
X50071Y-60737D01*
X49896Y-60904D01*
X49717Y-61066D01*
X49534Y-61224D01*
X49348Y-61378D01*
X49158Y-61527D01*
X48964Y-61671D01*
X48767Y-61811D01*
X48566Y-61946D01*
X48362Y-62076D01*
X48156Y-62201D01*
X47946Y-62321D01*
X47733Y-62436D01*
X47518Y-62545D01*
X47300Y-62650D01*
X47080Y-62749D01*
X46857Y-62843D01*
X46632Y-62931D01*
X46405Y-63014D01*
X46176Y-63092D01*
X45945Y-63163D01*
X45713Y-63230D01*
X45479Y-63290D01*
X45244Y-63345D01*
X45007Y-63395D01*
X44770Y-63438D01*
X44531Y-63476D01*
X44291Y-63508D01*
X44051Y-63534D01*
X43810Y-63555D01*
X43569Y-63569D01*
X43328Y-63578D01*
X43086Y-63581D01*
X-31492Y-63581D01*
M02*
