G04 EAGLE Gerber RS-274X export*
G75*
%MOMM*%
%FSLAX34Y34*%
%LPD*%
%INBottom Silkscreen*%
%IPPOS*%
%AMOC8*
5,1,8,0,0,1.08239X$1,22.5*%
G01*
G04 Define Apertures*
%ADD10C,0.254000*%
%ADD11R,0.112900X0.022575*%
%ADD12R,0.158000X0.022569*%
%ADD13R,0.135500X0.022569*%
%ADD14R,0.180500X0.022569*%
%ADD15R,0.203100X0.022569*%
%ADD16R,0.225700X0.022581*%
%ADD17R,0.203100X0.022581*%
%ADD18R,0.203200X0.022569*%
%ADD19R,0.225800X0.022569*%
%ADD20R,0.225700X0.022569*%
%ADD21R,0.203100X0.022575*%
%ADD22R,0.225700X0.022575*%
%ADD23R,0.248300X0.022569*%
%ADD24R,0.203200X0.022575*%
%ADD25R,0.203200X0.022581*%
%ADD26R,0.338600X0.022569*%
%ADD27R,0.699700X0.022569*%
%ADD28R,0.677100X0.022581*%
%ADD29R,0.699800X0.022569*%
%ADD30R,0.744800X0.022569*%
%ADD31R,0.767400X0.022581*%
%ADD32R,0.812600X0.022569*%
%ADD33R,0.835100X0.022569*%
%ADD34R,0.880300X0.022569*%
%ADD35R,0.902900X0.022569*%
%ADD36R,0.925500X0.022569*%
%ADD37R,0.948000X0.022575*%
%ADD38R,0.970600X0.022569*%
%ADD39R,0.993200X0.022569*%
%ADD40R,1.015700X0.022569*%
%ADD41R,1.015700X0.022581*%
%ADD42R,1.015700X0.022575*%
%ADD43R,0.948000X0.022569*%
%ADD44R,0.925500X0.022575*%
%ADD45R,0.857700X0.022569*%
%ADD46R,0.790000X0.022569*%
%ADD47R,0.744900X0.022581*%
%ADD48R,0.654600X0.022569*%
%ADD49R,0.564300X0.022569*%
%ADD50R,0.519100X0.022569*%
%ADD51R,0.428900X0.022575*%
%ADD52R,0.248300X0.022575*%
%ADD53R,0.383700X0.022569*%
%ADD54R,0.835100X0.022581*%
%ADD55R,0.767400X0.022569*%
%ADD56R,0.293400X0.022569*%
%ADD57R,0.632000X0.022581*%
%ADD58R,0.677200X0.022569*%
%ADD59R,0.316000X0.022569*%
%ADD60R,1.534900X0.022569*%
%ADD61R,0.451400X0.022569*%
%ADD62R,1.692900X0.022569*%
%ADD63R,0.609500X0.022569*%
%ADD64R,1.783100X0.022569*%
%ADD65R,2.640900X0.022581*%
%ADD66R,2.686000X0.022569*%
%ADD67R,2.731200X0.022569*%
%ADD68R,2.753800X0.022569*%
%ADD69R,0.632000X0.022569*%
%ADD70R,1.218900X0.022569*%
%ADD71R,0.474000X0.022581*%
%ADD72R,0.722300X0.022581*%
%ADD73R,0.293400X0.022581*%
%ADD74R,0.361100X0.022569*%
%ADD75R,0.270900X0.022569*%
%ADD76R,0.609400X0.022569*%
%ADD77R,0.654600X0.022575*%
%ADD78R,0.654500X0.022569*%
%ADD79R,0.248200X0.022569*%
%ADD80R,0.270800X0.022569*%
%ADD81R,0.744900X0.022569*%
%ADD82R,0.293500X0.022569*%
%ADD83R,0.383700X0.022581*%
%ADD84R,0.812600X0.022581*%
%ADD85R,1.331800X0.022569*%
%ADD86R,1.241500X0.022569*%
%ADD87R,0.361200X0.022569*%
%ADD88R,1.106000X0.022569*%
%ADD89R,1.015800X0.022569*%
%ADD90R,0.406200X0.022569*%
%ADD91R,0.699800X0.022575*%
%ADD92R,0.496600X0.022575*%
%ADD93R,0.541800X0.022569*%
%ADD94R,0.586900X0.022569*%
%ADD95R,0.835200X0.022569*%
%ADD96R,1.896000X0.022569*%
%ADD97R,1.918600X0.022575*%
%ADD98R,1.963800X0.022569*%
%ADD99R,2.031400X0.022569*%
%ADD100R,2.099200X0.022569*%
%ADD101R,2.279700X0.022569*%
%ADD102R,2.437800X0.022569*%
%ADD103R,0.564300X0.022581*%
%ADD104R,1.444600X0.022581*%
%ADD105R,0.406300X0.022569*%
%ADD106R,0.925400X0.022569*%
%ADD107R,1.060900X0.022569*%
%ADD108R,0.293500X0.022575*%
%ADD109R,1.106100X0.022575*%
%ADD110R,1.151200X0.022569*%
%ADD111R,0.541700X0.022569*%
%ADD112R,0.135400X0.022569*%
%ADD113R,0.519100X0.022581*%
%ADD114R,0.790000X0.022581*%
%ADD115R,1.647700X0.022569*%
%ADD116R,1.557500X0.022569*%
%ADD117R,1.467100X0.022569*%
%ADD118R,1.376900X0.022569*%
%ADD119R,1.218900X0.022581*%
%ADD120C,0.203200*%
%ADD121R,0.180600X0.022569*%
%ADD122R,0.090300X0.022569*%
%ADD123R,0.474000X0.022569*%
%ADD124R,0.519200X0.022569*%
%ADD125R,0.496600X0.022569*%
%ADD126R,0.564200X0.022569*%
%ADD127R,0.632000X0.022575*%
%ADD128R,0.744800X0.022575*%
%ADD129R,0.112800X0.022569*%
%ADD130R,0.722300X0.022569*%
%ADD131R,0.496500X0.022569*%
%ADD132R,0.586800X0.022569*%
%ADD133R,0.609400X0.022581*%
%ADD134R,0.338500X0.022569*%
%ADD135R,0.316000X0.022575*%
%ADD136R,0.338600X0.022575*%
%ADD137R,0.270800X0.022575*%
%ADD138R,0.270900X0.022575*%
%ADD139R,0.180600X0.022581*%
%ADD140R,0.699700X0.022581*%
%ADD141R,0.541800X0.022581*%
%ADD142R,0.225800X0.022581*%
%ADD143R,0.270900X0.022581*%
%ADD144R,0.270800X0.022581*%
%ADD145R,0.406300X0.022581*%
%ADD146R,0.428900X0.022569*%
%ADD147R,0.112800X0.022581*%
%ADD148R,0.045200X0.022569*%
%ADD149R,0.158000X0.022581*%
%ADD150R,0.541700X0.022575*%
%ADD151R,0.835200X0.022581*%
%ADD152R,0.586800X0.022581*%
%ADD153R,0.067700X0.022569*%
%ADD154R,1.038300X0.022569*%
%ADD155R,1.060800X0.022581*%
%ADD156R,0.451500X0.022581*%
%ADD157R,0.474100X0.022569*%
%ADD158R,1.083500X0.022569*%
%ADD159R,0.767500X0.022569*%
%ADD160R,0.022600X0.022569*%
%ADD161R,0.586900X0.022575*%
%ADD162R,1.625200X0.022569*%
%ADD163R,1.602600X0.022581*%
%ADD164R,1.309200X0.022569*%
%ADD165R,1.264100X0.022569*%
%ADD166R,1.196300X0.022569*%
%ADD167R,1.173800X0.022575*%
%ADD168R,0.857700X0.022575*%
%ADD169R,0.586900X0.022581*%
%ADD170R,0.022581X0.090300*%
%ADD171R,0.022569X0.135400*%
%ADD172R,0.022569X0.158000*%
%ADD173R,0.022569X0.203100*%
%ADD174R,0.022575X0.203100*%
%ADD175R,0.022569X0.225700*%
%ADD176R,0.022569X0.248300*%
%ADD177R,0.022569X0.270800*%
%ADD178R,0.022569X0.316000*%
%ADD179R,0.022581X0.338600*%
%ADD180R,0.022569X0.383800*%
%ADD181R,0.022569X0.180600*%
%ADD182R,0.022569X0.406300*%
%ADD183R,0.022569X0.383700*%
%ADD184R,0.022569X0.361100*%
%ADD185R,0.022569X0.293400*%
%ADD186R,0.022569X0.203200*%
%ADD187R,0.022581X0.225700*%
%ADD188R,0.022581X0.203200*%
%ADD189R,0.022569X0.270900*%
%ADD190R,0.022569X0.225800*%
%ADD191R,0.022569X0.338600*%
%ADD192R,0.022581X0.248300*%
%ADD193R,0.022581X0.361100*%
%ADD194R,0.022569X0.293500*%
%ADD195R,0.022569X0.361200*%
%ADD196R,0.022575X0.361100*%
%ADD197R,0.022575X0.248300*%
%ADD198R,0.022575X0.338600*%
%ADD199R,0.022575X0.383800*%
%ADD200R,0.022575X0.383700*%
%ADD201R,0.022575X0.316000*%
%ADD202R,0.022569X0.338500*%
%ADD203R,0.022569X0.428800*%
%ADD204R,0.022569X0.677200*%
%ADD205R,0.022581X0.699700*%
%ADD206R,0.022575X0.180600*%
%ADD207R,0.022569X0.609500*%
%ADD208R,0.022569X0.541700*%
%ADD209R,0.022569X0.474000*%
%ADD210R,0.022581X0.316000*%
%ADD211R,0.022569X0.045100*%
%ADD212C,0.152400*%
%ADD213R,0.090300X0.022581*%
%ADD214R,0.338600X0.022581*%
%ADD215R,0.383800X0.022569*%
%ADD216R,0.248300X0.022581*%
%ADD217R,0.361100X0.022581*%
%ADD218R,0.361100X0.022575*%
%ADD219R,0.383800X0.022575*%
%ADD220R,0.383700X0.022575*%
%ADD221R,0.428800X0.022569*%
%ADD222R,0.180600X0.022575*%
%ADD223R,0.316000X0.022581*%
%ADD224R,0.045100X0.022569*%
%ADD225C,0.127000*%
%ADD226C,0.200000*%
D10*
X32271Y101924D02*
X25498Y101924D01*
X12527Y103969D02*
X12527Y93809D01*
X12527Y103969D02*
X9705Y103969D01*
X9599Y103967D01*
X9494Y103961D01*
X9389Y103951D01*
X9284Y103937D01*
X9180Y103920D01*
X9077Y103898D01*
X8975Y103873D01*
X8873Y103844D01*
X8773Y103811D01*
X8674Y103774D01*
X8577Y103734D01*
X8481Y103690D01*
X8386Y103642D01*
X8294Y103591D01*
X8204Y103536D01*
X8115Y103479D01*
X8029Y103418D01*
X7946Y103353D01*
X7864Y103286D01*
X7786Y103216D01*
X7710Y103142D01*
X7636Y103066D01*
X7566Y102988D01*
X7499Y102906D01*
X7434Y102823D01*
X7373Y102737D01*
X7316Y102648D01*
X7261Y102558D01*
X7210Y102466D01*
X7162Y102371D01*
X7118Y102275D01*
X7078Y102178D01*
X7041Y102079D01*
X7008Y101979D01*
X6979Y101877D01*
X6954Y101775D01*
X6932Y101672D01*
X6915Y101568D01*
X6901Y101463D01*
X6891Y101358D01*
X6885Y101253D01*
X6883Y101147D01*
X6883Y96632D01*
X6885Y96526D01*
X6891Y96421D01*
X6901Y96316D01*
X6915Y96211D01*
X6932Y96107D01*
X6954Y96004D01*
X6979Y95902D01*
X7008Y95800D01*
X7041Y95700D01*
X7078Y95601D01*
X7118Y95504D01*
X7162Y95408D01*
X7210Y95313D01*
X7261Y95221D01*
X7316Y95131D01*
X7373Y95042D01*
X7434Y94956D01*
X7499Y94873D01*
X7566Y94791D01*
X7636Y94713D01*
X7710Y94637D01*
X7786Y94563D01*
X7864Y94493D01*
X7946Y94426D01*
X8029Y94361D01*
X8115Y94300D01*
X8204Y94243D01*
X8294Y94188D01*
X8386Y94137D01*
X8481Y94089D01*
X8577Y94045D01*
X8674Y94005D01*
X8773Y93968D01*
X8873Y93935D01*
X8975Y93906D01*
X9077Y93881D01*
X9180Y93859D01*
X9284Y93842D01*
X9389Y93828D01*
X9494Y93818D01*
X9599Y93812D01*
X9705Y93810D01*
X9705Y93809D02*
X12527Y93809D01*
X-14948Y101686D02*
X-21721Y101686D01*
X-18335Y105072D02*
X-18335Y98299D01*
D11*
X111450Y-109575D03*
D12*
X111450Y-109350D03*
D13*
X106371Y-109124D03*
D14*
X111337Y-109124D03*
X106371Y-108898D03*
X111337Y-108898D03*
D15*
X106484Y-108672D03*
X111224Y-108672D03*
D16*
X106597Y-108447D03*
D17*
X111224Y-108447D03*
D18*
X106710Y-108221D03*
X110999Y-108221D03*
D19*
X106823Y-107995D03*
D18*
X110999Y-107995D03*
X106936Y-107770D03*
X110999Y-107770D03*
D20*
X107048Y-107544D03*
D18*
X110999Y-107544D03*
D20*
X107048Y-107318D03*
X111111Y-107318D03*
D21*
X107161Y-107092D03*
D22*
X111111Y-107092D03*
D20*
X107048Y-106867D03*
X111337Y-106867D03*
D18*
X106936Y-106641D03*
D23*
X111450Y-106641D03*
D18*
X106936Y-106415D03*
D20*
X111563Y-106415D03*
D19*
X106823Y-106190D03*
D20*
X111788Y-106190D03*
D24*
X106710Y-105964D03*
D22*
X111788Y-105964D03*
D20*
X106597Y-105738D03*
D15*
X111901Y-105738D03*
X106484Y-105512D03*
X111901Y-105512D03*
X106484Y-105287D03*
X111901Y-105287D03*
X106484Y-105061D03*
X111901Y-105061D03*
X106484Y-104835D03*
X111901Y-104835D03*
D16*
X106597Y-104609D03*
X111788Y-104609D03*
D19*
X106823Y-104384D03*
D18*
X111676Y-104384D03*
D19*
X106823Y-104158D03*
D18*
X111676Y-104158D03*
D20*
X107048Y-103932D03*
D15*
X111450Y-103932D03*
D20*
X107274Y-103707D03*
D15*
X111450Y-103707D03*
D22*
X107274Y-103481D03*
D21*
X111450Y-103481D03*
D15*
X107387Y-103255D03*
X111450Y-103255D03*
D20*
X107500Y-103029D03*
D15*
X111450Y-103029D03*
D18*
X107613Y-102804D03*
D20*
X111563Y-102804D03*
D18*
X107613Y-102578D03*
D20*
X111788Y-102578D03*
D15*
X107387Y-102352D03*
D20*
X111788Y-102352D03*
D17*
X107387Y-102127D03*
D16*
X112014Y-102127D03*
D20*
X107274Y-101901D03*
X112240Y-101901D03*
D15*
X107161Y-101675D03*
D20*
X112240Y-101675D03*
D15*
X107161Y-101449D03*
D18*
X112353Y-101449D03*
X106936Y-101224D03*
X112353Y-101224D03*
D25*
X106936Y-100998D03*
X112353Y-100998D03*
D18*
X106936Y-100772D03*
X112353Y-100772D03*
D20*
X107048Y-100547D03*
X112240Y-100547D03*
X107048Y-100321D03*
D23*
X112127Y-100321D03*
X107387Y-100095D03*
D26*
X111450Y-100095D03*
D27*
X109644Y-99869D03*
D28*
X109757Y-99644D03*
D27*
X109870Y-99418D03*
X109870Y-99192D03*
D29*
X110096Y-98967D03*
D30*
X110096Y-98741D03*
D31*
X110209Y-98515D03*
D32*
X110209Y-98289D03*
D33*
X110321Y-98064D03*
D34*
X110321Y-97838D03*
D35*
X110208Y-97612D03*
D36*
X110321Y-97387D03*
D37*
X110209Y-97161D03*
D38*
X110322Y-96935D03*
X110322Y-96709D03*
D39*
X110209Y-96484D03*
D40*
X110321Y-96258D03*
D41*
X110321Y-96032D03*
D40*
X110321Y-95806D03*
X110321Y-95581D03*
X110321Y-95355D03*
X110321Y-95129D03*
X110321Y-94904D03*
D42*
X110321Y-94678D03*
D39*
X110209Y-94452D03*
D38*
X110322Y-94226D03*
X110322Y-94001D03*
D43*
X110209Y-93775D03*
D44*
X110321Y-93549D03*
D36*
X110321Y-93324D03*
D34*
X110321Y-93098D03*
D45*
X110208Y-92872D03*
D33*
X110321Y-92646D03*
D46*
X110322Y-92421D03*
D47*
X110321Y-92195D03*
D27*
X110321Y-91969D03*
D48*
X110322Y-91744D03*
D49*
X110321Y-91518D03*
D50*
X110321Y-91292D03*
D51*
X110321Y-91066D03*
D52*
X115738Y-91066D03*
D53*
X110547Y-90841D03*
X115513Y-90841D03*
D34*
X113255Y-90615D03*
D45*
X113368Y-90389D03*
X113594Y-90164D03*
X113594Y-89938D03*
D54*
X113707Y-89712D03*
D32*
X113820Y-89486D03*
D46*
X113933Y-89261D03*
D55*
X114046Y-89035D03*
D26*
X112353Y-88809D03*
D56*
X116190Y-88809D03*
D57*
X114497Y-88583D03*
D58*
X114046Y-88358D03*
D34*
X113030Y-88132D03*
D59*
X122172Y-88132D03*
D60*
X109531Y-87906D03*
D61*
X121946Y-87906D03*
D62*
X108515Y-87681D03*
D63*
X121607Y-87681D03*
D64*
X108064Y-87455D03*
D30*
X121156Y-87455D03*
D65*
X111901Y-87229D03*
D66*
X111676Y-87003D03*
D67*
X111676Y-86778D03*
D68*
X111563Y-86552D03*
D69*
X100729Y-86326D03*
D70*
X119237Y-86326D03*
D71*
X99713Y-86101D03*
D72*
X116303Y-86101D03*
D73*
X123865Y-86101D03*
D74*
X99148Y-85875D03*
D48*
X115513Y-85875D03*
D23*
X124090Y-85875D03*
D56*
X98810Y-85649D03*
D69*
X114949Y-85649D03*
D23*
X124090Y-85649D03*
D75*
X98471Y-85423D03*
D76*
X114159Y-85423D03*
D20*
X124203Y-85423D03*
D23*
X98358Y-85198D03*
D69*
X113369Y-85198D03*
D20*
X124203Y-85198D03*
D23*
X98358Y-84972D03*
D69*
X112692Y-84972D03*
D23*
X124090Y-84972D03*
D52*
X98358Y-84746D03*
D77*
X111902Y-84746D03*
D22*
X123977Y-84746D03*
D75*
X98471Y-84521D03*
D78*
X111224Y-84521D03*
D23*
X123864Y-84521D03*
X98584Y-84295D03*
D27*
X110547Y-84295D03*
D79*
X123639Y-84295D03*
D56*
X98810Y-84069D03*
D27*
X109644Y-84069D03*
D80*
X123526Y-84069D03*
D59*
X98923Y-83843D03*
D81*
X108741Y-83843D03*
D82*
X123187Y-83843D03*
D83*
X99487Y-83618D03*
D84*
X107726Y-83618D03*
D73*
X122962Y-83618D03*
D85*
X104453Y-83392D03*
D59*
X122623Y-83392D03*
D86*
X104001Y-83166D03*
D87*
X122172Y-83166D03*
D88*
X103776Y-82941D03*
D53*
X121833Y-82941D03*
D89*
X103550Y-82715D03*
D90*
X121269Y-82715D03*
D45*
X103211Y-82489D03*
D61*
X120592Y-82489D03*
D91*
X102873Y-82263D03*
D92*
X120140Y-82263D03*
D93*
X102760Y-82038D03*
D94*
X119237Y-82038D03*
D59*
X102986Y-81812D03*
D27*
X118221Y-81812D03*
D56*
X103550Y-81586D03*
D95*
X117093Y-81586D03*
D96*
X111112Y-81361D03*
D97*
X110547Y-81135D03*
D98*
X109870Y-80909D03*
D99*
X109306Y-80683D03*
D100*
X109193Y-80458D03*
D101*
X109644Y-80232D03*
D102*
X109983Y-80006D03*
D103*
X100390Y-79780D03*
D104*
X115626Y-79780D03*
D105*
X99374Y-79555D03*
D106*
X118899Y-79555D03*
D87*
X98923Y-79329D03*
D38*
X118899Y-79329D03*
D59*
X98697Y-79103D03*
D39*
X118786Y-79103D03*
D56*
X98584Y-78878D03*
D107*
X118673Y-78878D03*
D108*
X98358Y-78652D03*
D109*
X118447Y-78652D03*
D82*
X98358Y-78426D03*
D110*
X117996Y-78426D03*
D56*
X98584Y-78200D03*
D111*
X114497Y-78200D03*
D75*
X122397Y-78200D03*
D59*
X98697Y-77975D03*
D111*
X113820Y-77975D03*
D112*
X122623Y-77975D03*
D26*
X98810Y-77749D03*
D111*
X112917Y-77749D03*
D53*
X99261Y-77523D03*
D63*
X112127Y-77523D03*
D113*
X99938Y-77298D03*
D114*
X110773Y-77298D03*
D115*
X105807Y-77072D03*
D116*
X105807Y-76846D03*
D117*
X105581Y-76620D03*
D118*
X105581Y-76395D03*
D119*
X105468Y-76169D03*
D40*
X105581Y-75943D03*
D120*
X98810Y-92898D02*
X98810Y-100866D01*
X98810Y-92898D02*
X96597Y-92898D01*
X96504Y-92900D01*
X96412Y-92906D01*
X96320Y-92915D01*
X96228Y-92929D01*
X96137Y-92946D01*
X96047Y-92968D01*
X95957Y-92992D01*
X95869Y-93021D01*
X95782Y-93053D01*
X95697Y-93089D01*
X95613Y-93129D01*
X95531Y-93172D01*
X95451Y-93218D01*
X95372Y-93268D01*
X95296Y-93321D01*
X95222Y-93377D01*
X95151Y-93436D01*
X95082Y-93498D01*
X95016Y-93563D01*
X94952Y-93630D01*
X94892Y-93700D01*
X94834Y-93773D01*
X94780Y-93848D01*
X94729Y-93925D01*
X94680Y-94005D01*
X94636Y-94086D01*
X94595Y-94169D01*
X94557Y-94253D01*
X94523Y-94340D01*
X94492Y-94427D01*
X94466Y-94516D01*
X94442Y-94606D01*
X94423Y-94696D01*
X94408Y-94788D01*
X94396Y-94880D01*
X94388Y-94972D01*
X94384Y-95065D01*
X94384Y-95157D01*
X94388Y-95250D01*
X94396Y-95342D01*
X94408Y-95434D01*
X94423Y-95526D01*
X94442Y-95616D01*
X94466Y-95706D01*
X94492Y-95795D01*
X94523Y-95882D01*
X94557Y-95969D01*
X94595Y-96053D01*
X94636Y-96136D01*
X94680Y-96218D01*
X94729Y-96297D01*
X94780Y-96374D01*
X94834Y-96449D01*
X94892Y-96522D01*
X94952Y-96592D01*
X95016Y-96659D01*
X95082Y-96724D01*
X95151Y-96786D01*
X95222Y-96845D01*
X95296Y-96901D01*
X95372Y-96954D01*
X95451Y-97004D01*
X95531Y-97050D01*
X95613Y-97093D01*
X95697Y-97133D01*
X95782Y-97169D01*
X95869Y-97201D01*
X95957Y-97230D01*
X96047Y-97254D01*
X96137Y-97276D01*
X96228Y-97293D01*
X96320Y-97307D01*
X96412Y-97316D01*
X96504Y-97322D01*
X96597Y-97324D01*
X98810Y-97324D01*
X90015Y-100866D02*
X86474Y-100866D01*
X90015Y-100866D02*
X90015Y-92898D01*
X86474Y-92898D01*
X87359Y-96439D02*
X90015Y-96439D01*
X79148Y-96439D02*
X77820Y-96439D01*
X77820Y-100866D01*
X80476Y-100866D01*
X80558Y-100864D01*
X80639Y-100858D01*
X80721Y-100849D01*
X80801Y-100836D01*
X80881Y-100819D01*
X80961Y-100798D01*
X81039Y-100774D01*
X81116Y-100746D01*
X81191Y-100715D01*
X81265Y-100680D01*
X81338Y-100642D01*
X81408Y-100601D01*
X81477Y-100556D01*
X81543Y-100508D01*
X81607Y-100457D01*
X81669Y-100404D01*
X81728Y-100347D01*
X81785Y-100288D01*
X81838Y-100226D01*
X81889Y-100162D01*
X81937Y-100096D01*
X81982Y-100027D01*
X82023Y-99957D01*
X82061Y-99884D01*
X82096Y-99810D01*
X82127Y-99735D01*
X82155Y-99658D01*
X82179Y-99580D01*
X82200Y-99500D01*
X82217Y-99420D01*
X82230Y-99340D01*
X82239Y-99258D01*
X82245Y-99177D01*
X82247Y-99095D01*
X82246Y-99095D02*
X82246Y-94668D01*
X82247Y-94668D02*
X82245Y-94586D01*
X82239Y-94505D01*
X82230Y-94423D01*
X82217Y-94343D01*
X82200Y-94263D01*
X82179Y-94183D01*
X82155Y-94105D01*
X82127Y-94028D01*
X82096Y-93953D01*
X82061Y-93879D01*
X82023Y-93806D01*
X81982Y-93736D01*
X81937Y-93667D01*
X81889Y-93601D01*
X81839Y-93537D01*
X81785Y-93475D01*
X81728Y-93416D01*
X81669Y-93359D01*
X81607Y-93306D01*
X81543Y-93255D01*
X81477Y-93207D01*
X81408Y-93162D01*
X81338Y-93121D01*
X81265Y-93083D01*
X81191Y-93048D01*
X81116Y-93017D01*
X81039Y-92989D01*
X80961Y-92965D01*
X80882Y-92944D01*
X80801Y-92927D01*
X80721Y-92914D01*
X80639Y-92905D01*
X80558Y-92899D01*
X80476Y-92897D01*
X80476Y-92898D02*
X77820Y-92898D01*
X72789Y-97767D02*
X67477Y-97767D01*
X62926Y-99538D02*
X62926Y-92898D01*
X62926Y-99538D02*
X62924Y-99610D01*
X62918Y-99682D01*
X62909Y-99753D01*
X62895Y-99823D01*
X62878Y-99893D01*
X62856Y-99962D01*
X62832Y-100030D01*
X62803Y-100096D01*
X62771Y-100160D01*
X62736Y-100223D01*
X62697Y-100283D01*
X62655Y-100342D01*
X62610Y-100398D01*
X62562Y-100451D01*
X62511Y-100502D01*
X62458Y-100550D01*
X62402Y-100595D01*
X62343Y-100637D01*
X62283Y-100676D01*
X62220Y-100711D01*
X62156Y-100743D01*
X62090Y-100772D01*
X62022Y-100796D01*
X61953Y-100818D01*
X61883Y-100835D01*
X61813Y-100849D01*
X61742Y-100858D01*
X61670Y-100864D01*
X61598Y-100866D01*
X58433Y-100866D02*
X58433Y-95554D01*
X58654Y-93340D02*
X58654Y-92898D01*
X58212Y-92898D01*
X58212Y-93340D01*
X58654Y-93340D01*
X54122Y-95554D02*
X54122Y-103522D01*
X54122Y-95554D02*
X51908Y-95554D01*
X51836Y-95556D01*
X51764Y-95562D01*
X51693Y-95571D01*
X51623Y-95585D01*
X51553Y-95602D01*
X51484Y-95624D01*
X51416Y-95648D01*
X51350Y-95677D01*
X51286Y-95709D01*
X51223Y-95744D01*
X51163Y-95783D01*
X51104Y-95825D01*
X51048Y-95870D01*
X50995Y-95918D01*
X50944Y-95969D01*
X50896Y-96022D01*
X50851Y-96078D01*
X50809Y-96137D01*
X50770Y-96197D01*
X50735Y-96260D01*
X50703Y-96324D01*
X50674Y-96390D01*
X50650Y-96458D01*
X50628Y-96527D01*
X50611Y-96597D01*
X50597Y-96667D01*
X50588Y-96738D01*
X50582Y-96810D01*
X50580Y-96882D01*
X50580Y-99538D01*
X50582Y-99610D01*
X50588Y-99682D01*
X50597Y-99753D01*
X50611Y-99823D01*
X50628Y-99893D01*
X50650Y-99962D01*
X50674Y-100030D01*
X50703Y-100096D01*
X50735Y-100160D01*
X50770Y-100223D01*
X50809Y-100283D01*
X50851Y-100342D01*
X50896Y-100398D01*
X50944Y-100451D01*
X50995Y-100502D01*
X51048Y-100550D01*
X51104Y-100595D01*
X51163Y-100637D01*
X51223Y-100676D01*
X51286Y-100711D01*
X51350Y-100743D01*
X51416Y-100772D01*
X51484Y-100796D01*
X51553Y-100818D01*
X51623Y-100835D01*
X51693Y-100849D01*
X51764Y-100858D01*
X51836Y-100864D01*
X51908Y-100866D01*
X54122Y-100866D01*
X46733Y-100866D02*
X46733Y-95554D01*
X46954Y-93340D02*
X46954Y-92898D01*
X46512Y-92898D01*
X46512Y-93340D01*
X46954Y-93340D01*
X39345Y-92898D02*
X39345Y-100866D01*
X41558Y-100866D01*
X41630Y-100864D01*
X41702Y-100858D01*
X41773Y-100849D01*
X41843Y-100835D01*
X41913Y-100818D01*
X41982Y-100796D01*
X42050Y-100772D01*
X42116Y-100743D01*
X42180Y-100711D01*
X42243Y-100676D01*
X42303Y-100637D01*
X42362Y-100595D01*
X42418Y-100550D01*
X42471Y-100502D01*
X42522Y-100451D01*
X42570Y-100398D01*
X42615Y-100342D01*
X42657Y-100283D01*
X42696Y-100223D01*
X42731Y-100160D01*
X42763Y-100096D01*
X42792Y-100030D01*
X42816Y-99962D01*
X42838Y-99893D01*
X42855Y-99823D01*
X42869Y-99753D01*
X42878Y-99682D01*
X42884Y-99610D01*
X42886Y-99538D01*
X42886Y-96882D01*
X42884Y-96810D01*
X42878Y-96738D01*
X42869Y-96667D01*
X42855Y-96597D01*
X42838Y-96527D01*
X42816Y-96458D01*
X42792Y-96390D01*
X42763Y-96324D01*
X42731Y-96260D01*
X42696Y-96197D01*
X42657Y-96137D01*
X42615Y-96078D01*
X42570Y-96022D01*
X42522Y-95969D01*
X42471Y-95918D01*
X42418Y-95870D01*
X42362Y-95825D01*
X42303Y-95783D01*
X42243Y-95744D01*
X42180Y-95709D01*
X42116Y-95677D01*
X42050Y-95648D01*
X41982Y-95624D01*
X41913Y-95602D01*
X41843Y-95585D01*
X41773Y-95571D01*
X41702Y-95562D01*
X41630Y-95556D01*
X41558Y-95554D01*
X39345Y-95554D01*
X61176Y-120693D02*
X62947Y-120693D01*
X62947Y-120694D02*
X63029Y-120692D01*
X63110Y-120686D01*
X63192Y-120677D01*
X63272Y-120664D01*
X63352Y-120647D01*
X63432Y-120626D01*
X63510Y-120602D01*
X63587Y-120574D01*
X63662Y-120543D01*
X63736Y-120508D01*
X63809Y-120470D01*
X63879Y-120429D01*
X63948Y-120384D01*
X64014Y-120336D01*
X64078Y-120285D01*
X64140Y-120232D01*
X64199Y-120175D01*
X64256Y-120116D01*
X64309Y-120054D01*
X64360Y-119990D01*
X64408Y-119924D01*
X64453Y-119855D01*
X64494Y-119785D01*
X64532Y-119712D01*
X64567Y-119638D01*
X64598Y-119563D01*
X64626Y-119486D01*
X64650Y-119408D01*
X64671Y-119328D01*
X64688Y-119248D01*
X64701Y-119168D01*
X64710Y-119086D01*
X64716Y-119005D01*
X64718Y-118923D01*
X64717Y-118923D02*
X64717Y-114496D01*
X64718Y-114496D02*
X64716Y-114414D01*
X64710Y-114333D01*
X64701Y-114251D01*
X64688Y-114171D01*
X64671Y-114091D01*
X64650Y-114011D01*
X64626Y-113933D01*
X64598Y-113856D01*
X64567Y-113781D01*
X64532Y-113707D01*
X64494Y-113634D01*
X64453Y-113564D01*
X64408Y-113495D01*
X64360Y-113429D01*
X64310Y-113365D01*
X64256Y-113303D01*
X64199Y-113244D01*
X64140Y-113187D01*
X64078Y-113134D01*
X64014Y-113083D01*
X63948Y-113035D01*
X63879Y-112990D01*
X63809Y-112949D01*
X63736Y-112911D01*
X63662Y-112876D01*
X63587Y-112845D01*
X63510Y-112817D01*
X63432Y-112793D01*
X63353Y-112772D01*
X63272Y-112755D01*
X63192Y-112742D01*
X63110Y-112733D01*
X63029Y-112727D01*
X62947Y-112725D01*
X61176Y-112725D01*
X57029Y-112725D02*
X57029Y-120693D01*
X57029Y-115381D02*
X54815Y-115381D01*
X54743Y-115383D01*
X54671Y-115389D01*
X54600Y-115398D01*
X54530Y-115412D01*
X54460Y-115429D01*
X54391Y-115451D01*
X54323Y-115475D01*
X54257Y-115504D01*
X54193Y-115536D01*
X54130Y-115571D01*
X54070Y-115610D01*
X54011Y-115652D01*
X53955Y-115697D01*
X53902Y-115745D01*
X53851Y-115796D01*
X53803Y-115849D01*
X53758Y-115905D01*
X53716Y-115964D01*
X53677Y-116024D01*
X53642Y-116087D01*
X53610Y-116151D01*
X53581Y-116217D01*
X53557Y-116285D01*
X53535Y-116354D01*
X53518Y-116424D01*
X53504Y-116494D01*
X53495Y-116565D01*
X53489Y-116637D01*
X53487Y-116709D01*
X53487Y-120693D01*
X48929Y-118923D02*
X48929Y-117152D01*
X48927Y-117069D01*
X48921Y-116986D01*
X48912Y-116904D01*
X48898Y-116822D01*
X48881Y-116741D01*
X48859Y-116660D01*
X48834Y-116581D01*
X48806Y-116503D01*
X48774Y-116427D01*
X48738Y-116352D01*
X48699Y-116279D01*
X48656Y-116207D01*
X48610Y-116138D01*
X48561Y-116071D01*
X48509Y-116007D01*
X48454Y-115945D01*
X48396Y-115885D01*
X48335Y-115829D01*
X48271Y-115775D01*
X48206Y-115724D01*
X48138Y-115677D01*
X48067Y-115632D01*
X47995Y-115591D01*
X47921Y-115554D01*
X47845Y-115520D01*
X47768Y-115489D01*
X47689Y-115463D01*
X47610Y-115440D01*
X47529Y-115420D01*
X47447Y-115405D01*
X47365Y-115393D01*
X47282Y-115385D01*
X47200Y-115381D01*
X47116Y-115381D01*
X47034Y-115385D01*
X46951Y-115393D01*
X46869Y-115405D01*
X46787Y-115420D01*
X46706Y-115440D01*
X46627Y-115463D01*
X46548Y-115489D01*
X46471Y-115520D01*
X46395Y-115554D01*
X46321Y-115591D01*
X46249Y-115632D01*
X46178Y-115677D01*
X46110Y-115724D01*
X46045Y-115775D01*
X45981Y-115829D01*
X45920Y-115885D01*
X45862Y-115945D01*
X45807Y-116007D01*
X45755Y-116071D01*
X45706Y-116138D01*
X45660Y-116207D01*
X45617Y-116279D01*
X45578Y-116352D01*
X45542Y-116427D01*
X45510Y-116503D01*
X45482Y-116581D01*
X45457Y-116660D01*
X45435Y-116741D01*
X45418Y-116822D01*
X45404Y-116904D01*
X45395Y-116986D01*
X45389Y-117069D01*
X45387Y-117152D01*
X45387Y-118923D01*
X45389Y-119006D01*
X45395Y-119089D01*
X45404Y-119171D01*
X45418Y-119253D01*
X45435Y-119334D01*
X45457Y-119415D01*
X45482Y-119494D01*
X45510Y-119572D01*
X45542Y-119648D01*
X45578Y-119723D01*
X45617Y-119796D01*
X45660Y-119868D01*
X45706Y-119937D01*
X45755Y-120004D01*
X45807Y-120068D01*
X45862Y-120130D01*
X45920Y-120190D01*
X45981Y-120246D01*
X46045Y-120300D01*
X46110Y-120351D01*
X46178Y-120398D01*
X46249Y-120443D01*
X46321Y-120484D01*
X46395Y-120521D01*
X46471Y-120555D01*
X46548Y-120586D01*
X46627Y-120612D01*
X46706Y-120635D01*
X46787Y-120655D01*
X46869Y-120670D01*
X46951Y-120682D01*
X47034Y-120690D01*
X47116Y-120694D01*
X47200Y-120694D01*
X47282Y-120690D01*
X47365Y-120682D01*
X47447Y-120670D01*
X47529Y-120655D01*
X47610Y-120635D01*
X47689Y-120612D01*
X47768Y-120586D01*
X47845Y-120555D01*
X47921Y-120521D01*
X47995Y-120484D01*
X48067Y-120443D01*
X48138Y-120398D01*
X48206Y-120351D01*
X48271Y-120300D01*
X48335Y-120246D01*
X48396Y-120190D01*
X48454Y-120130D01*
X48509Y-120068D01*
X48561Y-120004D01*
X48610Y-119937D01*
X48656Y-119868D01*
X48699Y-119796D01*
X48738Y-119723D01*
X48774Y-119648D01*
X48806Y-119572D01*
X48834Y-119494D01*
X48859Y-119415D01*
X48881Y-119334D01*
X48898Y-119253D01*
X48912Y-119171D01*
X48921Y-119089D01*
X48927Y-119006D01*
X48929Y-118923D01*
X41151Y-119365D02*
X41151Y-112725D01*
X41151Y-119365D02*
X41149Y-119437D01*
X41143Y-119509D01*
X41134Y-119580D01*
X41120Y-119650D01*
X41103Y-119720D01*
X41081Y-119789D01*
X41057Y-119857D01*
X41028Y-119923D01*
X40996Y-119987D01*
X40961Y-120050D01*
X40922Y-120110D01*
X40880Y-120169D01*
X40835Y-120225D01*
X40787Y-120278D01*
X40736Y-120329D01*
X40683Y-120377D01*
X40627Y-120422D01*
X40568Y-120464D01*
X40508Y-120503D01*
X40445Y-120538D01*
X40381Y-120570D01*
X40315Y-120599D01*
X40247Y-120623D01*
X40178Y-120645D01*
X40108Y-120662D01*
X40038Y-120676D01*
X39967Y-120685D01*
X39895Y-120691D01*
X39823Y-120693D01*
X35001Y-120693D02*
X32787Y-120693D01*
X35001Y-120693D02*
X35073Y-120691D01*
X35145Y-120685D01*
X35216Y-120676D01*
X35286Y-120662D01*
X35356Y-120645D01*
X35425Y-120623D01*
X35493Y-120599D01*
X35559Y-120570D01*
X35623Y-120538D01*
X35686Y-120503D01*
X35746Y-120464D01*
X35805Y-120422D01*
X35861Y-120377D01*
X35914Y-120329D01*
X35965Y-120278D01*
X36013Y-120225D01*
X36058Y-120169D01*
X36100Y-120110D01*
X36139Y-120050D01*
X36174Y-119987D01*
X36206Y-119923D01*
X36235Y-119857D01*
X36259Y-119789D01*
X36281Y-119720D01*
X36298Y-119650D01*
X36312Y-119580D01*
X36321Y-119509D01*
X36327Y-119437D01*
X36329Y-119365D01*
X36329Y-117152D01*
X36327Y-117069D01*
X36321Y-116986D01*
X36312Y-116904D01*
X36298Y-116822D01*
X36281Y-116741D01*
X36259Y-116660D01*
X36234Y-116581D01*
X36206Y-116503D01*
X36174Y-116427D01*
X36138Y-116352D01*
X36099Y-116279D01*
X36056Y-116207D01*
X36010Y-116138D01*
X35961Y-116071D01*
X35909Y-116007D01*
X35854Y-115945D01*
X35796Y-115885D01*
X35735Y-115829D01*
X35671Y-115775D01*
X35606Y-115724D01*
X35538Y-115677D01*
X35467Y-115632D01*
X35395Y-115591D01*
X35321Y-115554D01*
X35245Y-115520D01*
X35168Y-115489D01*
X35089Y-115463D01*
X35010Y-115440D01*
X34929Y-115420D01*
X34847Y-115405D01*
X34765Y-115393D01*
X34682Y-115385D01*
X34600Y-115381D01*
X34516Y-115381D01*
X34434Y-115385D01*
X34351Y-115393D01*
X34269Y-115405D01*
X34187Y-115420D01*
X34106Y-115440D01*
X34027Y-115463D01*
X33948Y-115489D01*
X33871Y-115520D01*
X33795Y-115554D01*
X33721Y-115591D01*
X33649Y-115632D01*
X33578Y-115677D01*
X33510Y-115724D01*
X33445Y-115775D01*
X33381Y-115829D01*
X33320Y-115885D01*
X33262Y-115945D01*
X33207Y-116007D01*
X33155Y-116071D01*
X33106Y-116138D01*
X33060Y-116207D01*
X33017Y-116279D01*
X32978Y-116352D01*
X32942Y-116427D01*
X32910Y-116503D01*
X32882Y-116581D01*
X32857Y-116660D01*
X32835Y-116741D01*
X32818Y-116822D01*
X32804Y-116904D01*
X32795Y-116986D01*
X32789Y-117069D01*
X32787Y-117152D01*
X32787Y-118037D01*
X36329Y-118037D01*
X27865Y-117595D02*
X25651Y-118480D01*
X27864Y-117595D02*
X27925Y-117568D01*
X27984Y-117539D01*
X28042Y-117505D01*
X28097Y-117469D01*
X28151Y-117429D01*
X28201Y-117386D01*
X28250Y-117341D01*
X28295Y-117293D01*
X28338Y-117242D01*
X28378Y-117189D01*
X28414Y-117133D01*
X28447Y-117076D01*
X28477Y-117017D01*
X28504Y-116956D01*
X28527Y-116893D01*
X28546Y-116830D01*
X28561Y-116765D01*
X28573Y-116700D01*
X28581Y-116634D01*
X28585Y-116568D01*
X28586Y-116502D01*
X28582Y-116435D01*
X28575Y-116369D01*
X28564Y-116304D01*
X28549Y-116239D01*
X28530Y-116175D01*
X28508Y-116113D01*
X28482Y-116052D01*
X28453Y-115992D01*
X28420Y-115935D01*
X28384Y-115879D01*
X28345Y-115825D01*
X28303Y-115774D01*
X28258Y-115725D01*
X28210Y-115679D01*
X28159Y-115636D01*
X28107Y-115596D01*
X28052Y-115559D01*
X27995Y-115525D01*
X27936Y-115494D01*
X27875Y-115467D01*
X27813Y-115444D01*
X27750Y-115424D01*
X27685Y-115408D01*
X27620Y-115396D01*
X27554Y-115387D01*
X27488Y-115382D01*
X27422Y-115381D01*
X27422Y-115382D02*
X27285Y-115385D01*
X27148Y-115393D01*
X27012Y-115404D01*
X26876Y-115419D01*
X26740Y-115438D01*
X26605Y-115460D01*
X26470Y-115486D01*
X26337Y-115516D01*
X26204Y-115549D01*
X26072Y-115586D01*
X25941Y-115627D01*
X25811Y-115671D01*
X25683Y-115719D01*
X25556Y-115770D01*
X25430Y-115824D01*
X25652Y-118480D02*
X25591Y-118507D01*
X25531Y-118536D01*
X25474Y-118570D01*
X25419Y-118606D01*
X25365Y-118646D01*
X25315Y-118689D01*
X25266Y-118734D01*
X25221Y-118782D01*
X25178Y-118833D01*
X25138Y-118886D01*
X25102Y-118942D01*
X25069Y-118999D01*
X25039Y-119058D01*
X25012Y-119119D01*
X24989Y-119182D01*
X24970Y-119245D01*
X24955Y-119310D01*
X24943Y-119375D01*
X24935Y-119441D01*
X24931Y-119507D01*
X24930Y-119573D01*
X24934Y-119640D01*
X24941Y-119706D01*
X24952Y-119771D01*
X24967Y-119836D01*
X24986Y-119900D01*
X25008Y-119962D01*
X25034Y-120023D01*
X25063Y-120083D01*
X25096Y-120140D01*
X25132Y-120196D01*
X25171Y-120250D01*
X25213Y-120301D01*
X25258Y-120350D01*
X25306Y-120396D01*
X25357Y-120439D01*
X25409Y-120479D01*
X25464Y-120516D01*
X25521Y-120550D01*
X25580Y-120581D01*
X25641Y-120608D01*
X25703Y-120631D01*
X25766Y-120651D01*
X25831Y-120667D01*
X25896Y-120679D01*
X25962Y-120688D01*
X26028Y-120693D01*
X26094Y-120694D01*
X26094Y-120693D02*
X26272Y-120689D01*
X26449Y-120680D01*
X26626Y-120667D01*
X26803Y-120650D01*
X26979Y-120628D01*
X27155Y-120603D01*
X27330Y-120573D01*
X27504Y-120539D01*
X27678Y-120501D01*
X27850Y-120459D01*
X28022Y-120413D01*
X28192Y-120363D01*
X28361Y-120309D01*
X28529Y-120251D01*
X21615Y-115381D02*
X18959Y-115381D01*
X20729Y-112725D02*
X20729Y-119365D01*
X20727Y-119437D01*
X20721Y-119509D01*
X20712Y-119580D01*
X20698Y-119650D01*
X20681Y-119720D01*
X20659Y-119789D01*
X20635Y-119857D01*
X20606Y-119923D01*
X20574Y-119987D01*
X20539Y-120050D01*
X20500Y-120110D01*
X20458Y-120169D01*
X20413Y-120225D01*
X20365Y-120278D01*
X20314Y-120329D01*
X20261Y-120377D01*
X20205Y-120422D01*
X20146Y-120464D01*
X20086Y-120503D01*
X20023Y-120538D01*
X19959Y-120570D01*
X19893Y-120599D01*
X19825Y-120623D01*
X19756Y-120645D01*
X19686Y-120662D01*
X19616Y-120676D01*
X19545Y-120685D01*
X19473Y-120691D01*
X19401Y-120693D01*
X18959Y-120693D01*
X13701Y-120693D02*
X11487Y-120693D01*
X13701Y-120693D02*
X13773Y-120691D01*
X13845Y-120685D01*
X13916Y-120676D01*
X13986Y-120662D01*
X14056Y-120645D01*
X14125Y-120623D01*
X14193Y-120599D01*
X14259Y-120570D01*
X14323Y-120538D01*
X14386Y-120503D01*
X14446Y-120464D01*
X14505Y-120422D01*
X14561Y-120377D01*
X14614Y-120329D01*
X14665Y-120278D01*
X14713Y-120225D01*
X14758Y-120169D01*
X14800Y-120110D01*
X14839Y-120050D01*
X14874Y-119987D01*
X14906Y-119923D01*
X14935Y-119857D01*
X14959Y-119789D01*
X14981Y-119720D01*
X14998Y-119650D01*
X15012Y-119580D01*
X15021Y-119509D01*
X15027Y-119437D01*
X15029Y-119365D01*
X15029Y-117152D01*
X15027Y-117069D01*
X15021Y-116986D01*
X15012Y-116904D01*
X14998Y-116822D01*
X14981Y-116741D01*
X14959Y-116660D01*
X14934Y-116581D01*
X14906Y-116503D01*
X14874Y-116427D01*
X14838Y-116352D01*
X14799Y-116279D01*
X14756Y-116207D01*
X14710Y-116138D01*
X14661Y-116071D01*
X14609Y-116007D01*
X14554Y-115945D01*
X14496Y-115885D01*
X14435Y-115829D01*
X14371Y-115775D01*
X14306Y-115724D01*
X14238Y-115677D01*
X14167Y-115632D01*
X14095Y-115591D01*
X14021Y-115554D01*
X13945Y-115520D01*
X13868Y-115489D01*
X13789Y-115463D01*
X13710Y-115440D01*
X13629Y-115420D01*
X13547Y-115405D01*
X13465Y-115393D01*
X13382Y-115385D01*
X13300Y-115381D01*
X13216Y-115381D01*
X13134Y-115385D01*
X13051Y-115393D01*
X12969Y-115405D01*
X12887Y-115420D01*
X12806Y-115440D01*
X12727Y-115463D01*
X12648Y-115489D01*
X12571Y-115520D01*
X12495Y-115554D01*
X12421Y-115591D01*
X12349Y-115632D01*
X12278Y-115677D01*
X12210Y-115724D01*
X12145Y-115775D01*
X12081Y-115829D01*
X12020Y-115885D01*
X11962Y-115945D01*
X11907Y-116007D01*
X11855Y-116071D01*
X11806Y-116138D01*
X11760Y-116207D01*
X11717Y-116279D01*
X11678Y-116352D01*
X11642Y-116427D01*
X11610Y-116503D01*
X11582Y-116581D01*
X11557Y-116660D01*
X11535Y-116741D01*
X11518Y-116822D01*
X11504Y-116904D01*
X11495Y-116986D01*
X11489Y-117069D01*
X11487Y-117152D01*
X11487Y-118037D01*
X15029Y-118037D01*
X6836Y-120693D02*
X6836Y-115381D01*
X4180Y-115381D01*
X4180Y-116267D01*
X929Y-117152D02*
X929Y-118923D01*
X929Y-117152D02*
X927Y-117069D01*
X921Y-116986D01*
X912Y-116904D01*
X898Y-116822D01*
X881Y-116741D01*
X859Y-116660D01*
X834Y-116581D01*
X806Y-116503D01*
X774Y-116427D01*
X738Y-116352D01*
X699Y-116279D01*
X656Y-116207D01*
X610Y-116138D01*
X561Y-116071D01*
X509Y-116007D01*
X454Y-115945D01*
X396Y-115885D01*
X335Y-115829D01*
X271Y-115775D01*
X206Y-115724D01*
X138Y-115677D01*
X67Y-115632D01*
X-5Y-115591D01*
X-79Y-115554D01*
X-155Y-115520D01*
X-232Y-115489D01*
X-311Y-115463D01*
X-390Y-115440D01*
X-471Y-115420D01*
X-553Y-115405D01*
X-635Y-115393D01*
X-718Y-115385D01*
X-800Y-115381D01*
X-884Y-115381D01*
X-966Y-115385D01*
X-1049Y-115393D01*
X-1131Y-115405D01*
X-1213Y-115420D01*
X-1294Y-115440D01*
X-1373Y-115463D01*
X-1452Y-115489D01*
X-1529Y-115520D01*
X-1605Y-115554D01*
X-1679Y-115591D01*
X-1751Y-115632D01*
X-1822Y-115677D01*
X-1890Y-115724D01*
X-1955Y-115775D01*
X-2019Y-115829D01*
X-2080Y-115885D01*
X-2138Y-115945D01*
X-2193Y-116007D01*
X-2245Y-116071D01*
X-2294Y-116138D01*
X-2340Y-116207D01*
X-2383Y-116279D01*
X-2422Y-116352D01*
X-2458Y-116427D01*
X-2490Y-116503D01*
X-2518Y-116581D01*
X-2543Y-116660D01*
X-2565Y-116741D01*
X-2582Y-116822D01*
X-2596Y-116904D01*
X-2605Y-116986D01*
X-2611Y-117069D01*
X-2613Y-117152D01*
X-2613Y-118923D01*
X-2611Y-119006D01*
X-2605Y-119089D01*
X-2596Y-119171D01*
X-2582Y-119253D01*
X-2565Y-119334D01*
X-2543Y-119415D01*
X-2518Y-119494D01*
X-2490Y-119572D01*
X-2458Y-119648D01*
X-2422Y-119723D01*
X-2383Y-119796D01*
X-2340Y-119868D01*
X-2294Y-119937D01*
X-2245Y-120004D01*
X-2193Y-120068D01*
X-2138Y-120130D01*
X-2080Y-120190D01*
X-2019Y-120246D01*
X-1955Y-120300D01*
X-1890Y-120351D01*
X-1822Y-120398D01*
X-1751Y-120443D01*
X-1679Y-120484D01*
X-1605Y-120521D01*
X-1529Y-120555D01*
X-1452Y-120586D01*
X-1373Y-120612D01*
X-1294Y-120635D01*
X-1213Y-120655D01*
X-1131Y-120670D01*
X-1049Y-120682D01*
X-966Y-120690D01*
X-884Y-120694D01*
X-800Y-120694D01*
X-718Y-120690D01*
X-635Y-120682D01*
X-553Y-120670D01*
X-471Y-120655D01*
X-390Y-120635D01*
X-311Y-120612D01*
X-232Y-120586D01*
X-155Y-120555D01*
X-79Y-120521D01*
X-5Y-120484D01*
X67Y-120443D01*
X138Y-120398D01*
X206Y-120351D01*
X271Y-120300D01*
X335Y-120246D01*
X396Y-120190D01*
X454Y-120130D01*
X509Y-120068D01*
X561Y-120004D01*
X610Y-119937D01*
X656Y-119868D01*
X699Y-119796D01*
X738Y-119723D01*
X774Y-119648D01*
X806Y-119572D01*
X834Y-119494D01*
X859Y-119415D01*
X881Y-119334D01*
X898Y-119253D01*
X912Y-119171D01*
X921Y-119089D01*
X927Y-119006D01*
X929Y-118923D01*
X-6849Y-119365D02*
X-6849Y-112725D01*
X-6849Y-119365D02*
X-6851Y-119437D01*
X-6857Y-119509D01*
X-6866Y-119580D01*
X-6880Y-119650D01*
X-6897Y-119720D01*
X-6919Y-119789D01*
X-6943Y-119857D01*
X-6972Y-119923D01*
X-7004Y-119987D01*
X-7039Y-120050D01*
X-7078Y-120110D01*
X-7120Y-120169D01*
X-7165Y-120225D01*
X-7213Y-120278D01*
X-7264Y-120329D01*
X-7317Y-120377D01*
X-7373Y-120422D01*
X-7432Y-120464D01*
X-7492Y-120503D01*
X-7555Y-120538D01*
X-7619Y-120570D01*
X-7685Y-120599D01*
X-7753Y-120623D01*
X-7822Y-120645D01*
X-7892Y-120662D01*
X-7962Y-120676D01*
X-8033Y-120685D01*
X-8105Y-120691D01*
X-8177Y-120693D01*
X21249Y-144334D02*
X21249Y-152302D01*
X21249Y-144334D02*
X19036Y-144334D01*
X18945Y-144336D01*
X18853Y-144342D01*
X18762Y-144351D01*
X18672Y-144364D01*
X18582Y-144381D01*
X18493Y-144402D01*
X18405Y-144426D01*
X18317Y-144454D01*
X18232Y-144485D01*
X18147Y-144520D01*
X18064Y-144559D01*
X17983Y-144601D01*
X17903Y-144646D01*
X17826Y-144694D01*
X17750Y-144746D01*
X17677Y-144801D01*
X17606Y-144858D01*
X17537Y-144919D01*
X17471Y-144982D01*
X17408Y-145048D01*
X17347Y-145117D01*
X17290Y-145188D01*
X17235Y-145261D01*
X17183Y-145337D01*
X17135Y-145414D01*
X17090Y-145494D01*
X17048Y-145575D01*
X17009Y-145658D01*
X16974Y-145743D01*
X16943Y-145828D01*
X16915Y-145916D01*
X16891Y-146004D01*
X16870Y-146093D01*
X16853Y-146183D01*
X16840Y-146273D01*
X16831Y-146364D01*
X16825Y-146456D01*
X16823Y-146547D01*
X16822Y-146547D02*
X16822Y-150088D01*
X16823Y-150088D02*
X16825Y-150179D01*
X16831Y-150271D01*
X16840Y-150362D01*
X16853Y-150452D01*
X16870Y-150542D01*
X16891Y-150631D01*
X16915Y-150719D01*
X16943Y-150807D01*
X16974Y-150892D01*
X17009Y-150977D01*
X17048Y-151060D01*
X17090Y-151141D01*
X17135Y-151221D01*
X17183Y-151298D01*
X17235Y-151374D01*
X17290Y-151447D01*
X17347Y-151518D01*
X17408Y-151587D01*
X17471Y-151653D01*
X17537Y-151716D01*
X17606Y-151777D01*
X17677Y-151834D01*
X17750Y-151889D01*
X17826Y-151941D01*
X17903Y-151989D01*
X17983Y-152034D01*
X18064Y-152076D01*
X18147Y-152115D01*
X18232Y-152150D01*
X18317Y-152181D01*
X18405Y-152209D01*
X18493Y-152233D01*
X18582Y-152254D01*
X18672Y-152271D01*
X18762Y-152284D01*
X18853Y-152293D01*
X18945Y-152299D01*
X19036Y-152301D01*
X19036Y-152302D02*
X21249Y-152302D01*
X9593Y-152302D02*
X9511Y-152300D01*
X9430Y-152294D01*
X9348Y-152285D01*
X9268Y-152272D01*
X9188Y-152255D01*
X9108Y-152234D01*
X9030Y-152210D01*
X8953Y-152182D01*
X8878Y-152151D01*
X8804Y-152116D01*
X8731Y-152078D01*
X8661Y-152037D01*
X8592Y-151992D01*
X8526Y-151944D01*
X8462Y-151894D01*
X8400Y-151840D01*
X8341Y-151783D01*
X8284Y-151724D01*
X8231Y-151662D01*
X8180Y-151598D01*
X8132Y-151532D01*
X8087Y-151463D01*
X8046Y-151393D01*
X8008Y-151320D01*
X7973Y-151246D01*
X7942Y-151171D01*
X7914Y-151094D01*
X7890Y-151016D01*
X7869Y-150936D01*
X7852Y-150856D01*
X7839Y-150776D01*
X7830Y-150694D01*
X7824Y-150613D01*
X7822Y-150531D01*
X9593Y-152302D02*
X9711Y-152300D01*
X9829Y-152295D01*
X9947Y-152285D01*
X10064Y-152272D01*
X10181Y-152255D01*
X10298Y-152235D01*
X10413Y-152211D01*
X10528Y-152183D01*
X10642Y-152152D01*
X10755Y-152117D01*
X10867Y-152078D01*
X10977Y-152037D01*
X11086Y-151991D01*
X11194Y-151942D01*
X11300Y-151890D01*
X11404Y-151834D01*
X11506Y-151776D01*
X11607Y-151714D01*
X11706Y-151648D01*
X11802Y-151580D01*
X11896Y-151509D01*
X11988Y-151435D01*
X12078Y-151358D01*
X12165Y-151278D01*
X12249Y-151195D01*
X12028Y-146104D02*
X12026Y-146022D01*
X12020Y-145941D01*
X12011Y-145859D01*
X11998Y-145779D01*
X11981Y-145699D01*
X11960Y-145619D01*
X11936Y-145541D01*
X11908Y-145464D01*
X11877Y-145389D01*
X11842Y-145315D01*
X11804Y-145242D01*
X11763Y-145172D01*
X11718Y-145103D01*
X11670Y-145037D01*
X11619Y-144973D01*
X11566Y-144911D01*
X11509Y-144852D01*
X11450Y-144795D01*
X11388Y-144742D01*
X11324Y-144691D01*
X11258Y-144643D01*
X11189Y-144598D01*
X11119Y-144557D01*
X11046Y-144519D01*
X10972Y-144484D01*
X10897Y-144453D01*
X10820Y-144425D01*
X10742Y-144401D01*
X10662Y-144380D01*
X10582Y-144363D01*
X10502Y-144350D01*
X10420Y-144341D01*
X10339Y-144335D01*
X10257Y-144333D01*
X10257Y-144334D02*
X10145Y-144336D01*
X10032Y-144342D01*
X9920Y-144351D01*
X9809Y-144364D01*
X9697Y-144381D01*
X9587Y-144402D01*
X9477Y-144427D01*
X9368Y-144455D01*
X9261Y-144487D01*
X9154Y-144523D01*
X9049Y-144562D01*
X8945Y-144604D01*
X8842Y-144651D01*
X8741Y-144700D01*
X8642Y-144753D01*
X8545Y-144810D01*
X8449Y-144869D01*
X8356Y-144932D01*
X8265Y-144998D01*
X11143Y-147653D02*
X11212Y-147610D01*
X11279Y-147564D01*
X11344Y-147516D01*
X11406Y-147464D01*
X11466Y-147409D01*
X11524Y-147352D01*
X11579Y-147293D01*
X11631Y-147231D01*
X11681Y-147166D01*
X11727Y-147100D01*
X11771Y-147031D01*
X11811Y-146961D01*
X11848Y-146888D01*
X11882Y-146815D01*
X11912Y-146739D01*
X11939Y-146663D01*
X11962Y-146585D01*
X11982Y-146506D01*
X11999Y-146427D01*
X12012Y-146347D01*
X12021Y-146266D01*
X12026Y-146185D01*
X12028Y-146104D01*
X8708Y-148982D02*
X8639Y-149025D01*
X8572Y-149071D01*
X8507Y-149119D01*
X8445Y-149171D01*
X8385Y-149226D01*
X8327Y-149283D01*
X8272Y-149342D01*
X8220Y-149404D01*
X8170Y-149469D01*
X8124Y-149535D01*
X8080Y-149604D01*
X8040Y-149674D01*
X8003Y-149747D01*
X7969Y-149820D01*
X7939Y-149896D01*
X7912Y-149972D01*
X7889Y-150050D01*
X7869Y-150129D01*
X7852Y-150208D01*
X7839Y-150288D01*
X7830Y-150369D01*
X7825Y-150450D01*
X7823Y-150531D01*
X8708Y-148982D02*
X11143Y-147654D01*
X3013Y-144334D02*
X3013Y-152302D01*
X3013Y-144334D02*
X800Y-144334D01*
X707Y-144336D01*
X615Y-144342D01*
X523Y-144351D01*
X431Y-144365D01*
X340Y-144382D01*
X250Y-144404D01*
X160Y-144428D01*
X72Y-144457D01*
X-15Y-144489D01*
X-100Y-144525D01*
X-184Y-144565D01*
X-266Y-144608D01*
X-346Y-144654D01*
X-425Y-144704D01*
X-501Y-144757D01*
X-575Y-144813D01*
X-646Y-144872D01*
X-715Y-144934D01*
X-781Y-144999D01*
X-845Y-145066D01*
X-905Y-145136D01*
X-963Y-145209D01*
X-1017Y-145284D01*
X-1068Y-145361D01*
X-1117Y-145441D01*
X-1161Y-145522D01*
X-1202Y-145605D01*
X-1240Y-145689D01*
X-1274Y-145776D01*
X-1305Y-145863D01*
X-1331Y-145952D01*
X-1355Y-146042D01*
X-1374Y-146132D01*
X-1389Y-146224D01*
X-1401Y-146316D01*
X-1409Y-146408D01*
X-1413Y-146501D01*
X-1413Y-146593D01*
X-1409Y-146686D01*
X-1401Y-146778D01*
X-1389Y-146870D01*
X-1374Y-146962D01*
X-1355Y-147052D01*
X-1331Y-147142D01*
X-1305Y-147231D01*
X-1274Y-147318D01*
X-1240Y-147405D01*
X-1202Y-147489D01*
X-1161Y-147572D01*
X-1117Y-147654D01*
X-1068Y-147733D01*
X-1017Y-147810D01*
X-963Y-147885D01*
X-905Y-147958D01*
X-845Y-148028D01*
X-781Y-148095D01*
X-715Y-148160D01*
X-646Y-148222D01*
X-575Y-148281D01*
X-501Y-148337D01*
X-425Y-148390D01*
X-346Y-148440D01*
X-266Y-148486D01*
X-184Y-148529D01*
X-100Y-148569D01*
X-15Y-148605D01*
X72Y-148637D01*
X160Y-148666D01*
X250Y-148690D01*
X340Y-148712D01*
X431Y-148729D01*
X523Y-148743D01*
X615Y-148752D01*
X707Y-148758D01*
X800Y-148760D01*
X3013Y-148760D01*
X-7175Y-152302D02*
X-8946Y-152302D01*
X-7175Y-152302D02*
X-7093Y-152300D01*
X-7012Y-152294D01*
X-6930Y-152285D01*
X-6850Y-152272D01*
X-6770Y-152255D01*
X-6690Y-152234D01*
X-6612Y-152210D01*
X-6535Y-152182D01*
X-6460Y-152151D01*
X-6386Y-152116D01*
X-6313Y-152078D01*
X-6243Y-152037D01*
X-6174Y-151992D01*
X-6108Y-151944D01*
X-6044Y-151893D01*
X-5982Y-151840D01*
X-5923Y-151783D01*
X-5866Y-151724D01*
X-5813Y-151662D01*
X-5762Y-151598D01*
X-5714Y-151532D01*
X-5669Y-151463D01*
X-5628Y-151393D01*
X-5590Y-151320D01*
X-5555Y-151246D01*
X-5524Y-151171D01*
X-5496Y-151094D01*
X-5472Y-151016D01*
X-5451Y-150936D01*
X-5434Y-150856D01*
X-5421Y-150776D01*
X-5412Y-150694D01*
X-5406Y-150613D01*
X-5404Y-150531D01*
X-5405Y-150531D02*
X-5405Y-146104D01*
X-5404Y-146104D02*
X-5406Y-146022D01*
X-5412Y-145941D01*
X-5421Y-145859D01*
X-5434Y-145779D01*
X-5451Y-145699D01*
X-5472Y-145619D01*
X-5496Y-145541D01*
X-5524Y-145464D01*
X-5555Y-145389D01*
X-5590Y-145315D01*
X-5628Y-145242D01*
X-5669Y-145172D01*
X-5714Y-145103D01*
X-5762Y-145037D01*
X-5813Y-144973D01*
X-5866Y-144911D01*
X-5923Y-144852D01*
X-5982Y-144795D01*
X-6044Y-144742D01*
X-6108Y-144691D01*
X-6174Y-144643D01*
X-6243Y-144598D01*
X-6313Y-144557D01*
X-6386Y-144519D01*
X-6460Y-144484D01*
X-6535Y-144453D01*
X-6612Y-144425D01*
X-6690Y-144401D01*
X-6770Y-144380D01*
X-6850Y-144363D01*
X-6930Y-144350D01*
X-7012Y-144341D01*
X-7093Y-144335D01*
X-7175Y-144333D01*
X-7175Y-144334D02*
X-8946Y-144334D01*
X12739Y-134506D02*
X12739Y-129194D01*
X12961Y-126981D02*
X12961Y-126538D01*
X12518Y-126538D01*
X12518Y-126981D01*
X12961Y-126981D01*
X8810Y-130965D02*
X8810Y-132735D01*
X8810Y-130965D02*
X8808Y-130882D01*
X8802Y-130799D01*
X8793Y-130717D01*
X8779Y-130635D01*
X8762Y-130554D01*
X8740Y-130473D01*
X8715Y-130394D01*
X8687Y-130316D01*
X8655Y-130240D01*
X8619Y-130165D01*
X8580Y-130092D01*
X8537Y-130020D01*
X8491Y-129951D01*
X8442Y-129884D01*
X8390Y-129820D01*
X8335Y-129758D01*
X8277Y-129698D01*
X8216Y-129642D01*
X8152Y-129588D01*
X8087Y-129537D01*
X8019Y-129490D01*
X7948Y-129445D01*
X7876Y-129404D01*
X7802Y-129367D01*
X7726Y-129333D01*
X7649Y-129302D01*
X7570Y-129276D01*
X7491Y-129253D01*
X7410Y-129233D01*
X7328Y-129218D01*
X7246Y-129206D01*
X7163Y-129198D01*
X7081Y-129194D01*
X6997Y-129194D01*
X6915Y-129198D01*
X6832Y-129206D01*
X6750Y-129218D01*
X6668Y-129233D01*
X6587Y-129253D01*
X6508Y-129276D01*
X6429Y-129302D01*
X6352Y-129333D01*
X6276Y-129367D01*
X6202Y-129404D01*
X6130Y-129445D01*
X6059Y-129490D01*
X5991Y-129537D01*
X5926Y-129588D01*
X5862Y-129642D01*
X5801Y-129698D01*
X5743Y-129758D01*
X5688Y-129820D01*
X5636Y-129884D01*
X5587Y-129951D01*
X5541Y-130020D01*
X5498Y-130092D01*
X5459Y-130165D01*
X5423Y-130240D01*
X5391Y-130316D01*
X5363Y-130394D01*
X5338Y-130473D01*
X5316Y-130554D01*
X5299Y-130635D01*
X5285Y-130717D01*
X5276Y-130799D01*
X5270Y-130882D01*
X5268Y-130965D01*
X5269Y-130965D02*
X5269Y-132735D01*
X5268Y-132735D02*
X5270Y-132818D01*
X5276Y-132901D01*
X5285Y-132983D01*
X5299Y-133065D01*
X5316Y-133146D01*
X5338Y-133227D01*
X5363Y-133306D01*
X5391Y-133384D01*
X5423Y-133460D01*
X5459Y-133535D01*
X5498Y-133608D01*
X5541Y-133680D01*
X5587Y-133749D01*
X5636Y-133816D01*
X5688Y-133880D01*
X5743Y-133942D01*
X5801Y-134002D01*
X5862Y-134058D01*
X5926Y-134112D01*
X5991Y-134163D01*
X6059Y-134210D01*
X6130Y-134255D01*
X6202Y-134296D01*
X6276Y-134333D01*
X6352Y-134367D01*
X6429Y-134398D01*
X6508Y-134424D01*
X6587Y-134447D01*
X6668Y-134467D01*
X6750Y-134482D01*
X6832Y-134494D01*
X6915Y-134502D01*
X6997Y-134506D01*
X7081Y-134506D01*
X7163Y-134502D01*
X7246Y-134494D01*
X7328Y-134482D01*
X7410Y-134467D01*
X7491Y-134447D01*
X7570Y-134424D01*
X7649Y-134398D01*
X7726Y-134367D01*
X7802Y-134333D01*
X7876Y-134296D01*
X7948Y-134255D01*
X8019Y-134210D01*
X8087Y-134163D01*
X8152Y-134112D01*
X8216Y-134058D01*
X8277Y-134002D01*
X8335Y-133942D01*
X8390Y-133880D01*
X8442Y-133816D01*
X8491Y-133749D01*
X8537Y-133680D01*
X8580Y-133608D01*
X8619Y-133535D01*
X8655Y-133460D01*
X8687Y-133384D01*
X8715Y-133306D01*
X8740Y-133227D01*
X8762Y-133146D01*
X8779Y-133065D01*
X8793Y-132983D01*
X8802Y-132901D01*
X8808Y-132818D01*
X8810Y-132735D01*
X710Y-134506D02*
X710Y-129194D01*
X-1503Y-129194D01*
X-1575Y-129196D01*
X-1647Y-129202D01*
X-1718Y-129211D01*
X-1788Y-129225D01*
X-1858Y-129242D01*
X-1927Y-129264D01*
X-1995Y-129288D01*
X-2061Y-129317D01*
X-2125Y-129349D01*
X-2188Y-129384D01*
X-2248Y-129423D01*
X-2307Y-129465D01*
X-2363Y-129510D01*
X-2416Y-129558D01*
X-2467Y-129609D01*
X-2515Y-129662D01*
X-2560Y-129718D01*
X-2602Y-129777D01*
X-2641Y-129837D01*
X-2676Y-129900D01*
X-2708Y-129964D01*
X-2737Y-130030D01*
X-2761Y-130098D01*
X-2783Y-130167D01*
X-2800Y-130237D01*
X-2814Y-130307D01*
X-2823Y-130378D01*
X-2829Y-130450D01*
X-2831Y-130522D01*
X-2831Y-134506D01*
X-7061Y-134506D02*
X-7061Y-129194D01*
X-6839Y-126981D02*
X-6839Y-126538D01*
X-7282Y-126538D01*
X-7282Y-126981D01*
X-6839Y-126981D01*
X-10690Y-129194D02*
X-14231Y-129194D01*
X-10690Y-134506D01*
X-14231Y-134506D01*
X-19518Y-134506D02*
X-21731Y-134506D01*
X-19518Y-134506D02*
X-19446Y-134504D01*
X-19374Y-134498D01*
X-19303Y-134489D01*
X-19233Y-134475D01*
X-19163Y-134458D01*
X-19094Y-134436D01*
X-19026Y-134412D01*
X-18960Y-134383D01*
X-18896Y-134351D01*
X-18833Y-134316D01*
X-18773Y-134277D01*
X-18714Y-134235D01*
X-18658Y-134190D01*
X-18605Y-134142D01*
X-18554Y-134091D01*
X-18506Y-134038D01*
X-18461Y-133982D01*
X-18419Y-133923D01*
X-18380Y-133863D01*
X-18345Y-133800D01*
X-18313Y-133736D01*
X-18284Y-133670D01*
X-18260Y-133602D01*
X-18238Y-133533D01*
X-18221Y-133463D01*
X-18207Y-133393D01*
X-18198Y-133322D01*
X-18192Y-133250D01*
X-18190Y-133178D01*
X-18190Y-130965D01*
X-18192Y-130882D01*
X-18198Y-130799D01*
X-18207Y-130717D01*
X-18221Y-130635D01*
X-18238Y-130554D01*
X-18260Y-130473D01*
X-18285Y-130394D01*
X-18313Y-130316D01*
X-18345Y-130240D01*
X-18381Y-130165D01*
X-18420Y-130092D01*
X-18463Y-130020D01*
X-18509Y-129951D01*
X-18558Y-129884D01*
X-18610Y-129820D01*
X-18665Y-129758D01*
X-18723Y-129698D01*
X-18784Y-129642D01*
X-18848Y-129588D01*
X-18913Y-129537D01*
X-18981Y-129490D01*
X-19052Y-129445D01*
X-19124Y-129404D01*
X-19198Y-129367D01*
X-19274Y-129333D01*
X-19351Y-129302D01*
X-19430Y-129276D01*
X-19509Y-129253D01*
X-19590Y-129233D01*
X-19672Y-129218D01*
X-19754Y-129206D01*
X-19837Y-129198D01*
X-19919Y-129194D01*
X-20003Y-129194D01*
X-20085Y-129198D01*
X-20168Y-129206D01*
X-20250Y-129218D01*
X-20332Y-129233D01*
X-20413Y-129253D01*
X-20492Y-129276D01*
X-20571Y-129302D01*
X-20648Y-129333D01*
X-20724Y-129367D01*
X-20798Y-129404D01*
X-20870Y-129445D01*
X-20941Y-129490D01*
X-21009Y-129537D01*
X-21074Y-129588D01*
X-21138Y-129642D01*
X-21199Y-129698D01*
X-21257Y-129758D01*
X-21312Y-129820D01*
X-21364Y-129884D01*
X-21413Y-129951D01*
X-21459Y-130020D01*
X-21502Y-130092D01*
X-21541Y-130165D01*
X-21577Y-130240D01*
X-21609Y-130316D01*
X-21637Y-130394D01*
X-21662Y-130473D01*
X-21684Y-130554D01*
X-21701Y-130635D01*
X-21715Y-130717D01*
X-21724Y-130799D01*
X-21730Y-130882D01*
X-21732Y-130965D01*
X-21731Y-130965D02*
X-21731Y-131850D01*
X-18190Y-131850D01*
X-29449Y-134506D02*
X-29449Y-126538D01*
X-29449Y-134506D02*
X-27236Y-134506D01*
X-27164Y-134504D01*
X-27092Y-134498D01*
X-27021Y-134489D01*
X-26951Y-134475D01*
X-26881Y-134458D01*
X-26812Y-134436D01*
X-26744Y-134412D01*
X-26678Y-134383D01*
X-26614Y-134351D01*
X-26551Y-134316D01*
X-26491Y-134277D01*
X-26432Y-134235D01*
X-26376Y-134190D01*
X-26323Y-134142D01*
X-26272Y-134091D01*
X-26224Y-134038D01*
X-26179Y-133982D01*
X-26137Y-133923D01*
X-26098Y-133863D01*
X-26063Y-133800D01*
X-26031Y-133736D01*
X-26002Y-133670D01*
X-25978Y-133602D01*
X-25956Y-133533D01*
X-25939Y-133463D01*
X-25925Y-133393D01*
X-25916Y-133322D01*
X-25910Y-133250D01*
X-25908Y-133178D01*
X-25908Y-130522D01*
X-25910Y-130450D01*
X-25916Y-130378D01*
X-25925Y-130307D01*
X-25939Y-130237D01*
X-25956Y-130167D01*
X-25978Y-130098D01*
X-26002Y-130030D01*
X-26031Y-129964D01*
X-26063Y-129900D01*
X-26098Y-129837D01*
X-26137Y-129777D01*
X-26179Y-129718D01*
X-26224Y-129662D01*
X-26272Y-129609D01*
X-26323Y-129558D01*
X-26376Y-129510D01*
X-26432Y-129465D01*
X-26491Y-129423D01*
X-26551Y-129384D01*
X-26614Y-129349D01*
X-26678Y-129317D01*
X-26744Y-129288D01*
X-26812Y-129264D01*
X-26881Y-129242D01*
X-26951Y-129225D01*
X-27021Y-129211D01*
X-27092Y-129202D01*
X-27164Y-129196D01*
X-27236Y-129194D01*
X-29449Y-129194D01*
X-38867Y-126538D02*
X-38867Y-133178D01*
X-38869Y-133250D01*
X-38875Y-133322D01*
X-38884Y-133393D01*
X-38898Y-133463D01*
X-38915Y-133533D01*
X-38937Y-133602D01*
X-38961Y-133670D01*
X-38990Y-133736D01*
X-39022Y-133800D01*
X-39057Y-133863D01*
X-39096Y-133923D01*
X-39138Y-133982D01*
X-39183Y-134038D01*
X-39231Y-134091D01*
X-39282Y-134142D01*
X-39335Y-134190D01*
X-39391Y-134235D01*
X-39450Y-134277D01*
X-39510Y-134316D01*
X-39573Y-134351D01*
X-39637Y-134383D01*
X-39703Y-134412D01*
X-39771Y-134436D01*
X-39840Y-134458D01*
X-39910Y-134475D01*
X-39980Y-134489D01*
X-40051Y-134498D01*
X-40123Y-134504D01*
X-40195Y-134506D01*
X-43361Y-134506D02*
X-43361Y-129194D01*
X-43139Y-126981D02*
X-43139Y-126538D01*
X-43582Y-126538D01*
X-43582Y-126981D01*
X-43139Y-126981D01*
X-47672Y-129194D02*
X-47672Y-137162D01*
X-47672Y-129194D02*
X-49885Y-129194D01*
X-49957Y-129196D01*
X-50029Y-129202D01*
X-50100Y-129211D01*
X-50170Y-129225D01*
X-50240Y-129242D01*
X-50309Y-129264D01*
X-50377Y-129288D01*
X-50443Y-129317D01*
X-50507Y-129349D01*
X-50570Y-129384D01*
X-50630Y-129423D01*
X-50689Y-129465D01*
X-50745Y-129510D01*
X-50798Y-129558D01*
X-50849Y-129609D01*
X-50897Y-129662D01*
X-50942Y-129718D01*
X-50984Y-129777D01*
X-51023Y-129837D01*
X-51058Y-129900D01*
X-51090Y-129964D01*
X-51119Y-130030D01*
X-51143Y-130098D01*
X-51165Y-130167D01*
X-51182Y-130237D01*
X-51196Y-130307D01*
X-51205Y-130378D01*
X-51211Y-130450D01*
X-51213Y-130522D01*
X-51213Y-133178D01*
X-51211Y-133250D01*
X-51205Y-133322D01*
X-51196Y-133393D01*
X-51182Y-133463D01*
X-51165Y-133533D01*
X-51143Y-133602D01*
X-51119Y-133670D01*
X-51090Y-133736D01*
X-51058Y-133800D01*
X-51023Y-133863D01*
X-50984Y-133923D01*
X-50942Y-133982D01*
X-50897Y-134038D01*
X-50849Y-134091D01*
X-50798Y-134142D01*
X-50745Y-134190D01*
X-50689Y-134235D01*
X-50630Y-134277D01*
X-50570Y-134316D01*
X-50507Y-134351D01*
X-50443Y-134383D01*
X-50377Y-134412D01*
X-50309Y-134436D01*
X-50240Y-134458D01*
X-50170Y-134475D01*
X-50100Y-134489D01*
X-50029Y-134498D01*
X-49957Y-134504D01*
X-49885Y-134506D01*
X-47672Y-134506D01*
X-55060Y-134506D02*
X-55060Y-129194D01*
X-54839Y-126981D02*
X-54839Y-126538D01*
X-55282Y-126538D01*
X-55282Y-126981D01*
X-54839Y-126981D01*
X-62449Y-126538D02*
X-62449Y-134506D01*
X-60236Y-134506D01*
X-60164Y-134504D01*
X-60092Y-134498D01*
X-60021Y-134489D01*
X-59951Y-134475D01*
X-59881Y-134458D01*
X-59812Y-134436D01*
X-59744Y-134412D01*
X-59678Y-134383D01*
X-59614Y-134351D01*
X-59551Y-134316D01*
X-59491Y-134277D01*
X-59432Y-134235D01*
X-59376Y-134190D01*
X-59323Y-134142D01*
X-59272Y-134091D01*
X-59224Y-134038D01*
X-59179Y-133982D01*
X-59137Y-133923D01*
X-59098Y-133863D01*
X-59063Y-133800D01*
X-59031Y-133736D01*
X-59002Y-133670D01*
X-58978Y-133602D01*
X-58956Y-133533D01*
X-58939Y-133463D01*
X-58925Y-133393D01*
X-58916Y-133322D01*
X-58910Y-133250D01*
X-58908Y-133178D01*
X-58908Y-130522D01*
X-58910Y-130450D01*
X-58916Y-130378D01*
X-58925Y-130307D01*
X-58939Y-130237D01*
X-58956Y-130167D01*
X-58978Y-130098D01*
X-59002Y-130030D01*
X-59031Y-129964D01*
X-59063Y-129900D01*
X-59098Y-129837D01*
X-59137Y-129777D01*
X-59179Y-129718D01*
X-59224Y-129662D01*
X-59272Y-129609D01*
X-59323Y-129558D01*
X-59376Y-129510D01*
X-59432Y-129465D01*
X-59491Y-129423D01*
X-59551Y-129384D01*
X-59614Y-129349D01*
X-59678Y-129317D01*
X-59744Y-129288D01*
X-59812Y-129264D01*
X-59881Y-129242D01*
X-59951Y-129225D01*
X-60021Y-129211D01*
X-60092Y-129202D01*
X-60164Y-129196D01*
X-60236Y-129194D01*
X-62449Y-129194D01*
X17313Y-106652D02*
X17313Y-101340D01*
X17535Y-99127D02*
X17535Y-98684D01*
X17092Y-98684D01*
X17092Y-99127D01*
X17535Y-99127D01*
X13384Y-103111D02*
X13384Y-104882D01*
X13384Y-103111D02*
X13382Y-103028D01*
X13376Y-102945D01*
X13367Y-102863D01*
X13353Y-102781D01*
X13336Y-102700D01*
X13314Y-102619D01*
X13289Y-102540D01*
X13261Y-102462D01*
X13229Y-102386D01*
X13193Y-102311D01*
X13154Y-102238D01*
X13111Y-102166D01*
X13065Y-102097D01*
X13016Y-102030D01*
X12964Y-101966D01*
X12909Y-101904D01*
X12851Y-101844D01*
X12790Y-101788D01*
X12726Y-101734D01*
X12661Y-101683D01*
X12593Y-101636D01*
X12522Y-101591D01*
X12450Y-101550D01*
X12376Y-101513D01*
X12300Y-101479D01*
X12223Y-101448D01*
X12144Y-101422D01*
X12065Y-101399D01*
X11984Y-101379D01*
X11902Y-101364D01*
X11820Y-101352D01*
X11737Y-101344D01*
X11655Y-101340D01*
X11571Y-101340D01*
X11489Y-101344D01*
X11406Y-101352D01*
X11324Y-101364D01*
X11242Y-101379D01*
X11161Y-101399D01*
X11082Y-101422D01*
X11003Y-101448D01*
X10926Y-101479D01*
X10850Y-101513D01*
X10776Y-101550D01*
X10704Y-101591D01*
X10633Y-101636D01*
X10565Y-101683D01*
X10500Y-101734D01*
X10436Y-101788D01*
X10375Y-101844D01*
X10317Y-101904D01*
X10262Y-101966D01*
X10210Y-102030D01*
X10161Y-102097D01*
X10115Y-102166D01*
X10072Y-102238D01*
X10033Y-102311D01*
X9997Y-102386D01*
X9965Y-102462D01*
X9937Y-102540D01*
X9912Y-102619D01*
X9890Y-102700D01*
X9873Y-102781D01*
X9859Y-102863D01*
X9850Y-102945D01*
X9844Y-103028D01*
X9842Y-103111D01*
X9843Y-103111D02*
X9843Y-104882D01*
X9842Y-104882D02*
X9844Y-104965D01*
X9850Y-105048D01*
X9859Y-105130D01*
X9873Y-105212D01*
X9890Y-105293D01*
X9912Y-105374D01*
X9937Y-105453D01*
X9965Y-105531D01*
X9997Y-105607D01*
X10033Y-105682D01*
X10072Y-105755D01*
X10115Y-105827D01*
X10161Y-105896D01*
X10210Y-105963D01*
X10262Y-106027D01*
X10317Y-106089D01*
X10375Y-106149D01*
X10436Y-106205D01*
X10500Y-106259D01*
X10565Y-106310D01*
X10633Y-106357D01*
X10704Y-106402D01*
X10776Y-106443D01*
X10850Y-106480D01*
X10926Y-106514D01*
X11003Y-106545D01*
X11082Y-106571D01*
X11161Y-106594D01*
X11242Y-106614D01*
X11324Y-106629D01*
X11406Y-106641D01*
X11489Y-106649D01*
X11571Y-106653D01*
X11655Y-106653D01*
X11737Y-106649D01*
X11820Y-106641D01*
X11902Y-106629D01*
X11984Y-106614D01*
X12065Y-106594D01*
X12144Y-106571D01*
X12223Y-106545D01*
X12300Y-106514D01*
X12376Y-106480D01*
X12450Y-106443D01*
X12522Y-106402D01*
X12593Y-106357D01*
X12661Y-106310D01*
X12726Y-106259D01*
X12790Y-106205D01*
X12851Y-106149D01*
X12909Y-106089D01*
X12964Y-106027D01*
X13016Y-105963D01*
X13065Y-105896D01*
X13111Y-105827D01*
X13154Y-105755D01*
X13193Y-105682D01*
X13229Y-105607D01*
X13261Y-105531D01*
X13289Y-105453D01*
X13314Y-105374D01*
X13336Y-105293D01*
X13353Y-105212D01*
X13367Y-105130D01*
X13376Y-105048D01*
X13382Y-104965D01*
X13384Y-104882D01*
X5284Y-106652D02*
X5284Y-101340D01*
X3071Y-101340D01*
X2999Y-101342D01*
X2927Y-101348D01*
X2856Y-101357D01*
X2786Y-101371D01*
X2716Y-101388D01*
X2647Y-101410D01*
X2579Y-101434D01*
X2513Y-101463D01*
X2449Y-101495D01*
X2386Y-101530D01*
X2326Y-101569D01*
X2267Y-101611D01*
X2211Y-101656D01*
X2158Y-101704D01*
X2107Y-101755D01*
X2059Y-101808D01*
X2014Y-101864D01*
X1972Y-101923D01*
X1933Y-101983D01*
X1898Y-102046D01*
X1866Y-102110D01*
X1837Y-102176D01*
X1813Y-102244D01*
X1791Y-102313D01*
X1774Y-102383D01*
X1760Y-102453D01*
X1751Y-102524D01*
X1745Y-102596D01*
X1743Y-102668D01*
X1743Y-106652D01*
X-2487Y-106652D02*
X-2487Y-101340D01*
X-2265Y-99127D02*
X-2265Y-98684D01*
X-2708Y-98684D01*
X-2708Y-99127D01*
X-2265Y-99127D01*
X-6116Y-101340D02*
X-9657Y-101340D01*
X-6116Y-106652D01*
X-9657Y-106652D01*
X-15083Y-103554D02*
X-17075Y-103554D01*
X-15083Y-103554D02*
X-15006Y-103556D01*
X-14929Y-103562D01*
X-14852Y-103571D01*
X-14776Y-103585D01*
X-14701Y-103602D01*
X-14626Y-103623D01*
X-14553Y-103647D01*
X-14481Y-103676D01*
X-14411Y-103707D01*
X-14342Y-103743D01*
X-14275Y-103781D01*
X-14210Y-103823D01*
X-14148Y-103868D01*
X-14087Y-103916D01*
X-14029Y-103968D01*
X-13974Y-104021D01*
X-13922Y-104078D01*
X-13872Y-104137D01*
X-13825Y-104199D01*
X-13782Y-104263D01*
X-13742Y-104328D01*
X-13705Y-104396D01*
X-13671Y-104466D01*
X-13641Y-104537D01*
X-13615Y-104610D01*
X-13592Y-104683D01*
X-13573Y-104758D01*
X-13558Y-104834D01*
X-13546Y-104910D01*
X-13538Y-104987D01*
X-13534Y-105064D01*
X-13534Y-105142D01*
X-13538Y-105219D01*
X-13546Y-105296D01*
X-13558Y-105372D01*
X-13573Y-105448D01*
X-13592Y-105523D01*
X-13615Y-105596D01*
X-13641Y-105669D01*
X-13671Y-105740D01*
X-13705Y-105810D01*
X-13742Y-105878D01*
X-13782Y-105943D01*
X-13825Y-106007D01*
X-13872Y-106069D01*
X-13922Y-106128D01*
X-13974Y-106185D01*
X-14029Y-106238D01*
X-14087Y-106290D01*
X-14148Y-106338D01*
X-14210Y-106383D01*
X-14275Y-106425D01*
X-14342Y-106463D01*
X-14411Y-106499D01*
X-14481Y-106530D01*
X-14553Y-106559D01*
X-14626Y-106583D01*
X-14701Y-106604D01*
X-14776Y-106621D01*
X-14852Y-106635D01*
X-14929Y-106644D01*
X-15006Y-106650D01*
X-15083Y-106652D01*
X-17075Y-106652D01*
X-17075Y-102668D01*
X-17073Y-102596D01*
X-17067Y-102524D01*
X-17058Y-102453D01*
X-17044Y-102383D01*
X-17027Y-102313D01*
X-17005Y-102244D01*
X-16981Y-102176D01*
X-16952Y-102110D01*
X-16920Y-102046D01*
X-16885Y-101983D01*
X-16846Y-101923D01*
X-16804Y-101864D01*
X-16759Y-101808D01*
X-16711Y-101755D01*
X-16660Y-101704D01*
X-16607Y-101656D01*
X-16551Y-101611D01*
X-16492Y-101569D01*
X-16432Y-101530D01*
X-16369Y-101495D01*
X-16305Y-101463D01*
X-16239Y-101434D01*
X-16171Y-101410D01*
X-16102Y-101388D01*
X-16032Y-101371D01*
X-15962Y-101357D01*
X-15891Y-101348D01*
X-15819Y-101342D01*
X-15747Y-101340D01*
X-13976Y-101340D01*
X-22098Y-98684D02*
X-22098Y-106652D01*
X-24311Y-106652D01*
X-24383Y-106650D01*
X-24455Y-106644D01*
X-24526Y-106635D01*
X-24596Y-106621D01*
X-24666Y-106604D01*
X-24735Y-106582D01*
X-24803Y-106558D01*
X-24869Y-106529D01*
X-24933Y-106497D01*
X-24996Y-106462D01*
X-25056Y-106423D01*
X-25115Y-106381D01*
X-25171Y-106336D01*
X-25224Y-106288D01*
X-25275Y-106237D01*
X-25323Y-106184D01*
X-25368Y-106128D01*
X-25410Y-106069D01*
X-25449Y-106009D01*
X-25484Y-105946D01*
X-25516Y-105882D01*
X-25545Y-105816D01*
X-25569Y-105748D01*
X-25591Y-105679D01*
X-25608Y-105609D01*
X-25622Y-105539D01*
X-25631Y-105468D01*
X-25637Y-105396D01*
X-25639Y-105324D01*
X-25639Y-102668D01*
X-25637Y-102596D01*
X-25631Y-102524D01*
X-25622Y-102453D01*
X-25608Y-102383D01*
X-25591Y-102313D01*
X-25569Y-102244D01*
X-25545Y-102176D01*
X-25516Y-102110D01*
X-25484Y-102046D01*
X-25449Y-101983D01*
X-25410Y-101923D01*
X-25368Y-101864D01*
X-25323Y-101808D01*
X-25275Y-101755D01*
X-25224Y-101704D01*
X-25171Y-101656D01*
X-25115Y-101611D01*
X-25056Y-101569D01*
X-24996Y-101530D01*
X-24933Y-101495D01*
X-24869Y-101463D01*
X-24803Y-101434D01*
X-24735Y-101410D01*
X-24666Y-101388D01*
X-24596Y-101371D01*
X-24526Y-101357D01*
X-24455Y-101348D01*
X-24383Y-101342D01*
X-24311Y-101340D01*
X-22098Y-101340D01*
X-29793Y-98684D02*
X-29793Y-105324D01*
X-29795Y-105396D01*
X-29801Y-105468D01*
X-29810Y-105539D01*
X-29824Y-105609D01*
X-29841Y-105679D01*
X-29863Y-105748D01*
X-29887Y-105816D01*
X-29916Y-105882D01*
X-29948Y-105946D01*
X-29983Y-106009D01*
X-30022Y-106069D01*
X-30064Y-106128D01*
X-30109Y-106184D01*
X-30157Y-106237D01*
X-30208Y-106288D01*
X-30261Y-106336D01*
X-30317Y-106381D01*
X-30376Y-106423D01*
X-30436Y-106462D01*
X-30499Y-106497D01*
X-30563Y-106529D01*
X-30629Y-106558D01*
X-30697Y-106582D01*
X-30766Y-106604D01*
X-30836Y-106621D01*
X-30906Y-106635D01*
X-30977Y-106644D01*
X-31049Y-106650D01*
X-31121Y-106652D01*
X-35944Y-106652D02*
X-38157Y-106652D01*
X-35944Y-106652D02*
X-35872Y-106650D01*
X-35800Y-106644D01*
X-35729Y-106635D01*
X-35659Y-106621D01*
X-35589Y-106604D01*
X-35520Y-106582D01*
X-35452Y-106558D01*
X-35386Y-106529D01*
X-35322Y-106497D01*
X-35259Y-106462D01*
X-35199Y-106423D01*
X-35140Y-106381D01*
X-35084Y-106336D01*
X-35031Y-106288D01*
X-34980Y-106237D01*
X-34932Y-106184D01*
X-34887Y-106128D01*
X-34845Y-106069D01*
X-34806Y-106009D01*
X-34771Y-105946D01*
X-34739Y-105882D01*
X-34710Y-105816D01*
X-34686Y-105748D01*
X-34664Y-105679D01*
X-34647Y-105609D01*
X-34633Y-105539D01*
X-34624Y-105468D01*
X-34618Y-105396D01*
X-34616Y-105324D01*
X-34616Y-103111D01*
X-34615Y-103111D02*
X-34617Y-103028D01*
X-34623Y-102945D01*
X-34632Y-102863D01*
X-34646Y-102781D01*
X-34663Y-102700D01*
X-34685Y-102619D01*
X-34710Y-102540D01*
X-34738Y-102462D01*
X-34770Y-102386D01*
X-34806Y-102311D01*
X-34845Y-102238D01*
X-34888Y-102166D01*
X-34934Y-102097D01*
X-34983Y-102030D01*
X-35035Y-101966D01*
X-35090Y-101904D01*
X-35148Y-101844D01*
X-35209Y-101788D01*
X-35273Y-101734D01*
X-35338Y-101683D01*
X-35406Y-101636D01*
X-35477Y-101591D01*
X-35549Y-101550D01*
X-35623Y-101513D01*
X-35699Y-101479D01*
X-35776Y-101448D01*
X-35855Y-101422D01*
X-35934Y-101399D01*
X-36015Y-101379D01*
X-36097Y-101364D01*
X-36179Y-101352D01*
X-36262Y-101344D01*
X-36344Y-101340D01*
X-36428Y-101340D01*
X-36510Y-101344D01*
X-36593Y-101352D01*
X-36675Y-101364D01*
X-36757Y-101379D01*
X-36838Y-101399D01*
X-36917Y-101422D01*
X-36996Y-101448D01*
X-37073Y-101479D01*
X-37149Y-101513D01*
X-37223Y-101550D01*
X-37295Y-101591D01*
X-37366Y-101636D01*
X-37434Y-101683D01*
X-37499Y-101734D01*
X-37563Y-101788D01*
X-37624Y-101844D01*
X-37682Y-101904D01*
X-37737Y-101966D01*
X-37789Y-102030D01*
X-37838Y-102097D01*
X-37884Y-102166D01*
X-37927Y-102238D01*
X-37966Y-102311D01*
X-38002Y-102386D01*
X-38034Y-102462D01*
X-38062Y-102540D01*
X-38087Y-102619D01*
X-38109Y-102700D01*
X-38126Y-102781D01*
X-38140Y-102863D01*
X-38149Y-102945D01*
X-38155Y-103028D01*
X-38157Y-103111D01*
X-38157Y-103996D01*
X-34616Y-103996D01*
X-47193Y-105324D02*
X-47193Y-98684D01*
X-47193Y-105324D02*
X-47195Y-105396D01*
X-47201Y-105468D01*
X-47210Y-105539D01*
X-47224Y-105609D01*
X-47241Y-105679D01*
X-47263Y-105748D01*
X-47287Y-105816D01*
X-47316Y-105882D01*
X-47348Y-105946D01*
X-47383Y-106009D01*
X-47422Y-106069D01*
X-47464Y-106128D01*
X-47509Y-106184D01*
X-47557Y-106237D01*
X-47608Y-106288D01*
X-47661Y-106336D01*
X-47717Y-106381D01*
X-47776Y-106423D01*
X-47836Y-106462D01*
X-47899Y-106497D01*
X-47963Y-106529D01*
X-48029Y-106558D01*
X-48097Y-106582D01*
X-48166Y-106604D01*
X-48236Y-106621D01*
X-48306Y-106635D01*
X-48377Y-106644D01*
X-48449Y-106650D01*
X-48521Y-106652D01*
X-51686Y-106652D02*
X-51686Y-101340D01*
X-51465Y-99127D02*
X-51465Y-98684D01*
X-51908Y-98684D01*
X-51908Y-99127D01*
X-51465Y-99127D01*
X-55998Y-101340D02*
X-55998Y-109308D01*
X-55998Y-101340D02*
X-58211Y-101340D01*
X-58283Y-101342D01*
X-58355Y-101348D01*
X-58426Y-101357D01*
X-58496Y-101371D01*
X-58566Y-101388D01*
X-58635Y-101410D01*
X-58703Y-101434D01*
X-58769Y-101463D01*
X-58833Y-101495D01*
X-58896Y-101530D01*
X-58956Y-101569D01*
X-59015Y-101611D01*
X-59071Y-101656D01*
X-59124Y-101704D01*
X-59175Y-101755D01*
X-59223Y-101808D01*
X-59268Y-101864D01*
X-59310Y-101923D01*
X-59349Y-101983D01*
X-59384Y-102046D01*
X-59416Y-102110D01*
X-59445Y-102176D01*
X-59469Y-102244D01*
X-59491Y-102313D01*
X-59508Y-102383D01*
X-59522Y-102453D01*
X-59531Y-102524D01*
X-59537Y-102596D01*
X-59539Y-102668D01*
X-59539Y-105324D01*
X-59537Y-105396D01*
X-59531Y-105468D01*
X-59522Y-105539D01*
X-59508Y-105609D01*
X-59491Y-105679D01*
X-59469Y-105748D01*
X-59445Y-105816D01*
X-59416Y-105882D01*
X-59384Y-105946D01*
X-59349Y-106009D01*
X-59310Y-106069D01*
X-59268Y-106128D01*
X-59223Y-106184D01*
X-59175Y-106237D01*
X-59124Y-106288D01*
X-59071Y-106336D01*
X-59015Y-106381D01*
X-58956Y-106423D01*
X-58896Y-106462D01*
X-58833Y-106497D01*
X-58769Y-106529D01*
X-58703Y-106558D01*
X-58635Y-106582D01*
X-58566Y-106604D01*
X-58496Y-106621D01*
X-58426Y-106635D01*
X-58355Y-106644D01*
X-58283Y-106650D01*
X-58211Y-106652D01*
X-55998Y-106652D01*
X-63386Y-106652D02*
X-63386Y-101340D01*
X-63165Y-99127D02*
X-63165Y-98684D01*
X-63608Y-98684D01*
X-63608Y-99127D01*
X-63165Y-99127D01*
X-70775Y-98684D02*
X-70775Y-106652D01*
X-68562Y-106652D01*
X-68490Y-106650D01*
X-68418Y-106644D01*
X-68347Y-106635D01*
X-68277Y-106621D01*
X-68207Y-106604D01*
X-68138Y-106582D01*
X-68070Y-106558D01*
X-68004Y-106529D01*
X-67940Y-106497D01*
X-67877Y-106462D01*
X-67817Y-106423D01*
X-67758Y-106381D01*
X-67702Y-106336D01*
X-67649Y-106288D01*
X-67598Y-106237D01*
X-67550Y-106184D01*
X-67505Y-106128D01*
X-67463Y-106069D01*
X-67424Y-106009D01*
X-67389Y-105946D01*
X-67357Y-105882D01*
X-67328Y-105816D01*
X-67304Y-105748D01*
X-67282Y-105679D01*
X-67265Y-105609D01*
X-67251Y-105539D01*
X-67242Y-105468D01*
X-67236Y-105396D01*
X-67234Y-105324D01*
X-67234Y-102668D01*
X-67236Y-102596D01*
X-67242Y-102524D01*
X-67251Y-102453D01*
X-67265Y-102383D01*
X-67282Y-102313D01*
X-67304Y-102244D01*
X-67328Y-102176D01*
X-67357Y-102110D01*
X-67389Y-102046D01*
X-67424Y-101983D01*
X-67463Y-101923D01*
X-67505Y-101864D01*
X-67550Y-101808D01*
X-67598Y-101755D01*
X-67649Y-101704D01*
X-67702Y-101656D01*
X-67758Y-101611D01*
X-67817Y-101569D01*
X-67877Y-101530D01*
X-67940Y-101495D01*
X-68004Y-101463D01*
X-68070Y-101434D01*
X-68138Y-101410D01*
X-68207Y-101388D01*
X-68277Y-101371D01*
X-68347Y-101357D01*
X-68418Y-101348D01*
X-68490Y-101342D01*
X-68562Y-101340D01*
X-70775Y-101340D01*
D121*
X79783Y-122915D03*
D122*
X90617Y-122915D03*
D73*
X79896Y-122689D03*
D16*
X90617Y-122689D03*
D53*
X80121Y-122464D03*
D26*
X90956Y-122464D03*
D123*
X80122Y-122238D03*
D105*
X91069Y-122238D03*
D124*
X80122Y-122012D03*
D125*
X91069Y-122012D03*
D49*
X80121Y-121786D03*
D126*
X91182Y-121786D03*
D76*
X80122Y-121561D03*
X91182Y-121561D03*
D77*
X80122Y-121335D03*
D127*
X91069Y-121335D03*
D75*
X77977Y-121109D03*
X82040Y-121109D03*
D82*
X89150Y-121109D03*
D26*
X92762Y-121109D03*
D23*
X77638Y-120884D03*
D20*
X82491Y-120884D03*
D80*
X88812Y-120884D03*
D23*
X93213Y-120884D03*
D19*
X77526Y-120658D03*
D15*
X82604Y-120658D03*
D23*
X88473Y-120658D03*
D18*
X93439Y-120658D03*
D20*
X77300Y-120432D03*
D15*
X82830Y-120432D03*
D12*
X85313Y-120432D03*
D75*
X88134Y-120432D03*
D18*
X93665Y-120432D03*
D21*
X77187Y-120206D03*
D128*
X85539Y-120206D03*
D24*
X93665Y-120206D03*
D129*
X74479Y-119981D03*
D20*
X77074Y-119981D03*
D130*
X85651Y-119981D03*
D121*
X93778Y-119981D03*
D125*
X75720Y-119755D03*
D29*
X85539Y-119755D03*
D121*
X93778Y-119755D03*
D131*
X75494Y-119529D03*
D29*
X85539Y-119529D03*
D121*
X93778Y-119529D03*
D111*
X75494Y-119304D03*
D29*
X85539Y-119304D03*
D14*
X94003Y-119304D03*
D132*
X75269Y-119078D03*
D29*
X85539Y-119078D03*
D14*
X94003Y-119078D03*
D133*
X75156Y-118852D03*
D72*
X85651Y-118852D03*
D17*
X93890Y-118852D03*
D69*
X75043Y-118626D03*
D134*
X83507Y-118626D03*
D59*
X87683Y-118626D03*
D15*
X93890Y-118626D03*
D58*
X75043Y-118401D03*
D59*
X83169Y-118401D03*
D75*
X88134Y-118401D03*
D15*
X93890Y-118401D03*
D80*
X72786Y-118175D03*
D87*
X76849Y-118175D03*
D82*
X82830Y-118175D03*
D23*
X88247Y-118175D03*
D20*
X93777Y-118175D03*
D75*
X72560Y-117949D03*
D59*
X77300Y-117949D03*
D56*
X82605Y-117949D03*
D23*
X88473Y-117949D03*
D19*
X93552Y-117949D03*
D22*
X72334Y-117724D03*
D135*
X77752Y-117724D03*
D136*
X82379Y-117724D03*
D137*
X88812Y-117724D03*
D138*
X93326Y-117724D03*
D20*
X72108Y-117498D03*
D81*
X80121Y-117498D03*
D59*
X89038Y-117498D03*
D56*
X92988Y-117498D03*
D18*
X71996Y-117272D03*
D81*
X80121Y-117272D03*
D48*
X90956Y-117272D03*
D18*
X71996Y-117046D03*
D130*
X80234Y-117046D03*
D69*
X90843Y-117046D03*
D121*
X71883Y-116821D03*
D27*
X80121Y-116821D03*
D63*
X90730Y-116821D03*
D121*
X71883Y-116595D03*
D27*
X80347Y-116595D03*
D49*
X90504Y-116595D03*
D139*
X71883Y-116369D03*
D140*
X80347Y-116369D03*
D141*
X90392Y-116369D03*
D121*
X71883Y-116143D03*
D27*
X80347Y-116143D03*
D111*
X90166Y-116143D03*
D121*
X71883Y-115918D03*
D61*
X79106Y-115918D03*
D20*
X82717Y-115918D03*
D50*
X89827Y-115918D03*
D121*
X72109Y-115692D03*
D20*
X77751Y-115692D03*
D18*
X83056Y-115692D03*
D23*
X88473Y-115692D03*
D112*
X91295Y-115692D03*
D121*
X72109Y-115466D03*
D18*
X77639Y-115466D03*
D19*
X83169Y-115466D03*
D75*
X88134Y-115466D03*
D17*
X72221Y-115241D03*
D142*
X77526Y-115241D03*
D143*
X83620Y-115241D03*
D144*
X87909Y-115241D03*
D20*
X72334Y-115015D03*
D23*
X77187Y-115015D03*
D58*
X85652Y-115015D03*
D23*
X72673Y-114789D03*
D75*
X77074Y-114789D03*
D69*
X85652Y-114789D03*
D59*
X73012Y-114563D03*
D56*
X76736Y-114563D03*
D76*
X85539Y-114563D03*
D69*
X74817Y-114338D03*
D49*
X85539Y-114338D03*
D63*
X74704Y-114112D03*
D123*
X85539Y-114112D03*
D103*
X74704Y-113886D03*
D145*
X85651Y-113886D03*
D125*
X74592Y-113661D03*
D59*
X85878Y-113661D03*
D146*
X74704Y-113435D03*
D15*
X85990Y-113435D03*
D26*
X74930Y-113209D03*
D20*
X75043Y-112983D03*
D147*
X75156Y-112758D03*
D148*
X-18575Y-154013D03*
D112*
X-18575Y-153787D03*
D149*
X-18688Y-153562D03*
D18*
X-18688Y-153336D03*
D20*
X-18800Y-153110D03*
D23*
X-18913Y-152884D03*
D124*
X-20268Y-152659D03*
D150*
X-20606Y-152433D03*
D49*
X-20719Y-152207D03*
X-20945Y-151981D03*
X-21170Y-151756D03*
D94*
X-21509Y-151530D03*
D32*
X-22864Y-151304D03*
D151*
X-23202Y-151079D03*
D32*
X-23541Y-150853D03*
D132*
X-24895Y-150627D03*
D49*
X-25233Y-150401D03*
X-25459Y-150176D03*
D152*
X-25798Y-149950D03*
D32*
X-27152Y-149724D03*
D122*
X-18123Y-149724D03*
D95*
X-27491Y-149499D03*
D75*
X-18123Y-149499D03*
D153*
X-34939Y-149273D03*
D46*
X-27942Y-149273D03*
D26*
X-18011Y-149273D03*
D74*
X-34826Y-149047D03*
D94*
X-29409Y-149047D03*
D53*
X-18010Y-149047D03*
D154*
X-31892Y-148821D03*
D146*
X-18010Y-148821D03*
D155*
X-32231Y-148596D03*
D156*
X-18123Y-148596D03*
D107*
X-32456Y-148370D03*
D157*
X-18236Y-148370D03*
D158*
X-32795Y-148144D03*
D81*
X-19590Y-148144D03*
D107*
X-33133Y-147919D03*
D159*
X-19929Y-147919D03*
D95*
X-34488Y-147693D03*
D132*
X-21058Y-147693D03*
D112*
X-16995Y-147693D03*
D84*
X-34601Y-147467D03*
D103*
X-21396Y-147467D03*
D95*
X-34714Y-147241D03*
D49*
X-21622Y-147241D03*
D45*
X-34826Y-147016D03*
D49*
X-21847Y-147016D03*
D34*
X-34713Y-146790D03*
D160*
X-26588Y-146790D03*
D94*
X-22186Y-146790D03*
D35*
X-34826Y-146564D03*
D32*
X-23541Y-146564D03*
D106*
X-34714Y-146339D03*
D32*
X-23992Y-146339D03*
D37*
X-34827Y-146113D03*
D161*
X-25346Y-146113D03*
D43*
X-34827Y-145887D03*
D49*
X-25685Y-145887D03*
D38*
X-34714Y-145661D03*
D49*
X-25910Y-145661D03*
D39*
X-34601Y-145436D03*
D49*
X-26136Y-145436D03*
D162*
X-31667Y-145210D03*
D163*
X-31780Y-144984D03*
D116*
X-32005Y-144758D03*
D164*
X-33247Y-144533D03*
D165*
X-33472Y-144307D03*
D70*
X-33472Y-144081D03*
D166*
X-33585Y-143856D03*
D167*
X-33698Y-143630D03*
D110*
X-33811Y-143404D03*
D107*
X-34036Y-143178D03*
D106*
X-34714Y-142953D03*
D34*
X-34713Y-142727D03*
D168*
X-34826Y-142501D03*
D32*
X-34827Y-142276D03*
D46*
X-34714Y-142050D03*
D55*
X-34827Y-141824D03*
D130*
X-34826Y-141598D03*
D48*
X-34714Y-141373D03*
D169*
X-34826Y-141147D03*
D111*
X-34826Y-140921D03*
D61*
X-34827Y-140696D03*
D59*
X-34827Y-140470D03*
D112*
X-34827Y-140244D03*
D170*
X-96566Y-112094D03*
D171*
X-96340Y-112095D03*
D172*
X-96114Y-112208D03*
D173*
X-95888Y-112207D03*
X-95663Y-112207D03*
D174*
X-95437Y-112207D03*
D173*
X-95211Y-112207D03*
D175*
X-94986Y-112094D03*
D176*
X-94760Y-111981D03*
D177*
X-94534Y-111869D03*
D178*
X-94308Y-111643D03*
D179*
X-94083Y-111305D03*
D180*
X-93857Y-111079D03*
D181*
X-93631Y-116158D03*
D182*
X-93631Y-110966D03*
D176*
X-93406Y-116044D03*
D183*
X-93406Y-110853D03*
D178*
X-93180Y-115932D03*
D183*
X-93180Y-110627D03*
D179*
X-92954Y-115819D03*
X-92954Y-110402D03*
D184*
X-92728Y-115706D03*
D185*
X-92728Y-110176D03*
D184*
X-92503Y-115706D03*
D176*
X-92503Y-109950D03*
D184*
X-92277Y-115480D03*
D176*
X-92277Y-109724D03*
D178*
X-92051Y-115255D03*
D175*
X-92051Y-109611D03*
D177*
X-91826Y-115029D03*
D186*
X-91826Y-109499D03*
D187*
X-91600Y-114803D03*
D188*
X-91600Y-109499D03*
D173*
X-91374Y-114690D03*
D175*
X-91374Y-109386D03*
X-91148Y-114577D03*
D189*
X-91148Y-109160D03*
D186*
X-90923Y-114465D03*
D178*
X-90923Y-108935D03*
D190*
X-90697Y-114352D03*
D191*
X-90697Y-108596D03*
D192*
X-90471Y-114239D03*
D193*
X-90471Y-108483D03*
D194*
X-90245Y-114013D03*
D183*
X-90245Y-108370D03*
D191*
X-90020Y-113788D03*
D183*
X-90020Y-108144D03*
D195*
X-89794Y-113449D03*
X-89794Y-108032D03*
D183*
X-89568Y-113336D03*
D195*
X-89568Y-107806D03*
D183*
X-89343Y-113110D03*
D194*
X-89343Y-107467D03*
D196*
X-89117Y-112997D03*
D197*
X-89117Y-107241D03*
D195*
X-88891Y-112772D03*
D190*
X-88891Y-107129D03*
D178*
X-88665Y-112546D03*
D175*
X-88665Y-106903D03*
D189*
X-88440Y-112320D03*
D175*
X-88440Y-106903D03*
X-88214Y-112094D03*
X-88214Y-106903D03*
D187*
X-87988Y-112094D03*
X-87988Y-106677D03*
D190*
X-87763Y-111869D03*
D176*
X-87763Y-106564D03*
D190*
X-87537Y-111869D03*
D185*
X-87537Y-106339D03*
D176*
X-87311Y-111756D03*
D184*
X-87311Y-106000D03*
D176*
X-87085Y-111530D03*
D183*
X-87085Y-105887D03*
D185*
X-86860Y-111305D03*
D183*
X-86860Y-105661D03*
D198*
X-86634Y-111079D03*
D199*
X-86634Y-105436D03*
D183*
X-86408Y-110853D03*
X-86408Y-105210D03*
X-86183Y-110627D03*
D184*
X-86183Y-105097D03*
D182*
X-85957Y-110514D03*
D178*
X-85957Y-104872D03*
D183*
X-85731Y-110401D03*
D178*
X-85731Y-104872D03*
D200*
X-85505Y-110176D03*
D201*
X-85505Y-104872D03*
D202*
X-85280Y-109950D03*
D191*
X-85280Y-104985D03*
D177*
X-85054Y-109612D03*
D184*
X-85054Y-105097D03*
D177*
X-84828Y-109386D03*
D182*
X-84828Y-105323D03*
D189*
X-84603Y-109160D03*
D203*
X-84603Y-105436D03*
D204*
X-84377Y-106903D03*
D205*
X-84151Y-106790D03*
D182*
X-83925Y-108257D03*
D181*
X-83925Y-104195D03*
D183*
X-83700Y-108370D03*
D181*
X-83700Y-104195D03*
D183*
X-83474Y-108370D03*
D172*
X-83474Y-104082D03*
D184*
X-83248Y-108257D03*
D172*
X-83248Y-104082D03*
D196*
X-83022Y-108257D03*
D206*
X-83022Y-104195D03*
D195*
X-82797Y-108032D03*
D181*
X-82797Y-104195D03*
D182*
X-82571Y-107806D03*
D186*
X-82571Y-104533D03*
D207*
X-82345Y-106564D03*
D208*
X-82120Y-106451D03*
D209*
X-81894Y-106339D03*
D210*
X-81668Y-105775D03*
D175*
X-81442Y-105774D03*
D211*
X-81217Y-105774D03*
D212*
X-86018Y-103027D02*
X-86016Y-102884D01*
X-86010Y-102741D01*
X-86000Y-102599D01*
X-85986Y-102457D01*
X-85968Y-102315D01*
X-85946Y-102174D01*
X-85921Y-102033D01*
X-85891Y-101894D01*
X-85857Y-101755D01*
X-85820Y-101617D01*
X-85779Y-101480D01*
X-85733Y-101345D01*
X-85685Y-101211D01*
X-85632Y-101078D01*
X-85576Y-100947D01*
X-85516Y-100817D01*
X-85452Y-100689D01*
X-85385Y-100563D01*
X-85315Y-100439D01*
X-85241Y-100316D01*
X-85163Y-100196D01*
X-85083Y-100079D01*
X-84999Y-99963D01*
X-84912Y-99850D01*
X-84821Y-99739D01*
X-84728Y-99631D01*
X-84632Y-99526D01*
X-84532Y-99423D01*
X-84430Y-99323D01*
X-84326Y-99226D01*
X-84218Y-99132D01*
X-84108Y-99041D01*
X-83996Y-98953D01*
X-83881Y-98868D01*
X-83763Y-98786D01*
X-83644Y-98708D01*
X-83522Y-98633D01*
X-83398Y-98562D01*
X-83273Y-98494D01*
X-83145Y-98430D01*
X-83016Y-98369D01*
X-82885Y-98312D01*
X-82753Y-98258D01*
X-82619Y-98208D01*
X-82484Y-98162D01*
X-82347Y-98120D01*
X-82210Y-98082D01*
X-82071Y-98047D01*
X-81932Y-98016D01*
X-81791Y-97990D01*
X-81650Y-97967D01*
X-81509Y-97948D01*
X-81367Y-97933D01*
X-81224Y-97922D01*
X-81082Y-97915D01*
X-80939Y-97912D01*
X-80796Y-97913D01*
X-80653Y-97918D01*
X-80511Y-97927D01*
X-80368Y-97940D01*
X-80227Y-97957D01*
X-80085Y-97978D01*
X-79945Y-98003D01*
X-79805Y-98031D01*
X-79666Y-98064D01*
X-79527Y-98100D01*
X-79390Y-98141D01*
X-79255Y-98185D01*
X-79120Y-98233D01*
X-78987Y-98284D01*
X-78855Y-98340D01*
X-78725Y-98399D01*
X-78597Y-98461D01*
X-78470Y-98528D01*
X-78345Y-98597D01*
X-78223Y-98670D01*
X-78102Y-98747D01*
X-77984Y-98827D01*
X-77868Y-98910D01*
X-77754Y-98996D01*
X-77643Y-99086D01*
X-77534Y-99178D01*
X-77428Y-99274D01*
X-77324Y-99372D01*
X-77224Y-99474D01*
X-77126Y-99578D01*
X-77031Y-99685D01*
X-76939Y-99794D01*
X-76850Y-99906D01*
X-76765Y-100020D01*
X-76683Y-100137D01*
X-76604Y-100256D01*
X-76528Y-100377D01*
X-76456Y-100500D01*
X-76387Y-100626D01*
X-76321Y-100753D01*
X-76260Y-100882D01*
X-76202Y-101012D01*
X-76147Y-101144D01*
X-76096Y-101278D01*
X-76049Y-101412D01*
X-76006Y-101549D01*
X-75967Y-101686D01*
X-75931Y-101824D01*
X-75900Y-101964D01*
X-75872Y-102104D01*
X-75848Y-102244D01*
X-75828Y-102386D01*
X-75812Y-102528D01*
X-75800Y-102670D01*
X-75792Y-102813D01*
X-75788Y-102956D01*
X-75788Y-103098D01*
X-75792Y-103241D01*
X-75800Y-103384D01*
X-75812Y-103526D01*
X-75828Y-103668D01*
X-75848Y-103810D01*
X-75872Y-103950D01*
X-75900Y-104090D01*
X-75931Y-104230D01*
X-75967Y-104368D01*
X-76006Y-104505D01*
X-76049Y-104642D01*
X-76096Y-104776D01*
X-76147Y-104910D01*
X-76202Y-105042D01*
X-76260Y-105172D01*
X-76321Y-105301D01*
X-76387Y-105428D01*
X-76456Y-105554D01*
X-76528Y-105677D01*
X-76604Y-105798D01*
X-76683Y-105917D01*
X-76765Y-106034D01*
X-76850Y-106148D01*
X-76939Y-106260D01*
X-77031Y-106369D01*
X-77126Y-106476D01*
X-77224Y-106580D01*
X-77324Y-106682D01*
X-77428Y-106780D01*
X-77534Y-106876D01*
X-77643Y-106968D01*
X-77754Y-107058D01*
X-77868Y-107144D01*
X-77984Y-107227D01*
X-78102Y-107307D01*
X-78223Y-107384D01*
X-78346Y-107457D01*
X-78470Y-107526D01*
X-78597Y-107593D01*
X-78725Y-107655D01*
X-78855Y-107714D01*
X-78987Y-107770D01*
X-79120Y-107821D01*
X-79255Y-107869D01*
X-79390Y-107913D01*
X-79527Y-107954D01*
X-79666Y-107990D01*
X-79805Y-108023D01*
X-79945Y-108051D01*
X-80085Y-108076D01*
X-80227Y-108097D01*
X-80368Y-108114D01*
X-80511Y-108127D01*
X-80653Y-108136D01*
X-80796Y-108141D01*
X-80939Y-108142D01*
X-81082Y-108139D01*
X-81224Y-108132D01*
X-81367Y-108121D01*
X-81509Y-108106D01*
X-81650Y-108087D01*
X-81791Y-108064D01*
X-81932Y-108038D01*
X-82071Y-108007D01*
X-82210Y-107972D01*
X-82347Y-107934D01*
X-82484Y-107892D01*
X-82619Y-107846D01*
X-82753Y-107796D01*
X-82885Y-107742D01*
X-83016Y-107685D01*
X-83145Y-107624D01*
X-83273Y-107560D01*
X-83398Y-107492D01*
X-83522Y-107421D01*
X-83644Y-107346D01*
X-83763Y-107268D01*
X-83881Y-107186D01*
X-83996Y-107101D01*
X-84108Y-107013D01*
X-84218Y-106922D01*
X-84326Y-106828D01*
X-84430Y-106731D01*
X-84532Y-106631D01*
X-84632Y-106528D01*
X-84728Y-106423D01*
X-84821Y-106315D01*
X-84912Y-106204D01*
X-84999Y-106091D01*
X-85083Y-105975D01*
X-85163Y-105858D01*
X-85241Y-105738D01*
X-85315Y-105615D01*
X-85385Y-105491D01*
X-85452Y-105365D01*
X-85516Y-105237D01*
X-85576Y-105107D01*
X-85632Y-104976D01*
X-85685Y-104843D01*
X-85733Y-104709D01*
X-85779Y-104574D01*
X-85820Y-104437D01*
X-85857Y-104299D01*
X-85891Y-104160D01*
X-85921Y-104021D01*
X-85946Y-103880D01*
X-85968Y-103739D01*
X-85986Y-103597D01*
X-86000Y-103455D01*
X-86010Y-103313D01*
X-86016Y-103170D01*
X-86018Y-103027D01*
D213*
X-68842Y-144723D03*
D112*
X-68841Y-144497D03*
D12*
X-68728Y-144272D03*
D15*
X-68729Y-144046D03*
X-68729Y-143820D03*
D21*
X-68729Y-143595D03*
D15*
X-68729Y-143369D03*
D20*
X-68842Y-143143D03*
D23*
X-68955Y-142917D03*
D80*
X-69067Y-142692D03*
D59*
X-69293Y-142466D03*
D214*
X-69631Y-142240D03*
D215*
X-69857Y-142014D03*
D121*
X-64778Y-141789D03*
D105*
X-69970Y-141789D03*
D23*
X-64892Y-141563D03*
D53*
X-70083Y-141563D03*
D59*
X-65004Y-141337D03*
D53*
X-70309Y-141337D03*
D214*
X-65117Y-141112D03*
X-70534Y-141112D03*
D74*
X-65230Y-140886D03*
D56*
X-70760Y-140886D03*
D74*
X-65230Y-140660D03*
D23*
X-70986Y-140660D03*
D74*
X-65456Y-140434D03*
D23*
X-71212Y-140434D03*
D59*
X-65681Y-140209D03*
D20*
X-71325Y-140209D03*
D80*
X-65907Y-139983D03*
D18*
X-71437Y-139983D03*
D16*
X-66133Y-139757D03*
D25*
X-71437Y-139757D03*
D15*
X-66246Y-139532D03*
D20*
X-71550Y-139532D03*
X-66359Y-139306D03*
D75*
X-71776Y-139306D03*
D18*
X-66471Y-139080D03*
D59*
X-72001Y-139080D03*
D19*
X-66584Y-138854D03*
D26*
X-72340Y-138854D03*
D216*
X-66697Y-138629D03*
D217*
X-72453Y-138629D03*
D82*
X-66923Y-138403D03*
D53*
X-72566Y-138403D03*
D26*
X-67148Y-138177D03*
D53*
X-72792Y-138177D03*
D87*
X-67487Y-137952D03*
X-72904Y-137952D03*
D53*
X-67600Y-137726D03*
D87*
X-73130Y-137726D03*
D53*
X-67826Y-137500D03*
D82*
X-73469Y-137500D03*
D218*
X-67939Y-137274D03*
D52*
X-73695Y-137274D03*
D87*
X-68164Y-137049D03*
D19*
X-73807Y-137049D03*
D59*
X-68390Y-136823D03*
D20*
X-74033Y-136823D03*
D75*
X-68616Y-136597D03*
D20*
X-74033Y-136597D03*
X-68842Y-136372D03*
X-74033Y-136372D03*
D16*
X-68842Y-136146D03*
X-74259Y-136146D03*
D19*
X-69067Y-135920D03*
D23*
X-74372Y-135920D03*
D19*
X-69067Y-135694D03*
D56*
X-74597Y-135694D03*
D23*
X-69180Y-135469D03*
D74*
X-74936Y-135469D03*
D23*
X-69406Y-135243D03*
D53*
X-75049Y-135243D03*
D56*
X-69631Y-135017D03*
D53*
X-75275Y-135017D03*
D136*
X-69857Y-134792D03*
D219*
X-75500Y-134792D03*
D53*
X-70083Y-134566D03*
X-75726Y-134566D03*
X-70309Y-134340D03*
D74*
X-75839Y-134340D03*
D105*
X-70422Y-134114D03*
D59*
X-76064Y-134114D03*
D53*
X-70535Y-133889D03*
D59*
X-76064Y-133889D03*
D220*
X-70760Y-133663D03*
D135*
X-76064Y-133663D03*
D134*
X-70986Y-133437D03*
D26*
X-75951Y-133437D03*
D80*
X-71324Y-133211D03*
D74*
X-75839Y-133211D03*
D80*
X-71550Y-132986D03*
D105*
X-75613Y-132986D03*
D75*
X-71776Y-132760D03*
D221*
X-75500Y-132760D03*
D58*
X-74033Y-132534D03*
D140*
X-74146Y-132309D03*
D105*
X-72679Y-132083D03*
D121*
X-76741Y-132083D03*
D53*
X-72566Y-131857D03*
D121*
X-76741Y-131857D03*
D53*
X-72566Y-131631D03*
D12*
X-76854Y-131631D03*
D74*
X-72679Y-131406D03*
D12*
X-76854Y-131406D03*
D218*
X-72679Y-131180D03*
D222*
X-76741Y-131180D03*
D87*
X-72904Y-130954D03*
D121*
X-76741Y-130954D03*
D105*
X-73130Y-130729D03*
D18*
X-76403Y-130729D03*
D63*
X-74372Y-130503D03*
D111*
X-74485Y-130277D03*
D123*
X-74597Y-130051D03*
D223*
X-75161Y-129826D03*
D20*
X-75162Y-129600D03*
D224*
X-75162Y-129374D03*
D212*
X-83024Y-129061D02*
X-83022Y-128918D01*
X-83016Y-128775D01*
X-83006Y-128633D01*
X-82992Y-128491D01*
X-82974Y-128349D01*
X-82952Y-128208D01*
X-82927Y-128067D01*
X-82897Y-127928D01*
X-82863Y-127789D01*
X-82826Y-127651D01*
X-82785Y-127514D01*
X-82739Y-127379D01*
X-82691Y-127245D01*
X-82638Y-127112D01*
X-82582Y-126981D01*
X-82522Y-126851D01*
X-82458Y-126723D01*
X-82391Y-126597D01*
X-82321Y-126473D01*
X-82247Y-126350D01*
X-82169Y-126230D01*
X-82089Y-126113D01*
X-82005Y-125997D01*
X-81918Y-125884D01*
X-81827Y-125773D01*
X-81734Y-125665D01*
X-81638Y-125560D01*
X-81538Y-125457D01*
X-81436Y-125357D01*
X-81332Y-125260D01*
X-81224Y-125166D01*
X-81114Y-125075D01*
X-81002Y-124987D01*
X-80887Y-124902D01*
X-80769Y-124820D01*
X-80650Y-124742D01*
X-80528Y-124667D01*
X-80404Y-124596D01*
X-80279Y-124528D01*
X-80151Y-124464D01*
X-80022Y-124403D01*
X-79891Y-124346D01*
X-79759Y-124292D01*
X-79625Y-124242D01*
X-79490Y-124196D01*
X-79353Y-124154D01*
X-79216Y-124116D01*
X-79077Y-124081D01*
X-78938Y-124050D01*
X-78797Y-124024D01*
X-78656Y-124001D01*
X-78515Y-123982D01*
X-78373Y-123967D01*
X-78230Y-123956D01*
X-78088Y-123949D01*
X-77945Y-123946D01*
X-77802Y-123947D01*
X-77659Y-123952D01*
X-77517Y-123961D01*
X-77374Y-123974D01*
X-77233Y-123991D01*
X-77091Y-124012D01*
X-76951Y-124037D01*
X-76811Y-124065D01*
X-76672Y-124098D01*
X-76533Y-124134D01*
X-76396Y-124175D01*
X-76261Y-124219D01*
X-76126Y-124267D01*
X-75993Y-124318D01*
X-75861Y-124374D01*
X-75731Y-124433D01*
X-75603Y-124495D01*
X-75476Y-124562D01*
X-75351Y-124631D01*
X-75229Y-124704D01*
X-75108Y-124781D01*
X-74990Y-124861D01*
X-74874Y-124944D01*
X-74760Y-125030D01*
X-74649Y-125120D01*
X-74540Y-125212D01*
X-74434Y-125308D01*
X-74330Y-125406D01*
X-74230Y-125508D01*
X-74132Y-125612D01*
X-74037Y-125719D01*
X-73945Y-125828D01*
X-73856Y-125940D01*
X-73771Y-126054D01*
X-73689Y-126171D01*
X-73610Y-126290D01*
X-73534Y-126411D01*
X-73462Y-126534D01*
X-73393Y-126660D01*
X-73327Y-126787D01*
X-73266Y-126916D01*
X-73208Y-127046D01*
X-73153Y-127178D01*
X-73102Y-127312D01*
X-73055Y-127446D01*
X-73012Y-127583D01*
X-72973Y-127720D01*
X-72937Y-127858D01*
X-72906Y-127998D01*
X-72878Y-128138D01*
X-72854Y-128278D01*
X-72834Y-128420D01*
X-72818Y-128562D01*
X-72806Y-128704D01*
X-72798Y-128847D01*
X-72794Y-128990D01*
X-72794Y-129132D01*
X-72798Y-129275D01*
X-72806Y-129418D01*
X-72818Y-129560D01*
X-72834Y-129702D01*
X-72854Y-129844D01*
X-72878Y-129984D01*
X-72906Y-130124D01*
X-72937Y-130264D01*
X-72973Y-130402D01*
X-73012Y-130539D01*
X-73055Y-130676D01*
X-73102Y-130810D01*
X-73153Y-130944D01*
X-73208Y-131076D01*
X-73266Y-131206D01*
X-73327Y-131335D01*
X-73393Y-131462D01*
X-73462Y-131588D01*
X-73534Y-131711D01*
X-73610Y-131832D01*
X-73689Y-131951D01*
X-73771Y-132068D01*
X-73856Y-132182D01*
X-73945Y-132294D01*
X-74037Y-132403D01*
X-74132Y-132510D01*
X-74230Y-132614D01*
X-74330Y-132716D01*
X-74434Y-132814D01*
X-74540Y-132910D01*
X-74649Y-133002D01*
X-74760Y-133092D01*
X-74874Y-133178D01*
X-74990Y-133261D01*
X-75108Y-133341D01*
X-75229Y-133418D01*
X-75352Y-133491D01*
X-75476Y-133560D01*
X-75603Y-133627D01*
X-75731Y-133689D01*
X-75861Y-133748D01*
X-75993Y-133804D01*
X-76126Y-133855D01*
X-76261Y-133903D01*
X-76396Y-133947D01*
X-76533Y-133988D01*
X-76672Y-134024D01*
X-76811Y-134057D01*
X-76951Y-134085D01*
X-77091Y-134110D01*
X-77233Y-134131D01*
X-77374Y-134148D01*
X-77517Y-134161D01*
X-77659Y-134170D01*
X-77802Y-134175D01*
X-77945Y-134176D01*
X-78088Y-134173D01*
X-78230Y-134166D01*
X-78373Y-134155D01*
X-78515Y-134140D01*
X-78656Y-134121D01*
X-78797Y-134098D01*
X-78938Y-134072D01*
X-79077Y-134041D01*
X-79216Y-134006D01*
X-79353Y-133968D01*
X-79490Y-133926D01*
X-79625Y-133880D01*
X-79759Y-133830D01*
X-79891Y-133776D01*
X-80022Y-133719D01*
X-80151Y-133658D01*
X-80279Y-133594D01*
X-80404Y-133526D01*
X-80528Y-133455D01*
X-80650Y-133380D01*
X-80769Y-133302D01*
X-80887Y-133220D01*
X-81002Y-133135D01*
X-81114Y-133047D01*
X-81224Y-132956D01*
X-81332Y-132862D01*
X-81436Y-132765D01*
X-81538Y-132665D01*
X-81638Y-132562D01*
X-81734Y-132457D01*
X-81827Y-132349D01*
X-81918Y-132238D01*
X-82005Y-132125D01*
X-82089Y-132009D01*
X-82169Y-131892D01*
X-82247Y-131772D01*
X-82321Y-131649D01*
X-82391Y-131525D01*
X-82458Y-131399D01*
X-82522Y-131271D01*
X-82582Y-131141D01*
X-82638Y-131010D01*
X-82691Y-130877D01*
X-82739Y-130743D01*
X-82785Y-130608D01*
X-82826Y-130471D01*
X-82863Y-130333D01*
X-82897Y-130194D01*
X-82927Y-130055D01*
X-82952Y-129914D01*
X-82974Y-129773D01*
X-82992Y-129631D01*
X-83006Y-129489D01*
X-83016Y-129347D01*
X-83022Y-129204D01*
X-83024Y-129061D01*
D120*
X-141921Y-54933D02*
X-139265Y-51170D01*
X-141921Y-54933D02*
X-144577Y-51170D01*
X-141921Y-54933D02*
X-141921Y-59138D01*
X-159797Y-15206D02*
X-161125Y-15206D01*
X-161125Y-19633D01*
X-158469Y-19633D01*
X-158387Y-19631D01*
X-158306Y-19625D01*
X-158224Y-19616D01*
X-158144Y-19603D01*
X-158064Y-19586D01*
X-157984Y-19565D01*
X-157906Y-19541D01*
X-157829Y-19513D01*
X-157754Y-19482D01*
X-157680Y-19447D01*
X-157607Y-19409D01*
X-157537Y-19368D01*
X-157468Y-19323D01*
X-157402Y-19275D01*
X-157338Y-19224D01*
X-157276Y-19171D01*
X-157217Y-19114D01*
X-157160Y-19055D01*
X-157107Y-18993D01*
X-157056Y-18929D01*
X-157008Y-18863D01*
X-156963Y-18794D01*
X-156922Y-18724D01*
X-156884Y-18651D01*
X-156849Y-18577D01*
X-156818Y-18502D01*
X-156790Y-18425D01*
X-156766Y-18347D01*
X-156745Y-18267D01*
X-156728Y-18187D01*
X-156715Y-18107D01*
X-156706Y-18025D01*
X-156700Y-17944D01*
X-156698Y-17862D01*
X-156698Y-13436D01*
X-156700Y-13354D01*
X-156706Y-13273D01*
X-156715Y-13191D01*
X-156728Y-13111D01*
X-156745Y-13031D01*
X-156766Y-12951D01*
X-156790Y-12873D01*
X-156818Y-12796D01*
X-156849Y-12721D01*
X-156884Y-12647D01*
X-156922Y-12574D01*
X-156963Y-12504D01*
X-157008Y-12435D01*
X-157056Y-12369D01*
X-157107Y-12305D01*
X-157160Y-12243D01*
X-157217Y-12184D01*
X-157276Y-12127D01*
X-157338Y-12074D01*
X-157402Y-12023D01*
X-157468Y-11975D01*
X-157537Y-11930D01*
X-157607Y-11889D01*
X-157680Y-11851D01*
X-157754Y-11816D01*
X-157829Y-11785D01*
X-157906Y-11757D01*
X-157984Y-11733D01*
X-158064Y-11712D01*
X-158144Y-11695D01*
X-158224Y-11682D01*
X-158306Y-11673D01*
X-158387Y-11667D01*
X-158469Y-11665D01*
X-161125Y-11665D01*
X-152661Y28923D02*
X-152661Y36891D01*
X-154874Y36891D01*
X-154874Y36890D02*
X-154967Y36888D01*
X-155059Y36882D01*
X-155151Y36873D01*
X-155243Y36859D01*
X-155334Y36842D01*
X-155424Y36820D01*
X-155514Y36796D01*
X-155602Y36767D01*
X-155689Y36735D01*
X-155774Y36699D01*
X-155858Y36659D01*
X-155940Y36616D01*
X-156020Y36570D01*
X-156099Y36520D01*
X-156175Y36467D01*
X-156249Y36411D01*
X-156320Y36352D01*
X-156389Y36290D01*
X-156455Y36225D01*
X-156519Y36158D01*
X-156579Y36088D01*
X-156637Y36015D01*
X-156691Y35940D01*
X-156742Y35863D01*
X-156791Y35784D01*
X-156835Y35702D01*
X-156876Y35619D01*
X-156914Y35535D01*
X-156948Y35448D01*
X-156979Y35361D01*
X-157005Y35272D01*
X-157029Y35182D01*
X-157048Y35092D01*
X-157063Y35000D01*
X-157075Y34908D01*
X-157083Y34816D01*
X-157087Y34723D01*
X-157087Y34631D01*
X-157083Y34538D01*
X-157075Y34446D01*
X-157063Y34354D01*
X-157048Y34262D01*
X-157029Y34172D01*
X-157005Y34082D01*
X-156979Y33993D01*
X-156948Y33906D01*
X-156914Y33819D01*
X-156876Y33735D01*
X-156835Y33652D01*
X-156791Y33570D01*
X-156742Y33491D01*
X-156691Y33414D01*
X-156637Y33339D01*
X-156579Y33266D01*
X-156519Y33196D01*
X-156455Y33129D01*
X-156389Y33064D01*
X-156320Y33002D01*
X-156249Y32943D01*
X-156175Y32887D01*
X-156099Y32834D01*
X-156020Y32784D01*
X-155940Y32738D01*
X-155858Y32695D01*
X-155774Y32655D01*
X-155689Y32619D01*
X-155602Y32587D01*
X-155514Y32558D01*
X-155424Y32534D01*
X-155334Y32512D01*
X-155243Y32495D01*
X-155151Y32481D01*
X-155059Y32472D01*
X-154967Y32466D01*
X-154874Y32464D01*
X-152661Y32464D01*
X-155317Y32464D02*
X-157088Y28923D01*
X-124244Y93923D02*
X-121588Y97685D01*
X-124244Y93923D02*
X-126900Y97685D01*
X-124244Y93923D02*
X-124244Y89717D01*
X140349Y-56949D02*
X142562Y-56949D01*
X140349Y-56950D02*
X140256Y-56952D01*
X140164Y-56958D01*
X140072Y-56967D01*
X139980Y-56981D01*
X139889Y-56998D01*
X139799Y-57020D01*
X139709Y-57044D01*
X139621Y-57073D01*
X139534Y-57105D01*
X139449Y-57141D01*
X139365Y-57181D01*
X139283Y-57224D01*
X139203Y-57270D01*
X139124Y-57320D01*
X139048Y-57373D01*
X138974Y-57429D01*
X138903Y-57488D01*
X138834Y-57550D01*
X138768Y-57615D01*
X138704Y-57682D01*
X138644Y-57752D01*
X138586Y-57825D01*
X138532Y-57900D01*
X138481Y-57977D01*
X138432Y-58057D01*
X138388Y-58138D01*
X138347Y-58221D01*
X138309Y-58305D01*
X138275Y-58392D01*
X138244Y-58479D01*
X138218Y-58568D01*
X138194Y-58658D01*
X138175Y-58748D01*
X138160Y-58840D01*
X138148Y-58932D01*
X138140Y-59024D01*
X138136Y-59117D01*
X138136Y-59209D01*
X138140Y-59302D01*
X138148Y-59394D01*
X138160Y-59486D01*
X138175Y-59578D01*
X138194Y-59668D01*
X138218Y-59758D01*
X138244Y-59847D01*
X138275Y-59934D01*
X138309Y-60021D01*
X138347Y-60105D01*
X138388Y-60188D01*
X138432Y-60270D01*
X138481Y-60349D01*
X138532Y-60426D01*
X138586Y-60501D01*
X138644Y-60574D01*
X138704Y-60644D01*
X138768Y-60711D01*
X138834Y-60776D01*
X138903Y-60838D01*
X138974Y-60897D01*
X139048Y-60953D01*
X139124Y-61006D01*
X139203Y-61056D01*
X139283Y-61102D01*
X139365Y-61145D01*
X139449Y-61185D01*
X139534Y-61221D01*
X139621Y-61253D01*
X139709Y-61282D01*
X139799Y-61306D01*
X139889Y-61328D01*
X139980Y-61345D01*
X140072Y-61359D01*
X140164Y-61368D01*
X140256Y-61374D01*
X140349Y-61376D01*
X142562Y-61376D01*
X142562Y-53408D01*
X140349Y-53408D01*
X140266Y-53410D01*
X140183Y-53416D01*
X140101Y-53425D01*
X140019Y-53439D01*
X139938Y-53456D01*
X139857Y-53478D01*
X139778Y-53503D01*
X139700Y-53531D01*
X139624Y-53563D01*
X139549Y-53599D01*
X139476Y-53638D01*
X139404Y-53681D01*
X139335Y-53727D01*
X139268Y-53776D01*
X139204Y-53828D01*
X139142Y-53883D01*
X139082Y-53941D01*
X139026Y-54002D01*
X138972Y-54066D01*
X138921Y-54131D01*
X138874Y-54199D01*
X138829Y-54270D01*
X138788Y-54342D01*
X138751Y-54416D01*
X138717Y-54492D01*
X138686Y-54569D01*
X138660Y-54648D01*
X138637Y-54727D01*
X138617Y-54808D01*
X138602Y-54890D01*
X138590Y-54972D01*
X138582Y-55055D01*
X138578Y-55137D01*
X138578Y-55221D01*
X138582Y-55303D01*
X138590Y-55386D01*
X138602Y-55468D01*
X138617Y-55550D01*
X138637Y-55631D01*
X138660Y-55710D01*
X138686Y-55789D01*
X138717Y-55866D01*
X138751Y-55942D01*
X138788Y-56016D01*
X138829Y-56088D01*
X138874Y-56159D01*
X138921Y-56227D01*
X138972Y-56292D01*
X139026Y-56356D01*
X139082Y-56417D01*
X139142Y-56475D01*
X139204Y-56530D01*
X139268Y-56582D01*
X139335Y-56631D01*
X139404Y-56677D01*
X139476Y-56720D01*
X139549Y-56759D01*
X139624Y-56795D01*
X139700Y-56827D01*
X139778Y-56855D01*
X139857Y-56880D01*
X139938Y-56902D01*
X140019Y-56919D01*
X140101Y-56933D01*
X140183Y-56942D01*
X140266Y-56948D01*
X140349Y-56950D01*
X156009Y15987D02*
X156009Y23955D01*
X153795Y23955D01*
X153702Y23953D01*
X153610Y23947D01*
X153518Y23938D01*
X153426Y23924D01*
X153335Y23907D01*
X153245Y23885D01*
X153155Y23861D01*
X153067Y23832D01*
X152980Y23800D01*
X152895Y23764D01*
X152811Y23724D01*
X152729Y23681D01*
X152649Y23635D01*
X152570Y23585D01*
X152494Y23532D01*
X152420Y23476D01*
X152349Y23417D01*
X152280Y23355D01*
X152214Y23290D01*
X152150Y23223D01*
X152090Y23153D01*
X152032Y23080D01*
X151978Y23005D01*
X151927Y22928D01*
X151878Y22848D01*
X151834Y22767D01*
X151793Y22684D01*
X151755Y22600D01*
X151721Y22513D01*
X151690Y22426D01*
X151664Y22337D01*
X151640Y22247D01*
X151621Y22157D01*
X151606Y22065D01*
X151594Y21973D01*
X151586Y21881D01*
X151582Y21788D01*
X151582Y21696D01*
X151586Y21603D01*
X151594Y21511D01*
X151606Y21419D01*
X151621Y21327D01*
X151640Y21237D01*
X151664Y21147D01*
X151690Y21058D01*
X151721Y20971D01*
X151755Y20884D01*
X151793Y20800D01*
X151834Y20717D01*
X151878Y20635D01*
X151927Y20556D01*
X151978Y20479D01*
X152032Y20404D01*
X152090Y20331D01*
X152150Y20261D01*
X152214Y20194D01*
X152280Y20129D01*
X152349Y20067D01*
X152420Y20008D01*
X152494Y19952D01*
X152570Y19899D01*
X152649Y19849D01*
X152729Y19803D01*
X152811Y19760D01*
X152895Y19720D01*
X152980Y19684D01*
X153067Y19652D01*
X153155Y19623D01*
X153245Y19599D01*
X153335Y19577D01*
X153426Y19560D01*
X153518Y19546D01*
X153610Y19537D01*
X153702Y19531D01*
X153795Y19529D01*
X153795Y19528D02*
X156009Y19528D01*
X153353Y19528D02*
X151582Y15987D01*
X139361Y57309D02*
X137147Y57309D01*
X137147Y57308D02*
X137054Y57306D01*
X136962Y57300D01*
X136870Y57291D01*
X136778Y57277D01*
X136687Y57260D01*
X136597Y57238D01*
X136507Y57214D01*
X136419Y57185D01*
X136332Y57153D01*
X136247Y57117D01*
X136163Y57077D01*
X136081Y57034D01*
X136001Y56988D01*
X135922Y56938D01*
X135846Y56885D01*
X135772Y56829D01*
X135701Y56770D01*
X135632Y56708D01*
X135566Y56643D01*
X135502Y56576D01*
X135442Y56506D01*
X135384Y56433D01*
X135330Y56358D01*
X135279Y56281D01*
X135230Y56202D01*
X135186Y56120D01*
X135145Y56037D01*
X135107Y55953D01*
X135073Y55866D01*
X135042Y55779D01*
X135016Y55690D01*
X134992Y55600D01*
X134973Y55510D01*
X134958Y55418D01*
X134946Y55326D01*
X134938Y55234D01*
X134934Y55141D01*
X134934Y55049D01*
X134938Y54956D01*
X134946Y54864D01*
X134958Y54772D01*
X134973Y54680D01*
X134992Y54590D01*
X135016Y54500D01*
X135042Y54411D01*
X135073Y54324D01*
X135107Y54237D01*
X135145Y54153D01*
X135186Y54070D01*
X135230Y53988D01*
X135279Y53909D01*
X135330Y53832D01*
X135384Y53757D01*
X135442Y53684D01*
X135502Y53614D01*
X135566Y53547D01*
X135632Y53482D01*
X135701Y53420D01*
X135772Y53361D01*
X135846Y53305D01*
X135922Y53252D01*
X136001Y53202D01*
X136081Y53156D01*
X136163Y53113D01*
X136247Y53073D01*
X136332Y53037D01*
X136419Y53005D01*
X136507Y52976D01*
X136597Y52952D01*
X136687Y52930D01*
X136778Y52913D01*
X136870Y52899D01*
X136962Y52890D01*
X137054Y52884D01*
X137147Y52882D01*
X139361Y52882D01*
X139361Y60850D01*
X137147Y60850D01*
X137064Y60848D01*
X136981Y60842D01*
X136899Y60833D01*
X136817Y60819D01*
X136736Y60802D01*
X136655Y60780D01*
X136576Y60755D01*
X136498Y60727D01*
X136422Y60695D01*
X136347Y60659D01*
X136274Y60620D01*
X136202Y60577D01*
X136133Y60531D01*
X136066Y60482D01*
X136002Y60430D01*
X135940Y60375D01*
X135880Y60317D01*
X135824Y60256D01*
X135770Y60192D01*
X135719Y60127D01*
X135672Y60059D01*
X135627Y59988D01*
X135586Y59916D01*
X135549Y59842D01*
X135515Y59766D01*
X135484Y59689D01*
X135458Y59610D01*
X135435Y59531D01*
X135415Y59450D01*
X135400Y59368D01*
X135388Y59286D01*
X135380Y59203D01*
X135376Y59121D01*
X135376Y59037D01*
X135380Y58955D01*
X135388Y58872D01*
X135400Y58790D01*
X135415Y58708D01*
X135435Y58627D01*
X135458Y58548D01*
X135484Y58469D01*
X135515Y58392D01*
X135549Y58316D01*
X135586Y58242D01*
X135627Y58170D01*
X135672Y58099D01*
X135719Y58031D01*
X135770Y57966D01*
X135824Y57902D01*
X135880Y57841D01*
X135940Y57783D01*
X136002Y57728D01*
X136066Y57676D01*
X136133Y57627D01*
X136202Y57581D01*
X136274Y57538D01*
X136347Y57499D01*
X136422Y57463D01*
X136498Y57431D01*
X136576Y57403D01*
X136655Y57378D01*
X136736Y57356D01*
X136817Y57339D01*
X136899Y57325D01*
X136981Y57316D01*
X137064Y57310D01*
X137147Y57308D01*
X115268Y99274D02*
X113940Y99274D01*
X113940Y94847D01*
X116596Y94847D01*
X116678Y94849D01*
X116759Y94855D01*
X116841Y94864D01*
X116921Y94877D01*
X117001Y94894D01*
X117081Y94915D01*
X117159Y94939D01*
X117236Y94967D01*
X117311Y94998D01*
X117385Y95033D01*
X117458Y95071D01*
X117528Y95112D01*
X117597Y95157D01*
X117663Y95205D01*
X117727Y95256D01*
X117789Y95309D01*
X117848Y95366D01*
X117905Y95425D01*
X117959Y95487D01*
X118009Y95551D01*
X118057Y95617D01*
X118102Y95686D01*
X118143Y95756D01*
X118181Y95829D01*
X118216Y95903D01*
X118247Y95978D01*
X118275Y96055D01*
X118299Y96133D01*
X118320Y96213D01*
X118337Y96293D01*
X118350Y96373D01*
X118359Y96455D01*
X118365Y96536D01*
X118367Y96618D01*
X118367Y101044D01*
X118365Y101126D01*
X118359Y101207D01*
X118350Y101289D01*
X118337Y101369D01*
X118320Y101449D01*
X118299Y101529D01*
X118275Y101607D01*
X118247Y101684D01*
X118216Y101759D01*
X118181Y101833D01*
X118143Y101906D01*
X118102Y101976D01*
X118057Y102045D01*
X118009Y102111D01*
X117959Y102175D01*
X117905Y102237D01*
X117848Y102296D01*
X117789Y102353D01*
X117727Y102406D01*
X117663Y102457D01*
X117597Y102505D01*
X117528Y102550D01*
X117458Y102591D01*
X117385Y102629D01*
X117311Y102664D01*
X117236Y102695D01*
X117159Y102723D01*
X117081Y102747D01*
X117002Y102768D01*
X116921Y102785D01*
X116841Y102798D01*
X116759Y102807D01*
X116678Y102813D01*
X116596Y102815D01*
X113940Y102815D01*
D225*
X-156291Y12020D02*
X-156291Y-9480D01*
X-135809Y-9480D02*
X-135809Y12020D01*
X103180Y76603D02*
X118383Y61400D01*
X132866Y75883D02*
X117663Y91086D01*
X134539Y9480D02*
X134539Y-12020D01*
X155021Y-12020D02*
X155021Y9480D01*
X-103237Y77970D02*
X-118440Y62767D01*
X-132923Y77250D02*
X-117720Y92453D01*
D226*
X-35375Y93616D02*
X-35373Y93679D01*
X-35367Y93741D01*
X-35357Y93803D01*
X-35344Y93865D01*
X-35326Y93925D01*
X-35305Y93984D01*
X-35280Y94042D01*
X-35251Y94098D01*
X-35219Y94152D01*
X-35184Y94204D01*
X-35146Y94253D01*
X-35104Y94301D01*
X-35060Y94345D01*
X-35012Y94387D01*
X-34963Y94425D01*
X-34911Y94460D01*
X-34857Y94492D01*
X-34801Y94521D01*
X-34743Y94546D01*
X-34684Y94567D01*
X-34624Y94585D01*
X-34562Y94598D01*
X-34500Y94608D01*
X-34438Y94614D01*
X-34375Y94616D01*
X-34312Y94614D01*
X-34250Y94608D01*
X-34188Y94598D01*
X-34126Y94585D01*
X-34066Y94567D01*
X-34007Y94546D01*
X-33949Y94521D01*
X-33893Y94492D01*
X-33839Y94460D01*
X-33787Y94425D01*
X-33738Y94387D01*
X-33690Y94345D01*
X-33646Y94301D01*
X-33604Y94253D01*
X-33566Y94204D01*
X-33531Y94152D01*
X-33499Y94098D01*
X-33470Y94042D01*
X-33445Y93984D01*
X-33424Y93925D01*
X-33406Y93865D01*
X-33393Y93803D01*
X-33383Y93741D01*
X-33377Y93679D01*
X-33375Y93616D01*
X-33377Y93553D01*
X-33383Y93491D01*
X-33393Y93429D01*
X-33406Y93367D01*
X-33424Y93307D01*
X-33445Y93248D01*
X-33470Y93190D01*
X-33499Y93134D01*
X-33531Y93080D01*
X-33566Y93028D01*
X-33604Y92979D01*
X-33646Y92931D01*
X-33690Y92887D01*
X-33738Y92845D01*
X-33787Y92807D01*
X-33839Y92772D01*
X-33893Y92740D01*
X-33949Y92711D01*
X-34007Y92686D01*
X-34066Y92665D01*
X-34126Y92647D01*
X-34188Y92634D01*
X-34250Y92624D01*
X-34312Y92618D01*
X-34375Y92616D01*
X-34438Y92618D01*
X-34500Y92624D01*
X-34562Y92634D01*
X-34624Y92647D01*
X-34684Y92665D01*
X-34743Y92686D01*
X-34801Y92711D01*
X-34857Y92740D01*
X-34911Y92772D01*
X-34963Y92807D01*
X-35012Y92845D01*
X-35060Y92887D01*
X-35104Y92931D01*
X-35146Y92979D01*
X-35184Y93028D01*
X-35219Y93080D01*
X-35251Y93134D01*
X-35280Y93190D01*
X-35305Y93248D01*
X-35326Y93307D01*
X-35344Y93367D01*
X-35357Y93429D01*
X-35367Y93491D01*
X-35373Y93553D01*
X-35375Y93616D01*
D225*
X-85821Y117722D02*
X-87321Y120321D01*
X-52680Y140321D02*
X-51180Y137722D01*
X-68821Y88278D02*
X-67321Y85679D01*
X-32680Y105679D02*
X-34180Y108278D01*
X-84722Y121821D02*
X-87321Y120321D01*
X-55278Y138821D02*
X-52680Y140321D01*
X-64722Y87179D02*
X-67321Y85679D01*
X-35278Y104179D02*
X-32680Y105679D01*
X63260Y138325D02*
X89240Y123325D01*
X76740Y101675D02*
X50760Y116675D01*
X62010Y136160D02*
X63010Y137892D01*
X52010Y118840D02*
X51010Y117108D01*
X76990Y102108D02*
X77990Y103840D01*
X-11241Y126346D02*
X-26639Y117456D01*
X-11241Y126346D02*
X-27751Y154942D01*
X-43149Y146052D01*
X-26639Y117456D01*
X-150241Y50750D02*
X-150241Y29250D01*
X-129759Y29250D02*
X-129759Y50750D01*
X-152119Y-21883D02*
X-152119Y-43383D01*
X-131637Y-43383D02*
X-131637Y-21883D01*
X128417Y24159D02*
X128417Y45659D01*
X148899Y45659D02*
X148899Y24159D01*
X131600Y-24030D02*
X131600Y-45530D01*
X152082Y-45530D02*
X152082Y-24030D01*
M02*
