G04 EAGLE Gerber RS-274X export*
G75*
%MOMM*%
%FSLAX34Y34*%
%LPD*%
%INBottom Solder Mask*%
%IPPOS*%
%AMOC8*
5,1,8,0,0,1.08239X$1,22.5*%
G01*
G04 Define Apertures*
%ADD10C,2.101600*%
%ADD11C,0.254000*%
%ADD12C,0.800000*%
%ADD13R,2.641600X7.101600*%
%ADD14C,10.261600*%
%ADD15R,1.521800X1.132800*%
%ADD16R,1.132800X1.521800*%
%ADD17C,0.166334*%
%ADD18R,2.701600X2.701600*%
%ADD19R,2.101600X1.151600*%
%ADD20C,0.357631*%
%ADD21C,1.601600*%
D10*
X0Y140000D03*
D11*
X47110Y-140457D02*
X47110Y-150617D01*
X47110Y-140457D02*
X44288Y-140457D01*
X44182Y-140459D01*
X44077Y-140465D01*
X43972Y-140475D01*
X43867Y-140489D01*
X43763Y-140506D01*
X43660Y-140528D01*
X43558Y-140553D01*
X43456Y-140582D01*
X43356Y-140615D01*
X43257Y-140652D01*
X43160Y-140692D01*
X43064Y-140736D01*
X42969Y-140784D01*
X42877Y-140835D01*
X42787Y-140890D01*
X42698Y-140947D01*
X42612Y-141008D01*
X42529Y-141073D01*
X42447Y-141140D01*
X42369Y-141210D01*
X42293Y-141284D01*
X42219Y-141360D01*
X42149Y-141438D01*
X42082Y-141520D01*
X42017Y-141603D01*
X41956Y-141689D01*
X41899Y-141778D01*
X41844Y-141868D01*
X41793Y-141960D01*
X41745Y-142055D01*
X41701Y-142151D01*
X41661Y-142248D01*
X41624Y-142347D01*
X41591Y-142447D01*
X41562Y-142549D01*
X41537Y-142651D01*
X41515Y-142754D01*
X41498Y-142858D01*
X41484Y-142963D01*
X41474Y-143068D01*
X41468Y-143173D01*
X41466Y-143279D01*
X41468Y-143385D01*
X41474Y-143490D01*
X41484Y-143595D01*
X41498Y-143700D01*
X41515Y-143804D01*
X41537Y-143907D01*
X41562Y-144009D01*
X41591Y-144111D01*
X41624Y-144211D01*
X41661Y-144310D01*
X41701Y-144407D01*
X41745Y-144503D01*
X41793Y-144598D01*
X41844Y-144690D01*
X41899Y-144780D01*
X41956Y-144869D01*
X42017Y-144955D01*
X42082Y-145038D01*
X42149Y-145120D01*
X42219Y-145198D01*
X42293Y-145274D01*
X42369Y-145348D01*
X42447Y-145418D01*
X42529Y-145485D01*
X42612Y-145550D01*
X42698Y-145611D01*
X42787Y-145668D01*
X42877Y-145723D01*
X42969Y-145774D01*
X43064Y-145822D01*
X43160Y-145866D01*
X43257Y-145906D01*
X43356Y-145943D01*
X43456Y-145976D01*
X43558Y-146005D01*
X43660Y-146030D01*
X43763Y-146052D01*
X43867Y-146069D01*
X43972Y-146083D01*
X44077Y-146093D01*
X44182Y-146099D01*
X44288Y-146101D01*
X44288Y-146102D02*
X47110Y-146102D01*
X35680Y-150617D02*
X35680Y-140457D01*
X30035Y-140457D02*
X35680Y-146666D01*
X33422Y-144408D02*
X30035Y-150617D01*
D12*
X-77886Y-129121D03*
X-80920Y-103030D03*
D11*
X61585Y-127432D02*
X61587Y-127332D01*
X61593Y-127233D01*
X61603Y-127133D01*
X61616Y-127035D01*
X61634Y-126936D01*
X61655Y-126839D01*
X61680Y-126743D01*
X61709Y-126647D01*
X61742Y-126553D01*
X61778Y-126460D01*
X61818Y-126369D01*
X61862Y-126279D01*
X61909Y-126191D01*
X61959Y-126105D01*
X62013Y-126021D01*
X62070Y-125939D01*
X62130Y-125860D01*
X62194Y-125782D01*
X62260Y-125708D01*
X62329Y-125636D01*
X62401Y-125567D01*
X62475Y-125501D01*
X62553Y-125437D01*
X62632Y-125377D01*
X62714Y-125320D01*
X62798Y-125266D01*
X62884Y-125216D01*
X62972Y-125169D01*
X63062Y-125125D01*
X63153Y-125085D01*
X63246Y-125049D01*
X63340Y-125016D01*
X63436Y-124987D01*
X63532Y-124962D01*
X63629Y-124941D01*
X63728Y-124923D01*
X63826Y-124910D01*
X63926Y-124900D01*
X64025Y-124894D01*
X64125Y-124892D01*
X64236Y-124894D01*
X64347Y-124900D01*
X64457Y-124909D01*
X64567Y-124922D01*
X64677Y-124939D01*
X64786Y-124960D01*
X64894Y-124984D01*
X65001Y-125012D01*
X65108Y-125043D01*
X65213Y-125079D01*
X65317Y-125117D01*
X65419Y-125160D01*
X65520Y-125205D01*
X65620Y-125255D01*
X65717Y-125307D01*
X65813Y-125363D01*
X65907Y-125422D01*
X65999Y-125484D01*
X66089Y-125549D01*
X66176Y-125617D01*
X66261Y-125689D01*
X66344Y-125763D01*
X66424Y-125839D01*
X66501Y-125919D01*
X66576Y-126001D01*
X66648Y-126085D01*
X66717Y-126172D01*
X66782Y-126261D01*
X66845Y-126353D01*
X66905Y-126446D01*
X66961Y-126542D01*
X67015Y-126639D01*
X67064Y-126738D01*
X67111Y-126839D01*
X67154Y-126941D01*
X67193Y-127045D01*
X67229Y-127150D01*
X62432Y-129407D02*
X62360Y-129337D01*
X62291Y-129264D01*
X62225Y-129188D01*
X62162Y-129110D01*
X62102Y-129030D01*
X62045Y-128947D01*
X61990Y-128863D01*
X61939Y-128776D01*
X61891Y-128688D01*
X61847Y-128598D01*
X61806Y-128507D01*
X61768Y-128414D01*
X61733Y-128319D01*
X61702Y-128224D01*
X61675Y-128127D01*
X61651Y-128030D01*
X61631Y-127931D01*
X61615Y-127832D01*
X61602Y-127733D01*
X61592Y-127633D01*
X61587Y-127532D01*
X61585Y-127432D01*
X62432Y-129407D02*
X67230Y-135052D01*
X61585Y-135052D01*
X55800Y-129972D02*
X55798Y-129772D01*
X55790Y-129572D01*
X55779Y-129373D01*
X55762Y-129174D01*
X55740Y-128975D01*
X55714Y-128777D01*
X55683Y-128579D01*
X55648Y-128383D01*
X55607Y-128187D01*
X55563Y-127992D01*
X55513Y-127798D01*
X55459Y-127606D01*
X55400Y-127415D01*
X55337Y-127225D01*
X55269Y-127037D01*
X55197Y-126851D01*
X55120Y-126666D01*
X55039Y-126484D01*
X54953Y-126303D01*
X54922Y-126219D01*
X54888Y-126137D01*
X54850Y-126056D01*
X54809Y-125976D01*
X54764Y-125899D01*
X54717Y-125824D01*
X54666Y-125750D01*
X54611Y-125679D01*
X54554Y-125611D01*
X54494Y-125544D01*
X54431Y-125481D01*
X54366Y-125420D01*
X54298Y-125362D01*
X54228Y-125307D01*
X54155Y-125255D01*
X54080Y-125207D01*
X54003Y-125161D01*
X53925Y-125119D01*
X53844Y-125080D01*
X53762Y-125045D01*
X53679Y-125013D01*
X53594Y-124985D01*
X53508Y-124960D01*
X53421Y-124940D01*
X53334Y-124922D01*
X53245Y-124909D01*
X53156Y-124900D01*
X53067Y-124894D01*
X52978Y-124892D01*
X52889Y-124894D01*
X52800Y-124900D01*
X52711Y-124909D01*
X52622Y-124922D01*
X52535Y-124940D01*
X52448Y-124960D01*
X52362Y-124985D01*
X52277Y-125013D01*
X52194Y-125045D01*
X52112Y-125080D01*
X52031Y-125119D01*
X51953Y-125161D01*
X51876Y-125207D01*
X51801Y-125255D01*
X51728Y-125307D01*
X51658Y-125362D01*
X51590Y-125420D01*
X51525Y-125481D01*
X51462Y-125544D01*
X51402Y-125611D01*
X51345Y-125679D01*
X51290Y-125750D01*
X51239Y-125824D01*
X51192Y-125899D01*
X51147Y-125976D01*
X51106Y-126056D01*
X51068Y-126137D01*
X51034Y-126219D01*
X51003Y-126303D01*
X50917Y-126484D01*
X50836Y-126667D01*
X50759Y-126851D01*
X50687Y-127038D01*
X50619Y-127226D01*
X50556Y-127415D01*
X50497Y-127606D01*
X50443Y-127799D01*
X50393Y-127992D01*
X50349Y-128187D01*
X50308Y-128383D01*
X50273Y-128579D01*
X50242Y-128777D01*
X50216Y-128975D01*
X50194Y-129174D01*
X50177Y-129373D01*
X50166Y-129572D01*
X50158Y-129772D01*
X50156Y-129972D01*
X55800Y-129972D02*
X55798Y-130172D01*
X55790Y-130372D01*
X55779Y-130571D01*
X55762Y-130770D01*
X55740Y-130969D01*
X55714Y-131167D01*
X55683Y-131365D01*
X55648Y-131561D01*
X55607Y-131757D01*
X55563Y-131952D01*
X55513Y-132146D01*
X55459Y-132338D01*
X55400Y-132529D01*
X55337Y-132719D01*
X55269Y-132907D01*
X55197Y-133093D01*
X55120Y-133278D01*
X55039Y-133460D01*
X54953Y-133641D01*
X54953Y-133640D02*
X54922Y-133724D01*
X54888Y-133807D01*
X54850Y-133887D01*
X54809Y-133967D01*
X54764Y-134044D01*
X54717Y-134119D01*
X54665Y-134193D01*
X54611Y-134264D01*
X54554Y-134332D01*
X54494Y-134399D01*
X54431Y-134462D01*
X54366Y-134523D01*
X54298Y-134581D01*
X54228Y-134636D01*
X54155Y-134688D01*
X54080Y-134736D01*
X54003Y-134782D01*
X53925Y-134824D01*
X53844Y-134863D01*
X53762Y-134898D01*
X53679Y-134930D01*
X53594Y-134958D01*
X53508Y-134983D01*
X53421Y-135003D01*
X53334Y-135021D01*
X53245Y-135034D01*
X53156Y-135043D01*
X53067Y-135049D01*
X52978Y-135051D01*
X51003Y-133641D02*
X50917Y-133460D01*
X50836Y-133277D01*
X50759Y-133093D01*
X50687Y-132906D01*
X50619Y-132718D01*
X50556Y-132529D01*
X50497Y-132338D01*
X50443Y-132145D01*
X50393Y-131952D01*
X50349Y-131757D01*
X50308Y-131561D01*
X50273Y-131365D01*
X50242Y-131167D01*
X50216Y-130969D01*
X50194Y-130770D01*
X50177Y-130571D01*
X50166Y-130372D01*
X50158Y-130172D01*
X50156Y-129972D01*
X51003Y-133640D02*
X51034Y-133724D01*
X51068Y-133807D01*
X51106Y-133887D01*
X51147Y-133967D01*
X51192Y-134044D01*
X51239Y-134119D01*
X51291Y-134193D01*
X51345Y-134264D01*
X51402Y-134332D01*
X51462Y-134399D01*
X51525Y-134462D01*
X51590Y-134523D01*
X51658Y-134581D01*
X51728Y-134636D01*
X51801Y-134688D01*
X51876Y-134736D01*
X51953Y-134782D01*
X52031Y-134824D01*
X52112Y-134863D01*
X52194Y-134898D01*
X52277Y-134930D01*
X52362Y-134958D01*
X52448Y-134983D01*
X52535Y-135003D01*
X52622Y-135021D01*
X52711Y-135034D01*
X52800Y-135043D01*
X52889Y-135049D01*
X52978Y-135051D01*
X55235Y-132794D02*
X50720Y-127149D01*
X41265Y-124892D02*
X41165Y-124894D01*
X41066Y-124900D01*
X40966Y-124910D01*
X40868Y-124923D01*
X40769Y-124941D01*
X40672Y-124962D01*
X40576Y-124987D01*
X40480Y-125016D01*
X40386Y-125049D01*
X40293Y-125085D01*
X40202Y-125125D01*
X40112Y-125169D01*
X40024Y-125216D01*
X39938Y-125266D01*
X39854Y-125320D01*
X39772Y-125377D01*
X39693Y-125437D01*
X39615Y-125501D01*
X39541Y-125567D01*
X39469Y-125636D01*
X39400Y-125708D01*
X39334Y-125782D01*
X39270Y-125860D01*
X39210Y-125939D01*
X39153Y-126021D01*
X39099Y-126105D01*
X39049Y-126191D01*
X39002Y-126279D01*
X38958Y-126369D01*
X38918Y-126460D01*
X38882Y-126553D01*
X38849Y-126647D01*
X38820Y-126743D01*
X38795Y-126839D01*
X38774Y-126936D01*
X38756Y-127035D01*
X38743Y-127133D01*
X38733Y-127233D01*
X38727Y-127332D01*
X38725Y-127432D01*
X41265Y-124892D02*
X41376Y-124894D01*
X41487Y-124900D01*
X41597Y-124909D01*
X41707Y-124922D01*
X41817Y-124939D01*
X41926Y-124960D01*
X42034Y-124984D01*
X42141Y-125012D01*
X42248Y-125043D01*
X42353Y-125079D01*
X42457Y-125117D01*
X42559Y-125160D01*
X42660Y-125205D01*
X42760Y-125255D01*
X42857Y-125307D01*
X42953Y-125363D01*
X43047Y-125422D01*
X43139Y-125484D01*
X43229Y-125549D01*
X43316Y-125617D01*
X43401Y-125689D01*
X43484Y-125763D01*
X43564Y-125839D01*
X43641Y-125919D01*
X43716Y-126001D01*
X43788Y-126085D01*
X43857Y-126172D01*
X43922Y-126261D01*
X43985Y-126353D01*
X44045Y-126446D01*
X44101Y-126542D01*
X44155Y-126639D01*
X44204Y-126738D01*
X44251Y-126839D01*
X44294Y-126941D01*
X44333Y-127045D01*
X44369Y-127150D01*
X39572Y-129407D02*
X39500Y-129337D01*
X39431Y-129264D01*
X39365Y-129188D01*
X39302Y-129110D01*
X39242Y-129030D01*
X39185Y-128947D01*
X39130Y-128863D01*
X39079Y-128776D01*
X39031Y-128688D01*
X38987Y-128598D01*
X38946Y-128507D01*
X38908Y-128414D01*
X38873Y-128319D01*
X38842Y-128224D01*
X38815Y-128127D01*
X38791Y-128030D01*
X38771Y-127931D01*
X38755Y-127832D01*
X38742Y-127733D01*
X38732Y-127633D01*
X38727Y-127532D01*
X38725Y-127432D01*
X39572Y-129407D02*
X44370Y-135052D01*
X38725Y-135052D01*
X32940Y-127149D02*
X30118Y-124892D01*
X30118Y-135052D01*
X32940Y-135052D02*
X27295Y-135052D01*
X128949Y-67567D02*
X131207Y-60794D01*
X126692Y-60794D02*
X128949Y-67567D01*
X121485Y-59665D02*
X118662Y-57407D01*
X118662Y-67567D01*
X115840Y-67567D02*
X121485Y-67567D01*
X110944Y-67567D02*
X110944Y-67003D01*
X110379Y-67003D01*
X110379Y-67567D01*
X110944Y-67567D01*
X105483Y-59665D02*
X102660Y-57407D01*
X102660Y-67567D01*
X99838Y-67567D02*
X105483Y-67567D01*
D13*
X114300Y0D03*
X-114300Y0D03*
D14*
X0Y0D03*
D15*
X-146050Y10465D03*
X-146050Y-7925D03*
D16*
G36*
X110146Y73360D02*
X102136Y81370D01*
X112896Y92130D01*
X120906Y84120D01*
X110146Y73360D01*
G37*
G36*
X123150Y60356D02*
X115140Y68366D01*
X125900Y79126D01*
X133910Y71116D01*
X123150Y60356D01*
G37*
D15*
X144780Y7925D03*
X144780Y-10465D03*
D16*
G36*
X-115197Y69733D02*
X-123207Y61723D01*
X-133967Y72483D01*
X-125957Y80493D01*
X-115197Y69733D01*
G37*
G36*
X-102193Y82737D02*
X-110203Y74727D01*
X-120963Y85487D01*
X-112953Y93497D01*
X-102193Y82737D01*
G37*
D17*
X-73377Y89716D02*
X-66922Y93442D01*
X-73377Y89716D02*
X-74354Y91408D01*
X-67899Y95134D01*
X-66922Y93442D01*
X-70640Y91296D02*
X-74289Y91296D01*
X-71811Y92876D02*
X-67903Y92876D01*
X-67508Y94456D02*
X-69074Y94456D01*
X-69422Y97772D02*
X-75877Y94046D01*
X-76854Y95738D01*
X-70399Y99464D01*
X-69422Y97772D01*
X-73140Y95626D02*
X-76789Y95626D01*
X-74311Y97206D02*
X-70403Y97206D01*
X-70008Y98786D02*
X-71574Y98786D01*
X-71922Y102102D02*
X-78377Y98376D01*
X-79354Y100068D01*
X-72899Y103794D01*
X-71922Y102102D01*
X-75640Y99956D02*
X-79289Y99956D01*
X-76811Y101536D02*
X-72903Y101536D01*
X-72508Y103116D02*
X-74074Y103116D01*
X-74422Y106432D02*
X-80877Y102706D01*
X-81854Y104398D01*
X-75399Y108124D01*
X-74422Y106432D01*
X-78140Y104286D02*
X-81789Y104286D01*
X-79311Y105866D02*
X-75403Y105866D01*
X-75008Y107446D02*
X-76574Y107446D01*
X-76922Y110762D02*
X-83377Y107036D01*
X-84354Y108728D01*
X-77899Y112454D01*
X-76922Y110762D01*
X-80640Y108616D02*
X-84289Y108616D01*
X-81811Y110196D02*
X-77903Y110196D01*
X-77508Y111776D02*
X-79074Y111776D01*
X-79422Y115092D02*
X-85877Y111366D01*
X-86854Y113058D01*
X-80399Y116784D01*
X-79422Y115092D01*
X-83140Y112946D02*
X-86789Y112946D01*
X-84311Y114526D02*
X-80403Y114526D01*
X-80008Y116106D02*
X-81574Y116106D01*
X-52102Y130866D02*
X-45647Y134592D01*
X-52102Y130866D02*
X-53079Y132558D01*
X-46624Y136284D01*
X-45647Y134592D01*
X-49365Y132446D02*
X-53014Y132446D01*
X-50536Y134026D02*
X-46628Y134026D01*
X-46233Y135606D02*
X-47799Y135606D01*
X-43147Y130262D02*
X-49602Y126536D01*
X-50579Y128228D01*
X-44124Y131954D01*
X-43147Y130262D01*
X-46865Y128116D02*
X-50514Y128116D01*
X-48036Y129696D02*
X-44128Y129696D01*
X-43733Y131276D02*
X-45299Y131276D01*
X-40647Y125932D02*
X-47102Y122206D01*
X-48079Y123898D01*
X-41624Y127624D01*
X-40647Y125932D01*
X-44365Y123786D02*
X-48014Y123786D01*
X-45536Y125366D02*
X-41628Y125366D01*
X-41233Y126946D02*
X-42799Y126946D01*
X-38147Y121602D02*
X-44602Y117876D01*
X-45579Y119568D01*
X-39124Y123294D01*
X-38147Y121602D01*
X-41865Y119456D02*
X-45514Y119456D01*
X-43036Y121036D02*
X-39128Y121036D01*
X-38733Y122616D02*
X-40299Y122616D01*
X-35647Y117272D02*
X-42102Y113546D01*
X-43079Y115238D01*
X-36624Y118964D01*
X-35647Y117272D01*
X-39365Y115126D02*
X-43014Y115126D01*
X-40536Y116706D02*
X-36628Y116706D01*
X-36233Y118286D02*
X-37799Y118286D01*
X-33147Y112942D02*
X-39602Y109216D01*
X-40579Y110908D01*
X-34124Y114634D01*
X-33147Y112942D01*
X-36865Y110796D02*
X-40514Y110796D01*
X-38036Y112376D02*
X-34128Y112376D01*
X-33733Y113956D02*
X-35299Y113956D01*
X-40442Y106079D02*
X-36716Y99624D01*
X-38408Y98647D01*
X-42134Y105102D01*
X-40442Y106079D01*
X-39320Y100227D02*
X-37064Y100227D01*
X-37976Y101807D02*
X-40232Y101807D01*
X-41144Y103387D02*
X-38888Y103387D01*
X-39800Y104967D02*
X-42056Y104967D01*
X-44772Y103579D02*
X-41046Y97124D01*
X-42738Y96147D01*
X-46464Y102602D01*
X-44772Y103579D01*
X-43650Y97727D02*
X-41394Y97727D01*
X-42306Y99307D02*
X-44562Y99307D01*
X-45474Y100887D02*
X-43218Y100887D01*
X-44130Y102467D02*
X-46386Y102467D01*
X-49102Y101079D02*
X-45376Y94624D01*
X-47068Y93647D01*
X-50794Y100102D01*
X-49102Y101079D01*
X-47980Y95227D02*
X-45724Y95227D01*
X-46636Y96807D02*
X-48892Y96807D01*
X-49804Y98387D02*
X-47548Y98387D01*
X-48460Y99967D02*
X-50716Y99967D01*
X-53432Y98579D02*
X-49706Y92124D01*
X-51398Y91147D01*
X-55124Y97602D01*
X-53432Y98579D01*
X-52310Y92727D02*
X-50054Y92727D01*
X-50966Y94307D02*
X-53222Y94307D01*
X-54134Y95887D02*
X-51878Y95887D01*
X-52790Y97467D02*
X-55046Y97467D01*
X-57762Y96079D02*
X-54036Y89624D01*
X-55728Y88647D01*
X-59454Y95102D01*
X-57762Y96079D01*
X-56640Y90227D02*
X-54384Y90227D01*
X-55296Y91807D02*
X-57552Y91807D01*
X-58464Y93387D02*
X-56208Y93387D01*
X-57120Y94967D02*
X-59376Y94967D01*
X-62092Y93579D02*
X-58366Y87124D01*
X-60058Y86147D01*
X-63784Y92602D01*
X-62092Y93579D01*
X-60970Y87727D02*
X-58714Y87727D01*
X-59626Y89307D02*
X-61882Y89307D01*
X-62794Y90887D02*
X-60538Y90887D01*
X-61450Y92467D02*
X-63706Y92467D01*
X-77866Y120898D02*
X-81592Y127353D01*
X-77866Y120898D02*
X-79558Y119921D01*
X-83284Y126376D01*
X-81592Y127353D01*
X-80470Y121501D02*
X-78214Y121501D01*
X-79126Y123081D02*
X-81382Y123081D01*
X-82294Y124661D02*
X-80038Y124661D01*
X-80950Y126241D02*
X-83206Y126241D01*
X-77262Y129853D02*
X-73536Y123398D01*
X-75228Y122421D01*
X-78954Y128876D01*
X-77262Y129853D01*
X-76140Y124001D02*
X-73884Y124001D01*
X-74796Y125581D02*
X-77052Y125581D01*
X-77964Y127161D02*
X-75708Y127161D01*
X-76620Y128741D02*
X-78876Y128741D01*
X-72932Y132353D02*
X-69206Y125898D01*
X-70898Y124921D01*
X-74624Y131376D01*
X-72932Y132353D01*
X-71810Y126501D02*
X-69554Y126501D01*
X-70466Y128081D02*
X-72722Y128081D01*
X-73634Y129661D02*
X-71378Y129661D01*
X-72290Y131241D02*
X-74546Y131241D01*
X-68602Y134853D02*
X-64876Y128398D01*
X-66568Y127421D01*
X-70294Y133876D01*
X-68602Y134853D01*
X-67480Y129001D02*
X-65224Y129001D01*
X-66136Y130581D02*
X-68392Y130581D01*
X-69304Y132161D02*
X-67048Y132161D01*
X-67960Y133741D02*
X-70216Y133741D01*
X-64272Y137353D02*
X-60546Y130898D01*
X-62238Y129921D01*
X-65964Y136376D01*
X-64272Y137353D01*
X-63150Y131501D02*
X-60894Y131501D01*
X-61806Y133081D02*
X-64062Y133081D01*
X-64974Y134661D02*
X-62718Y134661D01*
X-63630Y136241D02*
X-65886Y136241D01*
X-59942Y139853D02*
X-56216Y133398D01*
X-57908Y132421D01*
X-61634Y138876D01*
X-59942Y139853D01*
X-58820Y134001D02*
X-56564Y134001D01*
X-57476Y135581D02*
X-59732Y135581D01*
X-60644Y137161D02*
X-58388Y137161D01*
X-59300Y138741D02*
X-61556Y138741D01*
D18*
G36*
X-55056Y131452D02*
X-41548Y108056D01*
X-64944Y94548D01*
X-78452Y117944D01*
X-55056Y131452D01*
G37*
D19*
G36*
X40686Y124792D02*
X51193Y142992D01*
X61166Y137234D01*
X50659Y119034D01*
X40686Y124792D01*
G37*
G36*
X78834Y102767D02*
X89341Y120967D01*
X99314Y115209D01*
X88807Y97009D01*
X78834Y102767D01*
G37*
D20*
X-34680Y137755D02*
X-38480Y144336D01*
X-28600Y150041D01*
X-24800Y143460D01*
X-34680Y137755D01*
X-36641Y141152D02*
X-28797Y141152D01*
X-25429Y144549D02*
X-38111Y144549D01*
X-32228Y147946D02*
X-27390Y147946D01*
X-29590Y128938D02*
X-25790Y122357D01*
X-29590Y128938D02*
X-19710Y134643D01*
X-15910Y128062D01*
X-25790Y122357D01*
X-27751Y125754D02*
X-19907Y125754D01*
X-16539Y129151D02*
X-29221Y129151D01*
X-23338Y132548D02*
X-18500Y132548D01*
D21*
X-9935Y116169D03*
X10106Y116341D03*
X28778Y116512D03*
D15*
X-140000Y49195D03*
X-140000Y30805D03*
X-141878Y-23438D03*
X-141878Y-41828D03*
X138658Y44104D03*
X138658Y25714D03*
X141841Y-25585D03*
X141841Y-43975D03*
M02*
