G04 EAGLE Gerber RS-274X export*
G75*
%MOMM*%
%FSLAX34Y34*%
%LPD*%
%INBottom Copper*%
%IPPOS*%
%AMOC8*
5,1,8,0,0,1.08239X$1,22.5*%
G01*
G04 Define Apertures*
%ADD10C,0.152400*%
%ADD11R,2.540000X7.000000*%
%ADD12C,10.160000*%
%ADD13R,1.420200X1.031200*%
%ADD14R,1.031200X1.420200*%
%ADD15C,0.065000*%
%ADD16R,2.600000X2.600000*%
%ADD17R,2.000000X1.050000*%
%ADD18C,0.254000*%
%ADD19C,1.500000*%
%ADD20C,0.654800*%
%ADD21C,0.904800*%
G36*
X146907Y63028D02*
X147136Y63220D01*
X147272Y63485D01*
X147294Y63783D01*
X147249Y63962D01*
X144737Y70362D01*
X144688Y70463D01*
X132617Y91371D01*
X132553Y91464D01*
X117500Y110340D01*
X117424Y110422D01*
X99726Y126844D01*
X99638Y126913D01*
X79690Y140514D01*
X79593Y140570D01*
X57841Y151045D01*
X57737Y151086D01*
X34666Y158202D01*
X34557Y158227D01*
X10683Y161826D01*
X10572Y161834D01*
X-13572Y161834D01*
X-13683Y161826D01*
X-31838Y159089D01*
X-32118Y158987D01*
X-32337Y158783D01*
X-32458Y158511D01*
X-32464Y158212D01*
X-32353Y157935D01*
X-32142Y157724D01*
X-31866Y157611D01*
X-31676Y157599D01*
X-20030Y158376D01*
X-19880Y158417D01*
X-18804Y158458D01*
X-18782Y158459D01*
X-17725Y158529D01*
X-17554Y158505D01*
X2476Y159267D01*
X2780Y159345D01*
X3047Y159477D01*
X3414Y159352D01*
X3683Y159313D01*
X4071Y159328D01*
X4289Y159126D01*
X4559Y158965D01*
X36175Y148273D01*
X36418Y148233D01*
X36861Y148234D01*
X37032Y148064D01*
X37321Y147885D01*
X37549Y147808D01*
X37746Y147410D01*
X37889Y147211D01*
X46450Y138692D01*
X46699Y138528D01*
X46992Y138474D01*
X47284Y138539D01*
X47527Y138712D01*
X47628Y138849D01*
X50375Y143606D01*
X51594Y143933D01*
X61781Y138052D01*
X62108Y136832D01*
X51477Y118419D01*
X50257Y118092D01*
X40071Y123973D01*
X39744Y125193D01*
X44487Y133408D01*
X44582Y133691D01*
X44559Y133989D01*
X44367Y134315D01*
X34808Y143828D01*
X34519Y144006D01*
X3009Y154663D01*
X2740Y154702D01*
X-18544Y153892D01*
X-18565Y153891D01*
X-24918Y153468D01*
X-25206Y153389D01*
X-25441Y153204D01*
X-25585Y152943D01*
X-25615Y152646D01*
X-25518Y152344D01*
X-23772Y149320D01*
X-31361Y144939D01*
X-34980Y151208D01*
X-35077Y151152D01*
X-35072Y151269D01*
X-35175Y151549D01*
X-35380Y151766D01*
X-35653Y151886D01*
X-36035Y151870D01*
X-49620Y147647D01*
X-49740Y147598D01*
X-58976Y142858D01*
X-59210Y142672D01*
X-59351Y142409D01*
X-59380Y142112D01*
X-59290Y141827D01*
X-59096Y141600D01*
X-58828Y141466D01*
X-58725Y141439D01*
X-54766Y134582D01*
X-54568Y134359D01*
X-54299Y134230D01*
X-54001Y134216D01*
X-53742Y134308D01*
X-46885Y138266D01*
X-45406Y137870D01*
X-43665Y134855D01*
X-43749Y134542D01*
X-43767Y134244D01*
X-43668Y133963D01*
X-43466Y133742D01*
X-43218Y133624D01*
X-42906Y133540D01*
X-41165Y130525D01*
X-41249Y130212D01*
X-41267Y129914D01*
X-41168Y129633D01*
X-40966Y129412D01*
X-40718Y129293D01*
X-40406Y129210D01*
X-38665Y126194D01*
X-38749Y125882D01*
X-38767Y125584D01*
X-38668Y125302D01*
X-38466Y125082D01*
X-38218Y124963D01*
X-37906Y124880D01*
X-37313Y123854D01*
X-37116Y123630D01*
X-36846Y123501D01*
X-36548Y123488D01*
X-36268Y123591D01*
X-36134Y123698D01*
X-34359Y125473D01*
X-32127Y125473D01*
X-31834Y125532D01*
X-31588Y125701D01*
X-31427Y125953D01*
X-31377Y126247D01*
X-31477Y126598D01*
X-32602Y128547D01*
X-32003Y130783D01*
X-20100Y137655D01*
X-17865Y137056D01*
X-12897Y128453D01*
X-13496Y126217D01*
X-14344Y125727D01*
X-14567Y125530D01*
X-14696Y125260D01*
X-14710Y124962D01*
X-14606Y124682D01*
X-14401Y124465D01*
X-14128Y124345D01*
X-13830Y124341D01*
X-13682Y124385D01*
X-11730Y125193D01*
X-8140Y125193D01*
X-4824Y123820D01*
X-2285Y121281D01*
X-911Y117964D01*
X-911Y114374D01*
X-2285Y111058D01*
X-4824Y108519D01*
X-7714Y107322D01*
X-7961Y107155D01*
X-8124Y106905D01*
X-8177Y106611D01*
X-8110Y106320D01*
X-7957Y106099D01*
X-6193Y104335D01*
X-5944Y104170D01*
X-5651Y104115D01*
X-5359Y104179D01*
X-5132Y104335D01*
X1899Y111366D01*
X2063Y111615D01*
X2118Y111908D01*
X2061Y112183D01*
X1082Y114546D01*
X1082Y118136D01*
X2456Y121452D01*
X4995Y123991D01*
X8311Y125365D01*
X11901Y125365D01*
X15218Y123991D01*
X17757Y121452D01*
X18164Y120469D01*
X18331Y120222D01*
X18581Y120059D01*
X18875Y120007D01*
X19166Y120073D01*
X19408Y120248D01*
X19550Y120469D01*
X20266Y122199D01*
X23091Y125024D01*
X26781Y126552D01*
X28016Y126552D01*
X28016Y106472D01*
X26781Y106472D01*
X23091Y108001D01*
X20266Y110825D01*
X19621Y112384D01*
X19454Y112631D01*
X19204Y112794D01*
X18910Y112846D01*
X18619Y112780D01*
X18377Y112605D01*
X18235Y112383D01*
X17757Y111229D01*
X15218Y108691D01*
X11901Y107317D01*
X8311Y107317D01*
X5949Y108295D01*
X5656Y108352D01*
X5364Y108291D01*
X5131Y108133D01*
X-4167Y98834D01*
X-4954Y98834D01*
X-5246Y98775D01*
X-5484Y98614D01*
X-7776Y96322D01*
X-11751Y96322D01*
X-14562Y99133D01*
X-14562Y103107D01*
X-11671Y105998D01*
X-11506Y106247D01*
X-11451Y106541D01*
X-11515Y106832D01*
X-11688Y107076D01*
X-11914Y107222D01*
X-15047Y108519D01*
X-17585Y111058D01*
X-18959Y114374D01*
X-18959Y117964D01*
X-18055Y120148D01*
X-17997Y120441D01*
X-18059Y120733D01*
X-18227Y120976D01*
X-19451Y122153D01*
X-19703Y122313D01*
X-19997Y122362D01*
X-20346Y122262D01*
X-20987Y121892D01*
X-21211Y121694D01*
X-21356Y121337D01*
X-25258Y90639D01*
X-25328Y90086D01*
X-25551Y88333D01*
X-25551Y88333D01*
X-25632Y87698D01*
X-28342Y85041D01*
X-30229Y84839D01*
X-41964Y83584D01*
X-42249Y83493D01*
X-42475Y83299D01*
X-42609Y83032D01*
X-42627Y82734D01*
X-42528Y82453D01*
X-42415Y82307D01*
X-40070Y79963D01*
X-39821Y79798D01*
X-39539Y79743D01*
X100580Y79743D01*
X100873Y79802D01*
X101119Y79971D01*
X101280Y80223D01*
X101330Y80493D01*
X101330Y82001D01*
X112351Y93022D01*
X112559Y93164D01*
X112720Y93416D01*
X112770Y93710D01*
X112701Y94001D01*
X112551Y94217D01*
X109273Y97494D01*
X109024Y97659D01*
X108742Y97714D01*
X106720Y97714D01*
X106428Y97655D01*
X106182Y97486D01*
X106021Y97234D01*
X105971Y96940D01*
X106040Y96650D01*
X106190Y96434D01*
X106649Y95975D01*
X106649Y92000D01*
X103838Y89190D01*
X99863Y89190D01*
X97053Y92000D01*
X97053Y92009D01*
X96993Y92302D01*
X96825Y92548D01*
X96573Y92709D01*
X96279Y92759D01*
X95988Y92690D01*
X95772Y92540D01*
X91965Y88732D01*
X91824Y88537D01*
X91621Y88131D01*
X91403Y88058D01*
X91110Y87877D01*
X90947Y87714D01*
X90493Y87714D01*
X90256Y87676D01*
X89825Y87532D01*
X89619Y87635D01*
X89283Y87714D01*
X89053Y87714D01*
X88732Y88035D01*
X88537Y88176D01*
X49619Y107635D01*
X49283Y107714D01*
X41258Y107714D01*
X40965Y107655D01*
X40727Y107494D01*
X31881Y98648D01*
X31768Y98503D01*
X31473Y98012D01*
X31370Y97986D01*
X31022Y97789D01*
X30947Y97714D01*
X30374Y97714D01*
X30192Y97692D01*
X-4634Y88985D01*
X-4903Y88857D01*
X-5101Y88633D01*
X-5202Y88258D01*
X-5202Y88013D01*
X-8013Y85202D01*
X-11987Y85202D01*
X-14798Y88013D01*
X-14798Y91987D01*
X-11987Y94798D01*
X-8013Y94798D01*
X-6757Y93542D01*
X-6508Y93378D01*
X-6215Y93323D01*
X-6045Y93345D01*
X28630Y102014D01*
X28978Y102211D01*
X32316Y105549D01*
X32481Y105797D01*
X32535Y106091D01*
X32471Y106382D01*
X32299Y106626D01*
X32045Y106783D01*
X31750Y106828D01*
X31498Y106772D01*
X30775Y106472D01*
X29540Y106472D01*
X29540Y115750D01*
X38818Y115750D01*
X38818Y114515D01*
X38324Y113323D01*
X38267Y113030D01*
X38329Y112738D01*
X38499Y112493D01*
X38752Y112334D01*
X39017Y112286D01*
X49507Y112286D01*
X49744Y112325D01*
X50175Y112468D01*
X50381Y112365D01*
X50717Y112286D01*
X50947Y112286D01*
X51268Y111965D01*
X51463Y111824D01*
X85950Y94581D01*
X86239Y94503D01*
X86534Y94544D01*
X86791Y94697D01*
X86967Y94938D01*
X87035Y95228D01*
X86985Y95522D01*
X86824Y95774D01*
X86661Y95901D01*
X83464Y97747D01*
X89353Y107947D01*
X95440Y104433D01*
X90420Y95738D01*
X90351Y95532D01*
X90314Y95526D01*
X88150Y94947D01*
X87883Y94814D01*
X87689Y94587D01*
X87599Y94302D01*
X87627Y94005D01*
X87768Y93742D01*
X88009Y93551D01*
X89065Y93023D01*
X89353Y92946D01*
X89649Y92986D01*
X89931Y93164D01*
X91039Y94272D01*
X91204Y94520D01*
X91226Y94640D01*
X91298Y94648D01*
X91599Y94832D01*
X99053Y102286D01*
X110947Y102286D01*
X141110Y72123D01*
X141403Y71942D01*
X141621Y71869D01*
X141824Y71463D01*
X141965Y71268D01*
X142286Y70947D01*
X142286Y70717D01*
X142365Y70381D01*
X145880Y63353D01*
X146064Y63117D01*
X146325Y62973D01*
X146621Y62941D01*
X146907Y63028D01*
G37*
%LPC*%
G36*
X-1331Y127441D02*
X-1497Y127460D01*
X-2494Y127460D01*
X-3763Y127986D01*
X-3883Y128024D01*
X-5581Y128411D01*
X-6352Y129026D01*
X-6532Y129133D01*
X-7103Y129369D01*
X-8339Y130605D01*
X-8402Y130661D01*
X-10056Y131980D01*
X-10318Y132525D01*
X-10464Y132730D01*
X-10631Y132897D01*
X-11443Y134857D01*
X-11460Y134895D01*
X-12540Y137138D01*
X-12540Y142862D01*
X-11460Y145105D01*
X-11443Y145143D01*
X-10631Y147103D01*
X-10464Y147270D01*
X-10318Y147475D01*
X-10056Y148020D01*
X-8402Y149339D01*
X-8339Y149395D01*
X-7103Y150631D01*
X-6532Y150867D01*
X-6352Y150974D01*
X-5581Y151589D01*
X-3883Y151976D01*
X-3763Y152014D01*
X-2494Y152540D01*
X-1497Y152540D01*
X-1331Y152559D01*
X0Y152863D01*
X1331Y152559D01*
X1497Y152540D01*
X2494Y152540D01*
X3763Y152014D01*
X3883Y151976D01*
X5581Y151589D01*
X6352Y150974D01*
X6532Y150867D01*
X7103Y150631D01*
X8339Y149395D01*
X8402Y149339D01*
X10056Y148020D01*
X10318Y147475D01*
X10464Y147270D01*
X10631Y147103D01*
X11443Y145143D01*
X11460Y145105D01*
X12540Y142862D01*
X12540Y137138D01*
X11460Y134895D01*
X11443Y134857D01*
X10631Y132897D01*
X10464Y132730D01*
X10318Y132525D01*
X10056Y131980D01*
X8402Y130661D01*
X8339Y130605D01*
X7103Y129369D01*
X6532Y129133D01*
X6352Y129026D01*
X5581Y128411D01*
X3883Y128024D01*
X3763Y127986D01*
X2494Y127460D01*
X1497Y127460D01*
X1331Y127441D01*
X0Y127138D01*
X-1331Y127441D01*
G37*
G36*
X-42583Y143802D02*
X-41766Y146850D01*
X-36110Y150116D01*
X-32681Y144177D01*
X-40270Y139795D01*
X-42583Y143802D01*
G37*
G36*
X-30599Y143619D02*
X-23010Y148000D01*
X-20697Y143994D01*
X-21514Y140945D01*
X-27170Y137680D01*
X-30599Y143619D01*
G37*
G36*
X-37195Y134469D02*
X-39508Y138475D01*
X-31919Y142857D01*
X-28490Y136918D01*
X-34146Y133652D01*
X-37195Y134469D01*
G37*
G36*
X29540Y117274D02*
X29540Y126552D01*
X30775Y126552D01*
X34465Y125024D01*
X37289Y122199D01*
X38818Y118509D01*
X38818Y117274D01*
X29540Y117274D01*
G37*
G36*
X82709Y113542D02*
X87854Y122454D01*
X89886Y122999D01*
X94684Y120228D01*
X88795Y110028D01*
X82709Y113542D01*
G37*
G36*
X90115Y109266D02*
X96004Y119466D01*
X100802Y116696D01*
X101347Y114664D01*
X96202Y105752D01*
X90115Y109266D01*
G37*
G36*
X77346Y101279D02*
X76802Y103311D01*
X81947Y112223D01*
X88033Y108709D01*
X82144Y98509D01*
X77346Y101279D01*
G37*
%LPD*%
G36*
X10683Y-161826D02*
X34557Y-158227D01*
X34666Y-158202D01*
X57737Y-151086D01*
X57841Y-151045D01*
X79593Y-140570D01*
X79690Y-140514D01*
X99638Y-126913D01*
X99726Y-126844D01*
X117424Y-110422D01*
X117500Y-110340D01*
X132553Y-91464D01*
X132617Y-91371D01*
X144688Y-70463D01*
X144737Y-70362D01*
X153557Y-47888D01*
X153590Y-47780D01*
X158963Y-24243D01*
X158979Y-24132D01*
X160784Y-56D01*
X160784Y56D01*
X158979Y24132D01*
X158963Y24243D01*
X157934Y28749D01*
X157811Y29021D01*
X157592Y29223D01*
X157311Y29324D01*
X157013Y29307D01*
X156745Y29176D01*
X156550Y28950D01*
X156453Y28582D01*
X156453Y-17515D01*
X153775Y-20193D01*
X153351Y-20193D01*
X153058Y-20252D01*
X152820Y-20413D01*
X152281Y-20952D01*
X152074Y-21344D01*
X152073Y-21352D01*
X151524Y-21727D01*
X151417Y-21816D01*
X150809Y-22424D01*
X150677Y-22514D01*
X150517Y-22766D01*
X150466Y-23036D01*
X150466Y-31372D01*
X149573Y-32265D01*
X135490Y-32265D01*
X135198Y-32324D01*
X134951Y-32493D01*
X134791Y-32744D01*
X134740Y-33015D01*
X134740Y-36545D01*
X134800Y-36837D01*
X134968Y-37083D01*
X135220Y-37244D01*
X135490Y-37295D01*
X149573Y-37295D01*
X150466Y-38188D01*
X150466Y-49762D01*
X149573Y-50655D01*
X138297Y-50655D01*
X138005Y-50714D01*
X137767Y-50874D01*
X134925Y-53716D01*
X130770Y-53716D01*
X130477Y-53775D01*
X130323Y-53863D01*
X130209Y-53948D01*
X128783Y-53737D01*
X128783Y-53736D01*
X128699Y-53724D01*
X128589Y-53716D01*
X126151Y-53716D01*
X125891Y-53457D01*
X125642Y-53292D01*
X125471Y-53245D01*
X99552Y-49399D01*
X99387Y-49392D01*
X65128Y-51915D01*
X64841Y-51995D01*
X64653Y-52132D01*
X61987Y-54798D01*
X58013Y-54798D01*
X55202Y-51987D01*
X55202Y-48013D01*
X58013Y-45202D01*
X61987Y-45202D01*
X63942Y-47157D01*
X64191Y-47322D01*
X64528Y-47374D01*
X85953Y-45797D01*
X86240Y-45716D01*
X86473Y-45530D01*
X86615Y-45267D01*
X86644Y-44970D01*
X86554Y-44686D01*
X86360Y-44459D01*
X86008Y-44307D01*
X80748Y-43527D01*
X80748Y-43527D01*
X73442Y-42443D01*
X73162Y-42454D01*
X72801Y-42537D01*
X72534Y-42371D01*
X72247Y-42265D01*
X71935Y-42219D01*
X71715Y-41921D01*
X71509Y-41731D01*
X71194Y-41535D01*
X71123Y-41228D01*
X70995Y-40951D01*
X70807Y-40698D01*
X70862Y-40331D01*
X70850Y-40052D01*
X60797Y3329D01*
X60673Y3600D01*
X60662Y3611D01*
X60528Y4482D01*
X60517Y4537D01*
X60314Y5412D01*
X60338Y5476D01*
X60338Y5708D01*
X58496Y17631D01*
X58496Y17631D01*
X58303Y18874D01*
X58248Y19063D01*
X58219Y19129D01*
X58117Y19296D01*
X57896Y19570D01*
X46998Y33081D01*
X46768Y33271D01*
X46414Y33360D01*
X43630Y33360D01*
X43338Y33301D01*
X43092Y33132D01*
X42931Y32881D01*
X42881Y32586D01*
X42981Y32235D01*
X49705Y20588D01*
X53340Y7022D01*
X53340Y762D01*
X762Y762D01*
X762Y53340D01*
X7022Y53340D01*
X20588Y49705D01*
X32752Y42683D01*
X39762Y35672D01*
X40011Y35508D01*
X40304Y35453D01*
X40596Y35517D01*
X40839Y35690D01*
X40996Y35944D01*
X41042Y36203D01*
X41042Y40146D01*
X43853Y42956D01*
X47827Y42956D01*
X50638Y40146D01*
X50638Y36116D01*
X50697Y35823D01*
X50804Y35645D01*
X62465Y21188D01*
X62598Y21023D01*
X62822Y19572D01*
X63014Y18329D01*
X65011Y5404D01*
X65022Y5349D01*
X74968Y-37566D01*
X75092Y-37838D01*
X75312Y-38040D01*
X75588Y-38139D01*
X78931Y-38635D01*
X78931Y-38635D01*
X127898Y-45902D01*
X127898Y-45902D01*
X129124Y-46084D01*
X129422Y-46068D01*
X129690Y-45937D01*
X129886Y-45712D01*
X129984Y-45342D01*
X129984Y-45290D01*
X130113Y-45094D01*
X130168Y-44813D01*
X130168Y-18535D01*
X132846Y-15857D01*
X135405Y-15857D01*
X135698Y-15797D01*
X135944Y-15629D01*
X136105Y-15377D01*
X136155Y-15107D01*
X136155Y-4678D01*
X137048Y-3785D01*
X151131Y-3785D01*
X151424Y-3726D01*
X151670Y-3557D01*
X151831Y-3305D01*
X151881Y-3035D01*
X151881Y495D01*
X151822Y788D01*
X151653Y1034D01*
X151401Y1195D01*
X151131Y1245D01*
X137048Y1245D01*
X136155Y2138D01*
X136155Y13712D01*
X137048Y14605D01*
X141744Y14605D01*
X142037Y14664D01*
X142283Y14833D01*
X142444Y15085D01*
X142494Y15355D01*
X142494Y17293D01*
X142955Y17754D01*
X143120Y18003D01*
X143175Y18296D01*
X143110Y18588D01*
X142938Y18831D01*
X142684Y18988D01*
X142425Y19034D01*
X130926Y19034D01*
X130033Y19927D01*
X130033Y24669D01*
X129974Y24961D01*
X129814Y25199D01*
X129804Y25208D01*
X129555Y25373D01*
X129262Y25428D01*
X128971Y25364D01*
X128727Y25191D01*
X128570Y24937D01*
X128524Y24678D01*
X128524Y-35631D01*
X127631Y-36524D01*
X100969Y-36524D01*
X100076Y-35631D01*
X100076Y10842D01*
X100017Y11135D01*
X99856Y11373D01*
X92567Y18663D01*
X92318Y18827D01*
X92036Y18882D01*
X88843Y18882D01*
X86032Y21693D01*
X86032Y25668D01*
X88843Y28478D01*
X92818Y28478D01*
X95628Y25668D01*
X95628Y22377D01*
X95688Y22085D01*
X95848Y21847D01*
X98796Y18899D01*
X99045Y18734D01*
X99338Y18680D01*
X99630Y18744D01*
X99873Y18916D01*
X100030Y19170D01*
X100076Y19430D01*
X100076Y35631D01*
X100969Y36524D01*
X125705Y36524D01*
X125998Y36583D01*
X126244Y36752D01*
X126405Y37004D01*
X126455Y37298D01*
X126386Y37588D01*
X126236Y37804D01*
X114525Y49515D01*
X114276Y49679D01*
X113995Y49734D01*
X71660Y49734D01*
X70819Y50575D01*
X70570Y50740D01*
X70289Y50795D01*
X61126Y50795D01*
X59385Y52536D01*
X59137Y52700D01*
X58940Y52750D01*
X-7643Y60343D01*
X-7940Y60318D01*
X-8258Y60129D01*
X-9168Y59219D01*
X-15668Y59219D01*
X-22121Y65672D01*
X-22370Y65837D01*
X-22652Y65892D01*
X-46134Y65892D01*
X-46427Y65832D01*
X-46664Y65672D01*
X-48957Y63380D01*
X-52932Y63380D01*
X-55742Y66190D01*
X-55742Y66199D01*
X-55802Y66492D01*
X-55970Y66738D01*
X-56222Y66899D01*
X-56516Y66949D01*
X-56807Y66880D01*
X-57023Y66729D01*
X-58388Y65364D01*
X-58553Y65115D01*
X-58608Y64833D01*
X-58608Y57755D01*
X-67241Y49122D01*
X-67406Y48874D01*
X-67460Y48580D01*
X-67396Y48289D01*
X-67224Y48045D01*
X-66970Y47888D01*
X-66710Y47842D01*
X-39422Y47842D01*
X-39129Y47901D01*
X-38891Y48062D01*
X-36599Y50354D01*
X-32624Y50354D01*
X-29814Y47543D01*
X-29814Y45678D01*
X-29754Y45385D01*
X-29585Y45139D01*
X-29334Y44978D01*
X-29040Y44928D01*
X-28689Y45028D01*
X-20588Y49705D01*
X-7022Y53340D01*
X-762Y53340D01*
X-762Y762D01*
X-53340Y762D01*
X-53340Y7022D01*
X-49705Y20588D01*
X-42683Y32752D01*
X-35956Y39478D01*
X-35792Y39727D01*
X-35737Y40020D01*
X-35801Y40312D01*
X-35974Y40555D01*
X-36228Y40712D01*
X-36487Y40758D01*
X-36599Y40758D01*
X-38891Y43050D01*
X-39140Y43215D01*
X-39422Y43270D01*
X-72321Y43270D01*
X-72613Y43211D01*
X-72851Y43050D01*
X-77834Y38067D01*
X-77999Y37819D01*
X-78054Y37537D01*
X-78054Y34295D01*
X-80864Y31485D01*
X-84839Y31485D01*
X-87650Y34295D01*
X-87650Y34304D01*
X-87709Y34597D01*
X-87878Y34843D01*
X-88129Y35004D01*
X-88423Y35054D01*
X-88714Y34985D01*
X-88930Y34834D01*
X-99856Y23908D01*
X-100021Y23659D01*
X-100076Y23378D01*
X-100076Y-35631D01*
X-100969Y-36524D01*
X-111264Y-36524D01*
X-111557Y-36583D01*
X-111803Y-36752D01*
X-111964Y-37004D01*
X-112014Y-37274D01*
X-112014Y-39598D01*
X-111955Y-39890D01*
X-111794Y-40128D01*
X-109901Y-42021D01*
X-109652Y-42186D01*
X-109371Y-42241D01*
X-106129Y-42241D01*
X-103318Y-45052D01*
X-103318Y-49026D01*
X-103325Y-49033D01*
X-103490Y-49282D01*
X-103544Y-49575D01*
X-103480Y-49867D01*
X-103307Y-50110D01*
X-103054Y-50267D01*
X-102794Y-50313D01*
X-88129Y-50313D01*
X-87490Y-50952D01*
X-87241Y-51117D01*
X-86960Y-51172D01*
X-56208Y-51172D01*
X-55915Y-51112D01*
X-55678Y-50952D01*
X-50092Y-45367D01*
X-49927Y-45118D01*
X-49873Y-44837D01*
X-49873Y-41595D01*
X-47062Y-38784D01*
X-43087Y-38784D01*
X-40277Y-41595D01*
X-40277Y-45569D01*
X-43087Y-48380D01*
X-46329Y-48380D01*
X-46622Y-48439D01*
X-46859Y-48600D01*
X-54004Y-55744D01*
X-67819Y-55744D01*
X-68111Y-55803D01*
X-68357Y-55972D01*
X-68518Y-56223D01*
X-68568Y-56518D01*
X-68500Y-56808D01*
X-68349Y-57024D01*
X-68343Y-57030D01*
X-68343Y-61005D01*
X-71153Y-63816D01*
X-75128Y-63816D01*
X-77939Y-61005D01*
X-77939Y-59542D01*
X-77998Y-59249D01*
X-78167Y-59003D01*
X-78418Y-58842D01*
X-78689Y-58792D01*
X-108539Y-58792D01*
X-108832Y-58851D01*
X-109070Y-59011D01*
X-114896Y-64838D01*
X-117201Y-64838D01*
X-117374Y-64859D01*
X-118468Y-65119D01*
X-118743Y-64950D01*
X-119136Y-64838D01*
X-123781Y-64838D01*
X-126460Y-62160D01*
X-126460Y-60790D01*
X-126519Y-60497D01*
X-126679Y-60259D01*
X-138211Y-48728D01*
X-138460Y-48563D01*
X-138741Y-48508D01*
X-149610Y-48508D01*
X-150503Y-47615D01*
X-150503Y-36041D01*
X-149610Y-35148D01*
X-134146Y-35148D01*
X-133253Y-36041D01*
X-133253Y-46909D01*
X-133194Y-47202D01*
X-133033Y-47440D01*
X-121888Y-58585D01*
X-121888Y-59516D01*
X-121828Y-59809D01*
X-121660Y-60055D01*
X-121408Y-60216D01*
X-121138Y-60266D01*
X-118632Y-60266D01*
X-118458Y-60246D01*
X-117857Y-60103D01*
X-117667Y-60172D01*
X-117381Y-60161D01*
X-117091Y-60092D01*
X-117060Y-60104D01*
X-116762Y-60089D01*
X-116416Y-59893D01*
X-112689Y-56165D01*
X-112524Y-55917D01*
X-112470Y-55623D01*
X-112534Y-55332D01*
X-112706Y-55088D01*
X-112960Y-54931D01*
X-113220Y-54885D01*
X-118348Y-54885D01*
X-122286Y-50947D01*
X-122286Y-46490D01*
X-122345Y-46198D01*
X-122506Y-45960D01*
X-131572Y-36894D01*
X-131572Y-21798D01*
X-131631Y-21505D01*
X-131792Y-21267D01*
X-131973Y-21086D01*
X-132221Y-20921D01*
X-132515Y-20867D01*
X-132806Y-20931D01*
X-133050Y-21103D01*
X-133207Y-21357D01*
X-133253Y-21617D01*
X-133253Y-29225D01*
X-134146Y-30118D01*
X-149610Y-30118D01*
X-150503Y-29225D01*
X-150503Y-18403D01*
X-150562Y-18110D01*
X-150731Y-17864D01*
X-150983Y-17703D01*
X-151253Y-17653D01*
X-155045Y-17653D01*
X-157723Y-14975D01*
X-157723Y-875D01*
X-155045Y1803D01*
X-136581Y1803D01*
X-136289Y1862D01*
X-136051Y2023D01*
X-134304Y3770D01*
X-134139Y4019D01*
X-134084Y4300D01*
X-134084Y10963D01*
X-134143Y11255D01*
X-134304Y11493D01*
X-136145Y13334D01*
X-136394Y13499D01*
X-136687Y13553D01*
X-136979Y13489D01*
X-137222Y13317D01*
X-137379Y13063D01*
X-137425Y12804D01*
X-137425Y4678D01*
X-138318Y3785D01*
X-153782Y3785D01*
X-154675Y4678D01*
X-154675Y16252D01*
X-153782Y17145D01*
X-152961Y17145D01*
X-152669Y17204D01*
X-152422Y17373D01*
X-152261Y17625D01*
X-152211Y17919D01*
X-152280Y18209D01*
X-152431Y18425D01*
X-154110Y20105D01*
X-154110Y24079D01*
X-151299Y26890D01*
X-149375Y26890D01*
X-149082Y26950D01*
X-148836Y27118D01*
X-148675Y27370D01*
X-148625Y27640D01*
X-148625Y36592D01*
X-147732Y37485D01*
X-132268Y37485D01*
X-132155Y37372D01*
X-131906Y37207D01*
X-131612Y37152D01*
X-131321Y37216D01*
X-131094Y37372D01*
X-130453Y38013D01*
X-128894Y39572D01*
X-123972Y39572D01*
X-123679Y39631D01*
X-123441Y39792D01*
X-98785Y64448D01*
X-98620Y64697D01*
X-98566Y64990D01*
X-98630Y65282D01*
X-98802Y65525D01*
X-99056Y65682D01*
X-99316Y65728D01*
X-100367Y65728D01*
X-103178Y68539D01*
X-103178Y71780D01*
X-103237Y72073D01*
X-103397Y72311D01*
X-106759Y75673D01*
X-107008Y75837D01*
X-107302Y75892D01*
X-107593Y75828D01*
X-107820Y75673D01*
X-109572Y73921D01*
X-110834Y73921D01*
X-118965Y82052D01*
X-119214Y82216D01*
X-119507Y82271D01*
X-119799Y82207D01*
X-120042Y82034D01*
X-120199Y81780D01*
X-120245Y81521D01*
X-120245Y80840D01*
X-120186Y80547D01*
X-120025Y80309D01*
X-111343Y71627D01*
X-111343Y67839D01*
X-121313Y57869D01*
X-127782Y57869D01*
X-128075Y57810D01*
X-128313Y57649D01*
X-131155Y54807D01*
X-131320Y54558D01*
X-131375Y54276D01*
X-131375Y43408D01*
X-132268Y42515D01*
X-147732Y42515D01*
X-148625Y43408D01*
X-148625Y54982D01*
X-147732Y55875D01*
X-136864Y55875D01*
X-136571Y55934D01*
X-136333Y56095D01*
X-132808Y59620D01*
X-132643Y59869D01*
X-132588Y60162D01*
X-132652Y60454D01*
X-132825Y60697D01*
X-133079Y60854D01*
X-133338Y60901D01*
X-135110Y60901D01*
X-137921Y63711D01*
X-137921Y67686D01*
X-135080Y70527D01*
X-134935Y70556D01*
X-134689Y70725D01*
X-134528Y70976D01*
X-134478Y71270D01*
X-134547Y71561D01*
X-134698Y71777D01*
X-134773Y71852D01*
X-134773Y73115D01*
X-126588Y81299D01*
X-125567Y81299D01*
X-125275Y81359D01*
X-125028Y81527D01*
X-124868Y81779D01*
X-124817Y82049D01*
X-124817Y87381D01*
X-114847Y97351D01*
X-104476Y97351D01*
X-102131Y95006D01*
X-101882Y94841D01*
X-101601Y94786D01*
X-98359Y94786D01*
X-96386Y92813D01*
X-96137Y92648D01*
X-95844Y92594D01*
X-95552Y92658D01*
X-95309Y92830D01*
X-95152Y93084D01*
X-95106Y93343D01*
X-95106Y96577D01*
X-92645Y99037D01*
X-92480Y99286D01*
X-92426Y99580D01*
X-92479Y99799D01*
X-92325Y100257D01*
X-92286Y100496D01*
X-92286Y100947D01*
X-92121Y101112D01*
X-91940Y101404D01*
X-91866Y101625D01*
X-91462Y101826D01*
X-91266Y101967D01*
X-90947Y102286D01*
X-90713Y102286D01*
X-90379Y102364D01*
X-86809Y104139D01*
X-86574Y104322D01*
X-86429Y104583D01*
X-86397Y104880D01*
X-86483Y105166D01*
X-86674Y105395D01*
X-86939Y105532D01*
X-87143Y105561D01*
X-87264Y105561D01*
X-89664Y107961D01*
X-89913Y108126D01*
X-90195Y108181D01*
X-91525Y108181D01*
X-91818Y108122D01*
X-92055Y107961D01*
X-92433Y107584D01*
X-95265Y107584D01*
X-95558Y107524D01*
X-95795Y107364D01*
X-98088Y105072D01*
X-102063Y105072D01*
X-104873Y107882D01*
X-104873Y111857D01*
X-102063Y114668D01*
X-98088Y114668D01*
X-95795Y112375D01*
X-95547Y112211D01*
X-95265Y112156D01*
X-94638Y112156D01*
X-94345Y112215D01*
X-94107Y112375D01*
X-93730Y112753D01*
X-89422Y112753D01*
X-89130Y112812D01*
X-88883Y112981D01*
X-88698Y113309D01*
X-88613Y113624D01*
X-88595Y113922D01*
X-88694Y114204D01*
X-88807Y114349D01*
X-91624Y117165D01*
X-91624Y121140D01*
X-88813Y123951D01*
X-85316Y123951D01*
X-85024Y124010D01*
X-84777Y124179D01*
X-84617Y124430D01*
X-84567Y124725D01*
X-84667Y125076D01*
X-85266Y126115D01*
X-84870Y127594D01*
X-81855Y129335D01*
X-81701Y129294D01*
X-81403Y129276D01*
X-81121Y129375D01*
X-80901Y129576D01*
X-80776Y129847D01*
X-80768Y130146D01*
X-80832Y130346D01*
X-81528Y131779D01*
X-81584Y131875D01*
X-82003Y132487D01*
X-82007Y132715D01*
X-82044Y132823D01*
X-81805Y133515D01*
X-81776Y133623D01*
X-81640Y134351D01*
X-81481Y134515D01*
X-81431Y134618D01*
X-80773Y134939D01*
X-80677Y134994D01*
X-70777Y141774D01*
X-70569Y141988D01*
X-70532Y142067D01*
X-69843Y142421D01*
X-69762Y142469D01*
X-69112Y142914D01*
X-68930Y142917D01*
X-68748Y142982D01*
X-52447Y151348D01*
X-52214Y151534D01*
X-52134Y151653D01*
X-51479Y151857D01*
X-51359Y151906D01*
X-50747Y152220D01*
X-50467Y152189D01*
X-50311Y152220D01*
X-34444Y157152D01*
X-34102Y157374D01*
X-34065Y157416D01*
X-33918Y157675D01*
X-33882Y157972D01*
X-33966Y158258D01*
X-34154Y158490D01*
X-34418Y158629D01*
X-34742Y158652D01*
X-37557Y158227D01*
X-37666Y158202D01*
X-60737Y151086D01*
X-60841Y151045D01*
X-82593Y140570D01*
X-82690Y140514D01*
X-102638Y126913D01*
X-102726Y126844D01*
X-120424Y110422D01*
X-120500Y110340D01*
X-135553Y91464D01*
X-135617Y91371D01*
X-147688Y70463D01*
X-147737Y70362D01*
X-156557Y47888D01*
X-156590Y47780D01*
X-161963Y24243D01*
X-161979Y24132D01*
X-163784Y56D01*
X-163784Y-56D01*
X-161979Y-24132D01*
X-161963Y-24243D01*
X-156590Y-47780D01*
X-156557Y-47888D01*
X-147737Y-70362D01*
X-147688Y-70463D01*
X-135617Y-91371D01*
X-135553Y-91464D01*
X-120500Y-110340D01*
X-120424Y-110422D01*
X-102726Y-126844D01*
X-102638Y-126913D01*
X-82690Y-140514D01*
X-82593Y-140570D01*
X-60841Y-151045D01*
X-60737Y-151086D01*
X-37666Y-158202D01*
X-37557Y-158227D01*
X-13683Y-161826D01*
X-13572Y-161834D01*
X10572Y-161834D01*
X10683Y-161826D01*
G37*
%LPC*%
G36*
X762Y-53340D02*
X762Y-762D01*
X53340Y-762D01*
X53340Y-7022D01*
X49705Y-20588D01*
X42683Y-32752D01*
X32752Y-42683D01*
X20588Y-49705D01*
X7022Y-53340D01*
X762Y-53340D01*
G37*
G36*
X-106244Y-84759D02*
X-109055Y-81949D01*
X-109055Y-77974D01*
X-106244Y-75163D01*
X-102269Y-75163D01*
X-99977Y-77456D01*
X-99728Y-77620D01*
X-99447Y-77675D01*
X-61219Y-77675D01*
X-60926Y-77616D01*
X-60688Y-77456D01*
X-32876Y-49643D01*
X-31509Y-49643D01*
X-31216Y-49583D01*
X-30978Y-49423D01*
X-28686Y-47131D01*
X-27846Y-47131D01*
X-27554Y-47071D01*
X-27307Y-46903D01*
X-27147Y-46651D01*
X-27097Y-46357D01*
X-27165Y-46066D01*
X-27342Y-45826D01*
X-27471Y-45731D01*
X-32752Y-42683D01*
X-42683Y-32752D01*
X-49705Y-20588D01*
X-53340Y-7022D01*
X-53340Y-762D01*
X-762Y-762D01*
X-762Y-53340D01*
X-7022Y-53340D01*
X-20588Y-49705D01*
X-20776Y-49597D01*
X-21059Y-49502D01*
X-21356Y-49525D01*
X-21621Y-49662D01*
X-21812Y-49892D01*
X-21901Y-50246D01*
X-21901Y-53916D01*
X-24711Y-56727D01*
X-28686Y-56727D01*
X-30560Y-54853D01*
X-30809Y-54688D01*
X-31102Y-54634D01*
X-31394Y-54698D01*
X-31620Y-54853D01*
X-59014Y-82247D01*
X-99447Y-82247D01*
X-99739Y-82307D01*
X-99977Y-82467D01*
X-102269Y-84759D01*
X-106244Y-84759D01*
G37*
G36*
X-84160Y-107400D02*
X-86120Y-104703D01*
X-86120Y-101369D01*
X-84160Y-98672D01*
X-80990Y-97642D01*
X-77820Y-98672D01*
X-75860Y-101369D01*
X-75860Y-104703D01*
X-77820Y-107400D01*
X-80990Y-108430D01*
X-84160Y-107400D01*
G37*
G36*
X-81066Y-133573D02*
X-83026Y-130876D01*
X-83026Y-127543D01*
X-81066Y-124846D01*
X-77896Y-123816D01*
X-74726Y-124846D01*
X-72766Y-127543D01*
X-72766Y-130876D01*
X-74726Y-133573D01*
X-77896Y-134603D01*
X-81066Y-133573D01*
G37*
%LPD*%
G36*
X-30716Y89385D02*
X-30475Y89453D01*
X-30393Y89491D01*
X-30154Y89670D01*
X-30041Y89836D01*
X-30001Y89918D01*
X-29928Y90157D01*
X-26393Y117969D01*
X-26415Y118267D01*
X-26551Y118532D01*
X-26780Y118723D01*
X-27066Y118810D01*
X-27363Y118779D01*
X-27667Y118594D01*
X-30384Y115877D01*
X-31409Y115877D01*
X-31702Y115818D01*
X-31948Y115649D01*
X-32109Y115397D01*
X-32159Y115103D01*
X-32059Y114752D01*
X-31165Y113204D01*
X-31561Y111724D01*
X-38418Y107766D01*
X-38641Y107568D01*
X-38770Y107299D01*
X-38784Y107001D01*
X-38692Y106742D01*
X-34734Y99885D01*
X-35130Y98406D01*
X-38145Y96665D01*
X-38458Y96749D01*
X-38756Y96767D01*
X-39037Y96668D01*
X-39258Y96466D01*
X-39376Y96218D01*
X-39460Y95906D01*
X-42277Y94279D01*
X-42501Y94082D01*
X-42626Y93824D01*
X-42918Y92736D01*
X-44130Y92036D01*
X-47806Y98403D01*
X-49126Y97641D01*
X-45450Y91274D01*
X-46580Y90622D01*
X-46804Y90424D01*
X-46933Y90155D01*
X-46946Y89857D01*
X-46860Y89607D01*
X-46074Y88200D01*
X-45880Y87974D01*
X-45612Y87841D01*
X-45340Y87820D01*
X-30716Y89385D01*
G37*
D10*
X-75692Y-129095D02*
X-80009Y-129095D01*
X-77850Y-131253D02*
X-77850Y-126936D01*
D11*
X114300Y0D03*
X-114300Y0D03*
D12*
X0Y0D03*
D13*
X-146050Y10465D03*
X-146050Y-7925D03*
D14*
G36*
X110146Y74078D02*
X102854Y81370D01*
X112896Y91412D01*
X120188Y84120D01*
X110146Y74078D01*
G37*
G36*
X123150Y61074D02*
X115858Y68366D01*
X125900Y78408D01*
X133192Y71116D01*
X123150Y61074D01*
G37*
D13*
X144780Y7925D03*
X144780Y-10465D03*
D14*
G36*
X-115915Y69733D02*
X-123207Y62441D01*
X-133249Y72483D01*
X-125957Y79775D01*
X-115915Y69733D01*
G37*
G36*
X-102911Y82737D02*
X-110203Y75445D01*
X-120245Y85487D01*
X-112953Y92779D01*
X-102911Y82737D01*
G37*
D15*
X-73376Y89719D02*
X-66925Y93443D01*
X-73376Y89719D02*
X-74351Y91407D01*
X-67900Y95131D01*
X-66925Y93443D01*
X-72307Y90336D02*
X-73732Y90336D01*
X-74089Y90953D02*
X-71238Y90953D01*
X-70170Y91570D02*
X-74069Y91570D01*
X-73000Y92187D02*
X-69101Y92187D01*
X-68032Y92804D02*
X-71931Y92804D01*
X-70862Y93421D02*
X-66963Y93421D01*
X-67269Y94038D02*
X-69793Y94038D01*
X-68725Y94655D02*
X-67625Y94655D01*
X-69425Y97773D02*
X-75876Y94049D01*
X-76851Y95737D01*
X-70400Y99461D01*
X-69425Y97773D01*
X-74807Y94666D02*
X-76232Y94666D01*
X-76589Y95283D02*
X-73738Y95283D01*
X-72670Y95900D02*
X-76569Y95900D01*
X-75500Y96517D02*
X-71601Y96517D01*
X-70532Y97134D02*
X-74431Y97134D01*
X-73362Y97751D02*
X-69463Y97751D01*
X-69769Y98368D02*
X-72293Y98368D01*
X-71225Y98985D02*
X-70125Y98985D01*
X-71925Y102103D02*
X-78376Y98379D01*
X-79351Y100067D01*
X-72900Y103791D01*
X-71925Y102103D01*
X-77307Y98996D02*
X-78732Y98996D01*
X-79089Y99613D02*
X-76238Y99613D01*
X-75170Y100230D02*
X-79069Y100230D01*
X-78000Y100847D02*
X-74101Y100847D01*
X-73032Y101464D02*
X-76931Y101464D01*
X-75862Y102081D02*
X-71963Y102081D01*
X-72269Y102698D02*
X-74793Y102698D01*
X-73725Y103315D02*
X-72625Y103315D01*
X-74425Y106433D02*
X-80876Y102709D01*
X-81851Y104397D01*
X-75400Y108121D01*
X-74425Y106433D01*
X-79807Y103326D02*
X-81232Y103326D01*
X-81589Y103943D02*
X-78738Y103943D01*
X-77670Y104560D02*
X-81569Y104560D01*
X-80500Y105177D02*
X-76601Y105177D01*
X-75532Y105794D02*
X-79431Y105794D01*
X-78362Y106411D02*
X-74463Y106411D01*
X-74769Y107028D02*
X-77293Y107028D01*
X-76225Y107645D02*
X-75125Y107645D01*
X-76925Y110763D02*
X-83376Y107039D01*
X-84351Y108727D01*
X-77900Y112451D01*
X-76925Y110763D01*
X-82307Y107656D02*
X-83732Y107656D01*
X-84089Y108273D02*
X-81238Y108273D01*
X-80170Y108890D02*
X-84069Y108890D01*
X-83000Y109507D02*
X-79101Y109507D01*
X-78032Y110124D02*
X-81931Y110124D01*
X-80862Y110741D02*
X-76963Y110741D01*
X-77269Y111358D02*
X-79793Y111358D01*
X-78725Y111975D02*
X-77625Y111975D01*
X-79425Y115093D02*
X-85876Y111369D01*
X-86851Y113057D01*
X-80400Y116781D01*
X-79425Y115093D01*
X-84807Y111986D02*
X-86232Y111986D01*
X-86589Y112603D02*
X-83738Y112603D01*
X-82670Y113220D02*
X-86569Y113220D01*
X-85500Y113837D02*
X-81601Y113837D01*
X-80532Y114454D02*
X-84431Y114454D01*
X-83362Y115071D02*
X-79463Y115071D01*
X-79769Y115688D02*
X-82293Y115688D01*
X-81225Y116305D02*
X-80125Y116305D01*
X-52101Y130869D02*
X-45650Y134593D01*
X-52101Y130869D02*
X-53076Y132557D01*
X-46625Y136281D01*
X-45650Y134593D01*
X-51032Y131486D02*
X-52457Y131486D01*
X-52814Y132103D02*
X-49963Y132103D01*
X-48895Y132720D02*
X-52794Y132720D01*
X-51725Y133337D02*
X-47826Y133337D01*
X-46757Y133954D02*
X-50656Y133954D01*
X-49587Y134571D02*
X-45688Y134571D01*
X-45994Y135188D02*
X-48518Y135188D01*
X-47450Y135805D02*
X-46350Y135805D01*
X-43150Y130263D02*
X-49601Y126539D01*
X-50576Y128227D01*
X-44125Y131951D01*
X-43150Y130263D01*
X-48532Y127156D02*
X-49957Y127156D01*
X-50314Y127773D02*
X-47463Y127773D01*
X-46395Y128390D02*
X-50294Y128390D01*
X-49225Y129007D02*
X-45326Y129007D01*
X-44257Y129624D02*
X-48156Y129624D01*
X-47087Y130241D02*
X-43188Y130241D01*
X-43494Y130858D02*
X-46018Y130858D01*
X-44950Y131475D02*
X-43850Y131475D01*
X-40650Y125933D02*
X-47101Y122209D01*
X-48076Y123897D01*
X-41625Y127621D01*
X-40650Y125933D01*
X-46032Y122826D02*
X-47457Y122826D01*
X-47814Y123443D02*
X-44963Y123443D01*
X-43895Y124060D02*
X-47794Y124060D01*
X-46725Y124677D02*
X-42826Y124677D01*
X-41757Y125294D02*
X-45656Y125294D01*
X-44587Y125911D02*
X-40688Y125911D01*
X-40994Y126528D02*
X-43518Y126528D01*
X-42450Y127145D02*
X-41350Y127145D01*
X-38150Y121603D02*
X-44601Y117879D01*
X-45576Y119567D01*
X-39125Y123291D01*
X-38150Y121603D01*
X-43532Y118496D02*
X-44957Y118496D01*
X-45314Y119113D02*
X-42463Y119113D01*
X-41395Y119730D02*
X-45294Y119730D01*
X-44225Y120347D02*
X-40326Y120347D01*
X-39257Y120964D02*
X-43156Y120964D01*
X-42087Y121581D02*
X-38188Y121581D01*
X-38494Y122198D02*
X-41018Y122198D01*
X-39950Y122815D02*
X-38850Y122815D01*
X-35650Y117273D02*
X-42101Y113549D01*
X-43076Y115237D01*
X-36625Y118961D01*
X-35650Y117273D01*
X-41032Y114166D02*
X-42457Y114166D01*
X-42814Y114783D02*
X-39963Y114783D01*
X-38895Y115400D02*
X-42794Y115400D01*
X-41725Y116017D02*
X-37826Y116017D01*
X-36757Y116634D02*
X-40656Y116634D01*
X-39587Y117251D02*
X-35688Y117251D01*
X-35994Y117868D02*
X-38518Y117868D01*
X-37450Y118485D02*
X-36350Y118485D01*
X-33150Y112943D02*
X-39601Y109219D01*
X-40576Y110907D01*
X-34125Y114631D01*
X-33150Y112943D01*
X-38532Y109836D02*
X-39957Y109836D01*
X-40314Y110453D02*
X-37463Y110453D01*
X-36395Y111070D02*
X-40294Y111070D01*
X-39225Y111687D02*
X-35326Y111687D01*
X-34257Y112304D02*
X-38156Y112304D01*
X-37087Y112921D02*
X-33188Y112921D01*
X-33494Y113538D02*
X-36018Y113538D01*
X-34950Y114155D02*
X-33850Y114155D01*
X-40443Y106076D02*
X-36719Y99625D01*
X-38407Y98650D01*
X-42131Y105101D01*
X-40443Y106076D01*
X-38763Y99267D02*
X-37339Y99267D01*
X-36869Y99884D02*
X-39119Y99884D01*
X-39476Y100501D02*
X-37225Y100501D01*
X-37581Y101118D02*
X-39832Y101118D01*
X-40188Y101735D02*
X-37937Y101735D01*
X-38293Y102352D02*
X-40544Y102352D01*
X-40900Y102969D02*
X-38649Y102969D01*
X-39006Y103586D02*
X-41256Y103586D01*
X-41613Y104203D02*
X-39362Y104203D01*
X-39718Y104820D02*
X-41969Y104820D01*
X-41549Y105437D02*
X-40074Y105437D01*
X-40430Y106054D02*
X-40481Y106054D01*
X-44773Y103576D02*
X-41049Y97125D01*
X-42737Y96150D01*
X-46461Y102601D01*
X-44773Y103576D01*
X-43093Y96767D02*
X-41669Y96767D01*
X-41199Y97384D02*
X-43449Y97384D01*
X-43806Y98001D02*
X-41555Y98001D01*
X-41911Y98618D02*
X-44162Y98618D01*
X-44518Y99235D02*
X-42267Y99235D01*
X-42623Y99852D02*
X-44874Y99852D01*
X-45230Y100469D02*
X-42979Y100469D01*
X-43336Y101086D02*
X-45586Y101086D01*
X-45943Y101703D02*
X-43692Y101703D01*
X-44048Y102320D02*
X-46299Y102320D01*
X-45879Y102937D02*
X-44404Y102937D01*
X-44760Y103554D02*
X-44811Y103554D01*
X-49103Y101076D02*
X-45379Y94625D01*
X-47067Y93650D01*
X-50791Y100101D01*
X-49103Y101076D01*
X-47423Y94267D02*
X-45999Y94267D01*
X-45529Y94884D02*
X-47779Y94884D01*
X-48136Y95501D02*
X-45885Y95501D01*
X-46241Y96118D02*
X-48492Y96118D01*
X-48848Y96735D02*
X-46597Y96735D01*
X-46953Y97352D02*
X-49204Y97352D01*
X-49560Y97969D02*
X-47309Y97969D01*
X-47666Y98586D02*
X-49916Y98586D01*
X-50273Y99203D02*
X-48022Y99203D01*
X-48378Y99820D02*
X-50629Y99820D01*
X-50209Y100437D02*
X-48734Y100437D01*
X-49090Y101054D02*
X-49141Y101054D01*
X-53433Y98576D02*
X-49709Y92125D01*
X-51397Y91150D01*
X-55121Y97601D01*
X-53433Y98576D01*
X-51753Y91767D02*
X-50329Y91767D01*
X-49859Y92384D02*
X-52109Y92384D01*
X-52466Y93001D02*
X-50215Y93001D01*
X-50571Y93618D02*
X-52822Y93618D01*
X-53178Y94235D02*
X-50927Y94235D01*
X-51283Y94852D02*
X-53534Y94852D01*
X-53890Y95469D02*
X-51639Y95469D01*
X-51996Y96086D02*
X-54246Y96086D01*
X-54603Y96703D02*
X-52352Y96703D01*
X-52708Y97320D02*
X-54959Y97320D01*
X-54539Y97937D02*
X-53064Y97937D01*
X-53420Y98554D02*
X-53471Y98554D01*
X-57763Y96076D02*
X-54039Y89625D01*
X-55727Y88650D01*
X-59451Y95101D01*
X-57763Y96076D01*
X-56083Y89267D02*
X-54659Y89267D01*
X-54189Y89884D02*
X-56439Y89884D01*
X-56796Y90501D02*
X-54545Y90501D01*
X-54901Y91118D02*
X-57152Y91118D01*
X-57508Y91735D02*
X-55257Y91735D01*
X-55613Y92352D02*
X-57864Y92352D01*
X-58220Y92969D02*
X-55969Y92969D01*
X-56326Y93586D02*
X-58576Y93586D01*
X-58933Y94203D02*
X-56682Y94203D01*
X-57038Y94820D02*
X-59289Y94820D01*
X-58869Y95437D02*
X-57394Y95437D01*
X-57750Y96054D02*
X-57801Y96054D01*
X-62093Y93576D02*
X-58369Y87125D01*
X-60057Y86150D01*
X-63781Y92601D01*
X-62093Y93576D01*
X-60413Y86767D02*
X-58989Y86767D01*
X-58519Y87384D02*
X-60769Y87384D01*
X-61126Y88001D02*
X-58875Y88001D01*
X-59231Y88618D02*
X-61482Y88618D01*
X-61838Y89235D02*
X-59587Y89235D01*
X-59943Y89852D02*
X-62194Y89852D01*
X-62550Y90469D02*
X-60299Y90469D01*
X-60656Y91086D02*
X-62906Y91086D01*
X-63263Y91703D02*
X-61012Y91703D01*
X-61368Y92320D02*
X-63619Y92320D01*
X-63199Y92937D02*
X-61724Y92937D01*
X-62080Y93554D02*
X-62131Y93554D01*
X-77869Y120899D02*
X-81593Y127350D01*
X-77869Y120899D02*
X-79557Y119924D01*
X-83281Y126375D01*
X-81593Y127350D01*
X-79913Y120541D02*
X-78489Y120541D01*
X-78019Y121158D02*
X-80269Y121158D01*
X-80626Y121775D02*
X-78375Y121775D01*
X-78731Y122392D02*
X-80982Y122392D01*
X-81338Y123009D02*
X-79087Y123009D01*
X-79443Y123626D02*
X-81694Y123626D01*
X-82050Y124243D02*
X-79799Y124243D01*
X-80156Y124860D02*
X-82406Y124860D01*
X-82763Y125477D02*
X-80512Y125477D01*
X-80868Y126094D02*
X-83119Y126094D01*
X-82699Y126711D02*
X-81224Y126711D01*
X-81580Y127328D02*
X-81631Y127328D01*
X-77263Y129850D02*
X-73539Y123399D01*
X-75227Y122424D01*
X-78951Y128875D01*
X-77263Y129850D01*
X-75583Y123041D02*
X-74159Y123041D01*
X-73689Y123658D02*
X-75939Y123658D01*
X-76296Y124275D02*
X-74045Y124275D01*
X-74401Y124892D02*
X-76652Y124892D01*
X-77008Y125509D02*
X-74757Y125509D01*
X-75113Y126126D02*
X-77364Y126126D01*
X-77720Y126743D02*
X-75469Y126743D01*
X-75826Y127360D02*
X-78076Y127360D01*
X-78433Y127977D02*
X-76182Y127977D01*
X-76538Y128594D02*
X-78789Y128594D01*
X-78369Y129211D02*
X-76894Y129211D01*
X-77250Y129828D02*
X-77301Y129828D01*
X-72933Y132350D02*
X-69209Y125899D01*
X-70897Y124924D01*
X-74621Y131375D01*
X-72933Y132350D01*
X-71253Y125541D02*
X-69829Y125541D01*
X-69359Y126158D02*
X-71609Y126158D01*
X-71966Y126775D02*
X-69715Y126775D01*
X-70071Y127392D02*
X-72322Y127392D01*
X-72678Y128009D02*
X-70427Y128009D01*
X-70783Y128626D02*
X-73034Y128626D01*
X-73390Y129243D02*
X-71139Y129243D01*
X-71496Y129860D02*
X-73746Y129860D01*
X-74103Y130477D02*
X-71852Y130477D01*
X-72208Y131094D02*
X-74459Y131094D01*
X-74039Y131711D02*
X-72564Y131711D01*
X-72920Y132328D02*
X-72971Y132328D01*
X-68603Y134850D02*
X-64879Y128399D01*
X-66567Y127424D01*
X-70291Y133875D01*
X-68603Y134850D01*
X-66923Y128041D02*
X-65499Y128041D01*
X-65029Y128658D02*
X-67279Y128658D01*
X-67636Y129275D02*
X-65385Y129275D01*
X-65741Y129892D02*
X-67992Y129892D01*
X-68348Y130509D02*
X-66097Y130509D01*
X-66453Y131126D02*
X-68704Y131126D01*
X-69060Y131743D02*
X-66809Y131743D01*
X-67166Y132360D02*
X-69416Y132360D01*
X-69773Y132977D02*
X-67522Y132977D01*
X-67878Y133594D02*
X-70129Y133594D01*
X-69709Y134211D02*
X-68234Y134211D01*
X-68590Y134828D02*
X-68641Y134828D01*
X-64273Y137350D02*
X-60549Y130899D01*
X-62237Y129924D01*
X-65961Y136375D01*
X-64273Y137350D01*
X-62593Y130541D02*
X-61169Y130541D01*
X-60699Y131158D02*
X-62949Y131158D01*
X-63306Y131775D02*
X-61055Y131775D01*
X-61411Y132392D02*
X-63662Y132392D01*
X-64018Y133009D02*
X-61767Y133009D01*
X-62123Y133626D02*
X-64374Y133626D01*
X-64730Y134243D02*
X-62479Y134243D01*
X-62836Y134860D02*
X-65086Y134860D01*
X-65443Y135477D02*
X-63192Y135477D01*
X-63548Y136094D02*
X-65799Y136094D01*
X-65379Y136711D02*
X-63904Y136711D01*
X-64260Y137328D02*
X-64311Y137328D01*
X-59943Y139850D02*
X-56219Y133399D01*
X-57907Y132424D01*
X-61631Y138875D01*
X-59943Y139850D01*
X-58263Y133041D02*
X-56839Y133041D01*
X-56369Y133658D02*
X-58619Y133658D01*
X-58976Y134275D02*
X-56725Y134275D01*
X-57081Y134892D02*
X-59332Y134892D01*
X-59688Y135509D02*
X-57437Y135509D01*
X-57793Y136126D02*
X-60044Y136126D01*
X-60400Y136743D02*
X-58149Y136743D01*
X-58506Y137360D02*
X-60756Y137360D01*
X-61113Y137977D02*
X-58862Y137977D01*
X-59218Y138594D02*
X-61469Y138594D01*
X-61049Y139211D02*
X-59574Y139211D01*
X-59930Y139828D02*
X-59981Y139828D01*
D16*
G36*
X-55242Y130758D02*
X-42242Y108242D01*
X-64758Y95242D01*
X-77758Y117758D01*
X-55242Y130758D01*
G37*
D17*
G36*
X41380Y124978D02*
X51379Y142298D01*
X60472Y137048D01*
X50473Y119728D01*
X41380Y124978D01*
G37*
G36*
X79528Y102953D02*
X89527Y120273D01*
X98620Y115023D01*
X88621Y97703D01*
X79528Y102953D01*
G37*
D18*
X-34684Y137741D02*
X-38494Y144340D01*
X-28596Y150055D01*
X-24786Y143456D01*
X-34684Y137741D01*
X-36077Y140154D02*
X-30505Y140154D01*
X-26326Y142567D02*
X-37470Y142567D01*
X-37386Y144980D02*
X-25666Y144980D01*
X-27059Y147393D02*
X-33206Y147393D01*
X-29027Y149806D02*
X-28452Y149806D01*
X-29604Y128942D02*
X-25794Y122343D01*
X-29604Y128942D02*
X-19706Y134657D01*
X-15896Y128058D01*
X-25794Y122343D01*
X-27187Y124756D02*
X-21615Y124756D01*
X-17436Y127169D02*
X-28580Y127169D01*
X-28496Y129582D02*
X-16776Y129582D01*
X-18169Y131995D02*
X-24316Y131995D01*
X-20137Y134408D02*
X-19562Y134408D01*
D19*
X-9935Y116169D03*
X10106Y116341D03*
X28778Y116512D03*
D13*
X-140000Y49195D03*
X-140000Y30805D03*
X-141878Y-23438D03*
X-141878Y-41828D03*
X138658Y44104D03*
X138658Y25714D03*
X141841Y-25585D03*
X141841Y-43975D03*
D20*
X-56001Y127332D03*
X-46268Y142496D03*
D10*
X-60000Y113000D02*
X-48085Y97363D01*
X-60000Y113000D02*
X-56001Y127332D01*
X71123Y49193D02*
X74380Y45936D01*
X70807Y49193D02*
X70000Y50000D01*
X70807Y49193D02*
X71123Y49193D01*
X74380Y45936D02*
X74380Y45251D01*
X76714Y42918D01*
X19947Y53051D02*
X0Y0D01*
D20*
X19947Y53051D03*
D10*
X25207Y101944D02*
X28778Y116512D01*
X-15560Y92303D02*
X-15560Y87697D01*
X-15560Y92303D02*
X-12303Y95560D01*
X-7697Y95560D01*
X-6223Y94086D01*
X25207Y101944D01*
D20*
X20220Y83017D03*
D10*
X-10880Y83017D01*
X-15560Y87697D01*
X-27660Y89869D02*
X-22750Y128500D01*
X-27660Y89869D02*
X-27676Y89758D01*
X-27696Y89648D01*
X-27720Y89539D01*
X-27748Y89430D01*
X-27779Y89323D01*
X-27814Y89217D01*
X-27853Y89112D01*
X-27896Y89009D01*
X-27942Y88907D01*
X-27992Y88807D01*
X-28045Y88709D01*
X-28101Y88612D01*
X-28161Y88518D01*
X-28225Y88426D01*
X-28291Y88336D01*
X-28361Y88249D01*
X-28433Y88164D01*
X-28509Y88081D01*
X-28587Y88002D01*
X-28669Y87925D01*
X-28752Y87851D01*
X-28839Y87780D01*
X-28928Y87712D01*
X-29019Y87648D01*
X-29112Y87586D01*
X-29208Y87528D01*
X-29305Y87473D01*
X-29404Y87422D01*
X-29505Y87374D01*
X-29608Y87330D01*
X-29712Y87290D01*
X-29818Y87253D01*
X-29925Y87220D01*
X-30033Y87191D01*
X-30141Y87165D01*
X-30251Y87144D01*
X-30361Y87126D01*
X-30472Y87112D01*
X-47091Y85334D01*
X-9935Y116169D02*
X-22750Y128500D01*
D20*
X90830Y23680D03*
D10*
X91422Y23040D02*
X107231Y7231D01*
X91422Y23040D02*
X90830Y23680D01*
D21*
X-116444Y18375D03*
X-120642Y-20853D03*
X113069Y-20801D03*
X115530Y18997D03*
D10*
X-114300Y0D02*
X-116444Y18375D01*
X-114300Y0D02*
X-120642Y-20853D01*
X113069Y-20801D02*
X114285Y-254D01*
X114300Y0D01*
X107231Y7231D01*
X114300Y0D02*
X115530Y18997D01*
X-47091Y85334D02*
X-52415Y94863D01*
X-47091Y85334D02*
X-56262Y76164D01*
X-56262Y70723D01*
X-60894Y66091D01*
X-60894Y58702D01*
X-114300Y12697D02*
X-114300Y0D01*
X-70992Y48604D02*
X-60894Y58702D01*
X-78393Y48604D02*
X-114300Y12697D01*
X-78393Y48604D02*
X-70992Y48604D01*
D20*
X-108116Y-47039D03*
D10*
X-114300Y-40855D02*
X-114300Y0D01*
X-114300Y-40855D02*
X-108116Y-47039D01*
X140818Y36111D02*
X140925Y36084D01*
X141030Y36054D01*
X141135Y36020D01*
X141238Y35982D01*
X141340Y35940D01*
X141441Y35896D01*
X141540Y35847D01*
X141637Y35796D01*
X141732Y35741D01*
X141825Y35682D01*
X141916Y35621D01*
X142005Y35556D01*
X142092Y35489D01*
X142177Y35418D01*
X142258Y35345D01*
X142338Y35268D01*
X142414Y35190D01*
X142488Y35108D01*
X142559Y35024D01*
X142627Y34937D01*
X142692Y34849D01*
X142754Y34758D01*
X142812Y34665D01*
X142868Y34570D01*
X142920Y34473D01*
X142968Y34374D01*
X143014Y34274D01*
X143055Y34172D01*
X143093Y34069D01*
X143128Y33964D01*
X143159Y33859D01*
X143186Y33752D01*
X143210Y33645D01*
X143230Y33537D01*
X143246Y33428D01*
X143258Y33319D01*
X143266Y33209D01*
X62073Y53081D02*
X60252Y54902D01*
X62073Y53081D02*
X71546Y53081D01*
X72607Y52020D01*
X148045Y31817D02*
X148045Y19611D01*
X148045Y31817D02*
X146706Y33156D01*
X144780Y16346D02*
X144780Y7925D01*
X143319Y33156D02*
X146706Y33156D01*
X143319Y33156D02*
X143266Y33209D01*
X140818Y36111D02*
X140267Y36662D01*
X130610Y36662D01*
X115253Y52020D02*
X72607Y52020D01*
X144780Y16346D02*
X148045Y19611D01*
X130610Y36662D02*
X115253Y52020D01*
X60252Y54902D02*
X-8839Y62781D01*
X-10115Y61505D01*
X-14721Y61505D01*
D20*
X-50944Y68178D03*
D10*
X-21394Y68178D02*
X-14721Y61505D01*
X-21394Y68178D02*
X-50944Y68178D01*
D20*
X-66454Y61005D03*
D10*
X-68983Y63534D01*
X-73804Y63534D01*
X-73138Y96755D02*
X-75348Y96755D01*
X-88292Y78022D02*
X-73804Y63534D01*
X-88292Y78022D02*
X-88292Y83810D01*
X-75348Y96755D01*
X-79571Y132981D02*
X-68628Y140474D01*
X-50549Y149752D01*
X-32946Y155224D01*
X-18674Y156175D01*
X3211Y157008D01*
X35920Y145946D01*
X50926Y131013D01*
X-76245Y126137D02*
X-79571Y132981D01*
D20*
X-32372Y120675D03*
D10*
X-39363Y116255D01*
D20*
X-9764Y101120D03*
D10*
X-5114Y101120D02*
X10106Y116341D01*
X-5114Y101120D02*
X-9764Y101120D01*
D20*
X-34612Y45556D03*
X-82852Y36283D03*
D10*
X-73578Y45556D01*
X-34612Y45556D01*
D20*
X-98380Y70526D03*
D10*
X-111578Y83724D01*
X-111578Y84112D01*
X128807Y-48348D02*
X128916Y-48362D01*
X129025Y-48372D01*
X129134Y-48379D01*
X129244Y-48382D01*
X129354Y-48381D01*
X129463Y-48376D01*
X129573Y-48368D01*
X129682Y-48356D01*
X129790Y-48340D01*
X129898Y-48320D01*
X130005Y-48296D01*
X130111Y-48269D01*
X130217Y-48239D01*
X130321Y-48204D01*
X130424Y-48166D01*
X130525Y-48125D01*
X130625Y-48080D01*
X130724Y-48031D01*
X130820Y-47979D01*
X130915Y-47924D01*
X131008Y-47866D01*
X131099Y-47804D01*
X131187Y-47740D01*
X131274Y-47672D01*
X131358Y-47602D01*
X131439Y-47528D01*
X131518Y-47452D01*
X131594Y-47373D01*
X131668Y-47292D01*
X131738Y-47208D01*
X131806Y-47121D01*
X131871Y-47033D01*
X131932Y-46942D01*
X131990Y-46849D01*
X132046Y-46754D01*
X132097Y-46658D01*
X132146Y-46559D01*
X132191Y-46459D01*
X132232Y-46358D01*
X132270Y-46255D01*
X79840Y-41081D02*
X73208Y-40097D01*
X62770Y4943D01*
X59896Y20731D02*
X45840Y38158D01*
X59896Y20731D02*
X59965Y20644D01*
X60030Y20553D01*
X60092Y20461D01*
X60150Y20367D01*
X60206Y20270D01*
X60258Y20172D01*
X60306Y20072D01*
X60351Y19970D01*
X60393Y19867D01*
X60430Y19762D01*
X60464Y19656D01*
X60495Y19549D01*
X60521Y19441D01*
X60544Y19332D01*
X60563Y19223D01*
X62770Y4943D01*
D20*
X45840Y38158D03*
D10*
X132454Y-19482D02*
X133793Y-18143D01*
X137102Y-18143D02*
X144780Y-10465D01*
X137102Y-18143D02*
X133793Y-18143D01*
X132454Y-46070D02*
X132270Y-46255D01*
X132454Y-46070D02*
X132454Y-19482D01*
X128806Y-48348D02*
X79840Y-41081D01*
D20*
X131798Y30000D03*
D10*
X136084Y25714D02*
X138658Y25714D01*
X136084Y25714D02*
X131798Y30000D01*
D20*
X101851Y93988D03*
D10*
X-124582Y71108D02*
X-133123Y65699D01*
D20*
X-133123Y65699D03*
X-74248Y73208D03*
D10*
X-74087Y76851D02*
X-61075Y89863D01*
X-74087Y76851D02*
X-74248Y73208D01*
X-113900Y95065D02*
X-122531Y86434D01*
D20*
X-100346Y89988D03*
D10*
X-129040Y60155D02*
X-140000Y49195D01*
X-129040Y60155D02*
X-122260Y60155D01*
X-122531Y79582D02*
X-122531Y86434D01*
X-113900Y95065D02*
X-105423Y95065D01*
X-100346Y89988D01*
D20*
X-82342Y81217D03*
D10*
X-70638Y92425D01*
X-113629Y70680D02*
X-113629Y68786D01*
X-122260Y60155D01*
X-113629Y70680D02*
X-122531Y79582D01*
X-140000Y30805D02*
X-149312Y22092D01*
D20*
X-149312Y22092D03*
X-104257Y-79961D03*
X-26699Y-51929D03*
D10*
X-59961Y-79961D02*
X-104257Y-79961D01*
X-59961Y-79961D02*
X-31929Y-51929D01*
X-26699Y-51929D01*
D20*
X-131798Y15773D03*
D10*
X-155437Y-14028D02*
X-154098Y-15367D01*
X-155437Y-14028D02*
X-155437Y-1822D01*
X-154098Y-483D01*
X-135324Y-483D01*
X-149949Y-15367D02*
X-141878Y-23438D01*
X-149949Y-15367D02*
X-154098Y-15367D01*
X-135324Y-483D02*
X-131798Y3043D01*
X-131798Y15773D01*
D20*
X-62684Y74147D03*
D10*
X-55567Y85963D02*
X-55567Y89114D01*
X-56745Y90292D01*
X-56745Y92363D01*
X-62684Y78846D02*
X-62684Y74147D01*
X-62684Y78846D02*
X-55567Y85963D01*
X-124174Y-61213D02*
X-122835Y-62552D01*
X-118276Y-62552D01*
X-118076Y-62676D01*
X-117557Y-62552D01*
X-115843Y-62552D01*
X-124174Y-59532D02*
X-141878Y-41828D01*
X-124174Y-59532D02*
X-124174Y-61213D01*
X-115843Y-62552D02*
X-109797Y-56506D01*
D20*
X-73141Y-59018D03*
D10*
X-75653Y-56506D01*
X-109797Y-56506D01*
X110000Y60000D02*
X138658Y44104D01*
X110000Y60000D02*
X-12418Y67065D01*
D20*
X-12418Y67065D03*
D10*
X-92783Y110467D02*
X-93380Y109870D01*
X-85556Y107847D02*
X-80638Y109745D01*
D20*
X-100075Y109870D03*
D10*
X-93380Y109870D01*
X-92783Y110467D02*
X-88937Y110467D01*
X-86317Y107847D02*
X-85556Y107847D01*
X-86317Y107847D02*
X-88937Y110467D01*
X141841Y-25585D02*
X150000Y-20000D01*
X152828Y-17907D02*
X154167Y-16568D01*
X150000Y34173D02*
X150000Y50000D01*
X152093Y-17907D02*
X150000Y-20000D01*
X152093Y-17907D02*
X152828Y-17907D01*
X154167Y-16568D02*
X154167Y30006D01*
X150000Y34173D01*
X150000Y50000D02*
X140000Y70000D01*
X110000Y100000D01*
X100000Y100000D01*
X90000Y90000D01*
X50000Y110000D01*
X40000Y110000D01*
X30000Y100000D01*
X-10000Y90000D01*
D20*
X-10000Y90000D03*
X-86826Y119153D03*
D10*
X-83138Y114075D01*
D20*
X60000Y-50000D03*
D10*
X129767Y-51430D02*
X133979Y-51430D01*
X129767Y-51430D02*
X129608Y-51548D01*
X128813Y-51430D01*
X127098Y-51430D01*
X126799Y-51131D01*
X99555Y-47088D01*
X60000Y-50000D01*
X141434Y-43975D02*
X141841Y-43975D01*
X141434Y-43975D02*
X133979Y-51430D01*
X-137979Y-15996D02*
X-146050Y-7925D01*
X-137979Y-15996D02*
X-133830Y-15996D01*
X-120000Y-45233D02*
X-120000Y-50000D01*
X-120000Y-45233D02*
X-129286Y-35947D01*
X-129286Y-20540D02*
X-133830Y-15996D01*
X-129286Y-20540D02*
X-129286Y-35947D01*
X-120000Y-50000D02*
X-117401Y-52599D01*
X-89076Y-52599D01*
X-88218Y-53458D01*
X-54950Y-53458D01*
X-45075Y-43582D01*
D20*
X-45075Y-43582D03*
D10*
X-127947Y37286D02*
X-129286Y35947D01*
X-133152Y23363D02*
X-146050Y10465D01*
X-133152Y23363D02*
X-131952Y23363D01*
X-127947Y37286D02*
X-122714Y37286D01*
X-129286Y26029D02*
X-131952Y23363D01*
X-129286Y26029D02*
X-129286Y35947D01*
X-90000Y98450D02*
X-90000Y100000D01*
X-82904Y103527D01*
X-78138Y105415D01*
X-90000Y98450D02*
X-92820Y95630D01*
X-92820Y67180D02*
X-122714Y37286D01*
X-92820Y67180D02*
X-92820Y95630D01*
X106233Y77457D02*
X111521Y82745D01*
X106233Y77457D02*
X-44349Y77457D01*
D20*
X-44349Y77457D03*
X-83623Y96343D03*
D10*
X-75638Y101085D01*
X40259Y69741D02*
X124525Y69741D01*
X40259Y69741D02*
X40000Y70000D01*
D20*
X40000Y70000D03*
M02*
