G04 EAGLE Gerber RS-274X export*
G75*
%MOMM*%
%FSLAX34Y34*%
%LPD*%
%INMechanical*%
%IPPOS*%
%AMOC8*
5,1,8,0,0,1.08239X$1,22.5*%
G01*
G04 Define Apertures*
%ADD10C,0.152400*%
%ADD11C,0.000000*%
D10*
X-167088Y0D02*
X-167038Y4064D01*
X-166889Y8125D01*
X-166639Y12181D01*
X-166291Y16230D01*
X-165843Y20270D01*
X-165296Y24297D01*
X-164650Y28309D01*
X-163906Y32305D01*
X-163065Y36281D01*
X-162126Y40235D01*
X-161090Y44164D01*
X-159958Y48068D01*
X-158730Y51942D01*
X-157408Y55785D01*
X-155992Y59594D01*
X-154483Y63368D01*
X-152882Y67103D01*
X-151190Y70798D01*
X-149407Y74450D01*
X-147536Y78058D01*
X-145576Y81618D01*
X-143530Y85129D01*
X-141398Y88589D01*
X-139181Y91996D01*
X-136882Y95347D01*
X-134502Y98641D01*
X-132041Y101875D01*
X-129501Y105048D01*
X-126885Y108158D01*
X-124193Y111202D01*
X-121427Y114180D01*
X-118588Y117088D01*
X-115680Y119927D01*
X-112702Y122693D01*
X-109658Y125385D01*
X-106548Y128001D01*
X-103375Y130541D01*
X-100141Y133002D01*
X-96847Y135382D01*
X-93496Y137681D01*
X-90089Y139898D01*
X-86629Y142030D01*
X-83118Y144076D01*
X-79558Y146036D01*
X-75950Y147907D01*
X-72298Y149690D01*
X-68603Y151382D01*
X-64868Y152983D01*
X-61094Y154492D01*
X-57285Y155908D01*
X-53442Y157230D01*
X-49568Y158458D01*
X-45664Y159590D01*
X-41735Y160626D01*
X-37781Y161565D01*
X-33805Y162406D01*
X-29809Y163150D01*
X-25797Y163796D01*
X-21770Y164343D01*
X-17730Y164791D01*
X-13681Y165139D01*
X-9625Y165389D01*
X-5564Y165538D01*
X-1500Y165588D01*
X2564Y165538D01*
X6625Y165389D01*
X10681Y165139D01*
X14730Y164791D01*
X18770Y164343D01*
X22797Y163796D01*
X26809Y163150D01*
X30805Y162406D01*
X34781Y161565D01*
X38735Y160626D01*
X42664Y159590D01*
X46568Y158458D01*
X50442Y157230D01*
X54285Y155908D01*
X58094Y154492D01*
X61868Y152983D01*
X65603Y151382D01*
X69298Y149690D01*
X72950Y147907D01*
X76558Y146036D01*
X80118Y144076D01*
X83629Y142030D01*
X87089Y139898D01*
X90496Y137681D01*
X93847Y135382D01*
X97141Y133002D01*
X100375Y130541D01*
X103548Y128001D01*
X106658Y125385D01*
X109702Y122693D01*
X112680Y119927D01*
X115588Y117088D01*
X118427Y114180D01*
X121193Y111202D01*
X123885Y108158D01*
X126501Y105048D01*
X129041Y101875D01*
X131502Y98641D01*
X133882Y95347D01*
X136181Y91996D01*
X138398Y88589D01*
X140530Y85129D01*
X142576Y81618D01*
X144536Y78058D01*
X146407Y74450D01*
X148190Y70798D01*
X149882Y67103D01*
X151483Y63368D01*
X152992Y59594D01*
X154408Y55785D01*
X155730Y51942D01*
X156958Y48068D01*
X158090Y44164D01*
X159126Y40235D01*
X160065Y36281D01*
X160906Y32305D01*
X161650Y28309D01*
X162296Y24297D01*
X162843Y20270D01*
X163291Y16230D01*
X163639Y12181D01*
X163889Y8125D01*
X164038Y4064D01*
X164088Y0D01*
X164038Y-4064D01*
X163889Y-8125D01*
X163639Y-12181D01*
X163291Y-16230D01*
X162843Y-20270D01*
X162296Y-24297D01*
X161650Y-28309D01*
X160906Y-32305D01*
X160065Y-36281D01*
X159126Y-40235D01*
X158090Y-44164D01*
X156958Y-48068D01*
X155730Y-51942D01*
X154408Y-55785D01*
X152992Y-59594D01*
X151483Y-63368D01*
X149882Y-67103D01*
X148190Y-70798D01*
X146407Y-74450D01*
X144536Y-78058D01*
X142576Y-81618D01*
X140530Y-85129D01*
X138398Y-88589D01*
X136181Y-91996D01*
X133882Y-95347D01*
X131502Y-98641D01*
X129041Y-101875D01*
X126501Y-105048D01*
X123885Y-108158D01*
X121193Y-111202D01*
X118427Y-114180D01*
X115588Y-117088D01*
X112680Y-119927D01*
X109702Y-122693D01*
X106658Y-125385D01*
X103548Y-128001D01*
X100375Y-130541D01*
X97141Y-133002D01*
X93847Y-135382D01*
X90496Y-137681D01*
X87089Y-139898D01*
X83629Y-142030D01*
X80118Y-144076D01*
X76558Y-146036D01*
X72950Y-147907D01*
X69298Y-149690D01*
X65603Y-151382D01*
X61868Y-152983D01*
X58094Y-154492D01*
X54285Y-155908D01*
X50442Y-157230D01*
X46568Y-158458D01*
X42664Y-159590D01*
X38735Y-160626D01*
X34781Y-161565D01*
X30805Y-162406D01*
X26809Y-163150D01*
X22797Y-163796D01*
X18770Y-164343D01*
X14730Y-164791D01*
X10681Y-165139D01*
X6625Y-165389D01*
X2564Y-165538D01*
X-1500Y-165588D01*
X-5564Y-165538D01*
X-9625Y-165389D01*
X-13681Y-165139D01*
X-17730Y-164791D01*
X-21770Y-164343D01*
X-25797Y-163796D01*
X-29809Y-163150D01*
X-33805Y-162406D01*
X-37781Y-161565D01*
X-41735Y-160626D01*
X-45664Y-159590D01*
X-49568Y-158458D01*
X-53442Y-157230D01*
X-57285Y-155908D01*
X-61094Y-154492D01*
X-64868Y-152983D01*
X-68603Y-151382D01*
X-72298Y-149690D01*
X-75950Y-147907D01*
X-79558Y-146036D01*
X-83118Y-144076D01*
X-86629Y-142030D01*
X-90089Y-139898D01*
X-93496Y-137681D01*
X-96847Y-135382D01*
X-100141Y-133002D01*
X-103375Y-130541D01*
X-106548Y-128001D01*
X-109658Y-125385D01*
X-112702Y-122693D01*
X-115680Y-119927D01*
X-118588Y-117088D01*
X-121427Y-114180D01*
X-124193Y-111202D01*
X-126885Y-108158D01*
X-129501Y-105048D01*
X-132041Y-101875D01*
X-134502Y-98641D01*
X-136882Y-95347D01*
X-139181Y-91996D01*
X-141398Y-88589D01*
X-143530Y-85129D01*
X-145576Y-81618D01*
X-147536Y-78058D01*
X-149407Y-74450D01*
X-151190Y-70798D01*
X-152882Y-67103D01*
X-154483Y-63368D01*
X-155992Y-59594D01*
X-157408Y-55785D01*
X-158730Y-51942D01*
X-159958Y-48068D01*
X-161090Y-44164D01*
X-162126Y-40235D01*
X-163065Y-36281D01*
X-163906Y-32305D01*
X-164650Y-28309D01*
X-165296Y-24297D01*
X-165843Y-20270D01*
X-166291Y-16230D01*
X-166639Y-12181D01*
X-166889Y-8125D01*
X-167038Y-4064D01*
X-167088Y0D01*
D11*
X-10000Y140000D02*
X-9997Y140245D01*
X-9988Y140491D01*
X-9973Y140736D01*
X-9952Y140980D01*
X-9925Y141224D01*
X-9892Y141467D01*
X-9853Y141710D01*
X-9808Y141951D01*
X-9757Y142191D01*
X-9700Y142430D01*
X-9638Y142667D01*
X-9569Y142903D01*
X-9495Y143137D01*
X-9415Y143369D01*
X-9330Y143599D01*
X-9239Y143827D01*
X-9142Y144052D01*
X-9040Y144276D01*
X-8932Y144496D01*
X-8819Y144714D01*
X-8701Y144929D01*
X-8577Y145141D01*
X-8449Y145350D01*
X-8315Y145556D01*
X-8176Y145758D01*
X-8032Y145957D01*
X-7883Y146152D01*
X-7730Y146344D01*
X-7572Y146532D01*
X-7410Y146716D01*
X-7242Y146895D01*
X-7071Y147071D01*
X-6895Y147242D01*
X-6716Y147410D01*
X-6532Y147572D01*
X-6344Y147730D01*
X-6152Y147883D01*
X-5957Y148032D01*
X-5758Y148176D01*
X-5556Y148315D01*
X-5350Y148449D01*
X-5141Y148577D01*
X-4929Y148701D01*
X-4714Y148819D01*
X-4496Y148932D01*
X-4276Y149040D01*
X-4052Y149142D01*
X-3827Y149239D01*
X-3599Y149330D01*
X-3369Y149415D01*
X-3137Y149495D01*
X-2903Y149569D01*
X-2667Y149638D01*
X-2430Y149700D01*
X-2191Y149757D01*
X-1951Y149808D01*
X-1710Y149853D01*
X-1467Y149892D01*
X-1224Y149925D01*
X-980Y149952D01*
X-736Y149973D01*
X-491Y149988D01*
X-245Y149997D01*
X0Y150000D01*
X245Y149997D01*
X491Y149988D01*
X736Y149973D01*
X980Y149952D01*
X1224Y149925D01*
X1467Y149892D01*
X1710Y149853D01*
X1951Y149808D01*
X2191Y149757D01*
X2430Y149700D01*
X2667Y149638D01*
X2903Y149569D01*
X3137Y149495D01*
X3369Y149415D01*
X3599Y149330D01*
X3827Y149239D01*
X4052Y149142D01*
X4276Y149040D01*
X4496Y148932D01*
X4714Y148819D01*
X4929Y148701D01*
X5141Y148577D01*
X5350Y148449D01*
X5556Y148315D01*
X5758Y148176D01*
X5957Y148032D01*
X6152Y147883D01*
X6344Y147730D01*
X6532Y147572D01*
X6716Y147410D01*
X6895Y147242D01*
X7071Y147071D01*
X7242Y146895D01*
X7410Y146716D01*
X7572Y146532D01*
X7730Y146344D01*
X7883Y146152D01*
X8032Y145957D01*
X8176Y145758D01*
X8315Y145556D01*
X8449Y145350D01*
X8577Y145141D01*
X8701Y144929D01*
X8819Y144714D01*
X8932Y144496D01*
X9040Y144276D01*
X9142Y144052D01*
X9239Y143827D01*
X9330Y143599D01*
X9415Y143369D01*
X9495Y143137D01*
X9569Y142903D01*
X9638Y142667D01*
X9700Y142430D01*
X9757Y142191D01*
X9808Y141951D01*
X9853Y141710D01*
X9892Y141467D01*
X9925Y141224D01*
X9952Y140980D01*
X9973Y140736D01*
X9988Y140491D01*
X9997Y140245D01*
X10000Y140000D01*
X9997Y139755D01*
X9988Y139509D01*
X9973Y139264D01*
X9952Y139020D01*
X9925Y138776D01*
X9892Y138533D01*
X9853Y138290D01*
X9808Y138049D01*
X9757Y137809D01*
X9700Y137570D01*
X9638Y137333D01*
X9569Y137097D01*
X9495Y136863D01*
X9415Y136631D01*
X9330Y136401D01*
X9239Y136173D01*
X9142Y135948D01*
X9040Y135724D01*
X8932Y135504D01*
X8819Y135286D01*
X8701Y135071D01*
X8577Y134859D01*
X8449Y134650D01*
X8315Y134444D01*
X8176Y134242D01*
X8032Y134043D01*
X7883Y133848D01*
X7730Y133656D01*
X7572Y133468D01*
X7410Y133284D01*
X7242Y133105D01*
X7071Y132929D01*
X6895Y132758D01*
X6716Y132590D01*
X6532Y132428D01*
X6344Y132270D01*
X6152Y132117D01*
X5957Y131968D01*
X5758Y131824D01*
X5556Y131685D01*
X5350Y131551D01*
X5141Y131423D01*
X4929Y131299D01*
X4714Y131181D01*
X4496Y131068D01*
X4276Y130960D01*
X4052Y130858D01*
X3827Y130761D01*
X3599Y130670D01*
X3369Y130585D01*
X3137Y130505D01*
X2903Y130431D01*
X2667Y130362D01*
X2430Y130300D01*
X2191Y130243D01*
X1951Y130192D01*
X1710Y130147D01*
X1467Y130108D01*
X1224Y130075D01*
X980Y130048D01*
X736Y130027D01*
X491Y130012D01*
X245Y130003D01*
X0Y130000D01*
X-245Y130003D01*
X-491Y130012D01*
X-736Y130027D01*
X-980Y130048D01*
X-1224Y130075D01*
X-1467Y130108D01*
X-1710Y130147D01*
X-1951Y130192D01*
X-2191Y130243D01*
X-2430Y130300D01*
X-2667Y130362D01*
X-2903Y130431D01*
X-3137Y130505D01*
X-3369Y130585D01*
X-3599Y130670D01*
X-3827Y130761D01*
X-4052Y130858D01*
X-4276Y130960D01*
X-4496Y131068D01*
X-4714Y131181D01*
X-4929Y131299D01*
X-5141Y131423D01*
X-5350Y131551D01*
X-5556Y131685D01*
X-5758Y131824D01*
X-5957Y131968D01*
X-6152Y132117D01*
X-6344Y132270D01*
X-6532Y132428D01*
X-6716Y132590D01*
X-6895Y132758D01*
X-7071Y132929D01*
X-7242Y133105D01*
X-7410Y133284D01*
X-7572Y133468D01*
X-7730Y133656D01*
X-7883Y133848D01*
X-8032Y134043D01*
X-8176Y134242D01*
X-8315Y134444D01*
X-8449Y134650D01*
X-8577Y134859D01*
X-8701Y135071D01*
X-8819Y135286D01*
X-8932Y135504D01*
X-9040Y135724D01*
X-9142Y135948D01*
X-9239Y136173D01*
X-9330Y136401D01*
X-9415Y136631D01*
X-9495Y136863D01*
X-9569Y137097D01*
X-9638Y137333D01*
X-9700Y137570D01*
X-9757Y137809D01*
X-9808Y138049D01*
X-9853Y138290D01*
X-9892Y138533D01*
X-9925Y138776D01*
X-9952Y139020D01*
X-9973Y139264D01*
X-9988Y139509D01*
X-9997Y139755D01*
X-10000Y140000D01*
M02*
