G04 EAGLE Gerber RS-274X export*
G75*
%MOMM*%
%FSLAX34Y34*%
%LPD*%
%INBottom Silkscreen*%
%IPPOS*%
%AMOC8*
5,1,8,0,0,1.08239X$1,22.5*%
G01*
G04 Define Apertures*
%ADD10C,0.254000*%
%ADD11R,0.112900X0.022575*%
%ADD12R,0.158000X0.022569*%
%ADD13R,0.135500X0.022569*%
%ADD14R,0.180500X0.022569*%
%ADD15R,0.203100X0.022569*%
%ADD16R,0.225700X0.022581*%
%ADD17R,0.203100X0.022581*%
%ADD18R,0.203200X0.022569*%
%ADD19R,0.225800X0.022569*%
%ADD20R,0.225700X0.022569*%
%ADD21R,0.203100X0.022575*%
%ADD22R,0.225700X0.022575*%
%ADD23R,0.248300X0.022569*%
%ADD24R,0.203200X0.022575*%
%ADD25R,0.203200X0.022581*%
%ADD26R,0.338600X0.022569*%
%ADD27R,0.699700X0.022569*%
%ADD28R,0.677100X0.022581*%
%ADD29R,0.699800X0.022569*%
%ADD30R,0.744800X0.022569*%
%ADD31R,0.767400X0.022581*%
%ADD32R,0.812600X0.022569*%
%ADD33R,0.835100X0.022569*%
%ADD34R,0.880300X0.022569*%
%ADD35R,0.902900X0.022569*%
%ADD36R,0.925500X0.022569*%
%ADD37R,0.948000X0.022575*%
%ADD38R,0.970600X0.022569*%
%ADD39R,0.993200X0.022569*%
%ADD40R,1.015700X0.022569*%
%ADD41R,1.015700X0.022581*%
%ADD42R,1.015700X0.022575*%
%ADD43R,0.948000X0.022569*%
%ADD44R,0.925500X0.022575*%
%ADD45R,0.857700X0.022569*%
%ADD46R,0.790000X0.022569*%
%ADD47R,0.744900X0.022581*%
%ADD48R,0.654600X0.022569*%
%ADD49R,0.564300X0.022569*%
%ADD50R,0.519100X0.022569*%
%ADD51R,0.428900X0.022575*%
%ADD52R,0.248300X0.022575*%
%ADD53R,0.383700X0.022569*%
%ADD54R,0.835100X0.022581*%
%ADD55R,0.767400X0.022569*%
%ADD56R,0.293400X0.022569*%
%ADD57R,0.632000X0.022581*%
%ADD58R,0.677200X0.022569*%
%ADD59R,0.316000X0.022569*%
%ADD60R,1.534900X0.022569*%
%ADD61R,0.451400X0.022569*%
%ADD62R,1.692900X0.022569*%
%ADD63R,0.609500X0.022569*%
%ADD64R,1.783100X0.022569*%
%ADD65R,2.640900X0.022581*%
%ADD66R,2.686000X0.022569*%
%ADD67R,2.731200X0.022569*%
%ADD68R,2.753800X0.022569*%
%ADD69R,0.632000X0.022569*%
%ADD70R,1.218900X0.022569*%
%ADD71R,0.474000X0.022581*%
%ADD72R,0.722300X0.022581*%
%ADD73R,0.293400X0.022581*%
%ADD74R,0.361100X0.022569*%
%ADD75R,0.270900X0.022569*%
%ADD76R,0.609400X0.022569*%
%ADD77R,0.654600X0.022575*%
%ADD78R,0.654500X0.022569*%
%ADD79R,0.248200X0.022569*%
%ADD80R,0.270800X0.022569*%
%ADD81R,0.744900X0.022569*%
%ADD82R,0.293500X0.022569*%
%ADD83R,0.383700X0.022581*%
%ADD84R,0.812600X0.022581*%
%ADD85R,1.331800X0.022569*%
%ADD86R,1.241500X0.022569*%
%ADD87R,0.361200X0.022569*%
%ADD88R,1.106000X0.022569*%
%ADD89R,1.015800X0.022569*%
%ADD90R,0.406200X0.022569*%
%ADD91R,0.699800X0.022575*%
%ADD92R,0.496600X0.022575*%
%ADD93R,0.541800X0.022569*%
%ADD94R,0.586900X0.022569*%
%ADD95R,0.835200X0.022569*%
%ADD96R,1.896000X0.022569*%
%ADD97R,1.918600X0.022575*%
%ADD98R,1.963800X0.022569*%
%ADD99R,2.031400X0.022569*%
%ADD100R,2.099200X0.022569*%
%ADD101R,2.279700X0.022569*%
%ADD102R,2.437800X0.022569*%
%ADD103R,0.564300X0.022581*%
%ADD104R,1.444600X0.022581*%
%ADD105R,0.406300X0.022569*%
%ADD106R,0.925400X0.022569*%
%ADD107R,1.060900X0.022569*%
%ADD108R,0.293500X0.022575*%
%ADD109R,1.106100X0.022575*%
%ADD110R,1.151200X0.022569*%
%ADD111R,0.541700X0.022569*%
%ADD112R,0.135400X0.022569*%
%ADD113R,0.519100X0.022581*%
%ADD114R,0.790000X0.022581*%
%ADD115R,1.647700X0.022569*%
%ADD116R,1.557500X0.022569*%
%ADD117R,1.467100X0.022569*%
%ADD118R,1.376900X0.022569*%
%ADD119R,1.218900X0.022581*%
%ADD120C,0.203200*%
%ADD121R,0.180600X0.022569*%
%ADD122R,0.090300X0.022569*%
%ADD123R,0.474000X0.022569*%
%ADD124R,0.519200X0.022569*%
%ADD125R,0.496600X0.022569*%
%ADD126R,0.564200X0.022569*%
%ADD127R,0.632000X0.022575*%
%ADD128R,0.744800X0.022575*%
%ADD129R,0.112800X0.022569*%
%ADD130R,0.722300X0.022569*%
%ADD131R,0.496500X0.022569*%
%ADD132R,0.586800X0.022569*%
%ADD133R,0.609400X0.022581*%
%ADD134R,0.338500X0.022569*%
%ADD135R,0.316000X0.022575*%
%ADD136R,0.338600X0.022575*%
%ADD137R,0.270800X0.022575*%
%ADD138R,0.270900X0.022575*%
%ADD139R,0.180600X0.022581*%
%ADD140R,0.699700X0.022581*%
%ADD141R,0.541800X0.022581*%
%ADD142R,0.225800X0.022581*%
%ADD143R,0.270900X0.022581*%
%ADD144R,0.270800X0.022581*%
%ADD145R,0.406300X0.022581*%
%ADD146R,0.428900X0.022569*%
%ADD147R,0.112800X0.022581*%
%ADD148R,0.045200X0.022569*%
%ADD149R,0.158000X0.022581*%
%ADD150R,0.541700X0.022575*%
%ADD151R,0.835200X0.022581*%
%ADD152R,0.586800X0.022581*%
%ADD153R,0.067700X0.022569*%
%ADD154R,1.038300X0.022569*%
%ADD155R,1.060800X0.022581*%
%ADD156R,0.451500X0.022581*%
%ADD157R,0.474100X0.022569*%
%ADD158R,1.083500X0.022569*%
%ADD159R,0.767500X0.022569*%
%ADD160R,0.022600X0.022569*%
%ADD161R,0.586900X0.022575*%
%ADD162R,1.625200X0.022569*%
%ADD163R,1.602600X0.022581*%
%ADD164R,1.309200X0.022569*%
%ADD165R,1.264100X0.022569*%
%ADD166R,1.196300X0.022569*%
%ADD167R,1.173800X0.022575*%
%ADD168R,0.857700X0.022575*%
%ADD169R,0.586900X0.022581*%
%ADD170R,0.022581X0.090300*%
%ADD171R,0.022569X0.135400*%
%ADD172R,0.022569X0.158000*%
%ADD173R,0.022569X0.203100*%
%ADD174R,0.022575X0.203100*%
%ADD175R,0.022569X0.225700*%
%ADD176R,0.022569X0.248300*%
%ADD177R,0.022569X0.270800*%
%ADD178R,0.022569X0.316000*%
%ADD179R,0.022581X0.338600*%
%ADD180R,0.022569X0.383800*%
%ADD181R,0.022569X0.180600*%
%ADD182R,0.022569X0.406300*%
%ADD183R,0.022569X0.383700*%
%ADD184R,0.022569X0.361100*%
%ADD185R,0.022569X0.293400*%
%ADD186R,0.022569X0.203200*%
%ADD187R,0.022581X0.225700*%
%ADD188R,0.022581X0.203200*%
%ADD189R,0.022569X0.270900*%
%ADD190R,0.022569X0.225800*%
%ADD191R,0.022569X0.338600*%
%ADD192R,0.022581X0.248300*%
%ADD193R,0.022581X0.361100*%
%ADD194R,0.022569X0.293500*%
%ADD195R,0.022569X0.361200*%
%ADD196R,0.022575X0.361100*%
%ADD197R,0.022575X0.248300*%
%ADD198R,0.022575X0.338600*%
%ADD199R,0.022575X0.383800*%
%ADD200R,0.022575X0.383700*%
%ADD201R,0.022575X0.316000*%
%ADD202R,0.022569X0.338500*%
%ADD203R,0.022569X0.428800*%
%ADD204R,0.022569X0.677200*%
%ADD205R,0.022581X0.699700*%
%ADD206R,0.022575X0.180600*%
%ADD207R,0.022569X0.609500*%
%ADD208R,0.022569X0.541700*%
%ADD209R,0.022569X0.474000*%
%ADD210R,0.022581X0.316000*%
%ADD211R,0.022569X0.045100*%
%ADD212C,0.152400*%
%ADD213R,0.090300X0.022581*%
%ADD214R,0.338600X0.022581*%
%ADD215R,0.383800X0.022569*%
%ADD216R,0.248300X0.022581*%
%ADD217R,0.361100X0.022581*%
%ADD218R,0.361100X0.022575*%
%ADD219R,0.383800X0.022575*%
%ADD220R,0.383700X0.022575*%
%ADD221R,0.428800X0.022569*%
%ADD222R,0.180600X0.022575*%
%ADD223R,0.316000X0.022581*%
%ADD224R,0.045100X0.022569*%
%ADD225C,0.228600*%
%ADD226C,0.127000*%
%ADD227C,0.200000*%
D10*
X32271Y101924D02*
X25498Y101924D01*
X12527Y103969D02*
X12527Y93809D01*
X12527Y103969D02*
X9705Y103969D01*
X9599Y103967D01*
X9494Y103961D01*
X9389Y103951D01*
X9284Y103937D01*
X9180Y103920D01*
X9077Y103898D01*
X8975Y103873D01*
X8873Y103844D01*
X8773Y103811D01*
X8674Y103774D01*
X8577Y103734D01*
X8481Y103690D01*
X8386Y103642D01*
X8294Y103591D01*
X8204Y103536D01*
X8115Y103479D01*
X8029Y103418D01*
X7946Y103353D01*
X7864Y103286D01*
X7786Y103216D01*
X7710Y103142D01*
X7636Y103066D01*
X7566Y102988D01*
X7499Y102906D01*
X7434Y102823D01*
X7373Y102737D01*
X7316Y102648D01*
X7261Y102558D01*
X7210Y102466D01*
X7162Y102371D01*
X7118Y102275D01*
X7078Y102178D01*
X7041Y102079D01*
X7008Y101979D01*
X6979Y101877D01*
X6954Y101775D01*
X6932Y101672D01*
X6915Y101568D01*
X6901Y101463D01*
X6891Y101358D01*
X6885Y101253D01*
X6883Y101147D01*
X6883Y96632D01*
X6885Y96526D01*
X6891Y96421D01*
X6901Y96316D01*
X6915Y96211D01*
X6932Y96107D01*
X6954Y96004D01*
X6979Y95902D01*
X7008Y95800D01*
X7041Y95700D01*
X7078Y95601D01*
X7118Y95504D01*
X7162Y95408D01*
X7210Y95313D01*
X7261Y95221D01*
X7316Y95131D01*
X7373Y95042D01*
X7434Y94956D01*
X7499Y94873D01*
X7566Y94791D01*
X7636Y94713D01*
X7710Y94637D01*
X7786Y94563D01*
X7864Y94493D01*
X7946Y94426D01*
X8029Y94361D01*
X8115Y94300D01*
X8204Y94243D01*
X8294Y94188D01*
X8386Y94137D01*
X8481Y94089D01*
X8577Y94045D01*
X8674Y94005D01*
X8773Y93968D01*
X8873Y93935D01*
X8975Y93906D01*
X9077Y93881D01*
X9180Y93859D01*
X9284Y93842D01*
X9389Y93828D01*
X9494Y93818D01*
X9599Y93812D01*
X9705Y93810D01*
X9705Y93809D02*
X12527Y93809D01*
X-14948Y101686D02*
X-21721Y101686D01*
X-18335Y105072D02*
X-18335Y98299D01*
D11*
X111450Y-109575D03*
D12*
X111450Y-109350D03*
D13*
X106371Y-109124D03*
D14*
X111337Y-109124D03*
X106371Y-108898D03*
X111337Y-108898D03*
D15*
X106484Y-108672D03*
X111224Y-108672D03*
D16*
X106597Y-108447D03*
D17*
X111224Y-108447D03*
D18*
X106710Y-108221D03*
X110999Y-108221D03*
D19*
X106823Y-107995D03*
D18*
X110999Y-107995D03*
X106936Y-107770D03*
X110999Y-107770D03*
D20*
X107048Y-107544D03*
D18*
X110999Y-107544D03*
D20*
X107048Y-107318D03*
X111111Y-107318D03*
D21*
X107161Y-107092D03*
D22*
X111111Y-107092D03*
D20*
X107048Y-106867D03*
X111337Y-106867D03*
D18*
X106936Y-106641D03*
D23*
X111450Y-106641D03*
D18*
X106936Y-106415D03*
D20*
X111563Y-106415D03*
D19*
X106823Y-106190D03*
D20*
X111788Y-106190D03*
D24*
X106710Y-105964D03*
D22*
X111788Y-105964D03*
D20*
X106597Y-105738D03*
D15*
X111901Y-105738D03*
X106484Y-105512D03*
X111901Y-105512D03*
X106484Y-105287D03*
X111901Y-105287D03*
X106484Y-105061D03*
X111901Y-105061D03*
X106484Y-104835D03*
X111901Y-104835D03*
D16*
X106597Y-104609D03*
X111788Y-104609D03*
D19*
X106823Y-104384D03*
D18*
X111676Y-104384D03*
D19*
X106823Y-104158D03*
D18*
X111676Y-104158D03*
D20*
X107048Y-103932D03*
D15*
X111450Y-103932D03*
D20*
X107274Y-103707D03*
D15*
X111450Y-103707D03*
D22*
X107274Y-103481D03*
D21*
X111450Y-103481D03*
D15*
X107387Y-103255D03*
X111450Y-103255D03*
D20*
X107500Y-103029D03*
D15*
X111450Y-103029D03*
D18*
X107613Y-102804D03*
D20*
X111563Y-102804D03*
D18*
X107613Y-102578D03*
D20*
X111788Y-102578D03*
D15*
X107387Y-102352D03*
D20*
X111788Y-102352D03*
D17*
X107387Y-102127D03*
D16*
X112014Y-102127D03*
D20*
X107274Y-101901D03*
X112240Y-101901D03*
D15*
X107161Y-101675D03*
D20*
X112240Y-101675D03*
D15*
X107161Y-101449D03*
D18*
X112353Y-101449D03*
X106936Y-101224D03*
X112353Y-101224D03*
D25*
X106936Y-100998D03*
X112353Y-100998D03*
D18*
X106936Y-100772D03*
X112353Y-100772D03*
D20*
X107048Y-100547D03*
X112240Y-100547D03*
X107048Y-100321D03*
D23*
X112127Y-100321D03*
X107387Y-100095D03*
D26*
X111450Y-100095D03*
D27*
X109644Y-99869D03*
D28*
X109757Y-99644D03*
D27*
X109870Y-99418D03*
X109870Y-99192D03*
D29*
X110096Y-98967D03*
D30*
X110096Y-98741D03*
D31*
X110209Y-98515D03*
D32*
X110209Y-98289D03*
D33*
X110321Y-98064D03*
D34*
X110321Y-97838D03*
D35*
X110208Y-97612D03*
D36*
X110321Y-97387D03*
D37*
X110209Y-97161D03*
D38*
X110322Y-96935D03*
X110322Y-96709D03*
D39*
X110209Y-96484D03*
D40*
X110321Y-96258D03*
D41*
X110321Y-96032D03*
D40*
X110321Y-95806D03*
X110321Y-95581D03*
X110321Y-95355D03*
X110321Y-95129D03*
X110321Y-94904D03*
D42*
X110321Y-94678D03*
D39*
X110209Y-94452D03*
D38*
X110322Y-94226D03*
X110322Y-94001D03*
D43*
X110209Y-93775D03*
D44*
X110321Y-93549D03*
D36*
X110321Y-93324D03*
D34*
X110321Y-93098D03*
D45*
X110208Y-92872D03*
D33*
X110321Y-92646D03*
D46*
X110322Y-92421D03*
D47*
X110321Y-92195D03*
D27*
X110321Y-91969D03*
D48*
X110322Y-91744D03*
D49*
X110321Y-91518D03*
D50*
X110321Y-91292D03*
D51*
X110321Y-91066D03*
D52*
X115738Y-91066D03*
D53*
X110547Y-90841D03*
X115513Y-90841D03*
D34*
X113255Y-90615D03*
D45*
X113368Y-90389D03*
X113594Y-90164D03*
X113594Y-89938D03*
D54*
X113707Y-89712D03*
D32*
X113820Y-89486D03*
D46*
X113933Y-89261D03*
D55*
X114046Y-89035D03*
D26*
X112353Y-88809D03*
D56*
X116190Y-88809D03*
D57*
X114497Y-88583D03*
D58*
X114046Y-88358D03*
D34*
X113030Y-88132D03*
D59*
X122172Y-88132D03*
D60*
X109531Y-87906D03*
D61*
X121946Y-87906D03*
D62*
X108515Y-87681D03*
D63*
X121607Y-87681D03*
D64*
X108064Y-87455D03*
D30*
X121156Y-87455D03*
D65*
X111901Y-87229D03*
D66*
X111676Y-87003D03*
D67*
X111676Y-86778D03*
D68*
X111563Y-86552D03*
D69*
X100729Y-86326D03*
D70*
X119237Y-86326D03*
D71*
X99713Y-86101D03*
D72*
X116303Y-86101D03*
D73*
X123865Y-86101D03*
D74*
X99148Y-85875D03*
D48*
X115513Y-85875D03*
D23*
X124090Y-85875D03*
D56*
X98810Y-85649D03*
D69*
X114949Y-85649D03*
D23*
X124090Y-85649D03*
D75*
X98471Y-85423D03*
D76*
X114159Y-85423D03*
D20*
X124203Y-85423D03*
D23*
X98358Y-85198D03*
D69*
X113369Y-85198D03*
D20*
X124203Y-85198D03*
D23*
X98358Y-84972D03*
D69*
X112692Y-84972D03*
D23*
X124090Y-84972D03*
D52*
X98358Y-84746D03*
D77*
X111902Y-84746D03*
D22*
X123977Y-84746D03*
D75*
X98471Y-84521D03*
D78*
X111224Y-84521D03*
D23*
X123864Y-84521D03*
X98584Y-84295D03*
D27*
X110547Y-84295D03*
D79*
X123639Y-84295D03*
D56*
X98810Y-84069D03*
D27*
X109644Y-84069D03*
D80*
X123526Y-84069D03*
D59*
X98923Y-83843D03*
D81*
X108741Y-83843D03*
D82*
X123187Y-83843D03*
D83*
X99487Y-83618D03*
D84*
X107726Y-83618D03*
D73*
X122962Y-83618D03*
D85*
X104453Y-83392D03*
D59*
X122623Y-83392D03*
D86*
X104001Y-83166D03*
D87*
X122172Y-83166D03*
D88*
X103776Y-82941D03*
D53*
X121833Y-82941D03*
D89*
X103550Y-82715D03*
D90*
X121269Y-82715D03*
D45*
X103211Y-82489D03*
D61*
X120592Y-82489D03*
D91*
X102873Y-82263D03*
D92*
X120140Y-82263D03*
D93*
X102760Y-82038D03*
D94*
X119237Y-82038D03*
D59*
X102986Y-81812D03*
D27*
X118221Y-81812D03*
D56*
X103550Y-81586D03*
D95*
X117093Y-81586D03*
D96*
X111112Y-81361D03*
D97*
X110547Y-81135D03*
D98*
X109870Y-80909D03*
D99*
X109306Y-80683D03*
D100*
X109193Y-80458D03*
D101*
X109644Y-80232D03*
D102*
X109983Y-80006D03*
D103*
X100390Y-79780D03*
D104*
X115626Y-79780D03*
D105*
X99374Y-79555D03*
D106*
X118899Y-79555D03*
D87*
X98923Y-79329D03*
D38*
X118899Y-79329D03*
D59*
X98697Y-79103D03*
D39*
X118786Y-79103D03*
D56*
X98584Y-78878D03*
D107*
X118673Y-78878D03*
D108*
X98358Y-78652D03*
D109*
X118447Y-78652D03*
D82*
X98358Y-78426D03*
D110*
X117996Y-78426D03*
D56*
X98584Y-78200D03*
D111*
X114497Y-78200D03*
D75*
X122397Y-78200D03*
D59*
X98697Y-77975D03*
D111*
X113820Y-77975D03*
D112*
X122623Y-77975D03*
D26*
X98810Y-77749D03*
D111*
X112917Y-77749D03*
D53*
X99261Y-77523D03*
D63*
X112127Y-77523D03*
D113*
X99938Y-77298D03*
D114*
X110773Y-77298D03*
D115*
X105807Y-77072D03*
D116*
X105807Y-76846D03*
D117*
X105581Y-76620D03*
D118*
X105581Y-76395D03*
D119*
X105468Y-76169D03*
D40*
X105581Y-75943D03*
D120*
X98810Y-92738D02*
X98810Y-100866D01*
X98810Y-92738D02*
X96553Y-92738D01*
X96460Y-92740D01*
X96367Y-92746D01*
X96274Y-92755D01*
X96181Y-92769D01*
X96090Y-92786D01*
X95999Y-92807D01*
X95909Y-92832D01*
X95820Y-92860D01*
X95732Y-92892D01*
X95646Y-92928D01*
X95561Y-92967D01*
X95478Y-93010D01*
X95397Y-93056D01*
X95318Y-93106D01*
X95241Y-93158D01*
X95166Y-93214D01*
X95094Y-93273D01*
X95024Y-93335D01*
X94956Y-93399D01*
X94892Y-93467D01*
X94830Y-93537D01*
X94771Y-93609D01*
X94715Y-93684D01*
X94663Y-93761D01*
X94613Y-93840D01*
X94567Y-93921D01*
X94524Y-94004D01*
X94485Y-94089D01*
X94449Y-94175D01*
X94417Y-94263D01*
X94389Y-94352D01*
X94364Y-94442D01*
X94343Y-94533D01*
X94326Y-94624D01*
X94312Y-94717D01*
X94303Y-94810D01*
X94297Y-94903D01*
X94295Y-94996D01*
X94297Y-95089D01*
X94303Y-95182D01*
X94312Y-95275D01*
X94326Y-95368D01*
X94343Y-95459D01*
X94364Y-95550D01*
X94389Y-95640D01*
X94417Y-95729D01*
X94449Y-95817D01*
X94485Y-95903D01*
X94524Y-95988D01*
X94567Y-96071D01*
X94613Y-96152D01*
X94663Y-96231D01*
X94715Y-96308D01*
X94771Y-96383D01*
X94830Y-96455D01*
X94892Y-96525D01*
X94956Y-96593D01*
X95024Y-96657D01*
X95094Y-96719D01*
X95166Y-96778D01*
X95241Y-96834D01*
X95318Y-96886D01*
X95397Y-96936D01*
X95478Y-96982D01*
X95561Y-97025D01*
X95646Y-97064D01*
X95732Y-97100D01*
X95820Y-97132D01*
X95909Y-97160D01*
X95999Y-97185D01*
X96090Y-97206D01*
X96181Y-97223D01*
X96274Y-97237D01*
X96367Y-97246D01*
X96460Y-97252D01*
X96553Y-97254D01*
X96553Y-97253D02*
X98810Y-97253D01*
X89872Y-100866D02*
X86259Y-100866D01*
X89872Y-100866D02*
X89872Y-92738D01*
X86259Y-92738D01*
X87162Y-96350D02*
X89872Y-96350D01*
X78818Y-96350D02*
X77463Y-96350D01*
X77463Y-100866D01*
X80172Y-100866D01*
X80255Y-100864D01*
X80339Y-100858D01*
X80422Y-100849D01*
X80504Y-100835D01*
X80585Y-100818D01*
X80666Y-100797D01*
X80746Y-100772D01*
X80824Y-100744D01*
X80901Y-100712D01*
X80977Y-100677D01*
X81051Y-100638D01*
X81123Y-100595D01*
X81193Y-100550D01*
X81260Y-100501D01*
X81326Y-100449D01*
X81389Y-100395D01*
X81449Y-100337D01*
X81507Y-100277D01*
X81561Y-100214D01*
X81613Y-100148D01*
X81662Y-100081D01*
X81707Y-100011D01*
X81750Y-99939D01*
X81789Y-99865D01*
X81824Y-99789D01*
X81856Y-99712D01*
X81884Y-99634D01*
X81909Y-99554D01*
X81930Y-99473D01*
X81947Y-99392D01*
X81961Y-99310D01*
X81970Y-99227D01*
X81976Y-99143D01*
X81978Y-99060D01*
X81979Y-99060D02*
X81979Y-94544D01*
X81978Y-94544D02*
X81976Y-94461D01*
X81970Y-94377D01*
X81961Y-94294D01*
X81947Y-94212D01*
X81930Y-94131D01*
X81909Y-94050D01*
X81884Y-93970D01*
X81856Y-93892D01*
X81824Y-93815D01*
X81789Y-93739D01*
X81750Y-93665D01*
X81708Y-93593D01*
X81662Y-93523D01*
X81613Y-93456D01*
X81561Y-93390D01*
X81507Y-93327D01*
X81449Y-93267D01*
X81389Y-93209D01*
X81326Y-93155D01*
X81260Y-93103D01*
X81193Y-93054D01*
X81123Y-93009D01*
X81051Y-92966D01*
X80977Y-92927D01*
X80902Y-92892D01*
X80824Y-92860D01*
X80746Y-92832D01*
X80666Y-92807D01*
X80586Y-92786D01*
X80504Y-92769D01*
X80422Y-92755D01*
X80339Y-92746D01*
X80255Y-92740D01*
X80172Y-92738D01*
X77463Y-92738D01*
X72372Y-97705D02*
X66953Y-97705D01*
X62344Y-99511D02*
X62344Y-92738D01*
X62344Y-99511D02*
X62342Y-99582D01*
X62337Y-99653D01*
X62327Y-99723D01*
X62314Y-99793D01*
X62298Y-99862D01*
X62278Y-99930D01*
X62254Y-99997D01*
X62227Y-100062D01*
X62196Y-100126D01*
X62162Y-100189D01*
X62125Y-100249D01*
X62085Y-100307D01*
X62042Y-100364D01*
X61996Y-100418D01*
X61947Y-100469D01*
X61896Y-100518D01*
X61842Y-100564D01*
X61785Y-100607D01*
X61727Y-100647D01*
X61667Y-100684D01*
X61604Y-100718D01*
X61540Y-100749D01*
X61475Y-100776D01*
X61408Y-100800D01*
X61340Y-100820D01*
X61271Y-100836D01*
X61201Y-100849D01*
X61131Y-100859D01*
X61060Y-100864D01*
X60989Y-100866D01*
X57775Y-100866D02*
X57775Y-95447D01*
X58001Y-93189D02*
X58001Y-92738D01*
X57550Y-92738D01*
X57550Y-93189D01*
X58001Y-93189D01*
X53403Y-95447D02*
X53403Y-103575D01*
X53403Y-95447D02*
X51145Y-95447D01*
X51072Y-95449D01*
X50999Y-95455D01*
X50926Y-95465D01*
X50854Y-95479D01*
X50783Y-95496D01*
X50712Y-95518D01*
X50643Y-95543D01*
X50576Y-95572D01*
X50510Y-95605D01*
X50446Y-95641D01*
X50385Y-95680D01*
X50325Y-95723D01*
X50268Y-95769D01*
X50213Y-95818D01*
X50161Y-95870D01*
X50112Y-95925D01*
X50066Y-95982D01*
X50023Y-96042D01*
X49984Y-96103D01*
X49948Y-96167D01*
X49915Y-96233D01*
X49886Y-96300D01*
X49861Y-96369D01*
X49839Y-96439D01*
X49822Y-96511D01*
X49808Y-96583D01*
X49798Y-96655D01*
X49792Y-96729D01*
X49790Y-96802D01*
X49791Y-96802D02*
X49791Y-99511D01*
X49790Y-99511D02*
X49792Y-99582D01*
X49797Y-99653D01*
X49807Y-99723D01*
X49820Y-99793D01*
X49836Y-99862D01*
X49856Y-99930D01*
X49880Y-99997D01*
X49907Y-100062D01*
X49938Y-100126D01*
X49972Y-100189D01*
X50009Y-100249D01*
X50049Y-100307D01*
X50092Y-100364D01*
X50138Y-100418D01*
X50187Y-100469D01*
X50238Y-100518D01*
X50292Y-100564D01*
X50349Y-100607D01*
X50407Y-100647D01*
X50468Y-100684D01*
X50530Y-100718D01*
X50594Y-100749D01*
X50659Y-100776D01*
X50726Y-100800D01*
X50794Y-100820D01*
X50863Y-100836D01*
X50933Y-100849D01*
X51003Y-100859D01*
X51074Y-100864D01*
X51145Y-100866D01*
X53403Y-100866D01*
X45888Y-100866D02*
X45888Y-95447D01*
X46114Y-93189D02*
X46114Y-92738D01*
X45662Y-92738D01*
X45662Y-93189D01*
X46114Y-93189D01*
X38373Y-92738D02*
X38373Y-100866D01*
X40631Y-100866D01*
X40702Y-100864D01*
X40773Y-100859D01*
X40843Y-100849D01*
X40913Y-100836D01*
X40982Y-100820D01*
X41050Y-100800D01*
X41117Y-100776D01*
X41182Y-100749D01*
X41246Y-100718D01*
X41309Y-100684D01*
X41369Y-100647D01*
X41427Y-100607D01*
X41484Y-100564D01*
X41538Y-100518D01*
X41589Y-100469D01*
X41638Y-100418D01*
X41684Y-100364D01*
X41727Y-100307D01*
X41767Y-100249D01*
X41804Y-100189D01*
X41838Y-100126D01*
X41869Y-100062D01*
X41896Y-99997D01*
X41920Y-99930D01*
X41940Y-99862D01*
X41956Y-99793D01*
X41969Y-99723D01*
X41979Y-99653D01*
X41984Y-99582D01*
X41986Y-99511D01*
X41986Y-96802D01*
X41984Y-96729D01*
X41978Y-96656D01*
X41968Y-96583D01*
X41954Y-96511D01*
X41937Y-96440D01*
X41915Y-96369D01*
X41890Y-96300D01*
X41861Y-96233D01*
X41828Y-96167D01*
X41792Y-96103D01*
X41753Y-96042D01*
X41710Y-95982D01*
X41664Y-95925D01*
X41615Y-95870D01*
X41563Y-95818D01*
X41508Y-95769D01*
X41451Y-95723D01*
X41391Y-95680D01*
X41330Y-95641D01*
X41266Y-95605D01*
X41200Y-95572D01*
X41133Y-95543D01*
X41064Y-95518D01*
X40994Y-95496D01*
X40922Y-95479D01*
X40850Y-95465D01*
X40778Y-95455D01*
X40704Y-95449D01*
X40631Y-95447D01*
X38373Y-95447D01*
X61105Y-120693D02*
X62911Y-120693D01*
X62994Y-120691D01*
X63078Y-120685D01*
X63161Y-120676D01*
X63243Y-120662D01*
X63324Y-120645D01*
X63405Y-120624D01*
X63485Y-120599D01*
X63563Y-120571D01*
X63640Y-120539D01*
X63716Y-120504D01*
X63790Y-120465D01*
X63862Y-120422D01*
X63932Y-120377D01*
X63999Y-120328D01*
X64065Y-120276D01*
X64128Y-120222D01*
X64188Y-120164D01*
X64246Y-120104D01*
X64300Y-120041D01*
X64352Y-119975D01*
X64401Y-119908D01*
X64446Y-119838D01*
X64489Y-119766D01*
X64528Y-119692D01*
X64563Y-119616D01*
X64595Y-119539D01*
X64623Y-119461D01*
X64648Y-119381D01*
X64669Y-119300D01*
X64686Y-119219D01*
X64700Y-119137D01*
X64709Y-119054D01*
X64715Y-118970D01*
X64717Y-118887D01*
X64717Y-114371D01*
X64715Y-114288D01*
X64709Y-114204D01*
X64700Y-114121D01*
X64686Y-114039D01*
X64669Y-113958D01*
X64648Y-113877D01*
X64623Y-113797D01*
X64595Y-113719D01*
X64563Y-113642D01*
X64528Y-113566D01*
X64489Y-113492D01*
X64447Y-113420D01*
X64401Y-113350D01*
X64352Y-113283D01*
X64300Y-113217D01*
X64246Y-113154D01*
X64188Y-113094D01*
X64128Y-113036D01*
X64065Y-112982D01*
X63999Y-112930D01*
X63932Y-112881D01*
X63862Y-112836D01*
X63790Y-112793D01*
X63716Y-112754D01*
X63641Y-112719D01*
X63563Y-112687D01*
X63485Y-112659D01*
X63405Y-112634D01*
X63325Y-112613D01*
X63243Y-112596D01*
X63161Y-112582D01*
X63078Y-112573D01*
X62994Y-112567D01*
X62911Y-112565D01*
X61105Y-112565D01*
X56904Y-112565D02*
X56904Y-120693D01*
X56904Y-115275D02*
X54647Y-115275D01*
X54647Y-115274D02*
X54574Y-115276D01*
X54501Y-115282D01*
X54428Y-115292D01*
X54356Y-115306D01*
X54285Y-115323D01*
X54214Y-115345D01*
X54145Y-115370D01*
X54078Y-115399D01*
X54012Y-115432D01*
X53948Y-115468D01*
X53887Y-115507D01*
X53827Y-115550D01*
X53770Y-115596D01*
X53715Y-115645D01*
X53663Y-115697D01*
X53614Y-115752D01*
X53568Y-115809D01*
X53525Y-115869D01*
X53486Y-115930D01*
X53450Y-115994D01*
X53417Y-116060D01*
X53388Y-116127D01*
X53363Y-116196D01*
X53341Y-116266D01*
X53324Y-116338D01*
X53310Y-116410D01*
X53300Y-116482D01*
X53294Y-116556D01*
X53292Y-116629D01*
X53292Y-120693D01*
X48675Y-118887D02*
X48675Y-117081D01*
X48674Y-117081D02*
X48672Y-116998D01*
X48666Y-116914D01*
X48657Y-116831D01*
X48643Y-116749D01*
X48626Y-116668D01*
X48605Y-116587D01*
X48580Y-116507D01*
X48552Y-116429D01*
X48520Y-116352D01*
X48485Y-116276D01*
X48446Y-116202D01*
X48403Y-116130D01*
X48358Y-116060D01*
X48309Y-115993D01*
X48257Y-115927D01*
X48203Y-115864D01*
X48145Y-115804D01*
X48085Y-115746D01*
X48022Y-115692D01*
X47956Y-115640D01*
X47889Y-115591D01*
X47819Y-115546D01*
X47747Y-115503D01*
X47673Y-115464D01*
X47597Y-115429D01*
X47520Y-115397D01*
X47442Y-115369D01*
X47362Y-115344D01*
X47281Y-115323D01*
X47200Y-115306D01*
X47118Y-115292D01*
X47035Y-115283D01*
X46951Y-115277D01*
X46868Y-115275D01*
X46785Y-115277D01*
X46701Y-115283D01*
X46618Y-115292D01*
X46536Y-115306D01*
X46455Y-115323D01*
X46374Y-115344D01*
X46294Y-115369D01*
X46216Y-115397D01*
X46139Y-115429D01*
X46063Y-115464D01*
X45989Y-115503D01*
X45917Y-115546D01*
X45847Y-115591D01*
X45780Y-115640D01*
X45714Y-115692D01*
X45651Y-115746D01*
X45591Y-115804D01*
X45533Y-115864D01*
X45479Y-115927D01*
X45427Y-115993D01*
X45378Y-116060D01*
X45333Y-116130D01*
X45290Y-116202D01*
X45251Y-116276D01*
X45216Y-116352D01*
X45184Y-116429D01*
X45156Y-116507D01*
X45131Y-116587D01*
X45110Y-116668D01*
X45093Y-116749D01*
X45079Y-116831D01*
X45070Y-116914D01*
X45064Y-116998D01*
X45062Y-117081D01*
X45062Y-118887D01*
X45064Y-118970D01*
X45070Y-119054D01*
X45079Y-119137D01*
X45093Y-119219D01*
X45110Y-119300D01*
X45131Y-119381D01*
X45156Y-119461D01*
X45184Y-119539D01*
X45216Y-119616D01*
X45251Y-119692D01*
X45290Y-119766D01*
X45333Y-119838D01*
X45378Y-119908D01*
X45427Y-119975D01*
X45479Y-120041D01*
X45533Y-120104D01*
X45591Y-120164D01*
X45651Y-120222D01*
X45714Y-120276D01*
X45780Y-120328D01*
X45847Y-120377D01*
X45917Y-120422D01*
X45989Y-120465D01*
X46063Y-120504D01*
X46139Y-120539D01*
X46216Y-120571D01*
X46294Y-120599D01*
X46374Y-120624D01*
X46455Y-120645D01*
X46536Y-120662D01*
X46618Y-120676D01*
X46701Y-120685D01*
X46785Y-120691D01*
X46868Y-120693D01*
X46951Y-120691D01*
X47035Y-120685D01*
X47118Y-120676D01*
X47200Y-120662D01*
X47281Y-120645D01*
X47362Y-120624D01*
X47442Y-120599D01*
X47520Y-120571D01*
X47597Y-120539D01*
X47673Y-120504D01*
X47747Y-120465D01*
X47819Y-120422D01*
X47889Y-120377D01*
X47956Y-120328D01*
X48022Y-120276D01*
X48085Y-120222D01*
X48145Y-120164D01*
X48203Y-120104D01*
X48257Y-120041D01*
X48309Y-119975D01*
X48358Y-119908D01*
X48403Y-119838D01*
X48446Y-119766D01*
X48485Y-119692D01*
X48520Y-119616D01*
X48552Y-119539D01*
X48580Y-119461D01*
X48605Y-119381D01*
X48626Y-119300D01*
X48643Y-119219D01*
X48657Y-119137D01*
X48666Y-119054D01*
X48672Y-118970D01*
X48674Y-118887D01*
X40769Y-119339D02*
X40769Y-112565D01*
X40769Y-119339D02*
X40767Y-119410D01*
X40762Y-119481D01*
X40752Y-119551D01*
X40739Y-119621D01*
X40723Y-119690D01*
X40703Y-119758D01*
X40679Y-119825D01*
X40652Y-119890D01*
X40621Y-119954D01*
X40587Y-120017D01*
X40550Y-120077D01*
X40510Y-120135D01*
X40467Y-120192D01*
X40421Y-120246D01*
X40372Y-120297D01*
X40321Y-120346D01*
X40267Y-120392D01*
X40210Y-120435D01*
X40152Y-120475D01*
X40092Y-120512D01*
X40029Y-120546D01*
X39965Y-120577D01*
X39900Y-120604D01*
X39833Y-120628D01*
X39765Y-120648D01*
X39696Y-120664D01*
X39626Y-120677D01*
X39556Y-120687D01*
X39485Y-120692D01*
X39414Y-120694D01*
X34519Y-120693D02*
X32261Y-120693D01*
X34519Y-120694D02*
X34590Y-120692D01*
X34661Y-120687D01*
X34731Y-120677D01*
X34801Y-120664D01*
X34870Y-120648D01*
X34938Y-120628D01*
X35005Y-120604D01*
X35070Y-120577D01*
X35134Y-120546D01*
X35197Y-120512D01*
X35257Y-120475D01*
X35315Y-120435D01*
X35372Y-120392D01*
X35426Y-120346D01*
X35477Y-120297D01*
X35526Y-120246D01*
X35572Y-120192D01*
X35615Y-120135D01*
X35655Y-120077D01*
X35692Y-120017D01*
X35726Y-119954D01*
X35757Y-119890D01*
X35784Y-119825D01*
X35808Y-119758D01*
X35828Y-119690D01*
X35844Y-119621D01*
X35857Y-119551D01*
X35867Y-119481D01*
X35872Y-119410D01*
X35874Y-119339D01*
X35873Y-119339D02*
X35873Y-117081D01*
X35871Y-116998D01*
X35865Y-116914D01*
X35856Y-116831D01*
X35842Y-116749D01*
X35825Y-116668D01*
X35804Y-116587D01*
X35779Y-116507D01*
X35751Y-116429D01*
X35719Y-116352D01*
X35684Y-116276D01*
X35645Y-116202D01*
X35602Y-116130D01*
X35557Y-116060D01*
X35508Y-115993D01*
X35456Y-115927D01*
X35402Y-115864D01*
X35344Y-115804D01*
X35284Y-115746D01*
X35221Y-115692D01*
X35155Y-115640D01*
X35088Y-115591D01*
X35018Y-115546D01*
X34946Y-115503D01*
X34872Y-115464D01*
X34796Y-115429D01*
X34719Y-115397D01*
X34641Y-115369D01*
X34561Y-115344D01*
X34480Y-115323D01*
X34399Y-115306D01*
X34317Y-115292D01*
X34234Y-115283D01*
X34150Y-115277D01*
X34067Y-115275D01*
X33984Y-115277D01*
X33900Y-115283D01*
X33817Y-115292D01*
X33735Y-115306D01*
X33654Y-115323D01*
X33573Y-115344D01*
X33493Y-115369D01*
X33415Y-115397D01*
X33338Y-115429D01*
X33262Y-115464D01*
X33188Y-115503D01*
X33116Y-115546D01*
X33046Y-115591D01*
X32979Y-115640D01*
X32913Y-115692D01*
X32850Y-115746D01*
X32790Y-115804D01*
X32732Y-115864D01*
X32678Y-115927D01*
X32626Y-115993D01*
X32577Y-116060D01*
X32532Y-116130D01*
X32489Y-116202D01*
X32450Y-116276D01*
X32415Y-116352D01*
X32383Y-116429D01*
X32355Y-116507D01*
X32330Y-116587D01*
X32309Y-116668D01*
X32292Y-116749D01*
X32278Y-116831D01*
X32269Y-116914D01*
X32263Y-116998D01*
X32261Y-117081D01*
X32261Y-117984D01*
X35873Y-117984D01*
X27271Y-117532D02*
X25013Y-118435D01*
X27271Y-117532D02*
X27333Y-117505D01*
X27393Y-117475D01*
X27452Y-117441D01*
X27509Y-117404D01*
X27563Y-117363D01*
X27615Y-117320D01*
X27664Y-117273D01*
X27710Y-117224D01*
X27754Y-117172D01*
X27794Y-117118D01*
X27832Y-117061D01*
X27866Y-117003D01*
X27896Y-116942D01*
X27923Y-116880D01*
X27946Y-116817D01*
X27966Y-116752D01*
X27982Y-116686D01*
X27994Y-116619D01*
X28002Y-116552D01*
X28006Y-116485D01*
X28007Y-116417D01*
X28003Y-116349D01*
X27996Y-116282D01*
X27984Y-116215D01*
X27969Y-116149D01*
X27950Y-116084D01*
X27927Y-116021D01*
X27901Y-115958D01*
X27871Y-115898D01*
X27838Y-115839D01*
X27801Y-115782D01*
X27761Y-115727D01*
X27718Y-115675D01*
X27672Y-115625D01*
X27623Y-115578D01*
X27572Y-115534D01*
X27518Y-115493D01*
X27462Y-115455D01*
X27404Y-115421D01*
X27344Y-115390D01*
X27282Y-115362D01*
X27218Y-115338D01*
X27154Y-115318D01*
X27088Y-115301D01*
X27022Y-115289D01*
X26954Y-115280D01*
X26887Y-115275D01*
X26819Y-115274D01*
X26820Y-115275D02*
X26680Y-115278D01*
X26541Y-115286D01*
X26401Y-115298D01*
X26262Y-115313D01*
X26124Y-115332D01*
X25986Y-115355D01*
X25849Y-115381D01*
X25712Y-115412D01*
X25577Y-115446D01*
X25442Y-115483D01*
X25309Y-115525D01*
X25177Y-115570D01*
X25046Y-115618D01*
X24916Y-115670D01*
X24788Y-115726D01*
X25013Y-118436D02*
X24951Y-118463D01*
X24891Y-118493D01*
X24832Y-118527D01*
X24775Y-118564D01*
X24721Y-118605D01*
X24669Y-118648D01*
X24620Y-118695D01*
X24574Y-118744D01*
X24530Y-118796D01*
X24490Y-118850D01*
X24452Y-118907D01*
X24418Y-118965D01*
X24388Y-119026D01*
X24361Y-119088D01*
X24338Y-119151D01*
X24318Y-119216D01*
X24302Y-119282D01*
X24290Y-119349D01*
X24282Y-119416D01*
X24278Y-119483D01*
X24277Y-119551D01*
X24281Y-119619D01*
X24288Y-119686D01*
X24300Y-119753D01*
X24315Y-119819D01*
X24334Y-119884D01*
X24357Y-119947D01*
X24383Y-120010D01*
X24413Y-120070D01*
X24446Y-120129D01*
X24483Y-120186D01*
X24523Y-120241D01*
X24566Y-120293D01*
X24612Y-120343D01*
X24661Y-120390D01*
X24712Y-120434D01*
X24766Y-120475D01*
X24822Y-120513D01*
X24880Y-120547D01*
X24940Y-120578D01*
X25002Y-120606D01*
X25066Y-120630D01*
X25130Y-120650D01*
X25196Y-120667D01*
X25262Y-120679D01*
X25330Y-120688D01*
X25397Y-120693D01*
X25465Y-120694D01*
X25465Y-120693D02*
X25646Y-120688D01*
X25827Y-120679D01*
X26008Y-120666D01*
X26188Y-120649D01*
X26368Y-120627D01*
X26547Y-120601D01*
X26726Y-120570D01*
X26904Y-120536D01*
X27081Y-120497D01*
X27257Y-120454D01*
X27431Y-120407D01*
X27605Y-120356D01*
X27778Y-120301D01*
X27949Y-120242D01*
X20921Y-115275D02*
X18211Y-115275D01*
X20018Y-112565D02*
X20018Y-119339D01*
X20016Y-119410D01*
X20011Y-119481D01*
X20001Y-119551D01*
X19988Y-119621D01*
X19972Y-119690D01*
X19952Y-119758D01*
X19928Y-119825D01*
X19901Y-119890D01*
X19870Y-119954D01*
X19836Y-120017D01*
X19799Y-120077D01*
X19759Y-120135D01*
X19716Y-120192D01*
X19670Y-120246D01*
X19621Y-120297D01*
X19570Y-120346D01*
X19516Y-120392D01*
X19459Y-120435D01*
X19401Y-120475D01*
X19341Y-120512D01*
X19278Y-120546D01*
X19214Y-120577D01*
X19149Y-120604D01*
X19082Y-120628D01*
X19014Y-120648D01*
X18945Y-120664D01*
X18875Y-120677D01*
X18805Y-120687D01*
X18734Y-120692D01*
X18663Y-120694D01*
X18663Y-120693D02*
X18211Y-120693D01*
X12878Y-120693D02*
X10620Y-120693D01*
X12878Y-120694D02*
X12949Y-120692D01*
X13020Y-120687D01*
X13090Y-120677D01*
X13160Y-120664D01*
X13229Y-120648D01*
X13297Y-120628D01*
X13364Y-120604D01*
X13429Y-120577D01*
X13493Y-120546D01*
X13556Y-120512D01*
X13616Y-120475D01*
X13674Y-120435D01*
X13731Y-120392D01*
X13785Y-120346D01*
X13836Y-120297D01*
X13885Y-120246D01*
X13931Y-120192D01*
X13974Y-120135D01*
X14014Y-120077D01*
X14051Y-120017D01*
X14085Y-119954D01*
X14116Y-119890D01*
X14143Y-119825D01*
X14167Y-119758D01*
X14187Y-119690D01*
X14203Y-119621D01*
X14216Y-119551D01*
X14226Y-119481D01*
X14231Y-119410D01*
X14233Y-119339D01*
X14233Y-117081D01*
X14232Y-117081D02*
X14230Y-116998D01*
X14224Y-116914D01*
X14215Y-116831D01*
X14201Y-116749D01*
X14184Y-116668D01*
X14163Y-116587D01*
X14138Y-116507D01*
X14110Y-116429D01*
X14078Y-116352D01*
X14043Y-116276D01*
X14004Y-116202D01*
X13961Y-116130D01*
X13916Y-116060D01*
X13867Y-115993D01*
X13815Y-115927D01*
X13761Y-115864D01*
X13703Y-115804D01*
X13643Y-115746D01*
X13580Y-115692D01*
X13514Y-115640D01*
X13447Y-115591D01*
X13377Y-115546D01*
X13305Y-115503D01*
X13231Y-115464D01*
X13155Y-115429D01*
X13078Y-115397D01*
X13000Y-115369D01*
X12920Y-115344D01*
X12839Y-115323D01*
X12758Y-115306D01*
X12676Y-115292D01*
X12593Y-115283D01*
X12509Y-115277D01*
X12426Y-115275D01*
X12343Y-115277D01*
X12259Y-115283D01*
X12176Y-115292D01*
X12094Y-115306D01*
X12013Y-115323D01*
X11932Y-115344D01*
X11852Y-115369D01*
X11774Y-115397D01*
X11697Y-115429D01*
X11621Y-115464D01*
X11547Y-115503D01*
X11475Y-115546D01*
X11405Y-115591D01*
X11338Y-115640D01*
X11272Y-115692D01*
X11209Y-115746D01*
X11149Y-115804D01*
X11091Y-115864D01*
X11037Y-115927D01*
X10985Y-115993D01*
X10936Y-116060D01*
X10891Y-116130D01*
X10848Y-116202D01*
X10809Y-116276D01*
X10774Y-116352D01*
X10742Y-116429D01*
X10714Y-116507D01*
X10689Y-116587D01*
X10668Y-116668D01*
X10651Y-116749D01*
X10637Y-116831D01*
X10628Y-116914D01*
X10622Y-116998D01*
X10620Y-117081D01*
X10620Y-117984D01*
X14233Y-117984D01*
X5910Y-120693D02*
X5910Y-115275D01*
X3201Y-115275D01*
X3201Y-116178D01*
X-93Y-117081D02*
X-93Y-118887D01*
X-93Y-117081D02*
X-95Y-116998D01*
X-101Y-116914D01*
X-110Y-116831D01*
X-124Y-116749D01*
X-141Y-116668D01*
X-162Y-116587D01*
X-187Y-116507D01*
X-215Y-116429D01*
X-247Y-116352D01*
X-282Y-116276D01*
X-321Y-116202D01*
X-364Y-116130D01*
X-409Y-116060D01*
X-458Y-115993D01*
X-510Y-115927D01*
X-564Y-115864D01*
X-622Y-115804D01*
X-682Y-115746D01*
X-745Y-115692D01*
X-811Y-115640D01*
X-878Y-115591D01*
X-948Y-115546D01*
X-1020Y-115503D01*
X-1094Y-115464D01*
X-1170Y-115429D01*
X-1247Y-115397D01*
X-1325Y-115369D01*
X-1405Y-115344D01*
X-1486Y-115323D01*
X-1567Y-115306D01*
X-1649Y-115292D01*
X-1732Y-115283D01*
X-1816Y-115277D01*
X-1899Y-115275D01*
X-1982Y-115277D01*
X-2066Y-115283D01*
X-2149Y-115292D01*
X-2231Y-115306D01*
X-2312Y-115323D01*
X-2393Y-115344D01*
X-2473Y-115369D01*
X-2551Y-115397D01*
X-2628Y-115429D01*
X-2704Y-115464D01*
X-2778Y-115503D01*
X-2850Y-115546D01*
X-2920Y-115591D01*
X-2987Y-115640D01*
X-3053Y-115692D01*
X-3116Y-115746D01*
X-3176Y-115804D01*
X-3234Y-115864D01*
X-3288Y-115927D01*
X-3340Y-115993D01*
X-3389Y-116060D01*
X-3434Y-116130D01*
X-3477Y-116202D01*
X-3516Y-116276D01*
X-3551Y-116352D01*
X-3583Y-116429D01*
X-3611Y-116507D01*
X-3636Y-116587D01*
X-3657Y-116668D01*
X-3674Y-116749D01*
X-3688Y-116831D01*
X-3697Y-116914D01*
X-3703Y-116998D01*
X-3705Y-117081D01*
X-3705Y-118887D01*
X-3703Y-118970D01*
X-3697Y-119054D01*
X-3688Y-119137D01*
X-3674Y-119219D01*
X-3657Y-119300D01*
X-3636Y-119381D01*
X-3611Y-119461D01*
X-3583Y-119539D01*
X-3551Y-119616D01*
X-3516Y-119692D01*
X-3477Y-119766D01*
X-3434Y-119838D01*
X-3389Y-119908D01*
X-3340Y-119975D01*
X-3288Y-120041D01*
X-3234Y-120104D01*
X-3176Y-120164D01*
X-3116Y-120222D01*
X-3053Y-120276D01*
X-2987Y-120328D01*
X-2920Y-120377D01*
X-2850Y-120422D01*
X-2778Y-120465D01*
X-2704Y-120504D01*
X-2628Y-120539D01*
X-2551Y-120571D01*
X-2473Y-120599D01*
X-2393Y-120624D01*
X-2312Y-120645D01*
X-2231Y-120662D01*
X-2149Y-120676D01*
X-2066Y-120685D01*
X-1982Y-120691D01*
X-1899Y-120693D01*
X-1816Y-120691D01*
X-1732Y-120685D01*
X-1649Y-120676D01*
X-1567Y-120662D01*
X-1486Y-120645D01*
X-1405Y-120624D01*
X-1325Y-120599D01*
X-1247Y-120571D01*
X-1170Y-120539D01*
X-1094Y-120504D01*
X-1020Y-120465D01*
X-948Y-120422D01*
X-878Y-120377D01*
X-811Y-120328D01*
X-745Y-120276D01*
X-682Y-120222D01*
X-622Y-120164D01*
X-564Y-120104D01*
X-510Y-120041D01*
X-458Y-119975D01*
X-409Y-119908D01*
X-364Y-119838D01*
X-321Y-119766D01*
X-282Y-119692D01*
X-247Y-119616D01*
X-215Y-119539D01*
X-187Y-119461D01*
X-162Y-119381D01*
X-141Y-119300D01*
X-124Y-119219D01*
X-110Y-119137D01*
X-101Y-119054D01*
X-95Y-118970D01*
X-93Y-118887D01*
X-7999Y-119339D02*
X-7999Y-112565D01*
X-7998Y-119339D02*
X-8000Y-119410D01*
X-8005Y-119481D01*
X-8015Y-119551D01*
X-8028Y-119621D01*
X-8044Y-119690D01*
X-8064Y-119758D01*
X-8088Y-119825D01*
X-8115Y-119890D01*
X-8146Y-119954D01*
X-8180Y-120017D01*
X-8217Y-120077D01*
X-8257Y-120135D01*
X-8300Y-120192D01*
X-8346Y-120246D01*
X-8395Y-120297D01*
X-8446Y-120346D01*
X-8500Y-120392D01*
X-8557Y-120435D01*
X-8615Y-120475D01*
X-8676Y-120512D01*
X-8738Y-120546D01*
X-8802Y-120577D01*
X-8867Y-120604D01*
X-8934Y-120628D01*
X-9002Y-120648D01*
X-9071Y-120664D01*
X-9141Y-120677D01*
X-9211Y-120687D01*
X-9282Y-120692D01*
X-9353Y-120694D01*
X20476Y-143916D02*
X20476Y-152044D01*
X20476Y-143916D02*
X18219Y-143916D01*
X18126Y-143918D01*
X18033Y-143924D01*
X17940Y-143933D01*
X17847Y-143947D01*
X17756Y-143964D01*
X17665Y-143985D01*
X17575Y-144010D01*
X17486Y-144038D01*
X17398Y-144070D01*
X17312Y-144106D01*
X17227Y-144145D01*
X17144Y-144188D01*
X17063Y-144234D01*
X16984Y-144284D01*
X16907Y-144336D01*
X16832Y-144392D01*
X16760Y-144451D01*
X16690Y-144513D01*
X16622Y-144577D01*
X16558Y-144645D01*
X16496Y-144715D01*
X16437Y-144787D01*
X16381Y-144862D01*
X16329Y-144939D01*
X16279Y-145018D01*
X16233Y-145099D01*
X16190Y-145182D01*
X16151Y-145267D01*
X16115Y-145353D01*
X16083Y-145441D01*
X16055Y-145530D01*
X16030Y-145620D01*
X16009Y-145711D01*
X15992Y-145802D01*
X15978Y-145895D01*
X15969Y-145988D01*
X15963Y-146081D01*
X15961Y-146174D01*
X15961Y-149786D01*
X15963Y-149879D01*
X15969Y-149972D01*
X15978Y-150065D01*
X15992Y-150158D01*
X16009Y-150249D01*
X16030Y-150340D01*
X16055Y-150430D01*
X16083Y-150519D01*
X16115Y-150607D01*
X16151Y-150693D01*
X16190Y-150778D01*
X16233Y-150861D01*
X16279Y-150942D01*
X16329Y-151021D01*
X16381Y-151098D01*
X16437Y-151173D01*
X16496Y-151245D01*
X16558Y-151315D01*
X16622Y-151383D01*
X16690Y-151447D01*
X16760Y-151509D01*
X16832Y-151568D01*
X16907Y-151624D01*
X16984Y-151676D01*
X17063Y-151726D01*
X17144Y-151772D01*
X17227Y-151815D01*
X17312Y-151854D01*
X17398Y-151890D01*
X17486Y-151922D01*
X17575Y-151950D01*
X17665Y-151975D01*
X17756Y-151996D01*
X17847Y-152013D01*
X17940Y-152027D01*
X18033Y-152036D01*
X18126Y-152042D01*
X18219Y-152044D01*
X20476Y-152044D01*
X8623Y-152044D02*
X8540Y-152042D01*
X8456Y-152036D01*
X8374Y-152027D01*
X8291Y-152013D01*
X8210Y-151996D01*
X8129Y-151975D01*
X8049Y-151950D01*
X7971Y-151922D01*
X7894Y-151890D01*
X7818Y-151855D01*
X7744Y-151816D01*
X7672Y-151774D01*
X7602Y-151728D01*
X7535Y-151679D01*
X7469Y-151627D01*
X7406Y-151573D01*
X7346Y-151515D01*
X7288Y-151455D01*
X7234Y-151392D01*
X7182Y-151326D01*
X7133Y-151259D01*
X7088Y-151189D01*
X7045Y-151117D01*
X7006Y-151043D01*
X6971Y-150967D01*
X6939Y-150890D01*
X6911Y-150812D01*
X6886Y-150732D01*
X6865Y-150651D01*
X6848Y-150570D01*
X6834Y-150488D01*
X6825Y-150405D01*
X6819Y-150321D01*
X6817Y-150238D01*
X8623Y-152044D02*
X8744Y-152042D01*
X8864Y-152036D01*
X8984Y-152027D01*
X9104Y-152014D01*
X9223Y-151997D01*
X9342Y-151976D01*
X9460Y-151951D01*
X9577Y-151923D01*
X9693Y-151891D01*
X9808Y-151855D01*
X9922Y-151816D01*
X10035Y-151773D01*
X10146Y-151727D01*
X10256Y-151677D01*
X10364Y-151624D01*
X10470Y-151567D01*
X10575Y-151507D01*
X10677Y-151444D01*
X10778Y-151377D01*
X10876Y-151308D01*
X10972Y-151235D01*
X11066Y-151159D01*
X11158Y-151081D01*
X11246Y-150999D01*
X11333Y-150915D01*
X11106Y-145722D02*
X11104Y-145639D01*
X11098Y-145555D01*
X11089Y-145472D01*
X11075Y-145390D01*
X11058Y-145309D01*
X11037Y-145228D01*
X11012Y-145148D01*
X10984Y-145070D01*
X10952Y-144993D01*
X10917Y-144917D01*
X10878Y-144843D01*
X10835Y-144771D01*
X10790Y-144701D01*
X10741Y-144634D01*
X10689Y-144568D01*
X10635Y-144505D01*
X10577Y-144445D01*
X10517Y-144387D01*
X10454Y-144333D01*
X10388Y-144281D01*
X10321Y-144232D01*
X10251Y-144187D01*
X10179Y-144144D01*
X10105Y-144105D01*
X10029Y-144070D01*
X9952Y-144038D01*
X9874Y-144010D01*
X9794Y-143985D01*
X9713Y-143964D01*
X9632Y-143947D01*
X9550Y-143933D01*
X9467Y-143924D01*
X9383Y-143918D01*
X9300Y-143916D01*
X9185Y-143918D01*
X9071Y-143924D01*
X8956Y-143933D01*
X8843Y-143947D01*
X8729Y-143964D01*
X8616Y-143986D01*
X8505Y-144011D01*
X8393Y-144040D01*
X8283Y-144072D01*
X8175Y-144108D01*
X8067Y-144148D01*
X7961Y-144192D01*
X7856Y-144239D01*
X7754Y-144290D01*
X7652Y-144344D01*
X7553Y-144401D01*
X7456Y-144462D01*
X7361Y-144526D01*
X7268Y-144593D01*
X10203Y-147302D02*
X10273Y-147258D01*
X10342Y-147212D01*
X10408Y-147162D01*
X10472Y-147109D01*
X10533Y-147054D01*
X10592Y-146995D01*
X10648Y-146934D01*
X10701Y-146871D01*
X10752Y-146805D01*
X10799Y-146738D01*
X10843Y-146668D01*
X10884Y-146596D01*
X10922Y-146522D01*
X10957Y-146447D01*
X10988Y-146370D01*
X11015Y-146292D01*
X11039Y-146213D01*
X11059Y-146132D01*
X11076Y-146051D01*
X11089Y-145970D01*
X11099Y-145887D01*
X11104Y-145805D01*
X11106Y-145722D01*
X7720Y-148658D02*
X7650Y-148702D01*
X7581Y-148748D01*
X7515Y-148798D01*
X7451Y-148851D01*
X7390Y-148906D01*
X7331Y-148965D01*
X7275Y-149026D01*
X7222Y-149089D01*
X7171Y-149155D01*
X7124Y-149222D01*
X7080Y-149292D01*
X7039Y-149364D01*
X7001Y-149438D01*
X6966Y-149513D01*
X6935Y-149590D01*
X6908Y-149668D01*
X6884Y-149747D01*
X6864Y-149828D01*
X6847Y-149909D01*
X6834Y-149990D01*
X6824Y-150073D01*
X6819Y-150155D01*
X6817Y-150238D01*
X7720Y-148657D02*
X10203Y-147303D01*
X1951Y-143916D02*
X1951Y-152044D01*
X1951Y-143916D02*
X-306Y-143916D01*
X-399Y-143918D01*
X-492Y-143924D01*
X-585Y-143933D01*
X-678Y-143947D01*
X-769Y-143964D01*
X-860Y-143985D01*
X-950Y-144010D01*
X-1039Y-144038D01*
X-1127Y-144070D01*
X-1213Y-144106D01*
X-1298Y-144145D01*
X-1381Y-144188D01*
X-1462Y-144234D01*
X-1541Y-144284D01*
X-1618Y-144336D01*
X-1693Y-144392D01*
X-1765Y-144451D01*
X-1835Y-144513D01*
X-1903Y-144577D01*
X-1967Y-144645D01*
X-2029Y-144715D01*
X-2088Y-144787D01*
X-2144Y-144862D01*
X-2196Y-144939D01*
X-2246Y-145018D01*
X-2292Y-145099D01*
X-2335Y-145182D01*
X-2374Y-145267D01*
X-2410Y-145353D01*
X-2442Y-145441D01*
X-2470Y-145530D01*
X-2495Y-145620D01*
X-2516Y-145711D01*
X-2533Y-145802D01*
X-2547Y-145895D01*
X-2556Y-145988D01*
X-2562Y-146081D01*
X-2564Y-146174D01*
X-2562Y-146267D01*
X-2556Y-146360D01*
X-2547Y-146453D01*
X-2533Y-146546D01*
X-2516Y-146637D01*
X-2495Y-146728D01*
X-2470Y-146818D01*
X-2442Y-146907D01*
X-2410Y-146995D01*
X-2374Y-147081D01*
X-2335Y-147166D01*
X-2292Y-147249D01*
X-2246Y-147330D01*
X-2196Y-147409D01*
X-2144Y-147486D01*
X-2088Y-147561D01*
X-2029Y-147633D01*
X-1967Y-147703D01*
X-1903Y-147771D01*
X-1835Y-147835D01*
X-1765Y-147897D01*
X-1693Y-147956D01*
X-1618Y-148012D01*
X-1541Y-148064D01*
X-1462Y-148114D01*
X-1381Y-148160D01*
X-1298Y-148203D01*
X-1213Y-148242D01*
X-1127Y-148278D01*
X-1039Y-148310D01*
X-950Y-148338D01*
X-860Y-148363D01*
X-769Y-148384D01*
X-678Y-148401D01*
X-585Y-148415D01*
X-492Y-148424D01*
X-399Y-148430D01*
X-306Y-148432D01*
X-306Y-148431D02*
X1951Y-148431D01*
X-8411Y-152044D02*
X-10217Y-152044D01*
X-8411Y-152044D02*
X-8328Y-152042D01*
X-8244Y-152036D01*
X-8161Y-152027D01*
X-8079Y-152013D01*
X-7998Y-151996D01*
X-7917Y-151975D01*
X-7837Y-151950D01*
X-7759Y-151922D01*
X-7682Y-151890D01*
X-7606Y-151855D01*
X-7532Y-151816D01*
X-7460Y-151773D01*
X-7390Y-151728D01*
X-7323Y-151679D01*
X-7257Y-151627D01*
X-7194Y-151573D01*
X-7134Y-151515D01*
X-7076Y-151455D01*
X-7022Y-151392D01*
X-6970Y-151326D01*
X-6921Y-151259D01*
X-6876Y-151189D01*
X-6833Y-151117D01*
X-6794Y-151043D01*
X-6759Y-150968D01*
X-6727Y-150890D01*
X-6699Y-150812D01*
X-6674Y-150732D01*
X-6653Y-150652D01*
X-6636Y-150570D01*
X-6622Y-150488D01*
X-6613Y-150405D01*
X-6607Y-150321D01*
X-6605Y-150238D01*
X-6604Y-150238D02*
X-6604Y-145722D01*
X-6605Y-145722D02*
X-6607Y-145639D01*
X-6613Y-145555D01*
X-6622Y-145472D01*
X-6636Y-145390D01*
X-6653Y-145309D01*
X-6674Y-145228D01*
X-6699Y-145148D01*
X-6727Y-145070D01*
X-6759Y-144993D01*
X-6794Y-144917D01*
X-6833Y-144843D01*
X-6876Y-144771D01*
X-6921Y-144701D01*
X-6970Y-144634D01*
X-7022Y-144568D01*
X-7076Y-144505D01*
X-7134Y-144445D01*
X-7194Y-144387D01*
X-7257Y-144333D01*
X-7323Y-144281D01*
X-7390Y-144232D01*
X-7460Y-144187D01*
X-7532Y-144144D01*
X-7606Y-144105D01*
X-7681Y-144070D01*
X-7759Y-144038D01*
X-7837Y-144010D01*
X-7917Y-143985D01*
X-7997Y-143964D01*
X-8079Y-143947D01*
X-8161Y-143933D01*
X-8244Y-143924D01*
X-8328Y-143918D01*
X-8411Y-143916D01*
X-10217Y-143916D01*
X12993Y-133475D02*
X12993Y-128056D01*
X13218Y-125798D02*
X13218Y-125347D01*
X12767Y-125347D01*
X12767Y-125798D01*
X13218Y-125798D01*
X9008Y-129862D02*
X9008Y-131669D01*
X9007Y-129862D02*
X9005Y-129779D01*
X8999Y-129695D01*
X8990Y-129612D01*
X8976Y-129530D01*
X8959Y-129449D01*
X8938Y-129368D01*
X8913Y-129288D01*
X8885Y-129210D01*
X8853Y-129133D01*
X8818Y-129057D01*
X8779Y-128983D01*
X8736Y-128911D01*
X8691Y-128841D01*
X8642Y-128774D01*
X8590Y-128708D01*
X8536Y-128645D01*
X8478Y-128585D01*
X8418Y-128527D01*
X8355Y-128473D01*
X8289Y-128421D01*
X8222Y-128372D01*
X8152Y-128327D01*
X8080Y-128284D01*
X8006Y-128245D01*
X7930Y-128210D01*
X7853Y-128178D01*
X7775Y-128150D01*
X7695Y-128125D01*
X7614Y-128104D01*
X7533Y-128087D01*
X7451Y-128073D01*
X7368Y-128064D01*
X7284Y-128058D01*
X7201Y-128056D01*
X7118Y-128058D01*
X7034Y-128064D01*
X6951Y-128073D01*
X6869Y-128087D01*
X6788Y-128104D01*
X6707Y-128125D01*
X6627Y-128150D01*
X6549Y-128178D01*
X6472Y-128210D01*
X6396Y-128245D01*
X6322Y-128284D01*
X6250Y-128327D01*
X6180Y-128372D01*
X6113Y-128421D01*
X6047Y-128473D01*
X5984Y-128527D01*
X5924Y-128585D01*
X5866Y-128645D01*
X5812Y-128708D01*
X5760Y-128774D01*
X5711Y-128841D01*
X5666Y-128911D01*
X5623Y-128983D01*
X5584Y-129057D01*
X5549Y-129133D01*
X5517Y-129210D01*
X5489Y-129288D01*
X5464Y-129368D01*
X5443Y-129449D01*
X5426Y-129530D01*
X5412Y-129612D01*
X5403Y-129695D01*
X5397Y-129779D01*
X5395Y-129862D01*
X5395Y-131669D01*
X5397Y-131752D01*
X5403Y-131836D01*
X5412Y-131919D01*
X5426Y-132001D01*
X5443Y-132082D01*
X5464Y-132163D01*
X5489Y-132243D01*
X5517Y-132321D01*
X5549Y-132398D01*
X5584Y-132474D01*
X5623Y-132548D01*
X5666Y-132620D01*
X5711Y-132690D01*
X5760Y-132757D01*
X5812Y-132823D01*
X5866Y-132886D01*
X5924Y-132946D01*
X5984Y-133004D01*
X6047Y-133058D01*
X6113Y-133110D01*
X6180Y-133159D01*
X6250Y-133204D01*
X6322Y-133247D01*
X6396Y-133286D01*
X6472Y-133321D01*
X6549Y-133353D01*
X6627Y-133381D01*
X6707Y-133406D01*
X6788Y-133427D01*
X6869Y-133444D01*
X6951Y-133458D01*
X7034Y-133467D01*
X7118Y-133473D01*
X7201Y-133475D01*
X7284Y-133473D01*
X7368Y-133467D01*
X7451Y-133458D01*
X7533Y-133444D01*
X7614Y-133427D01*
X7695Y-133406D01*
X7775Y-133381D01*
X7853Y-133353D01*
X7930Y-133321D01*
X8006Y-133286D01*
X8080Y-133247D01*
X8152Y-133204D01*
X8222Y-133159D01*
X8289Y-133110D01*
X8355Y-133058D01*
X8418Y-133004D01*
X8478Y-132946D01*
X8536Y-132886D01*
X8590Y-132823D01*
X8642Y-132757D01*
X8691Y-132690D01*
X8736Y-132620D01*
X8779Y-132548D01*
X8818Y-132474D01*
X8853Y-132398D01*
X8885Y-132321D01*
X8913Y-132243D01*
X8938Y-132163D01*
X8959Y-132082D01*
X8976Y-132001D01*
X8990Y-131919D01*
X8999Y-131836D01*
X9005Y-131752D01*
X9007Y-131669D01*
X778Y-133475D02*
X778Y-128056D01*
X-1480Y-128056D01*
X-1553Y-128058D01*
X-1626Y-128064D01*
X-1699Y-128074D01*
X-1771Y-128088D01*
X-1842Y-128105D01*
X-1913Y-128127D01*
X-1982Y-128152D01*
X-2049Y-128181D01*
X-2115Y-128214D01*
X-2179Y-128250D01*
X-2240Y-128289D01*
X-2300Y-128332D01*
X-2357Y-128378D01*
X-2412Y-128427D01*
X-2464Y-128479D01*
X-2513Y-128534D01*
X-2559Y-128591D01*
X-2602Y-128651D01*
X-2641Y-128712D01*
X-2677Y-128776D01*
X-2710Y-128842D01*
X-2739Y-128909D01*
X-2764Y-128978D01*
X-2786Y-129048D01*
X-2803Y-129120D01*
X-2817Y-129192D01*
X-2827Y-129264D01*
X-2833Y-129338D01*
X-2835Y-129411D01*
X-2834Y-129411D02*
X-2834Y-133475D01*
X-7124Y-133475D02*
X-7124Y-128056D01*
X-6898Y-125798D02*
X-6898Y-125347D01*
X-7350Y-125347D01*
X-7350Y-125798D01*
X-6898Y-125798D01*
X-10804Y-128056D02*
X-14417Y-128056D01*
X-10804Y-133475D01*
X-14417Y-133475D01*
X-19779Y-133475D02*
X-22037Y-133475D01*
X-19779Y-133475D02*
X-19706Y-133473D01*
X-19633Y-133467D01*
X-19560Y-133457D01*
X-19488Y-133443D01*
X-19417Y-133426D01*
X-19346Y-133404D01*
X-19277Y-133379D01*
X-19210Y-133350D01*
X-19144Y-133317D01*
X-19080Y-133281D01*
X-19019Y-133242D01*
X-18959Y-133199D01*
X-18902Y-133153D01*
X-18847Y-133104D01*
X-18795Y-133052D01*
X-18746Y-132997D01*
X-18700Y-132940D01*
X-18657Y-132880D01*
X-18618Y-132819D01*
X-18582Y-132755D01*
X-18549Y-132689D01*
X-18520Y-132622D01*
X-18495Y-132553D01*
X-18473Y-132483D01*
X-18456Y-132411D01*
X-18442Y-132339D01*
X-18432Y-132267D01*
X-18426Y-132193D01*
X-18424Y-132120D01*
X-18424Y-129862D01*
X-18425Y-129862D02*
X-18427Y-129779D01*
X-18433Y-129695D01*
X-18442Y-129612D01*
X-18456Y-129530D01*
X-18473Y-129449D01*
X-18494Y-129368D01*
X-18519Y-129288D01*
X-18547Y-129210D01*
X-18579Y-129133D01*
X-18614Y-129057D01*
X-18653Y-128983D01*
X-18696Y-128911D01*
X-18741Y-128841D01*
X-18790Y-128774D01*
X-18842Y-128708D01*
X-18896Y-128645D01*
X-18954Y-128585D01*
X-19014Y-128527D01*
X-19077Y-128473D01*
X-19143Y-128421D01*
X-19210Y-128372D01*
X-19280Y-128327D01*
X-19352Y-128284D01*
X-19426Y-128245D01*
X-19502Y-128210D01*
X-19579Y-128178D01*
X-19657Y-128150D01*
X-19737Y-128125D01*
X-19818Y-128104D01*
X-19899Y-128087D01*
X-19981Y-128073D01*
X-20064Y-128064D01*
X-20148Y-128058D01*
X-20231Y-128056D01*
X-20314Y-128058D01*
X-20398Y-128064D01*
X-20481Y-128073D01*
X-20563Y-128087D01*
X-20644Y-128104D01*
X-20725Y-128125D01*
X-20805Y-128150D01*
X-20883Y-128178D01*
X-20960Y-128210D01*
X-21036Y-128245D01*
X-21110Y-128284D01*
X-21182Y-128327D01*
X-21252Y-128372D01*
X-21319Y-128421D01*
X-21385Y-128473D01*
X-21448Y-128527D01*
X-21508Y-128585D01*
X-21566Y-128645D01*
X-21620Y-128708D01*
X-21672Y-128774D01*
X-21721Y-128841D01*
X-21766Y-128911D01*
X-21809Y-128983D01*
X-21848Y-129057D01*
X-21883Y-129133D01*
X-21915Y-129210D01*
X-21943Y-129288D01*
X-21968Y-129368D01*
X-21989Y-129449D01*
X-22006Y-129530D01*
X-22020Y-129612D01*
X-22029Y-129695D01*
X-22035Y-129779D01*
X-22037Y-129862D01*
X-22037Y-130766D01*
X-18424Y-130766D01*
X-29879Y-133475D02*
X-29879Y-125347D01*
X-29879Y-133475D02*
X-27621Y-133475D01*
X-27548Y-133473D01*
X-27475Y-133467D01*
X-27402Y-133457D01*
X-27330Y-133443D01*
X-27259Y-133426D01*
X-27188Y-133404D01*
X-27119Y-133379D01*
X-27052Y-133350D01*
X-26986Y-133317D01*
X-26922Y-133281D01*
X-26861Y-133242D01*
X-26801Y-133199D01*
X-26744Y-133153D01*
X-26689Y-133104D01*
X-26637Y-133052D01*
X-26588Y-132997D01*
X-26542Y-132940D01*
X-26499Y-132880D01*
X-26460Y-132819D01*
X-26424Y-132755D01*
X-26391Y-132689D01*
X-26362Y-132622D01*
X-26337Y-132553D01*
X-26315Y-132483D01*
X-26298Y-132411D01*
X-26284Y-132339D01*
X-26274Y-132267D01*
X-26268Y-132193D01*
X-26266Y-132120D01*
X-26267Y-132120D02*
X-26267Y-129411D01*
X-26266Y-129411D02*
X-26268Y-129340D01*
X-26273Y-129269D01*
X-26283Y-129199D01*
X-26296Y-129129D01*
X-26312Y-129060D01*
X-26332Y-128992D01*
X-26356Y-128925D01*
X-26383Y-128860D01*
X-26414Y-128796D01*
X-26448Y-128734D01*
X-26485Y-128673D01*
X-26525Y-128615D01*
X-26568Y-128558D01*
X-26614Y-128504D01*
X-26663Y-128453D01*
X-26714Y-128404D01*
X-26768Y-128358D01*
X-26825Y-128315D01*
X-26883Y-128275D01*
X-26944Y-128238D01*
X-27006Y-128204D01*
X-27070Y-128173D01*
X-27135Y-128146D01*
X-27202Y-128122D01*
X-27270Y-128102D01*
X-27339Y-128086D01*
X-27409Y-128073D01*
X-27479Y-128063D01*
X-27550Y-128058D01*
X-27621Y-128056D01*
X-29879Y-128056D01*
X-39436Y-125347D02*
X-39436Y-132120D01*
X-39438Y-132191D01*
X-39443Y-132262D01*
X-39453Y-132332D01*
X-39466Y-132402D01*
X-39482Y-132471D01*
X-39502Y-132539D01*
X-39526Y-132606D01*
X-39553Y-132671D01*
X-39584Y-132735D01*
X-39618Y-132798D01*
X-39655Y-132858D01*
X-39695Y-132916D01*
X-39738Y-132973D01*
X-39784Y-133027D01*
X-39833Y-133078D01*
X-39884Y-133127D01*
X-39938Y-133173D01*
X-39995Y-133216D01*
X-40053Y-133256D01*
X-40114Y-133293D01*
X-40176Y-133327D01*
X-40240Y-133358D01*
X-40305Y-133385D01*
X-40372Y-133409D01*
X-40440Y-133429D01*
X-40509Y-133445D01*
X-40579Y-133458D01*
X-40649Y-133468D01*
X-40720Y-133473D01*
X-40791Y-133475D01*
X-44005Y-133475D02*
X-44005Y-128056D01*
X-43779Y-125798D02*
X-43779Y-125347D01*
X-44231Y-125347D01*
X-44231Y-125798D01*
X-43779Y-125798D01*
X-48377Y-128056D02*
X-48377Y-136184D01*
X-48377Y-128056D02*
X-50635Y-128056D01*
X-50708Y-128058D01*
X-50781Y-128064D01*
X-50854Y-128074D01*
X-50926Y-128088D01*
X-50997Y-128105D01*
X-51068Y-128127D01*
X-51137Y-128152D01*
X-51204Y-128181D01*
X-51270Y-128214D01*
X-51334Y-128250D01*
X-51395Y-128289D01*
X-51455Y-128332D01*
X-51512Y-128378D01*
X-51567Y-128427D01*
X-51619Y-128479D01*
X-51668Y-128534D01*
X-51714Y-128591D01*
X-51757Y-128651D01*
X-51796Y-128712D01*
X-51832Y-128776D01*
X-51865Y-128842D01*
X-51894Y-128909D01*
X-51919Y-128978D01*
X-51941Y-129048D01*
X-51958Y-129120D01*
X-51972Y-129192D01*
X-51982Y-129264D01*
X-51988Y-129338D01*
X-51990Y-129411D01*
X-51989Y-129411D02*
X-51989Y-132120D01*
X-51990Y-132120D02*
X-51988Y-132191D01*
X-51983Y-132262D01*
X-51973Y-132332D01*
X-51960Y-132402D01*
X-51944Y-132471D01*
X-51924Y-132539D01*
X-51900Y-132606D01*
X-51873Y-132671D01*
X-51842Y-132735D01*
X-51808Y-132798D01*
X-51771Y-132858D01*
X-51731Y-132916D01*
X-51688Y-132973D01*
X-51642Y-133027D01*
X-51593Y-133078D01*
X-51542Y-133127D01*
X-51488Y-133173D01*
X-51431Y-133216D01*
X-51373Y-133256D01*
X-51312Y-133293D01*
X-51250Y-133327D01*
X-51186Y-133358D01*
X-51121Y-133385D01*
X-51054Y-133409D01*
X-50986Y-133429D01*
X-50917Y-133445D01*
X-50847Y-133458D01*
X-50777Y-133468D01*
X-50706Y-133473D01*
X-50635Y-133475D01*
X-48377Y-133475D01*
X-55892Y-133475D02*
X-55892Y-128056D01*
X-55666Y-125798D02*
X-55666Y-125347D01*
X-56118Y-125347D01*
X-56118Y-125798D01*
X-55666Y-125798D01*
X-63407Y-125347D02*
X-63407Y-133475D01*
X-61149Y-133475D01*
X-61076Y-133473D01*
X-61003Y-133467D01*
X-60930Y-133457D01*
X-60858Y-133443D01*
X-60787Y-133426D01*
X-60716Y-133404D01*
X-60647Y-133379D01*
X-60580Y-133350D01*
X-60514Y-133317D01*
X-60450Y-133281D01*
X-60389Y-133242D01*
X-60329Y-133199D01*
X-60272Y-133153D01*
X-60217Y-133104D01*
X-60165Y-133052D01*
X-60116Y-132997D01*
X-60070Y-132940D01*
X-60027Y-132880D01*
X-59988Y-132819D01*
X-59952Y-132755D01*
X-59919Y-132689D01*
X-59890Y-132622D01*
X-59865Y-132553D01*
X-59843Y-132483D01*
X-59826Y-132411D01*
X-59812Y-132339D01*
X-59802Y-132267D01*
X-59796Y-132193D01*
X-59794Y-132120D01*
X-59794Y-129411D01*
X-59796Y-129340D01*
X-59801Y-129269D01*
X-59811Y-129199D01*
X-59824Y-129129D01*
X-59840Y-129060D01*
X-59860Y-128992D01*
X-59884Y-128925D01*
X-59911Y-128860D01*
X-59942Y-128796D01*
X-59976Y-128734D01*
X-60013Y-128673D01*
X-60053Y-128615D01*
X-60096Y-128558D01*
X-60142Y-128504D01*
X-60191Y-128453D01*
X-60242Y-128404D01*
X-60296Y-128358D01*
X-60353Y-128315D01*
X-60411Y-128275D01*
X-60472Y-128238D01*
X-60534Y-128204D01*
X-60598Y-128173D01*
X-60663Y-128146D01*
X-60730Y-128122D01*
X-60798Y-128102D01*
X-60867Y-128086D01*
X-60937Y-128073D01*
X-61007Y-128063D01*
X-61078Y-128058D01*
X-61149Y-128056D01*
X-63407Y-128056D01*
X18597Y-105106D02*
X18597Y-99687D01*
X18823Y-97429D02*
X18823Y-96978D01*
X18371Y-96978D01*
X18371Y-97429D01*
X18823Y-97429D01*
X14612Y-101493D02*
X14612Y-103300D01*
X14612Y-101493D02*
X14610Y-101410D01*
X14604Y-101326D01*
X14595Y-101243D01*
X14581Y-101161D01*
X14564Y-101080D01*
X14543Y-100999D01*
X14518Y-100919D01*
X14490Y-100841D01*
X14458Y-100764D01*
X14423Y-100688D01*
X14384Y-100614D01*
X14341Y-100542D01*
X14296Y-100472D01*
X14247Y-100405D01*
X14195Y-100339D01*
X14141Y-100276D01*
X14083Y-100216D01*
X14023Y-100158D01*
X13960Y-100104D01*
X13894Y-100052D01*
X13827Y-100003D01*
X13757Y-99958D01*
X13685Y-99915D01*
X13611Y-99876D01*
X13535Y-99841D01*
X13458Y-99809D01*
X13380Y-99781D01*
X13300Y-99756D01*
X13219Y-99735D01*
X13138Y-99718D01*
X13056Y-99704D01*
X12973Y-99695D01*
X12889Y-99689D01*
X12806Y-99687D01*
X12723Y-99689D01*
X12639Y-99695D01*
X12556Y-99704D01*
X12474Y-99718D01*
X12393Y-99735D01*
X12312Y-99756D01*
X12232Y-99781D01*
X12154Y-99809D01*
X12077Y-99841D01*
X12001Y-99876D01*
X11927Y-99915D01*
X11855Y-99958D01*
X11785Y-100003D01*
X11718Y-100052D01*
X11652Y-100104D01*
X11589Y-100158D01*
X11529Y-100216D01*
X11471Y-100276D01*
X11417Y-100339D01*
X11365Y-100405D01*
X11316Y-100472D01*
X11271Y-100542D01*
X11228Y-100614D01*
X11189Y-100688D01*
X11154Y-100764D01*
X11122Y-100841D01*
X11094Y-100919D01*
X11069Y-100999D01*
X11048Y-101080D01*
X11031Y-101161D01*
X11017Y-101243D01*
X11008Y-101326D01*
X11002Y-101410D01*
X11000Y-101493D01*
X11000Y-103300D01*
X11002Y-103383D01*
X11008Y-103467D01*
X11017Y-103550D01*
X11031Y-103632D01*
X11048Y-103713D01*
X11069Y-103794D01*
X11094Y-103874D01*
X11122Y-103952D01*
X11154Y-104029D01*
X11189Y-104105D01*
X11228Y-104179D01*
X11271Y-104251D01*
X11316Y-104321D01*
X11365Y-104388D01*
X11417Y-104454D01*
X11471Y-104517D01*
X11529Y-104577D01*
X11589Y-104635D01*
X11652Y-104689D01*
X11718Y-104741D01*
X11785Y-104790D01*
X11855Y-104835D01*
X11927Y-104878D01*
X12001Y-104917D01*
X12077Y-104952D01*
X12154Y-104984D01*
X12232Y-105012D01*
X12312Y-105037D01*
X12393Y-105058D01*
X12474Y-105075D01*
X12556Y-105089D01*
X12639Y-105098D01*
X12723Y-105104D01*
X12806Y-105106D01*
X12889Y-105104D01*
X12973Y-105098D01*
X13056Y-105089D01*
X13138Y-105075D01*
X13219Y-105058D01*
X13300Y-105037D01*
X13380Y-105012D01*
X13458Y-104984D01*
X13535Y-104952D01*
X13611Y-104917D01*
X13685Y-104878D01*
X13757Y-104835D01*
X13827Y-104790D01*
X13894Y-104741D01*
X13960Y-104689D01*
X14023Y-104635D01*
X14083Y-104577D01*
X14141Y-104517D01*
X14195Y-104454D01*
X14247Y-104388D01*
X14296Y-104321D01*
X14341Y-104251D01*
X14384Y-104179D01*
X14423Y-104105D01*
X14458Y-104029D01*
X14490Y-103952D01*
X14518Y-103874D01*
X14543Y-103794D01*
X14564Y-103713D01*
X14581Y-103632D01*
X14595Y-103550D01*
X14604Y-103467D01*
X14610Y-103383D01*
X14612Y-103300D01*
X6383Y-105106D02*
X6383Y-99687D01*
X4125Y-99687D01*
X4052Y-99689D01*
X3979Y-99695D01*
X3906Y-99705D01*
X3834Y-99719D01*
X3763Y-99736D01*
X3692Y-99758D01*
X3623Y-99783D01*
X3556Y-99812D01*
X3490Y-99845D01*
X3426Y-99881D01*
X3365Y-99920D01*
X3305Y-99963D01*
X3248Y-100009D01*
X3193Y-100058D01*
X3141Y-100110D01*
X3092Y-100165D01*
X3046Y-100222D01*
X3003Y-100282D01*
X2964Y-100343D01*
X2928Y-100407D01*
X2895Y-100473D01*
X2866Y-100540D01*
X2841Y-100609D01*
X2819Y-100679D01*
X2802Y-100751D01*
X2788Y-100823D01*
X2778Y-100895D01*
X2772Y-100969D01*
X2770Y-101042D01*
X2770Y-105106D01*
X-1520Y-105106D02*
X-1520Y-99687D01*
X-1294Y-97429D02*
X-1294Y-96978D01*
X-1745Y-96978D01*
X-1745Y-97429D01*
X-1294Y-97429D01*
X-5200Y-99687D02*
X-8812Y-99687D01*
X-5200Y-105106D01*
X-8812Y-105106D01*
X-14318Y-101945D02*
X-16350Y-101945D01*
X-14318Y-101945D02*
X-14239Y-101947D01*
X-14161Y-101953D01*
X-14083Y-101963D01*
X-14005Y-101976D01*
X-13928Y-101994D01*
X-13852Y-102015D01*
X-13778Y-102040D01*
X-13704Y-102069D01*
X-13632Y-102101D01*
X-13562Y-102137D01*
X-13494Y-102177D01*
X-13428Y-102220D01*
X-13364Y-102266D01*
X-13302Y-102315D01*
X-13243Y-102367D01*
X-13187Y-102422D01*
X-13133Y-102480D01*
X-13083Y-102540D01*
X-13035Y-102603D01*
X-12991Y-102668D01*
X-12950Y-102735D01*
X-12912Y-102804D01*
X-12878Y-102875D01*
X-12847Y-102948D01*
X-12820Y-103022D01*
X-12797Y-103097D01*
X-12778Y-103173D01*
X-12762Y-103251D01*
X-12750Y-103329D01*
X-12742Y-103407D01*
X-12738Y-103486D01*
X-12738Y-103564D01*
X-12742Y-103643D01*
X-12750Y-103721D01*
X-12762Y-103799D01*
X-12778Y-103877D01*
X-12797Y-103953D01*
X-12820Y-104028D01*
X-12847Y-104102D01*
X-12878Y-104175D01*
X-12912Y-104246D01*
X-12950Y-104315D01*
X-12991Y-104382D01*
X-13035Y-104447D01*
X-13083Y-104510D01*
X-13133Y-104570D01*
X-13187Y-104628D01*
X-13243Y-104683D01*
X-13302Y-104735D01*
X-13364Y-104784D01*
X-13428Y-104830D01*
X-13494Y-104873D01*
X-13562Y-104913D01*
X-13632Y-104949D01*
X-13704Y-104981D01*
X-13778Y-105010D01*
X-13852Y-105035D01*
X-13928Y-105056D01*
X-14005Y-105074D01*
X-14083Y-105087D01*
X-14161Y-105097D01*
X-14239Y-105103D01*
X-14318Y-105105D01*
X-14318Y-105106D02*
X-16350Y-105106D01*
X-16350Y-101042D01*
X-16348Y-100971D01*
X-16343Y-100900D01*
X-16333Y-100830D01*
X-16320Y-100760D01*
X-16304Y-100691D01*
X-16284Y-100623D01*
X-16260Y-100556D01*
X-16233Y-100491D01*
X-16202Y-100427D01*
X-16168Y-100364D01*
X-16131Y-100304D01*
X-16091Y-100246D01*
X-16048Y-100189D01*
X-16002Y-100135D01*
X-15953Y-100084D01*
X-15902Y-100035D01*
X-15848Y-99989D01*
X-15791Y-99946D01*
X-15733Y-99906D01*
X-15672Y-99869D01*
X-15610Y-99835D01*
X-15546Y-99804D01*
X-15481Y-99777D01*
X-15414Y-99753D01*
X-15346Y-99733D01*
X-15277Y-99717D01*
X-15207Y-99704D01*
X-15137Y-99694D01*
X-15066Y-99689D01*
X-14995Y-99687D01*
X-13189Y-99687D01*
X-21437Y-96978D02*
X-21437Y-105106D01*
X-23694Y-105106D01*
X-23767Y-105104D01*
X-23840Y-105098D01*
X-23913Y-105088D01*
X-23985Y-105074D01*
X-24056Y-105057D01*
X-24127Y-105035D01*
X-24196Y-105010D01*
X-24263Y-104981D01*
X-24329Y-104948D01*
X-24393Y-104912D01*
X-24454Y-104873D01*
X-24514Y-104830D01*
X-24571Y-104784D01*
X-24626Y-104735D01*
X-24678Y-104683D01*
X-24727Y-104628D01*
X-24773Y-104571D01*
X-24815Y-104511D01*
X-24855Y-104450D01*
X-24891Y-104386D01*
X-24924Y-104320D01*
X-24953Y-104253D01*
X-24978Y-104184D01*
X-25000Y-104114D01*
X-25017Y-104042D01*
X-25031Y-103970D01*
X-25041Y-103898D01*
X-25047Y-103824D01*
X-25049Y-103751D01*
X-25049Y-101042D01*
X-25047Y-100971D01*
X-25042Y-100900D01*
X-25032Y-100830D01*
X-25019Y-100760D01*
X-25003Y-100691D01*
X-24983Y-100623D01*
X-24959Y-100556D01*
X-24932Y-100491D01*
X-24901Y-100427D01*
X-24867Y-100364D01*
X-24830Y-100304D01*
X-24790Y-100246D01*
X-24747Y-100189D01*
X-24701Y-100135D01*
X-24652Y-100084D01*
X-24601Y-100035D01*
X-24547Y-99989D01*
X-24490Y-99946D01*
X-24432Y-99906D01*
X-24371Y-99869D01*
X-24309Y-99835D01*
X-24245Y-99804D01*
X-24180Y-99777D01*
X-24113Y-99753D01*
X-24045Y-99733D01*
X-23976Y-99717D01*
X-23906Y-99704D01*
X-23836Y-99694D01*
X-23765Y-99689D01*
X-23694Y-99687D01*
X-21437Y-99687D01*
X-29260Y-96978D02*
X-29260Y-103751D01*
X-29259Y-103751D02*
X-29261Y-103822D01*
X-29266Y-103893D01*
X-29276Y-103963D01*
X-29289Y-104033D01*
X-29305Y-104102D01*
X-29325Y-104170D01*
X-29349Y-104237D01*
X-29376Y-104302D01*
X-29407Y-104366D01*
X-29441Y-104429D01*
X-29478Y-104489D01*
X-29518Y-104547D01*
X-29561Y-104604D01*
X-29607Y-104658D01*
X-29656Y-104709D01*
X-29707Y-104758D01*
X-29761Y-104804D01*
X-29818Y-104847D01*
X-29876Y-104887D01*
X-29937Y-104924D01*
X-29999Y-104958D01*
X-30063Y-104989D01*
X-30128Y-105016D01*
X-30195Y-105040D01*
X-30263Y-105060D01*
X-30332Y-105076D01*
X-30402Y-105089D01*
X-30472Y-105099D01*
X-30543Y-105104D01*
X-30614Y-105106D01*
X-35510Y-105106D02*
X-37768Y-105106D01*
X-35510Y-105106D02*
X-35437Y-105104D01*
X-35364Y-105098D01*
X-35291Y-105088D01*
X-35219Y-105074D01*
X-35148Y-105057D01*
X-35077Y-105035D01*
X-35008Y-105010D01*
X-34941Y-104981D01*
X-34875Y-104948D01*
X-34811Y-104912D01*
X-34750Y-104873D01*
X-34690Y-104830D01*
X-34633Y-104784D01*
X-34578Y-104735D01*
X-34526Y-104683D01*
X-34477Y-104628D01*
X-34431Y-104571D01*
X-34388Y-104511D01*
X-34349Y-104450D01*
X-34313Y-104386D01*
X-34280Y-104320D01*
X-34251Y-104253D01*
X-34226Y-104184D01*
X-34204Y-104114D01*
X-34187Y-104042D01*
X-34173Y-103970D01*
X-34163Y-103898D01*
X-34157Y-103824D01*
X-34155Y-103751D01*
X-34156Y-103751D02*
X-34156Y-101493D01*
X-34158Y-101410D01*
X-34164Y-101326D01*
X-34173Y-101243D01*
X-34187Y-101161D01*
X-34204Y-101080D01*
X-34225Y-100999D01*
X-34250Y-100919D01*
X-34278Y-100841D01*
X-34310Y-100764D01*
X-34345Y-100688D01*
X-34384Y-100614D01*
X-34427Y-100542D01*
X-34472Y-100472D01*
X-34521Y-100405D01*
X-34573Y-100339D01*
X-34627Y-100276D01*
X-34685Y-100216D01*
X-34745Y-100158D01*
X-34808Y-100104D01*
X-34874Y-100052D01*
X-34941Y-100003D01*
X-35011Y-99958D01*
X-35083Y-99915D01*
X-35157Y-99876D01*
X-35233Y-99841D01*
X-35310Y-99809D01*
X-35388Y-99781D01*
X-35468Y-99756D01*
X-35549Y-99735D01*
X-35630Y-99718D01*
X-35712Y-99704D01*
X-35795Y-99695D01*
X-35879Y-99689D01*
X-35962Y-99687D01*
X-36045Y-99689D01*
X-36129Y-99695D01*
X-36212Y-99704D01*
X-36294Y-99718D01*
X-36375Y-99735D01*
X-36456Y-99756D01*
X-36536Y-99781D01*
X-36614Y-99809D01*
X-36691Y-99841D01*
X-36767Y-99876D01*
X-36841Y-99915D01*
X-36913Y-99958D01*
X-36983Y-100003D01*
X-37050Y-100052D01*
X-37116Y-100104D01*
X-37179Y-100158D01*
X-37239Y-100216D01*
X-37297Y-100276D01*
X-37351Y-100339D01*
X-37403Y-100405D01*
X-37452Y-100472D01*
X-37497Y-100542D01*
X-37540Y-100614D01*
X-37579Y-100688D01*
X-37614Y-100764D01*
X-37646Y-100841D01*
X-37674Y-100919D01*
X-37699Y-100999D01*
X-37720Y-101080D01*
X-37737Y-101161D01*
X-37751Y-101243D01*
X-37760Y-101326D01*
X-37766Y-101410D01*
X-37768Y-101493D01*
X-37768Y-102397D01*
X-34156Y-102397D01*
X-46938Y-103751D02*
X-46938Y-96978D01*
X-46938Y-103751D02*
X-46940Y-103822D01*
X-46945Y-103893D01*
X-46955Y-103963D01*
X-46968Y-104033D01*
X-46984Y-104102D01*
X-47004Y-104170D01*
X-47028Y-104237D01*
X-47055Y-104302D01*
X-47086Y-104366D01*
X-47120Y-104429D01*
X-47157Y-104489D01*
X-47197Y-104547D01*
X-47240Y-104604D01*
X-47286Y-104658D01*
X-47335Y-104709D01*
X-47386Y-104758D01*
X-47440Y-104804D01*
X-47497Y-104847D01*
X-47555Y-104887D01*
X-47616Y-104924D01*
X-47678Y-104958D01*
X-47742Y-104989D01*
X-47807Y-105016D01*
X-47874Y-105040D01*
X-47942Y-105060D01*
X-48011Y-105076D01*
X-48081Y-105089D01*
X-48151Y-105099D01*
X-48222Y-105104D01*
X-48293Y-105106D01*
X-51507Y-105106D02*
X-51507Y-99687D01*
X-51281Y-97429D02*
X-51281Y-96978D01*
X-51732Y-96978D01*
X-51732Y-97429D01*
X-51281Y-97429D01*
X-55879Y-99687D02*
X-55879Y-107815D01*
X-55879Y-99687D02*
X-58136Y-99687D01*
X-58209Y-99689D01*
X-58282Y-99695D01*
X-58355Y-99705D01*
X-58427Y-99719D01*
X-58498Y-99736D01*
X-58569Y-99758D01*
X-58638Y-99783D01*
X-58705Y-99812D01*
X-58771Y-99845D01*
X-58835Y-99881D01*
X-58896Y-99920D01*
X-58956Y-99963D01*
X-59013Y-100009D01*
X-59068Y-100058D01*
X-59120Y-100110D01*
X-59169Y-100165D01*
X-59215Y-100222D01*
X-59258Y-100282D01*
X-59297Y-100343D01*
X-59333Y-100407D01*
X-59366Y-100473D01*
X-59395Y-100540D01*
X-59420Y-100609D01*
X-59442Y-100679D01*
X-59459Y-100751D01*
X-59473Y-100823D01*
X-59483Y-100895D01*
X-59489Y-100969D01*
X-59491Y-101042D01*
X-59491Y-103751D01*
X-59492Y-103751D02*
X-59490Y-103822D01*
X-59485Y-103893D01*
X-59475Y-103963D01*
X-59462Y-104033D01*
X-59446Y-104102D01*
X-59426Y-104170D01*
X-59402Y-104237D01*
X-59375Y-104302D01*
X-59344Y-104366D01*
X-59310Y-104429D01*
X-59273Y-104489D01*
X-59233Y-104547D01*
X-59190Y-104604D01*
X-59144Y-104658D01*
X-59095Y-104709D01*
X-59044Y-104758D01*
X-58990Y-104804D01*
X-58933Y-104847D01*
X-58875Y-104887D01*
X-58814Y-104924D01*
X-58752Y-104958D01*
X-58688Y-104989D01*
X-58623Y-105016D01*
X-58556Y-105040D01*
X-58488Y-105060D01*
X-58419Y-105076D01*
X-58349Y-105089D01*
X-58279Y-105099D01*
X-58208Y-105104D01*
X-58137Y-105106D01*
X-58136Y-105106D02*
X-55879Y-105106D01*
X-63394Y-105106D02*
X-63394Y-99687D01*
X-63168Y-97429D02*
X-63168Y-96978D01*
X-63619Y-96978D01*
X-63619Y-97429D01*
X-63168Y-97429D01*
X-70909Y-96978D02*
X-70909Y-105106D01*
X-68651Y-105106D01*
X-68578Y-105104D01*
X-68505Y-105098D01*
X-68432Y-105088D01*
X-68360Y-105074D01*
X-68289Y-105057D01*
X-68218Y-105035D01*
X-68149Y-105010D01*
X-68082Y-104981D01*
X-68016Y-104948D01*
X-67952Y-104912D01*
X-67891Y-104873D01*
X-67831Y-104830D01*
X-67774Y-104784D01*
X-67719Y-104735D01*
X-67667Y-104683D01*
X-67618Y-104628D01*
X-67572Y-104571D01*
X-67529Y-104511D01*
X-67490Y-104450D01*
X-67454Y-104386D01*
X-67421Y-104320D01*
X-67392Y-104253D01*
X-67367Y-104184D01*
X-67345Y-104114D01*
X-67328Y-104042D01*
X-67314Y-103970D01*
X-67304Y-103898D01*
X-67298Y-103824D01*
X-67296Y-103751D01*
X-67296Y-101042D01*
X-67298Y-100971D01*
X-67303Y-100900D01*
X-67313Y-100830D01*
X-67326Y-100760D01*
X-67342Y-100691D01*
X-67362Y-100623D01*
X-67386Y-100556D01*
X-67413Y-100491D01*
X-67444Y-100427D01*
X-67478Y-100365D01*
X-67515Y-100304D01*
X-67555Y-100246D01*
X-67598Y-100189D01*
X-67644Y-100135D01*
X-67693Y-100084D01*
X-67744Y-100035D01*
X-67798Y-99989D01*
X-67855Y-99946D01*
X-67913Y-99906D01*
X-67974Y-99869D01*
X-68036Y-99835D01*
X-68100Y-99804D01*
X-68165Y-99777D01*
X-68232Y-99753D01*
X-68300Y-99733D01*
X-68369Y-99717D01*
X-68439Y-99704D01*
X-68509Y-99694D01*
X-68580Y-99689D01*
X-68651Y-99687D01*
X-70909Y-99687D01*
D121*
X79783Y-122915D03*
D122*
X90617Y-122915D03*
D73*
X79896Y-122689D03*
D16*
X90617Y-122689D03*
D53*
X80121Y-122464D03*
D26*
X90956Y-122464D03*
D123*
X80122Y-122238D03*
D105*
X91069Y-122238D03*
D124*
X80122Y-122012D03*
D125*
X91069Y-122012D03*
D49*
X80121Y-121786D03*
D126*
X91182Y-121786D03*
D76*
X80122Y-121561D03*
X91182Y-121561D03*
D77*
X80122Y-121335D03*
D127*
X91069Y-121335D03*
D75*
X77977Y-121109D03*
X82040Y-121109D03*
D82*
X89150Y-121109D03*
D26*
X92762Y-121109D03*
D23*
X77638Y-120884D03*
D20*
X82491Y-120884D03*
D80*
X88812Y-120884D03*
D23*
X93213Y-120884D03*
D19*
X77526Y-120658D03*
D15*
X82604Y-120658D03*
D23*
X88473Y-120658D03*
D18*
X93439Y-120658D03*
D20*
X77300Y-120432D03*
D15*
X82830Y-120432D03*
D12*
X85313Y-120432D03*
D75*
X88134Y-120432D03*
D18*
X93665Y-120432D03*
D21*
X77187Y-120206D03*
D128*
X85539Y-120206D03*
D24*
X93665Y-120206D03*
D129*
X74479Y-119981D03*
D20*
X77074Y-119981D03*
D130*
X85651Y-119981D03*
D121*
X93778Y-119981D03*
D125*
X75720Y-119755D03*
D29*
X85539Y-119755D03*
D121*
X93778Y-119755D03*
D131*
X75494Y-119529D03*
D29*
X85539Y-119529D03*
D121*
X93778Y-119529D03*
D111*
X75494Y-119304D03*
D29*
X85539Y-119304D03*
D14*
X94003Y-119304D03*
D132*
X75269Y-119078D03*
D29*
X85539Y-119078D03*
D14*
X94003Y-119078D03*
D133*
X75156Y-118852D03*
D72*
X85651Y-118852D03*
D17*
X93890Y-118852D03*
D69*
X75043Y-118626D03*
D134*
X83507Y-118626D03*
D59*
X87683Y-118626D03*
D15*
X93890Y-118626D03*
D58*
X75043Y-118401D03*
D59*
X83169Y-118401D03*
D75*
X88134Y-118401D03*
D15*
X93890Y-118401D03*
D80*
X72786Y-118175D03*
D87*
X76849Y-118175D03*
D82*
X82830Y-118175D03*
D23*
X88247Y-118175D03*
D20*
X93777Y-118175D03*
D75*
X72560Y-117949D03*
D59*
X77300Y-117949D03*
D56*
X82605Y-117949D03*
D23*
X88473Y-117949D03*
D19*
X93552Y-117949D03*
D22*
X72334Y-117724D03*
D135*
X77752Y-117724D03*
D136*
X82379Y-117724D03*
D137*
X88812Y-117724D03*
D138*
X93326Y-117724D03*
D20*
X72108Y-117498D03*
D81*
X80121Y-117498D03*
D59*
X89038Y-117498D03*
D56*
X92988Y-117498D03*
D18*
X71996Y-117272D03*
D81*
X80121Y-117272D03*
D48*
X90956Y-117272D03*
D18*
X71996Y-117046D03*
D130*
X80234Y-117046D03*
D69*
X90843Y-117046D03*
D121*
X71883Y-116821D03*
D27*
X80121Y-116821D03*
D63*
X90730Y-116821D03*
D121*
X71883Y-116595D03*
D27*
X80347Y-116595D03*
D49*
X90504Y-116595D03*
D139*
X71883Y-116369D03*
D140*
X80347Y-116369D03*
D141*
X90392Y-116369D03*
D121*
X71883Y-116143D03*
D27*
X80347Y-116143D03*
D111*
X90166Y-116143D03*
D121*
X71883Y-115918D03*
D61*
X79106Y-115918D03*
D20*
X82717Y-115918D03*
D50*
X89827Y-115918D03*
D121*
X72109Y-115692D03*
D20*
X77751Y-115692D03*
D18*
X83056Y-115692D03*
D23*
X88473Y-115692D03*
D112*
X91295Y-115692D03*
D121*
X72109Y-115466D03*
D18*
X77639Y-115466D03*
D19*
X83169Y-115466D03*
D75*
X88134Y-115466D03*
D17*
X72221Y-115241D03*
D142*
X77526Y-115241D03*
D143*
X83620Y-115241D03*
D144*
X87909Y-115241D03*
D20*
X72334Y-115015D03*
D23*
X77187Y-115015D03*
D58*
X85652Y-115015D03*
D23*
X72673Y-114789D03*
D75*
X77074Y-114789D03*
D69*
X85652Y-114789D03*
D59*
X73012Y-114563D03*
D56*
X76736Y-114563D03*
D76*
X85539Y-114563D03*
D69*
X74817Y-114338D03*
D49*
X85539Y-114338D03*
D63*
X74704Y-114112D03*
D123*
X85539Y-114112D03*
D103*
X74704Y-113886D03*
D145*
X85651Y-113886D03*
D125*
X74592Y-113661D03*
D59*
X85878Y-113661D03*
D146*
X74704Y-113435D03*
D15*
X85990Y-113435D03*
D26*
X74930Y-113209D03*
D20*
X75043Y-112983D03*
D147*
X75156Y-112758D03*
D148*
X-18575Y-154013D03*
D112*
X-18575Y-153787D03*
D149*
X-18688Y-153562D03*
D18*
X-18688Y-153336D03*
D20*
X-18800Y-153110D03*
D23*
X-18913Y-152884D03*
D124*
X-20268Y-152659D03*
D150*
X-20606Y-152433D03*
D49*
X-20719Y-152207D03*
X-20945Y-151981D03*
X-21170Y-151756D03*
D94*
X-21509Y-151530D03*
D32*
X-22864Y-151304D03*
D151*
X-23202Y-151079D03*
D32*
X-23541Y-150853D03*
D132*
X-24895Y-150627D03*
D49*
X-25233Y-150401D03*
X-25459Y-150176D03*
D152*
X-25798Y-149950D03*
D32*
X-27152Y-149724D03*
D122*
X-18123Y-149724D03*
D95*
X-27491Y-149499D03*
D75*
X-18123Y-149499D03*
D153*
X-34939Y-149273D03*
D46*
X-27942Y-149273D03*
D26*
X-18011Y-149273D03*
D74*
X-34826Y-149047D03*
D94*
X-29409Y-149047D03*
D53*
X-18010Y-149047D03*
D154*
X-31892Y-148821D03*
D146*
X-18010Y-148821D03*
D155*
X-32231Y-148596D03*
D156*
X-18123Y-148596D03*
D107*
X-32456Y-148370D03*
D157*
X-18236Y-148370D03*
D158*
X-32795Y-148144D03*
D81*
X-19590Y-148144D03*
D107*
X-33133Y-147919D03*
D159*
X-19929Y-147919D03*
D95*
X-34488Y-147693D03*
D132*
X-21058Y-147693D03*
D112*
X-16995Y-147693D03*
D84*
X-34601Y-147467D03*
D103*
X-21396Y-147467D03*
D95*
X-34714Y-147241D03*
D49*
X-21622Y-147241D03*
D45*
X-34826Y-147016D03*
D49*
X-21847Y-147016D03*
D34*
X-34713Y-146790D03*
D160*
X-26588Y-146790D03*
D94*
X-22186Y-146790D03*
D35*
X-34826Y-146564D03*
D32*
X-23541Y-146564D03*
D106*
X-34714Y-146339D03*
D32*
X-23992Y-146339D03*
D37*
X-34827Y-146113D03*
D161*
X-25346Y-146113D03*
D43*
X-34827Y-145887D03*
D49*
X-25685Y-145887D03*
D38*
X-34714Y-145661D03*
D49*
X-25910Y-145661D03*
D39*
X-34601Y-145436D03*
D49*
X-26136Y-145436D03*
D162*
X-31667Y-145210D03*
D163*
X-31780Y-144984D03*
D116*
X-32005Y-144758D03*
D164*
X-33247Y-144533D03*
D165*
X-33472Y-144307D03*
D70*
X-33472Y-144081D03*
D166*
X-33585Y-143856D03*
D167*
X-33698Y-143630D03*
D110*
X-33811Y-143404D03*
D107*
X-34036Y-143178D03*
D106*
X-34714Y-142953D03*
D34*
X-34713Y-142727D03*
D168*
X-34826Y-142501D03*
D32*
X-34827Y-142276D03*
D46*
X-34714Y-142050D03*
D55*
X-34827Y-141824D03*
D130*
X-34826Y-141598D03*
D48*
X-34714Y-141373D03*
D169*
X-34826Y-141147D03*
D111*
X-34826Y-140921D03*
D61*
X-34827Y-140696D03*
D59*
X-34827Y-140470D03*
D112*
X-34827Y-140244D03*
D170*
X-96566Y-112094D03*
D171*
X-96340Y-112095D03*
D172*
X-96114Y-112208D03*
D173*
X-95888Y-112207D03*
X-95663Y-112207D03*
D174*
X-95437Y-112207D03*
D173*
X-95211Y-112207D03*
D175*
X-94986Y-112094D03*
D176*
X-94760Y-111981D03*
D177*
X-94534Y-111869D03*
D178*
X-94308Y-111643D03*
D179*
X-94083Y-111305D03*
D180*
X-93857Y-111079D03*
D181*
X-93631Y-116158D03*
D182*
X-93631Y-110966D03*
D176*
X-93406Y-116044D03*
D183*
X-93406Y-110853D03*
D178*
X-93180Y-115932D03*
D183*
X-93180Y-110627D03*
D179*
X-92954Y-115819D03*
X-92954Y-110402D03*
D184*
X-92728Y-115706D03*
D185*
X-92728Y-110176D03*
D184*
X-92503Y-115706D03*
D176*
X-92503Y-109950D03*
D184*
X-92277Y-115480D03*
D176*
X-92277Y-109724D03*
D178*
X-92051Y-115255D03*
D175*
X-92051Y-109611D03*
D177*
X-91826Y-115029D03*
D186*
X-91826Y-109499D03*
D187*
X-91600Y-114803D03*
D188*
X-91600Y-109499D03*
D173*
X-91374Y-114690D03*
D175*
X-91374Y-109386D03*
X-91148Y-114577D03*
D189*
X-91148Y-109160D03*
D186*
X-90923Y-114465D03*
D178*
X-90923Y-108935D03*
D190*
X-90697Y-114352D03*
D191*
X-90697Y-108596D03*
D192*
X-90471Y-114239D03*
D193*
X-90471Y-108483D03*
D194*
X-90245Y-114013D03*
D183*
X-90245Y-108370D03*
D191*
X-90020Y-113788D03*
D183*
X-90020Y-108144D03*
D195*
X-89794Y-113449D03*
X-89794Y-108032D03*
D183*
X-89568Y-113336D03*
D195*
X-89568Y-107806D03*
D183*
X-89343Y-113110D03*
D194*
X-89343Y-107467D03*
D196*
X-89117Y-112997D03*
D197*
X-89117Y-107241D03*
D195*
X-88891Y-112772D03*
D190*
X-88891Y-107129D03*
D178*
X-88665Y-112546D03*
D175*
X-88665Y-106903D03*
D189*
X-88440Y-112320D03*
D175*
X-88440Y-106903D03*
X-88214Y-112094D03*
X-88214Y-106903D03*
D187*
X-87988Y-112094D03*
X-87988Y-106677D03*
D190*
X-87763Y-111869D03*
D176*
X-87763Y-106564D03*
D190*
X-87537Y-111869D03*
D185*
X-87537Y-106339D03*
D176*
X-87311Y-111756D03*
D184*
X-87311Y-106000D03*
D176*
X-87085Y-111530D03*
D183*
X-87085Y-105887D03*
D185*
X-86860Y-111305D03*
D183*
X-86860Y-105661D03*
D198*
X-86634Y-111079D03*
D199*
X-86634Y-105436D03*
D183*
X-86408Y-110853D03*
X-86408Y-105210D03*
X-86183Y-110627D03*
D184*
X-86183Y-105097D03*
D182*
X-85957Y-110514D03*
D178*
X-85957Y-104872D03*
D183*
X-85731Y-110401D03*
D178*
X-85731Y-104872D03*
D200*
X-85505Y-110176D03*
D201*
X-85505Y-104872D03*
D202*
X-85280Y-109950D03*
D191*
X-85280Y-104985D03*
D177*
X-85054Y-109612D03*
D184*
X-85054Y-105097D03*
D177*
X-84828Y-109386D03*
D182*
X-84828Y-105323D03*
D189*
X-84603Y-109160D03*
D203*
X-84603Y-105436D03*
D204*
X-84377Y-106903D03*
D205*
X-84151Y-106790D03*
D182*
X-83925Y-108257D03*
D181*
X-83925Y-104195D03*
D183*
X-83700Y-108370D03*
D181*
X-83700Y-104195D03*
D183*
X-83474Y-108370D03*
D172*
X-83474Y-104082D03*
D184*
X-83248Y-108257D03*
D172*
X-83248Y-104082D03*
D196*
X-83022Y-108257D03*
D206*
X-83022Y-104195D03*
D195*
X-82797Y-108032D03*
D181*
X-82797Y-104195D03*
D182*
X-82571Y-107806D03*
D186*
X-82571Y-104533D03*
D207*
X-82345Y-106564D03*
D208*
X-82120Y-106451D03*
D209*
X-81894Y-106339D03*
D210*
X-81668Y-105775D03*
D175*
X-81442Y-105774D03*
D211*
X-81217Y-105774D03*
D212*
X-86018Y-103027D02*
X-86016Y-102884D01*
X-86010Y-102741D01*
X-86000Y-102599D01*
X-85986Y-102457D01*
X-85968Y-102315D01*
X-85946Y-102174D01*
X-85921Y-102033D01*
X-85891Y-101894D01*
X-85857Y-101755D01*
X-85820Y-101617D01*
X-85779Y-101480D01*
X-85733Y-101345D01*
X-85685Y-101211D01*
X-85632Y-101078D01*
X-85576Y-100947D01*
X-85516Y-100817D01*
X-85452Y-100689D01*
X-85385Y-100563D01*
X-85315Y-100439D01*
X-85241Y-100316D01*
X-85163Y-100196D01*
X-85083Y-100079D01*
X-84999Y-99963D01*
X-84912Y-99850D01*
X-84821Y-99739D01*
X-84728Y-99631D01*
X-84632Y-99526D01*
X-84532Y-99423D01*
X-84430Y-99323D01*
X-84326Y-99226D01*
X-84218Y-99132D01*
X-84108Y-99041D01*
X-83996Y-98953D01*
X-83881Y-98868D01*
X-83763Y-98786D01*
X-83644Y-98708D01*
X-83522Y-98633D01*
X-83398Y-98562D01*
X-83273Y-98494D01*
X-83145Y-98430D01*
X-83016Y-98369D01*
X-82885Y-98312D01*
X-82753Y-98258D01*
X-82619Y-98208D01*
X-82484Y-98162D01*
X-82347Y-98120D01*
X-82210Y-98082D01*
X-82071Y-98047D01*
X-81932Y-98016D01*
X-81791Y-97990D01*
X-81650Y-97967D01*
X-81509Y-97948D01*
X-81367Y-97933D01*
X-81224Y-97922D01*
X-81082Y-97915D01*
X-80939Y-97912D01*
X-80796Y-97913D01*
X-80653Y-97918D01*
X-80511Y-97927D01*
X-80368Y-97940D01*
X-80227Y-97957D01*
X-80085Y-97978D01*
X-79945Y-98003D01*
X-79805Y-98031D01*
X-79666Y-98064D01*
X-79527Y-98100D01*
X-79390Y-98141D01*
X-79255Y-98185D01*
X-79120Y-98233D01*
X-78987Y-98284D01*
X-78855Y-98340D01*
X-78725Y-98399D01*
X-78597Y-98461D01*
X-78470Y-98528D01*
X-78345Y-98597D01*
X-78223Y-98670D01*
X-78102Y-98747D01*
X-77984Y-98827D01*
X-77868Y-98910D01*
X-77754Y-98996D01*
X-77643Y-99086D01*
X-77534Y-99178D01*
X-77428Y-99274D01*
X-77324Y-99372D01*
X-77224Y-99474D01*
X-77126Y-99578D01*
X-77031Y-99685D01*
X-76939Y-99794D01*
X-76850Y-99906D01*
X-76765Y-100020D01*
X-76683Y-100137D01*
X-76604Y-100256D01*
X-76528Y-100377D01*
X-76456Y-100500D01*
X-76387Y-100626D01*
X-76321Y-100753D01*
X-76260Y-100882D01*
X-76202Y-101012D01*
X-76147Y-101144D01*
X-76096Y-101278D01*
X-76049Y-101412D01*
X-76006Y-101549D01*
X-75967Y-101686D01*
X-75931Y-101824D01*
X-75900Y-101964D01*
X-75872Y-102104D01*
X-75848Y-102244D01*
X-75828Y-102386D01*
X-75812Y-102528D01*
X-75800Y-102670D01*
X-75792Y-102813D01*
X-75788Y-102956D01*
X-75788Y-103098D01*
X-75792Y-103241D01*
X-75800Y-103384D01*
X-75812Y-103526D01*
X-75828Y-103668D01*
X-75848Y-103810D01*
X-75872Y-103950D01*
X-75900Y-104090D01*
X-75931Y-104230D01*
X-75967Y-104368D01*
X-76006Y-104505D01*
X-76049Y-104642D01*
X-76096Y-104776D01*
X-76147Y-104910D01*
X-76202Y-105042D01*
X-76260Y-105172D01*
X-76321Y-105301D01*
X-76387Y-105428D01*
X-76456Y-105554D01*
X-76528Y-105677D01*
X-76604Y-105798D01*
X-76683Y-105917D01*
X-76765Y-106034D01*
X-76850Y-106148D01*
X-76939Y-106260D01*
X-77031Y-106369D01*
X-77126Y-106476D01*
X-77224Y-106580D01*
X-77324Y-106682D01*
X-77428Y-106780D01*
X-77534Y-106876D01*
X-77643Y-106968D01*
X-77754Y-107058D01*
X-77868Y-107144D01*
X-77984Y-107227D01*
X-78102Y-107307D01*
X-78223Y-107384D01*
X-78346Y-107457D01*
X-78470Y-107526D01*
X-78597Y-107593D01*
X-78725Y-107655D01*
X-78855Y-107714D01*
X-78987Y-107770D01*
X-79120Y-107821D01*
X-79255Y-107869D01*
X-79390Y-107913D01*
X-79527Y-107954D01*
X-79666Y-107990D01*
X-79805Y-108023D01*
X-79945Y-108051D01*
X-80085Y-108076D01*
X-80227Y-108097D01*
X-80368Y-108114D01*
X-80511Y-108127D01*
X-80653Y-108136D01*
X-80796Y-108141D01*
X-80939Y-108142D01*
X-81082Y-108139D01*
X-81224Y-108132D01*
X-81367Y-108121D01*
X-81509Y-108106D01*
X-81650Y-108087D01*
X-81791Y-108064D01*
X-81932Y-108038D01*
X-82071Y-108007D01*
X-82210Y-107972D01*
X-82347Y-107934D01*
X-82484Y-107892D01*
X-82619Y-107846D01*
X-82753Y-107796D01*
X-82885Y-107742D01*
X-83016Y-107685D01*
X-83145Y-107624D01*
X-83273Y-107560D01*
X-83398Y-107492D01*
X-83522Y-107421D01*
X-83644Y-107346D01*
X-83763Y-107268D01*
X-83881Y-107186D01*
X-83996Y-107101D01*
X-84108Y-107013D01*
X-84218Y-106922D01*
X-84326Y-106828D01*
X-84430Y-106731D01*
X-84532Y-106631D01*
X-84632Y-106528D01*
X-84728Y-106423D01*
X-84821Y-106315D01*
X-84912Y-106204D01*
X-84999Y-106091D01*
X-85083Y-105975D01*
X-85163Y-105858D01*
X-85241Y-105738D01*
X-85315Y-105615D01*
X-85385Y-105491D01*
X-85452Y-105365D01*
X-85516Y-105237D01*
X-85576Y-105107D01*
X-85632Y-104976D01*
X-85685Y-104843D01*
X-85733Y-104709D01*
X-85779Y-104574D01*
X-85820Y-104437D01*
X-85857Y-104299D01*
X-85891Y-104160D01*
X-85921Y-104021D01*
X-85946Y-103880D01*
X-85968Y-103739D01*
X-85986Y-103597D01*
X-86000Y-103455D01*
X-86010Y-103313D01*
X-86016Y-103170D01*
X-86018Y-103027D01*
D213*
X-68842Y-144723D03*
D112*
X-68841Y-144497D03*
D12*
X-68728Y-144272D03*
D15*
X-68729Y-144046D03*
X-68729Y-143820D03*
D21*
X-68729Y-143595D03*
D15*
X-68729Y-143369D03*
D20*
X-68842Y-143143D03*
D23*
X-68955Y-142917D03*
D80*
X-69067Y-142692D03*
D59*
X-69293Y-142466D03*
D214*
X-69631Y-142240D03*
D215*
X-69857Y-142014D03*
D121*
X-64778Y-141789D03*
D105*
X-69970Y-141789D03*
D23*
X-64892Y-141563D03*
D53*
X-70083Y-141563D03*
D59*
X-65004Y-141337D03*
D53*
X-70309Y-141337D03*
D214*
X-65117Y-141112D03*
X-70534Y-141112D03*
D74*
X-65230Y-140886D03*
D56*
X-70760Y-140886D03*
D74*
X-65230Y-140660D03*
D23*
X-70986Y-140660D03*
D74*
X-65456Y-140434D03*
D23*
X-71212Y-140434D03*
D59*
X-65681Y-140209D03*
D20*
X-71325Y-140209D03*
D80*
X-65907Y-139983D03*
D18*
X-71437Y-139983D03*
D16*
X-66133Y-139757D03*
D25*
X-71437Y-139757D03*
D15*
X-66246Y-139532D03*
D20*
X-71550Y-139532D03*
X-66359Y-139306D03*
D75*
X-71776Y-139306D03*
D18*
X-66471Y-139080D03*
D59*
X-72001Y-139080D03*
D19*
X-66584Y-138854D03*
D26*
X-72340Y-138854D03*
D216*
X-66697Y-138629D03*
D217*
X-72453Y-138629D03*
D82*
X-66923Y-138403D03*
D53*
X-72566Y-138403D03*
D26*
X-67148Y-138177D03*
D53*
X-72792Y-138177D03*
D87*
X-67487Y-137952D03*
X-72904Y-137952D03*
D53*
X-67600Y-137726D03*
D87*
X-73130Y-137726D03*
D53*
X-67826Y-137500D03*
D82*
X-73469Y-137500D03*
D218*
X-67939Y-137274D03*
D52*
X-73695Y-137274D03*
D87*
X-68164Y-137049D03*
D19*
X-73807Y-137049D03*
D59*
X-68390Y-136823D03*
D20*
X-74033Y-136823D03*
D75*
X-68616Y-136597D03*
D20*
X-74033Y-136597D03*
X-68842Y-136372D03*
X-74033Y-136372D03*
D16*
X-68842Y-136146D03*
X-74259Y-136146D03*
D19*
X-69067Y-135920D03*
D23*
X-74372Y-135920D03*
D19*
X-69067Y-135694D03*
D56*
X-74597Y-135694D03*
D23*
X-69180Y-135469D03*
D74*
X-74936Y-135469D03*
D23*
X-69406Y-135243D03*
D53*
X-75049Y-135243D03*
D56*
X-69631Y-135017D03*
D53*
X-75275Y-135017D03*
D136*
X-69857Y-134792D03*
D219*
X-75500Y-134792D03*
D53*
X-70083Y-134566D03*
X-75726Y-134566D03*
X-70309Y-134340D03*
D74*
X-75839Y-134340D03*
D105*
X-70422Y-134114D03*
D59*
X-76064Y-134114D03*
D53*
X-70535Y-133889D03*
D59*
X-76064Y-133889D03*
D220*
X-70760Y-133663D03*
D135*
X-76064Y-133663D03*
D134*
X-70986Y-133437D03*
D26*
X-75951Y-133437D03*
D80*
X-71324Y-133211D03*
D74*
X-75839Y-133211D03*
D80*
X-71550Y-132986D03*
D105*
X-75613Y-132986D03*
D75*
X-71776Y-132760D03*
D221*
X-75500Y-132760D03*
D58*
X-74033Y-132534D03*
D140*
X-74146Y-132309D03*
D105*
X-72679Y-132083D03*
D121*
X-76741Y-132083D03*
D53*
X-72566Y-131857D03*
D121*
X-76741Y-131857D03*
D53*
X-72566Y-131631D03*
D12*
X-76854Y-131631D03*
D74*
X-72679Y-131406D03*
D12*
X-76854Y-131406D03*
D218*
X-72679Y-131180D03*
D222*
X-76741Y-131180D03*
D87*
X-72904Y-130954D03*
D121*
X-76741Y-130954D03*
D105*
X-73130Y-130729D03*
D18*
X-76403Y-130729D03*
D63*
X-74372Y-130503D03*
D111*
X-74485Y-130277D03*
D123*
X-74597Y-130051D03*
D223*
X-75161Y-129826D03*
D20*
X-75162Y-129600D03*
D224*
X-75162Y-129374D03*
D212*
X-83024Y-129061D02*
X-83022Y-128918D01*
X-83016Y-128775D01*
X-83006Y-128633D01*
X-82992Y-128491D01*
X-82974Y-128349D01*
X-82952Y-128208D01*
X-82927Y-128067D01*
X-82897Y-127928D01*
X-82863Y-127789D01*
X-82826Y-127651D01*
X-82785Y-127514D01*
X-82739Y-127379D01*
X-82691Y-127245D01*
X-82638Y-127112D01*
X-82582Y-126981D01*
X-82522Y-126851D01*
X-82458Y-126723D01*
X-82391Y-126597D01*
X-82321Y-126473D01*
X-82247Y-126350D01*
X-82169Y-126230D01*
X-82089Y-126113D01*
X-82005Y-125997D01*
X-81918Y-125884D01*
X-81827Y-125773D01*
X-81734Y-125665D01*
X-81638Y-125560D01*
X-81538Y-125457D01*
X-81436Y-125357D01*
X-81332Y-125260D01*
X-81224Y-125166D01*
X-81114Y-125075D01*
X-81002Y-124987D01*
X-80887Y-124902D01*
X-80769Y-124820D01*
X-80650Y-124742D01*
X-80528Y-124667D01*
X-80404Y-124596D01*
X-80279Y-124528D01*
X-80151Y-124464D01*
X-80022Y-124403D01*
X-79891Y-124346D01*
X-79759Y-124292D01*
X-79625Y-124242D01*
X-79490Y-124196D01*
X-79353Y-124154D01*
X-79216Y-124116D01*
X-79077Y-124081D01*
X-78938Y-124050D01*
X-78797Y-124024D01*
X-78656Y-124001D01*
X-78515Y-123982D01*
X-78373Y-123967D01*
X-78230Y-123956D01*
X-78088Y-123949D01*
X-77945Y-123946D01*
X-77802Y-123947D01*
X-77659Y-123952D01*
X-77517Y-123961D01*
X-77374Y-123974D01*
X-77233Y-123991D01*
X-77091Y-124012D01*
X-76951Y-124037D01*
X-76811Y-124065D01*
X-76672Y-124098D01*
X-76533Y-124134D01*
X-76396Y-124175D01*
X-76261Y-124219D01*
X-76126Y-124267D01*
X-75993Y-124318D01*
X-75861Y-124374D01*
X-75731Y-124433D01*
X-75603Y-124495D01*
X-75476Y-124562D01*
X-75351Y-124631D01*
X-75229Y-124704D01*
X-75108Y-124781D01*
X-74990Y-124861D01*
X-74874Y-124944D01*
X-74760Y-125030D01*
X-74649Y-125120D01*
X-74540Y-125212D01*
X-74434Y-125308D01*
X-74330Y-125406D01*
X-74230Y-125508D01*
X-74132Y-125612D01*
X-74037Y-125719D01*
X-73945Y-125828D01*
X-73856Y-125940D01*
X-73771Y-126054D01*
X-73689Y-126171D01*
X-73610Y-126290D01*
X-73534Y-126411D01*
X-73462Y-126534D01*
X-73393Y-126660D01*
X-73327Y-126787D01*
X-73266Y-126916D01*
X-73208Y-127046D01*
X-73153Y-127178D01*
X-73102Y-127312D01*
X-73055Y-127446D01*
X-73012Y-127583D01*
X-72973Y-127720D01*
X-72937Y-127858D01*
X-72906Y-127998D01*
X-72878Y-128138D01*
X-72854Y-128278D01*
X-72834Y-128420D01*
X-72818Y-128562D01*
X-72806Y-128704D01*
X-72798Y-128847D01*
X-72794Y-128990D01*
X-72794Y-129132D01*
X-72798Y-129275D01*
X-72806Y-129418D01*
X-72818Y-129560D01*
X-72834Y-129702D01*
X-72854Y-129844D01*
X-72878Y-129984D01*
X-72906Y-130124D01*
X-72937Y-130264D01*
X-72973Y-130402D01*
X-73012Y-130539D01*
X-73055Y-130676D01*
X-73102Y-130810D01*
X-73153Y-130944D01*
X-73208Y-131076D01*
X-73266Y-131206D01*
X-73327Y-131335D01*
X-73393Y-131462D01*
X-73462Y-131588D01*
X-73534Y-131711D01*
X-73610Y-131832D01*
X-73689Y-131951D01*
X-73771Y-132068D01*
X-73856Y-132182D01*
X-73945Y-132294D01*
X-74037Y-132403D01*
X-74132Y-132510D01*
X-74230Y-132614D01*
X-74330Y-132716D01*
X-74434Y-132814D01*
X-74540Y-132910D01*
X-74649Y-133002D01*
X-74760Y-133092D01*
X-74874Y-133178D01*
X-74990Y-133261D01*
X-75108Y-133341D01*
X-75229Y-133418D01*
X-75352Y-133491D01*
X-75476Y-133560D01*
X-75603Y-133627D01*
X-75731Y-133689D01*
X-75861Y-133748D01*
X-75993Y-133804D01*
X-76126Y-133855D01*
X-76261Y-133903D01*
X-76396Y-133947D01*
X-76533Y-133988D01*
X-76672Y-134024D01*
X-76811Y-134057D01*
X-76951Y-134085D01*
X-77091Y-134110D01*
X-77233Y-134131D01*
X-77374Y-134148D01*
X-77517Y-134161D01*
X-77659Y-134170D01*
X-77802Y-134175D01*
X-77945Y-134176D01*
X-78088Y-134173D01*
X-78230Y-134166D01*
X-78373Y-134155D01*
X-78515Y-134140D01*
X-78656Y-134121D01*
X-78797Y-134098D01*
X-78938Y-134072D01*
X-79077Y-134041D01*
X-79216Y-134006D01*
X-79353Y-133968D01*
X-79490Y-133926D01*
X-79625Y-133880D01*
X-79759Y-133830D01*
X-79891Y-133776D01*
X-80022Y-133719D01*
X-80151Y-133658D01*
X-80279Y-133594D01*
X-80404Y-133526D01*
X-80528Y-133455D01*
X-80650Y-133380D01*
X-80769Y-133302D01*
X-80887Y-133220D01*
X-81002Y-133135D01*
X-81114Y-133047D01*
X-81224Y-132956D01*
X-81332Y-132862D01*
X-81436Y-132765D01*
X-81538Y-132665D01*
X-81638Y-132562D01*
X-81734Y-132457D01*
X-81827Y-132349D01*
X-81918Y-132238D01*
X-82005Y-132125D01*
X-82089Y-132009D01*
X-82169Y-131892D01*
X-82247Y-131772D01*
X-82321Y-131649D01*
X-82391Y-131525D01*
X-82458Y-131399D01*
X-82522Y-131271D01*
X-82582Y-131141D01*
X-82638Y-131010D01*
X-82691Y-130877D01*
X-82739Y-130743D01*
X-82785Y-130608D01*
X-82826Y-130471D01*
X-82863Y-130333D01*
X-82897Y-130194D01*
X-82927Y-130055D01*
X-82952Y-129914D01*
X-82974Y-129773D01*
X-82992Y-129631D01*
X-83006Y-129489D01*
X-83016Y-129347D01*
X-83022Y-129204D01*
X-83024Y-129061D01*
D120*
X-156880Y-32282D02*
X-154224Y-28519D01*
X-156880Y-32282D02*
X-159536Y-28519D01*
X-156880Y-32282D02*
X-156880Y-36487D01*
X-159797Y-15206D02*
X-161125Y-15206D01*
X-161125Y-19633D01*
X-158469Y-19633D01*
X-158387Y-19631D01*
X-158306Y-19625D01*
X-158224Y-19616D01*
X-158144Y-19603D01*
X-158064Y-19586D01*
X-157984Y-19565D01*
X-157906Y-19541D01*
X-157829Y-19513D01*
X-157754Y-19482D01*
X-157680Y-19447D01*
X-157607Y-19409D01*
X-157537Y-19368D01*
X-157468Y-19323D01*
X-157402Y-19275D01*
X-157338Y-19224D01*
X-157276Y-19171D01*
X-157217Y-19114D01*
X-157160Y-19055D01*
X-157107Y-18993D01*
X-157056Y-18929D01*
X-157008Y-18863D01*
X-156963Y-18794D01*
X-156922Y-18724D01*
X-156884Y-18651D01*
X-156849Y-18577D01*
X-156818Y-18502D01*
X-156790Y-18425D01*
X-156766Y-18347D01*
X-156745Y-18267D01*
X-156728Y-18187D01*
X-156715Y-18107D01*
X-156706Y-18025D01*
X-156700Y-17944D01*
X-156698Y-17862D01*
X-156698Y-13436D01*
X-156700Y-13354D01*
X-156706Y-13273D01*
X-156715Y-13191D01*
X-156728Y-13111D01*
X-156745Y-13031D01*
X-156766Y-12951D01*
X-156790Y-12873D01*
X-156818Y-12796D01*
X-156849Y-12721D01*
X-156884Y-12647D01*
X-156922Y-12574D01*
X-156963Y-12504D01*
X-157008Y-12435D01*
X-157056Y-12369D01*
X-157107Y-12305D01*
X-157160Y-12243D01*
X-157217Y-12184D01*
X-157276Y-12127D01*
X-157338Y-12074D01*
X-157402Y-12023D01*
X-157468Y-11975D01*
X-157537Y-11930D01*
X-157607Y-11889D01*
X-157680Y-11851D01*
X-157754Y-11816D01*
X-157829Y-11785D01*
X-157906Y-11757D01*
X-157984Y-11733D01*
X-158064Y-11712D01*
X-158144Y-11695D01*
X-158224Y-11682D01*
X-158306Y-11673D01*
X-158387Y-11667D01*
X-158469Y-11665D01*
X-161125Y-11665D01*
X-152661Y28923D02*
X-152661Y36891D01*
X-154874Y36891D01*
X-154874Y36890D02*
X-154967Y36888D01*
X-155059Y36882D01*
X-155151Y36873D01*
X-155243Y36859D01*
X-155334Y36842D01*
X-155424Y36820D01*
X-155514Y36796D01*
X-155602Y36767D01*
X-155689Y36735D01*
X-155774Y36699D01*
X-155858Y36659D01*
X-155940Y36616D01*
X-156020Y36570D01*
X-156099Y36520D01*
X-156175Y36467D01*
X-156249Y36411D01*
X-156320Y36352D01*
X-156389Y36290D01*
X-156455Y36225D01*
X-156519Y36158D01*
X-156579Y36088D01*
X-156637Y36015D01*
X-156691Y35940D01*
X-156742Y35863D01*
X-156791Y35784D01*
X-156835Y35702D01*
X-156876Y35619D01*
X-156914Y35535D01*
X-156948Y35448D01*
X-156979Y35361D01*
X-157005Y35272D01*
X-157029Y35182D01*
X-157048Y35092D01*
X-157063Y35000D01*
X-157075Y34908D01*
X-157083Y34816D01*
X-157087Y34723D01*
X-157087Y34631D01*
X-157083Y34538D01*
X-157075Y34446D01*
X-157063Y34354D01*
X-157048Y34262D01*
X-157029Y34172D01*
X-157005Y34082D01*
X-156979Y33993D01*
X-156948Y33906D01*
X-156914Y33819D01*
X-156876Y33735D01*
X-156835Y33652D01*
X-156791Y33570D01*
X-156742Y33491D01*
X-156691Y33414D01*
X-156637Y33339D01*
X-156579Y33266D01*
X-156519Y33196D01*
X-156455Y33129D01*
X-156389Y33064D01*
X-156320Y33002D01*
X-156249Y32943D01*
X-156175Y32887D01*
X-156099Y32834D01*
X-156020Y32784D01*
X-155940Y32738D01*
X-155858Y32695D01*
X-155774Y32655D01*
X-155689Y32619D01*
X-155602Y32587D01*
X-155514Y32558D01*
X-155424Y32534D01*
X-155334Y32512D01*
X-155243Y32495D01*
X-155151Y32481D01*
X-155059Y32472D01*
X-154967Y32466D01*
X-154874Y32464D01*
X-152661Y32464D01*
X-155317Y32464D02*
X-157088Y28923D01*
X-124244Y93923D02*
X-121588Y97685D01*
X-124244Y93923D02*
X-126900Y97685D01*
X-124244Y93923D02*
X-124244Y89717D01*
X155803Y-19808D02*
X158016Y-19808D01*
X155803Y-19808D02*
X155710Y-19810D01*
X155618Y-19816D01*
X155526Y-19825D01*
X155434Y-19839D01*
X155343Y-19856D01*
X155253Y-19878D01*
X155163Y-19902D01*
X155075Y-19931D01*
X154988Y-19963D01*
X154903Y-19999D01*
X154819Y-20039D01*
X154737Y-20082D01*
X154657Y-20128D01*
X154578Y-20178D01*
X154502Y-20231D01*
X154428Y-20287D01*
X154357Y-20346D01*
X154288Y-20408D01*
X154222Y-20473D01*
X154158Y-20540D01*
X154098Y-20610D01*
X154040Y-20683D01*
X153986Y-20758D01*
X153935Y-20835D01*
X153886Y-20915D01*
X153842Y-20996D01*
X153801Y-21079D01*
X153763Y-21163D01*
X153729Y-21250D01*
X153698Y-21337D01*
X153672Y-21426D01*
X153648Y-21516D01*
X153629Y-21606D01*
X153614Y-21698D01*
X153602Y-21790D01*
X153594Y-21882D01*
X153590Y-21975D01*
X153590Y-22067D01*
X153594Y-22160D01*
X153602Y-22252D01*
X153614Y-22344D01*
X153629Y-22436D01*
X153648Y-22526D01*
X153672Y-22616D01*
X153698Y-22705D01*
X153729Y-22792D01*
X153763Y-22879D01*
X153801Y-22963D01*
X153842Y-23046D01*
X153886Y-23128D01*
X153935Y-23207D01*
X153986Y-23284D01*
X154040Y-23359D01*
X154098Y-23432D01*
X154158Y-23502D01*
X154222Y-23569D01*
X154288Y-23634D01*
X154357Y-23696D01*
X154428Y-23755D01*
X154502Y-23811D01*
X154578Y-23864D01*
X154657Y-23914D01*
X154737Y-23960D01*
X154819Y-24003D01*
X154903Y-24043D01*
X154988Y-24079D01*
X155075Y-24111D01*
X155163Y-24140D01*
X155253Y-24164D01*
X155343Y-24186D01*
X155434Y-24203D01*
X155526Y-24217D01*
X155618Y-24226D01*
X155710Y-24232D01*
X155803Y-24234D01*
X155803Y-24235D02*
X158016Y-24235D01*
X158016Y-16267D01*
X155803Y-16267D01*
X155803Y-16266D02*
X155720Y-16268D01*
X155637Y-16274D01*
X155555Y-16283D01*
X155473Y-16297D01*
X155392Y-16314D01*
X155311Y-16336D01*
X155232Y-16361D01*
X155154Y-16389D01*
X155078Y-16421D01*
X155003Y-16457D01*
X154930Y-16496D01*
X154858Y-16539D01*
X154789Y-16585D01*
X154722Y-16634D01*
X154658Y-16686D01*
X154596Y-16741D01*
X154536Y-16799D01*
X154480Y-16860D01*
X154426Y-16924D01*
X154375Y-16989D01*
X154328Y-17057D01*
X154283Y-17128D01*
X154242Y-17200D01*
X154205Y-17274D01*
X154171Y-17350D01*
X154140Y-17427D01*
X154114Y-17506D01*
X154091Y-17585D01*
X154071Y-17666D01*
X154056Y-17748D01*
X154044Y-17830D01*
X154036Y-17913D01*
X154032Y-17995D01*
X154032Y-18079D01*
X154036Y-18161D01*
X154044Y-18244D01*
X154056Y-18326D01*
X154071Y-18408D01*
X154091Y-18489D01*
X154114Y-18568D01*
X154140Y-18647D01*
X154171Y-18724D01*
X154205Y-18800D01*
X154242Y-18874D01*
X154283Y-18946D01*
X154328Y-19017D01*
X154375Y-19085D01*
X154426Y-19150D01*
X154480Y-19214D01*
X154536Y-19275D01*
X154596Y-19333D01*
X154658Y-19388D01*
X154722Y-19440D01*
X154789Y-19489D01*
X154858Y-19535D01*
X154930Y-19578D01*
X155003Y-19617D01*
X155078Y-19653D01*
X155154Y-19685D01*
X155232Y-19713D01*
X155311Y-19738D01*
X155392Y-19760D01*
X155473Y-19777D01*
X155555Y-19791D01*
X155637Y-19800D01*
X155720Y-19806D01*
X155803Y-19808D01*
X156009Y15987D02*
X156009Y23955D01*
X153795Y23955D01*
X153702Y23953D01*
X153610Y23947D01*
X153518Y23938D01*
X153426Y23924D01*
X153335Y23907D01*
X153245Y23885D01*
X153155Y23861D01*
X153067Y23832D01*
X152980Y23800D01*
X152895Y23764D01*
X152811Y23724D01*
X152729Y23681D01*
X152649Y23635D01*
X152570Y23585D01*
X152494Y23532D01*
X152420Y23476D01*
X152349Y23417D01*
X152280Y23355D01*
X152214Y23290D01*
X152150Y23223D01*
X152090Y23153D01*
X152032Y23080D01*
X151978Y23005D01*
X151927Y22928D01*
X151878Y22848D01*
X151834Y22767D01*
X151793Y22684D01*
X151755Y22600D01*
X151721Y22513D01*
X151690Y22426D01*
X151664Y22337D01*
X151640Y22247D01*
X151621Y22157D01*
X151606Y22065D01*
X151594Y21973D01*
X151586Y21881D01*
X151582Y21788D01*
X151582Y21696D01*
X151586Y21603D01*
X151594Y21511D01*
X151606Y21419D01*
X151621Y21327D01*
X151640Y21237D01*
X151664Y21147D01*
X151690Y21058D01*
X151721Y20971D01*
X151755Y20884D01*
X151793Y20800D01*
X151834Y20717D01*
X151878Y20635D01*
X151927Y20556D01*
X151978Y20479D01*
X152032Y20404D01*
X152090Y20331D01*
X152150Y20261D01*
X152214Y20194D01*
X152280Y20129D01*
X152349Y20067D01*
X152420Y20008D01*
X152494Y19952D01*
X152570Y19899D01*
X152649Y19849D01*
X152729Y19803D01*
X152811Y19760D01*
X152895Y19720D01*
X152980Y19684D01*
X153067Y19652D01*
X153155Y19623D01*
X153245Y19599D01*
X153335Y19577D01*
X153426Y19560D01*
X153518Y19546D01*
X153610Y19537D01*
X153702Y19531D01*
X153795Y19529D01*
X153795Y19528D02*
X156009Y19528D01*
X153353Y19528D02*
X151582Y15987D01*
X139361Y57309D02*
X137147Y57309D01*
X137147Y57308D02*
X137054Y57306D01*
X136962Y57300D01*
X136870Y57291D01*
X136778Y57277D01*
X136687Y57260D01*
X136597Y57238D01*
X136507Y57214D01*
X136419Y57185D01*
X136332Y57153D01*
X136247Y57117D01*
X136163Y57077D01*
X136081Y57034D01*
X136001Y56988D01*
X135922Y56938D01*
X135846Y56885D01*
X135772Y56829D01*
X135701Y56770D01*
X135632Y56708D01*
X135566Y56643D01*
X135502Y56576D01*
X135442Y56506D01*
X135384Y56433D01*
X135330Y56358D01*
X135279Y56281D01*
X135230Y56202D01*
X135186Y56120D01*
X135145Y56037D01*
X135107Y55953D01*
X135073Y55866D01*
X135042Y55779D01*
X135016Y55690D01*
X134992Y55600D01*
X134973Y55510D01*
X134958Y55418D01*
X134946Y55326D01*
X134938Y55234D01*
X134934Y55141D01*
X134934Y55049D01*
X134938Y54956D01*
X134946Y54864D01*
X134958Y54772D01*
X134973Y54680D01*
X134992Y54590D01*
X135016Y54500D01*
X135042Y54411D01*
X135073Y54324D01*
X135107Y54237D01*
X135145Y54153D01*
X135186Y54070D01*
X135230Y53988D01*
X135279Y53909D01*
X135330Y53832D01*
X135384Y53757D01*
X135442Y53684D01*
X135502Y53614D01*
X135566Y53547D01*
X135632Y53482D01*
X135701Y53420D01*
X135772Y53361D01*
X135846Y53305D01*
X135922Y53252D01*
X136001Y53202D01*
X136081Y53156D01*
X136163Y53113D01*
X136247Y53073D01*
X136332Y53037D01*
X136419Y53005D01*
X136507Y52976D01*
X136597Y52952D01*
X136687Y52930D01*
X136778Y52913D01*
X136870Y52899D01*
X136962Y52890D01*
X137054Y52884D01*
X137147Y52882D01*
X139361Y52882D01*
X139361Y60850D01*
X137147Y60850D01*
X137064Y60848D01*
X136981Y60842D01*
X136899Y60833D01*
X136817Y60819D01*
X136736Y60802D01*
X136655Y60780D01*
X136576Y60755D01*
X136498Y60727D01*
X136422Y60695D01*
X136347Y60659D01*
X136274Y60620D01*
X136202Y60577D01*
X136133Y60531D01*
X136066Y60482D01*
X136002Y60430D01*
X135940Y60375D01*
X135880Y60317D01*
X135824Y60256D01*
X135770Y60192D01*
X135719Y60127D01*
X135672Y60059D01*
X135627Y59988D01*
X135586Y59916D01*
X135549Y59842D01*
X135515Y59766D01*
X135484Y59689D01*
X135458Y59610D01*
X135435Y59531D01*
X135415Y59450D01*
X135400Y59368D01*
X135388Y59286D01*
X135380Y59203D01*
X135376Y59121D01*
X135376Y59037D01*
X135380Y58955D01*
X135388Y58872D01*
X135400Y58790D01*
X135415Y58708D01*
X135435Y58627D01*
X135458Y58548D01*
X135484Y58469D01*
X135515Y58392D01*
X135549Y58316D01*
X135586Y58242D01*
X135627Y58170D01*
X135672Y58099D01*
X135719Y58031D01*
X135770Y57966D01*
X135824Y57902D01*
X135880Y57841D01*
X135940Y57783D01*
X136002Y57728D01*
X136066Y57676D01*
X136133Y57627D01*
X136202Y57581D01*
X136274Y57538D01*
X136347Y57499D01*
X136422Y57463D01*
X136498Y57431D01*
X136576Y57403D01*
X136655Y57378D01*
X136736Y57356D01*
X136817Y57339D01*
X136899Y57325D01*
X136981Y57316D01*
X137064Y57310D01*
X137147Y57308D01*
X115268Y99274D02*
X113940Y99274D01*
X113940Y94847D01*
X116596Y94847D01*
X116678Y94849D01*
X116759Y94855D01*
X116841Y94864D01*
X116921Y94877D01*
X117001Y94894D01*
X117081Y94915D01*
X117159Y94939D01*
X117236Y94967D01*
X117311Y94998D01*
X117385Y95033D01*
X117458Y95071D01*
X117528Y95112D01*
X117597Y95157D01*
X117663Y95205D01*
X117727Y95256D01*
X117789Y95309D01*
X117848Y95366D01*
X117905Y95425D01*
X117959Y95487D01*
X118009Y95551D01*
X118057Y95617D01*
X118102Y95686D01*
X118143Y95756D01*
X118181Y95829D01*
X118216Y95903D01*
X118247Y95978D01*
X118275Y96055D01*
X118299Y96133D01*
X118320Y96213D01*
X118337Y96293D01*
X118350Y96373D01*
X118359Y96455D01*
X118365Y96536D01*
X118367Y96618D01*
X118367Y101044D01*
X118365Y101126D01*
X118359Y101207D01*
X118350Y101289D01*
X118337Y101369D01*
X118320Y101449D01*
X118299Y101529D01*
X118275Y101607D01*
X118247Y101684D01*
X118216Y101759D01*
X118181Y101833D01*
X118143Y101906D01*
X118102Y101976D01*
X118057Y102045D01*
X118009Y102111D01*
X117959Y102175D01*
X117905Y102237D01*
X117848Y102296D01*
X117789Y102353D01*
X117727Y102406D01*
X117663Y102457D01*
X117597Y102505D01*
X117528Y102550D01*
X117458Y102591D01*
X117385Y102629D01*
X117311Y102664D01*
X117236Y102695D01*
X117159Y102723D01*
X117081Y102747D01*
X117002Y102768D01*
X116921Y102785D01*
X116841Y102798D01*
X116759Y102807D01*
X116678Y102813D01*
X116596Y102815D01*
X113940Y102815D01*
D225*
X-121641Y-53532D02*
X-124546Y-57647D01*
X-127450Y-53532D01*
X-124546Y-57647D02*
X-124546Y-62246D01*
X-132201Y-60309D02*
X-138010Y-60309D01*
X-138010Y-57405D02*
X-132201Y-57405D01*
X-146964Y-57405D02*
X-148416Y-57405D01*
X-148416Y-62246D01*
X-145511Y-62246D01*
X-145511Y-62245D02*
X-145424Y-62243D01*
X-145337Y-62237D01*
X-145251Y-62227D01*
X-145165Y-62214D01*
X-145080Y-62196D01*
X-144996Y-62175D01*
X-144913Y-62150D01*
X-144831Y-62122D01*
X-144750Y-62089D01*
X-144671Y-62053D01*
X-144594Y-62014D01*
X-144518Y-61971D01*
X-144444Y-61925D01*
X-144373Y-61875D01*
X-144304Y-61823D01*
X-144237Y-61767D01*
X-144173Y-61708D01*
X-144112Y-61647D01*
X-144053Y-61583D01*
X-143997Y-61516D01*
X-143945Y-61447D01*
X-143895Y-61376D01*
X-143849Y-61302D01*
X-143806Y-61226D01*
X-143767Y-61149D01*
X-143731Y-61070D01*
X-143698Y-60989D01*
X-143670Y-60907D01*
X-143645Y-60824D01*
X-143624Y-60740D01*
X-143606Y-60655D01*
X-143593Y-60569D01*
X-143583Y-60483D01*
X-143577Y-60396D01*
X-143575Y-60309D01*
X-143575Y-55468D01*
X-143577Y-55381D01*
X-143583Y-55294D01*
X-143593Y-55208D01*
X-143606Y-55122D01*
X-143624Y-55037D01*
X-143645Y-54953D01*
X-143670Y-54869D01*
X-143699Y-54787D01*
X-143731Y-54707D01*
X-143767Y-54628D01*
X-143806Y-54550D01*
X-143849Y-54475D01*
X-143895Y-54401D01*
X-143945Y-54329D01*
X-143998Y-54260D01*
X-144053Y-54194D01*
X-144112Y-54129D01*
X-144173Y-54068D01*
X-144238Y-54009D01*
X-144304Y-53954D01*
X-144373Y-53901D01*
X-144445Y-53851D01*
X-144518Y-53805D01*
X-144594Y-53762D01*
X-144672Y-53723D01*
X-144751Y-53687D01*
X-144831Y-53655D01*
X-144913Y-53626D01*
X-144997Y-53601D01*
X-145081Y-53580D01*
X-145166Y-53562D01*
X-145252Y-53549D01*
X-145338Y-53539D01*
X-145425Y-53533D01*
X-145512Y-53531D01*
X-145511Y-53532D02*
X-148416Y-53532D01*
X-101128Y-98321D02*
X-98707Y-98321D01*
X-101128Y-98321D02*
X-101225Y-98323D01*
X-101323Y-98329D01*
X-101420Y-98339D01*
X-101516Y-98352D01*
X-101612Y-98370D01*
X-101707Y-98391D01*
X-101802Y-98417D01*
X-101895Y-98446D01*
X-101986Y-98478D01*
X-102077Y-98515D01*
X-102166Y-98555D01*
X-102253Y-98598D01*
X-102339Y-98645D01*
X-102422Y-98696D01*
X-102503Y-98750D01*
X-102582Y-98807D01*
X-102659Y-98867D01*
X-102733Y-98930D01*
X-102805Y-98996D01*
X-102874Y-99065D01*
X-102940Y-99137D01*
X-103003Y-99211D01*
X-103063Y-99288D01*
X-103120Y-99367D01*
X-103174Y-99448D01*
X-103225Y-99532D01*
X-103272Y-99617D01*
X-103315Y-99704D01*
X-103355Y-99793D01*
X-103392Y-99884D01*
X-103424Y-99975D01*
X-103453Y-100068D01*
X-103479Y-100163D01*
X-103500Y-100258D01*
X-103518Y-100354D01*
X-103531Y-100450D01*
X-103541Y-100547D01*
X-103547Y-100645D01*
X-103549Y-100742D01*
X-103547Y-100839D01*
X-103541Y-100937D01*
X-103531Y-101034D01*
X-103518Y-101130D01*
X-103500Y-101226D01*
X-103479Y-101321D01*
X-103453Y-101416D01*
X-103424Y-101509D01*
X-103392Y-101600D01*
X-103355Y-101691D01*
X-103315Y-101780D01*
X-103272Y-101867D01*
X-103225Y-101952D01*
X-103174Y-102036D01*
X-103120Y-102117D01*
X-103063Y-102196D01*
X-103003Y-102273D01*
X-102940Y-102347D01*
X-102874Y-102419D01*
X-102805Y-102488D01*
X-102733Y-102554D01*
X-102659Y-102617D01*
X-102582Y-102677D01*
X-102503Y-102734D01*
X-102422Y-102788D01*
X-102339Y-102839D01*
X-102253Y-102886D01*
X-102166Y-102929D01*
X-102077Y-102969D01*
X-101986Y-103006D01*
X-101895Y-103038D01*
X-101802Y-103067D01*
X-101707Y-103093D01*
X-101612Y-103114D01*
X-101516Y-103132D01*
X-101420Y-103145D01*
X-101323Y-103155D01*
X-101225Y-103161D01*
X-101128Y-103163D01*
X-101128Y-103162D02*
X-98707Y-103162D01*
X-98707Y-94448D01*
X-101128Y-94448D01*
X-101128Y-94449D02*
X-101215Y-94451D01*
X-101302Y-94457D01*
X-101388Y-94467D01*
X-101474Y-94480D01*
X-101559Y-94498D01*
X-101643Y-94519D01*
X-101726Y-94544D01*
X-101808Y-94572D01*
X-101889Y-94605D01*
X-101968Y-94641D01*
X-102045Y-94680D01*
X-102121Y-94723D01*
X-102195Y-94769D01*
X-102266Y-94819D01*
X-102335Y-94871D01*
X-102402Y-94927D01*
X-102466Y-94986D01*
X-102527Y-95047D01*
X-102586Y-95111D01*
X-102642Y-95178D01*
X-102694Y-95247D01*
X-102744Y-95318D01*
X-102790Y-95392D01*
X-102833Y-95468D01*
X-102872Y-95545D01*
X-102908Y-95624D01*
X-102941Y-95705D01*
X-102969Y-95787D01*
X-102994Y-95870D01*
X-103015Y-95954D01*
X-103033Y-96039D01*
X-103046Y-96125D01*
X-103056Y-96211D01*
X-103062Y-96298D01*
X-103064Y-96385D01*
X-103062Y-96472D01*
X-103056Y-96559D01*
X-103046Y-96645D01*
X-103033Y-96731D01*
X-103015Y-96816D01*
X-102994Y-96900D01*
X-102969Y-96983D01*
X-102941Y-97065D01*
X-102908Y-97146D01*
X-102872Y-97225D01*
X-102833Y-97302D01*
X-102790Y-97378D01*
X-102744Y-97452D01*
X-102694Y-97523D01*
X-102642Y-97592D01*
X-102586Y-97659D01*
X-102527Y-97723D01*
X-102466Y-97784D01*
X-102402Y-97843D01*
X-102335Y-97899D01*
X-102266Y-97951D01*
X-102195Y-98001D01*
X-102121Y-98047D01*
X-102045Y-98090D01*
X-101968Y-98129D01*
X-101889Y-98165D01*
X-101808Y-98198D01*
X-101726Y-98226D01*
X-101643Y-98251D01*
X-101559Y-98272D01*
X-101474Y-98290D01*
X-101388Y-98303D01*
X-101302Y-98313D01*
X-101215Y-98319D01*
X-101128Y-98321D01*
X-108189Y-101226D02*
X-113999Y-101226D01*
X-113999Y-98321D02*
X-108189Y-98321D01*
X-121118Y-103162D02*
X-123055Y-103162D01*
X-121118Y-103162D02*
X-121031Y-103160D01*
X-120944Y-103154D01*
X-120858Y-103144D01*
X-120772Y-103131D01*
X-120687Y-103113D01*
X-120603Y-103092D01*
X-120520Y-103067D01*
X-120438Y-103039D01*
X-120357Y-103006D01*
X-120278Y-102970D01*
X-120201Y-102931D01*
X-120125Y-102888D01*
X-120051Y-102842D01*
X-119980Y-102792D01*
X-119911Y-102740D01*
X-119844Y-102684D01*
X-119780Y-102625D01*
X-119719Y-102564D01*
X-119660Y-102500D01*
X-119604Y-102433D01*
X-119552Y-102364D01*
X-119502Y-102293D01*
X-119456Y-102219D01*
X-119413Y-102143D01*
X-119374Y-102066D01*
X-119338Y-101987D01*
X-119305Y-101906D01*
X-119277Y-101824D01*
X-119252Y-101741D01*
X-119231Y-101657D01*
X-119213Y-101572D01*
X-119200Y-101486D01*
X-119190Y-101400D01*
X-119184Y-101313D01*
X-119182Y-101226D01*
X-119182Y-96385D01*
X-119181Y-96385D02*
X-119183Y-96298D01*
X-119189Y-96211D01*
X-119199Y-96125D01*
X-119212Y-96039D01*
X-119230Y-95954D01*
X-119251Y-95870D01*
X-119276Y-95786D01*
X-119305Y-95704D01*
X-119337Y-95624D01*
X-119373Y-95545D01*
X-119412Y-95467D01*
X-119455Y-95392D01*
X-119501Y-95318D01*
X-119551Y-95246D01*
X-119604Y-95177D01*
X-119659Y-95111D01*
X-119718Y-95046D01*
X-119779Y-94985D01*
X-119844Y-94926D01*
X-119910Y-94871D01*
X-119979Y-94818D01*
X-120051Y-94768D01*
X-120124Y-94722D01*
X-120200Y-94679D01*
X-120278Y-94640D01*
X-120357Y-94604D01*
X-120437Y-94572D01*
X-120519Y-94543D01*
X-120603Y-94518D01*
X-120687Y-94497D01*
X-120772Y-94479D01*
X-120858Y-94466D01*
X-120944Y-94456D01*
X-121031Y-94450D01*
X-121118Y-94448D01*
X-123055Y-94448D01*
X-120951Y-70714D02*
X-119498Y-70714D01*
X-120951Y-70714D02*
X-120951Y-75555D01*
X-118046Y-75555D01*
X-117959Y-75553D01*
X-117872Y-75547D01*
X-117786Y-75537D01*
X-117700Y-75524D01*
X-117615Y-75506D01*
X-117531Y-75485D01*
X-117448Y-75460D01*
X-117366Y-75432D01*
X-117285Y-75399D01*
X-117206Y-75363D01*
X-117129Y-75324D01*
X-117053Y-75281D01*
X-116979Y-75235D01*
X-116908Y-75185D01*
X-116839Y-75133D01*
X-116772Y-75077D01*
X-116708Y-75018D01*
X-116647Y-74957D01*
X-116588Y-74893D01*
X-116532Y-74826D01*
X-116480Y-74757D01*
X-116430Y-74686D01*
X-116384Y-74612D01*
X-116341Y-74536D01*
X-116302Y-74459D01*
X-116266Y-74380D01*
X-116233Y-74299D01*
X-116205Y-74217D01*
X-116180Y-74134D01*
X-116159Y-74050D01*
X-116141Y-73965D01*
X-116128Y-73879D01*
X-116118Y-73793D01*
X-116112Y-73706D01*
X-116110Y-73619D01*
X-116110Y-68778D01*
X-116109Y-68778D02*
X-116111Y-68691D01*
X-116117Y-68604D01*
X-116127Y-68518D01*
X-116140Y-68432D01*
X-116158Y-68347D01*
X-116179Y-68263D01*
X-116204Y-68179D01*
X-116233Y-68097D01*
X-116265Y-68017D01*
X-116301Y-67938D01*
X-116340Y-67860D01*
X-116383Y-67785D01*
X-116429Y-67711D01*
X-116479Y-67639D01*
X-116532Y-67570D01*
X-116587Y-67504D01*
X-116646Y-67439D01*
X-116707Y-67378D01*
X-116772Y-67319D01*
X-116838Y-67264D01*
X-116907Y-67211D01*
X-116979Y-67161D01*
X-117052Y-67115D01*
X-117128Y-67072D01*
X-117206Y-67033D01*
X-117285Y-66997D01*
X-117365Y-66965D01*
X-117447Y-66936D01*
X-117531Y-66911D01*
X-117615Y-66890D01*
X-117700Y-66872D01*
X-117786Y-66859D01*
X-117872Y-66849D01*
X-117959Y-66843D01*
X-118046Y-66841D01*
X-120951Y-66841D01*
X-126515Y-73619D02*
X-132325Y-73619D01*
X-132325Y-70714D02*
X-126515Y-70714D01*
X-137075Y-75555D02*
X-139980Y-66841D01*
X-142885Y-75555D01*
X-142159Y-73377D02*
X-137802Y-73377D01*
X-92478Y-80282D02*
X-92478Y-88996D01*
X-92478Y-80282D02*
X-94899Y-80282D01*
X-94996Y-80284D01*
X-95094Y-80290D01*
X-95191Y-80300D01*
X-95287Y-80313D01*
X-95383Y-80331D01*
X-95478Y-80352D01*
X-95573Y-80378D01*
X-95666Y-80407D01*
X-95757Y-80439D01*
X-95848Y-80476D01*
X-95937Y-80516D01*
X-96024Y-80559D01*
X-96110Y-80606D01*
X-96193Y-80657D01*
X-96274Y-80711D01*
X-96353Y-80768D01*
X-96430Y-80828D01*
X-96504Y-80891D01*
X-96576Y-80957D01*
X-96645Y-81026D01*
X-96711Y-81098D01*
X-96774Y-81172D01*
X-96834Y-81249D01*
X-96891Y-81328D01*
X-96945Y-81409D01*
X-96996Y-81493D01*
X-97043Y-81578D01*
X-97086Y-81665D01*
X-97126Y-81754D01*
X-97163Y-81845D01*
X-97195Y-81936D01*
X-97224Y-82029D01*
X-97250Y-82124D01*
X-97271Y-82219D01*
X-97289Y-82315D01*
X-97302Y-82411D01*
X-97312Y-82508D01*
X-97318Y-82606D01*
X-97320Y-82703D01*
X-97318Y-82800D01*
X-97312Y-82898D01*
X-97302Y-82995D01*
X-97289Y-83091D01*
X-97271Y-83187D01*
X-97250Y-83282D01*
X-97224Y-83377D01*
X-97195Y-83470D01*
X-97163Y-83561D01*
X-97126Y-83652D01*
X-97086Y-83741D01*
X-97043Y-83828D01*
X-96996Y-83913D01*
X-96945Y-83997D01*
X-96891Y-84078D01*
X-96834Y-84157D01*
X-96774Y-84234D01*
X-96711Y-84308D01*
X-96645Y-84380D01*
X-96576Y-84449D01*
X-96504Y-84515D01*
X-96430Y-84578D01*
X-96353Y-84638D01*
X-96274Y-84695D01*
X-96193Y-84749D01*
X-96110Y-84800D01*
X-96024Y-84847D01*
X-95937Y-84890D01*
X-95848Y-84930D01*
X-95757Y-84967D01*
X-95666Y-84999D01*
X-95573Y-85028D01*
X-95478Y-85054D01*
X-95383Y-85075D01*
X-95287Y-85093D01*
X-95191Y-85106D01*
X-95094Y-85116D01*
X-94996Y-85122D01*
X-94899Y-85124D01*
X-94899Y-85123D02*
X-92478Y-85123D01*
X-95383Y-85123D02*
X-97319Y-88996D01*
X-102440Y-87060D02*
X-108249Y-87060D01*
X-108249Y-84155D02*
X-102440Y-84155D01*
X-113814Y-86576D02*
X-113814Y-80282D01*
X-113813Y-86576D02*
X-113815Y-86673D01*
X-113821Y-86771D01*
X-113831Y-86868D01*
X-113844Y-86964D01*
X-113862Y-87060D01*
X-113883Y-87155D01*
X-113909Y-87250D01*
X-113938Y-87343D01*
X-113970Y-87434D01*
X-114007Y-87525D01*
X-114047Y-87614D01*
X-114090Y-87701D01*
X-114137Y-87787D01*
X-114188Y-87870D01*
X-114242Y-87951D01*
X-114299Y-88030D01*
X-114359Y-88107D01*
X-114422Y-88181D01*
X-114488Y-88253D01*
X-114557Y-88322D01*
X-114629Y-88388D01*
X-114703Y-88451D01*
X-114780Y-88511D01*
X-114859Y-88568D01*
X-114940Y-88622D01*
X-115024Y-88673D01*
X-115109Y-88720D01*
X-115196Y-88763D01*
X-115285Y-88803D01*
X-115376Y-88840D01*
X-115467Y-88872D01*
X-115560Y-88901D01*
X-115655Y-88927D01*
X-115750Y-88948D01*
X-115846Y-88966D01*
X-115942Y-88979D01*
X-116039Y-88989D01*
X-116137Y-88995D01*
X-116234Y-88997D01*
X-116331Y-88995D01*
X-116429Y-88989D01*
X-116526Y-88979D01*
X-116622Y-88966D01*
X-116718Y-88948D01*
X-116813Y-88927D01*
X-116908Y-88901D01*
X-117001Y-88872D01*
X-117092Y-88840D01*
X-117183Y-88803D01*
X-117272Y-88763D01*
X-117359Y-88720D01*
X-117445Y-88673D01*
X-117528Y-88622D01*
X-117609Y-88568D01*
X-117688Y-88511D01*
X-117765Y-88451D01*
X-117839Y-88388D01*
X-117911Y-88322D01*
X-117980Y-88253D01*
X-118046Y-88181D01*
X-118109Y-88107D01*
X-118169Y-88030D01*
X-118226Y-87951D01*
X-118280Y-87870D01*
X-118331Y-87787D01*
X-118378Y-87701D01*
X-118421Y-87614D01*
X-118461Y-87525D01*
X-118498Y-87434D01*
X-118530Y-87343D01*
X-118559Y-87250D01*
X-118585Y-87155D01*
X-118606Y-87060D01*
X-118624Y-86964D01*
X-118637Y-86868D01*
X-118647Y-86771D01*
X-118653Y-86673D01*
X-118655Y-86576D01*
X-118655Y-80282D01*
X-127411Y-79314D02*
X-123538Y-89964D01*
X-133724Y-88996D02*
X-133724Y-80282D01*
X-131304Y-80282D02*
X-136145Y-80282D01*
D226*
X-156291Y-9480D02*
X-156291Y12020D01*
X-135809Y12020D02*
X-135809Y-9480D01*
X103180Y76603D02*
X118383Y61400D01*
X132866Y75883D02*
X117663Y91086D01*
X134539Y9480D02*
X134539Y-12020D01*
X155021Y-12020D02*
X155021Y9480D01*
X-103237Y77970D02*
X-118440Y62767D01*
X-132923Y77250D02*
X-117720Y92453D01*
D227*
X-35375Y93616D02*
X-35373Y93679D01*
X-35367Y93741D01*
X-35357Y93803D01*
X-35344Y93865D01*
X-35326Y93925D01*
X-35305Y93984D01*
X-35280Y94042D01*
X-35251Y94098D01*
X-35219Y94152D01*
X-35184Y94204D01*
X-35146Y94253D01*
X-35104Y94301D01*
X-35060Y94345D01*
X-35012Y94387D01*
X-34963Y94425D01*
X-34911Y94460D01*
X-34857Y94492D01*
X-34801Y94521D01*
X-34743Y94546D01*
X-34684Y94567D01*
X-34624Y94585D01*
X-34562Y94598D01*
X-34500Y94608D01*
X-34438Y94614D01*
X-34375Y94616D01*
X-34312Y94614D01*
X-34250Y94608D01*
X-34188Y94598D01*
X-34126Y94585D01*
X-34066Y94567D01*
X-34007Y94546D01*
X-33949Y94521D01*
X-33893Y94492D01*
X-33839Y94460D01*
X-33787Y94425D01*
X-33738Y94387D01*
X-33690Y94345D01*
X-33646Y94301D01*
X-33604Y94253D01*
X-33566Y94204D01*
X-33531Y94152D01*
X-33499Y94098D01*
X-33470Y94042D01*
X-33445Y93984D01*
X-33424Y93925D01*
X-33406Y93865D01*
X-33393Y93803D01*
X-33383Y93741D01*
X-33377Y93679D01*
X-33375Y93616D01*
X-33377Y93553D01*
X-33383Y93491D01*
X-33393Y93429D01*
X-33406Y93367D01*
X-33424Y93307D01*
X-33445Y93248D01*
X-33470Y93190D01*
X-33499Y93134D01*
X-33531Y93080D01*
X-33566Y93028D01*
X-33604Y92979D01*
X-33646Y92931D01*
X-33690Y92887D01*
X-33738Y92845D01*
X-33787Y92807D01*
X-33839Y92772D01*
X-33893Y92740D01*
X-33949Y92711D01*
X-34007Y92686D01*
X-34066Y92665D01*
X-34126Y92647D01*
X-34188Y92634D01*
X-34250Y92624D01*
X-34312Y92618D01*
X-34375Y92616D01*
X-34438Y92618D01*
X-34500Y92624D01*
X-34562Y92634D01*
X-34624Y92647D01*
X-34684Y92665D01*
X-34743Y92686D01*
X-34801Y92711D01*
X-34857Y92740D01*
X-34911Y92772D01*
X-34963Y92807D01*
X-35012Y92845D01*
X-35060Y92887D01*
X-35104Y92931D01*
X-35146Y92979D01*
X-35184Y93028D01*
X-35219Y93080D01*
X-35251Y93134D01*
X-35280Y93190D01*
X-35305Y93248D01*
X-35326Y93307D01*
X-35344Y93367D01*
X-35357Y93429D01*
X-35367Y93491D01*
X-35373Y93553D01*
X-35375Y93616D01*
D226*
X-85821Y117722D02*
X-87321Y120321D01*
X-52680Y140321D02*
X-51180Y137722D01*
X-68821Y88278D02*
X-67321Y85679D01*
X-32680Y105679D02*
X-34180Y108278D01*
X-84722Y121821D02*
X-87321Y120321D01*
X-55278Y138821D02*
X-52680Y140321D01*
X-64722Y87179D02*
X-67321Y85679D01*
X-35278Y104179D02*
X-32680Y105679D01*
X63260Y138325D02*
X89240Y123325D01*
X76740Y101675D02*
X50760Y116675D01*
X62010Y136160D02*
X63010Y137892D01*
X52010Y118840D02*
X51010Y117108D01*
X76990Y102108D02*
X77990Y103840D01*
X-11241Y126346D02*
X-26639Y117456D01*
X-11241Y126346D02*
X-27751Y154942D01*
X-43149Y146052D01*
X-26639Y117456D01*
X-150241Y50750D02*
X-150241Y29250D01*
X-129759Y29250D02*
X-129759Y50750D01*
X-152119Y-21883D02*
X-152119Y-43383D01*
X-131637Y-43383D02*
X-131637Y-21883D01*
X128417Y24159D02*
X128417Y45659D01*
X148899Y45659D02*
X148899Y24159D01*
X131600Y-24030D02*
X131600Y-45530D01*
X152082Y-45530D02*
X152082Y-24030D01*
M02*
