M48
;GenerationSoftware,Autodesk,EAGLE,9.7.0*%
;CreationDate,2021-07-04T11:44:44Z*%
FMAT,2
ICI,OFF
METRIC,TZ,000.000
T4C0.350
T3C0.600
T2C2.000
%
G90
M71
T2
X0Y14000
T3
X-11644Y1838
X-12064Y-2085
X11307Y-2080
X11553Y1900
T4
X-4627Y14250
X1995Y5305
X2022Y8302
X9083Y2368
X-10812Y-4704
X-5094Y6818
X-6645Y6101
X-3237Y12067
X-976Y10112
X-3461Y4556
X-8285Y3628
X-9838Y7053
X4584Y3816
X13180Y3000
X10185Y9399
X-5600Y12733
X-7425Y7321
X-10035Y8999
X-8234Y8122
X-14931Y2209
X-10426Y-7996
X-2670Y-5193
X-13180Y1577
X-6268Y7415
X-7314Y-5902
X-1242Y6706
X-10008Y10987
X-1000Y9000
X-8683Y11915
X6000Y-5000
X-4507Y-4358
X-4435Y7746
X-8362Y9634
X4000Y7000
X-13312Y6570
M30