G04 EAGLE Gerber RS-274X export*
G75*
%MOMM*%
%FSLAX34Y34*%
%LPD*%
%INTop Solder Mask*%
%IPPOS*%
%AMOC8*
5,1,8,0,0,1.08239X$1,22.5*%
G01*
G04 Define Apertures*
%ADD10C,2.101600*%
%ADD11C,0.800000*%
%ADD12C,1.750000*%
%ADD13C,1.025944*%
%ADD14C,1.024519*%
%ADD15C,0.326897*%
D10*
X0Y140000D03*
D11*
X-66862Y8812D03*
X-52190Y17164D03*
D12*
X0Y0D02*
X1245Y-636D01*
X2505Y-1241D01*
X3780Y-1815D01*
X5068Y-2357D01*
X6370Y-2868D01*
X7683Y-3347D01*
X9008Y-3794D01*
X10343Y-4208D01*
X11688Y-4589D01*
X13042Y-4938D01*
X14403Y-5253D01*
X15773Y-5535D01*
X17148Y-5784D01*
X18530Y-5999D01*
X19916Y-6180D01*
X21306Y-6327D01*
X22700Y-6440D01*
X24095Y-6519D01*
X25493Y-6564D01*
X26891Y-6574D01*
X28288Y-6551D01*
X29685Y-6493D01*
X31080Y-6402D01*
X32472Y-6276D01*
X33861Y-6116D01*
X35246Y-5923D01*
X36625Y-5696D01*
X37998Y-5435D01*
X39365Y-5140D01*
X40724Y-4812D01*
X42075Y-4452D01*
X43416Y-4058D01*
X44747Y-3632D01*
X46068Y-3173D01*
X47377Y-2682D01*
X48674Y-2159D01*
X49957Y-1605D01*
X51227Y-1020D01*
X52481Y-403D01*
X53721Y243D01*
X54944Y920D01*
X56150Y1626D01*
X57339Y2362D01*
X58509Y3127D01*
X59661Y3920D01*
X60792Y4740D01*
X61904Y5589D01*
X62994Y6464D01*
X64062Y7365D01*
X65109Y8292D01*
X66132Y9245D01*
X67132Y10222D01*
X68107Y11224D01*
X69058Y12248D01*
X69983Y13296D01*
X70883Y14366D01*
X71756Y15458D01*
X72602Y16571D01*
X73421Y17704D01*
X74212Y18857D01*
X74974Y20029D01*
X75708Y21219D01*
X76412Y22426D01*
X77086Y23651D01*
X77731Y24891D01*
X78345Y26147D01*
X78928Y27418D01*
X79480Y28702D01*
X80000Y30000D01*
X0Y0D02*
X-1088Y673D01*
X-2192Y1318D01*
X-3312Y1937D01*
X-4446Y2528D01*
X-5595Y3090D01*
X-6757Y3625D01*
X-7932Y4131D01*
X-9119Y4607D01*
X-10317Y5055D01*
X-11525Y5473D01*
X-12744Y5862D01*
X-13972Y6220D01*
X-15208Y6548D01*
X-16452Y6846D01*
X-17703Y7113D01*
X-18960Y7350D01*
X-20222Y7555D01*
X-21489Y7730D01*
X-22760Y7873D01*
X-24035Y7986D01*
X-25311Y8067D01*
X-26589Y8117D01*
X-27868Y8135D01*
X-29147Y8122D01*
X-30425Y8078D01*
X-31702Y8002D01*
X-32977Y7895D01*
X-34248Y7757D01*
X-35516Y7588D01*
X-36779Y7387D01*
X-38037Y7156D01*
X-39289Y6894D01*
X-40534Y6602D01*
X-41772Y6279D01*
X-43001Y5925D01*
X-44222Y5542D01*
X-45432Y5129D01*
X-46632Y4687D01*
X-47821Y4215D01*
X-48998Y3714D01*
X-50162Y3184D01*
X-51313Y2626D01*
X-52450Y2040D01*
X-53572Y1427D01*
X-54679Y786D01*
X-55770Y118D01*
X-56844Y-577D01*
X-57901Y-1297D01*
X-58940Y-2044D01*
X-59960Y-2815D01*
X-60961Y-3611D01*
X-61942Y-4432D01*
X-62903Y-5276D01*
X-63842Y-6144D01*
X-64760Y-7035D01*
X-65657Y-7947D01*
X-66530Y-8882D01*
X-67380Y-9837D01*
X-68207Y-10813D01*
X-69009Y-11809D01*
X-69787Y-12825D01*
X-70540Y-13859D01*
X-71267Y-14911D01*
X-71968Y-15981D01*
X-72643Y-17068D01*
X-73290Y-18170D01*
X-73911Y-19289D01*
X-74504Y-20422D01*
X-75069Y-21570D01*
X-75606Y-22731D01*
X-76114Y-23904D01*
X-76593Y-25090D01*
X-77043Y-26288D01*
X-77463Y-27496D01*
X-77854Y-28714D01*
X-78215Y-29941D01*
X-78545Y-31176D01*
X-78846Y-32420D01*
X-79115Y-33670D01*
X-79354Y-34926D01*
X-79562Y-36188D01*
X-79739Y-37455D01*
X-79885Y-38726D01*
X-80000Y-40000D01*
D13*
X-1268Y132574D03*
D14*
X-2190Y-2836D03*
D11*
X-35664Y20959D03*
X-78676Y-2197D03*
X-88028Y-18704D03*
X-98513Y-34341D03*
X-124524Y-71158D03*
X-62050Y-78806D03*
X-15837Y-50397D03*
X-425Y-70101D03*
X-1502Y-134436D03*
X34463Y-90743D03*
X74482Y-114813D03*
X82449Y-57400D03*
X143211Y-1171D03*
X121737Y68673D03*
X59770Y76127D03*
X4112Y73818D03*
X1925Y48305D03*
X-49948Y59817D03*
X-37375Y87052D03*
X-77347Y112669D03*
X-85300Y54723D03*
X-145284Y-1339D03*
X14254Y-18168D03*
X28733Y-19416D03*
X43764Y-16999D03*
X61055Y-9762D03*
X73331Y-1317D03*
X85624Y13100D03*
X95960Y31613D03*
D15*
X-70382Y-39073D02*
X-72976Y-32964D01*
X-63360Y-28881D01*
X-60766Y-34990D01*
X-70382Y-39073D01*
X-71701Y-35967D02*
X-63067Y-35967D01*
X-61670Y-32861D02*
X-72733Y-32861D01*
X-65418Y-29755D02*
X-62989Y-29755D01*
X-66029Y-49330D02*
X-63435Y-55439D01*
X-66029Y-49330D02*
X-56413Y-45247D01*
X-53819Y-51356D01*
X-63435Y-55439D01*
X-64754Y-52333D02*
X-56120Y-52333D01*
X-54723Y-49227D02*
X-65786Y-49227D01*
X-58471Y-46121D02*
X-56042Y-46121D01*
X14249Y11057D02*
X11655Y17166D01*
X14249Y11057D02*
X4633Y6974D01*
X2039Y13083D01*
X11655Y17166D01*
X11948Y10080D02*
X3314Y10080D01*
X2282Y13186D02*
X13345Y13186D01*
X12026Y16292D02*
X9597Y16292D01*
X7302Y27424D02*
X4708Y33533D01*
X7302Y27424D02*
X-2314Y23341D01*
X-4908Y29450D01*
X4708Y33533D01*
X5001Y26447D02*
X-3633Y26447D01*
X-4665Y29553D02*
X6398Y29553D01*
X5079Y32659D02*
X2650Y32659D01*
X-42438Y-4960D02*
X-39844Y-11069D01*
X-42438Y-4960D02*
X-32822Y-877D01*
X-30228Y-6986D01*
X-39844Y-11069D01*
X-41163Y-7963D02*
X-32529Y-7963D01*
X-31132Y-4857D02*
X-42195Y-4857D01*
X-34880Y-1751D02*
X-32451Y-1751D01*
X-35490Y-21327D02*
X-32896Y-27436D01*
X-35490Y-21327D02*
X-25874Y-17244D01*
X-23280Y-23353D01*
X-32896Y-27436D01*
X-34215Y-24330D02*
X-25581Y-24330D01*
X-24184Y-21224D02*
X-35247Y-21224D01*
X-27932Y-18118D02*
X-25503Y-18118D01*
X52901Y18667D02*
X55495Y12558D01*
X45879Y8475D01*
X43285Y14584D01*
X52901Y18667D01*
X53194Y11581D02*
X44560Y11581D01*
X43528Y14687D02*
X54591Y14687D01*
X53272Y17793D02*
X50843Y17793D01*
X48548Y28925D02*
X45954Y35034D01*
X48548Y28925D02*
X38932Y24842D01*
X36338Y30951D01*
X45954Y35034D01*
X46247Y27948D02*
X37613Y27948D01*
X36581Y31054D02*
X47644Y31054D01*
X46325Y34160D02*
X43896Y34160D01*
X-19537Y-6750D02*
X-16943Y-12859D01*
X-19537Y-6750D02*
X-9921Y-2667D01*
X-7327Y-8776D01*
X-16943Y-12859D01*
X-18262Y-9753D02*
X-9628Y-9753D01*
X-8231Y-6647D02*
X-19294Y-6647D01*
X-11979Y-3541D02*
X-9550Y-3541D01*
X-12590Y-23117D02*
X-9996Y-29226D01*
X-12590Y-23117D02*
X-2974Y-19034D01*
X-380Y-25143D01*
X-9996Y-29226D01*
X-11315Y-26120D02*
X-2681Y-26120D01*
X-1284Y-23014D02*
X-12347Y-23014D01*
X-5032Y-19908D02*
X-2603Y-19908D01*
X69861Y26083D02*
X67267Y32192D01*
X69861Y26083D02*
X60245Y22000D01*
X57651Y28109D01*
X67267Y32192D01*
X67560Y25106D02*
X58926Y25106D01*
X57894Y28212D02*
X68957Y28212D01*
X67638Y31318D02*
X65209Y31318D01*
X62914Y42450D02*
X60320Y48559D01*
X62914Y42450D02*
X53298Y38367D01*
X50704Y44476D01*
X60320Y48559D01*
X60613Y41473D02*
X51979Y41473D01*
X50947Y44579D02*
X62010Y44579D01*
X60691Y47685D02*
X58262Y47685D01*
X-60374Y-14040D02*
X-57780Y-20149D01*
X-60374Y-14040D02*
X-50758Y-9957D01*
X-48164Y-16066D01*
X-57780Y-20149D01*
X-59099Y-17043D02*
X-50465Y-17043D01*
X-49068Y-13937D02*
X-60131Y-13937D01*
X-52816Y-10831D02*
X-50387Y-10831D01*
X-53427Y-30407D02*
X-50833Y-36516D01*
X-53427Y-30407D02*
X-43811Y-26324D01*
X-41217Y-32433D01*
X-50833Y-36516D01*
X-52152Y-33410D02*
X-43518Y-33410D01*
X-42121Y-30304D02*
X-53184Y-30304D01*
X-45869Y-27198D02*
X-43440Y-27198D01*
X37075Y6547D02*
X34481Y12656D01*
X37075Y6547D02*
X27459Y2464D01*
X24865Y8573D01*
X34481Y12656D01*
X34774Y5570D02*
X26140Y5570D01*
X25108Y8676D02*
X36171Y8676D01*
X34852Y11782D02*
X32423Y11782D01*
X30127Y22914D02*
X27533Y29023D01*
X30127Y22914D02*
X20511Y18831D01*
X17917Y24940D01*
X27533Y29023D01*
X27826Y21937D02*
X19192Y21937D01*
X18160Y25043D02*
X29223Y25043D01*
X27904Y28149D02*
X25475Y28149D01*
M02*
